<svg width="32" height="32" viewBox="0 0 32 32" fill="none" xmlns="http://www.w3.org/2000/svg">
<path d="M4.50479 12.7251C4.4456 12.7256 4.3869 12.7144 4.33204 12.6922C4.27718 12.67 4.22724 12.6372 4.18506 12.5956L4.1514 12.5607L4.14364 12.5503C4.0761 12.4796 4.03378 12.3886 4.02325 12.2914C3.9689 11.8569 3.94166 11.4194 3.9417 10.9815C3.93965 10.348 3.99685 9.71569 4.11257 9.09287C4.22736 8.51741 4.50607 7.98742 4.91513 7.56671C5.16726 7.30988 5.49044 7.13431 5.84313 7.06258C6.19582 6.99084 6.56191 7.02621 6.89434 7.16414C7.48969 7.42419 8.0231 7.80759 8.45933 8.28901C8.54343 8.37365 8.59064 8.48813 8.59064 8.60745C8.59064 8.72677 8.54343 8.84124 8.45933 8.92588L4.82581 12.5879C4.78385 12.6297 4.73394 12.6627 4.67903 12.6849C4.62412 12.7071 4.56532 12.7182 4.50608 12.7173L4.50479 12.7251ZM5.54035 8.21782C5.26585 8.50873 5.07918 8.87131 5.00186 9.26373C4.89709 9.83158 4.84509 10.4079 4.84652 10.9853C4.84652 11.085 4.84652 11.1847 4.84652 11.2857L7.49237 8.61521C6.42575 7.66509 5.90797 7.8735 5.53387 8.21394L5.54035 8.21782Z" fill="#EB306E"/>
<path d="M16.8331 24.0927C14.2198 24.0931 11.6681 23.2996 9.51593 21.8171C7.36379 20.3346 5.71285 18.2333 4.78185 15.7914C4.63496 15.3998 4.60421 14.974 4.6933 14.5653C4.78238 14.1566 4.98752 13.7823 5.2841 13.4873L14.8759 3.89547C15.2458 3.56346 15.7125 3.35908 16.2073 3.31247C16.7021 3.26586 17.1987 3.37948 17.6241 3.63658C19.9973 4.90644 22.1696 6.52039 24.0704 8.42603C26.0755 10.4298 27.6495 12.4518 28.6217 14.2705C28.783 14.5712 28.8742 14.9045 28.8883 15.2455C28.9024 15.5865 28.8392 15.9263 28.7032 16.2393C27.7162 18.5707 26.0637 20.5594 23.9525 21.9567C21.8412 23.354 19.3649 24.0979 16.8331 24.0953V24.0927ZM16.3814 4.21131C16.0606 4.20944 15.7504 4.32606 15.5102 4.53881L5.92226 14.1255C5.74911 14.2974 5.62909 14.5155 5.57653 14.7537C5.52397 14.992 5.54108 15.2403 5.62583 15.4691C6.47796 17.7042 7.97896 19.6333 9.93595 21.0087C11.8929 22.3842 14.2165 23.1429 16.6081 23.1876C18.9996 23.2323 21.3499 22.5608 23.3569 21.2594C25.3639 19.9581 26.9359 18.0863 27.8709 15.8846C27.9525 15.697 27.9906 15.4934 27.9826 15.289C27.9745 15.0846 27.9204 14.8847 27.8243 14.7041C26.8936 12.9618 25.3752 11.0149 23.4309 9.07196C21.5913 7.22741 19.4888 5.66534 17.1917 4.43655C16.945 4.29409 16.6662 4.2166 16.3814 4.21131" fill="#EB306E"/>
<path d="M17.8234 9.23637C17.6791 9.38857 17.4949 9.49708 17.2919 9.54951C17.0888 9.60193 16.8751 9.59614 16.6752 9.5328C16.6088 9.5068 16.5555 9.45554 16.5268 9.39027C16.4982 9.32499 16.4966 9.25103 16.5224 9.18459C16.5363 9.1491 16.5575 9.11692 16.5846 9.0901L17.6771 7.99759C17.7087 7.96559 17.7478 7.94201 17.7908 7.929C17.8338 7.91599 17.8794 7.91396 17.9235 7.9231C17.9675 7.93224 18.0085 7.95225 18.0428 7.98132C18.0771 8.01038 18.1036 8.04757 18.1198 8.08949C18.1832 8.28909 18.1891 8.5025 18.1369 8.70532C18.0847 8.90813 17.9765 9.09216 17.8247 9.23637" fill="#0A0E14"/>
<path d="M20.9935 12.3289C20.8495 12.4811 20.6656 12.5897 20.4628 12.6423C20.26 12.695 20.0464 12.6895 19.8466 12.6266C19.8047 12.6102 19.7675 12.5836 19.7385 12.5492C19.7094 12.5147 19.6894 12.4736 19.6803 12.4295C19.6712 12.3854 19.6732 12.3398 19.6862 12.2966C19.6992 12.2535 19.7227 12.2143 19.7547 12.1826L20.8459 11.0901C20.8966 11.0396 20.9653 11.0112 21.0368 11.0112C21.1084 11.0112 21.1771 11.0396 21.2278 11.0901C21.2546 11.1172 21.2757 11.1493 21.2899 11.1846C21.3533 11.3843 21.3591 11.5978 21.3067 11.8007C21.2542 12.0035 21.1457 12.1875 20.9935 12.3315" fill="#0A0E14"/>
<path d="M24.2076 15.4624C24.0636 15.6146 23.8797 15.7232 23.6769 15.7759C23.4741 15.8285 23.2606 15.8231 23.0608 15.7602C22.9941 15.7341 22.9404 15.6827 22.9115 15.6172C22.8827 15.5517 22.8809 15.4774 22.9067 15.4107C22.9204 15.3751 22.9416 15.3429 22.9689 15.3162L24.0614 14.2237C24.093 14.1917 24.132 14.1681 24.1751 14.1551C24.2181 14.1421 24.2637 14.14 24.3077 14.1492C24.3518 14.1583 24.3928 14.1783 24.4271 14.2074C24.4614 14.2365 24.4878 14.2736 24.5041 14.3156C24.5675 14.5153 24.5733 14.7288 24.5209 14.9316C24.4684 15.1345 24.3599 15.3185 24.2076 15.4624" fill="#0A0E14"/>
<path d="M16.6843 28.657C19.5822 28.659 22.433 27.9243 24.969 26.522C27.505 25.1198 29.643 23.0959 31.1821 20.6405C31.2183 20.5818 31.2408 20.5157 31.2477 20.4471C31.2547 20.3785 31.2459 20.3092 31.2222 20.2444L30.518 18.5616C30.4939 18.4968 30.4517 18.4403 30.3963 18.3988C30.341 18.3572 30.2749 18.3325 30.2059 18.3274C30.1369 18.3224 30.0679 18.3373 30.0072 18.3703C29.9464 18.4033 29.8964 18.4531 29.8631 18.5137C27.2107 23.3446 22.3423 26.151 16.6804 26.151C10.5163 26.151 5.38765 22.8307 2.98646 17.152C2.92303 17.0044 2.85701 16.8543 2.80523 16.7041C2.77051 16.6158 2.70244 16.5447 2.61572 16.5062C2.529 16.4677 2.43061 16.4648 2.34182 16.4983C2.29312 16.5155 2.24889 16.5433 2.21238 16.5798L0.972296 17.7617C0.922714 17.8116 0.888825 17.875 0.874796 17.944C0.860767 18.013 0.867211 18.0846 0.893334 18.15L0.914045 18.1992C2.22095 21.2998 4.41421 23.9455 7.21877 25.8045C10.0233 27.6636 13.3144 28.6532 16.6791 28.6493L16.6843 28.657Z" fill="#20CA78"/>
</svg>
