<svg width="801" height="801" viewBox="0 0 801 801" fill="none" xmlns="http://www.w3.org/2000/svg">
<path d="M0.03 583.35C3.95 578.97 8.06 574.73 11.77 570.17C21.49 558.2 30.42 545.61 37.37 531.86C42.88 520.98 47.45 509.59 51.92 498.22C55.92 488.06 59.3 477.66 62.78 467.3C67.31 453.79 71.59 440.21 76.12 426.7C79.1 417.81 82.18 408.94 85.45 400.15C88.83 391.06 92.25 381.98 96.1 373.08C103.56 355.83 112.13 339.2 124.95 325.16C130.67 318.9 137.6 314.26 144.84 309.95C157.39 302.47 164.98 291.42 168.19 277.11C170.12 268.53 171.66 259.73 176.91 252.26C183.16 243.37 191.95 238.01 201.77 233.94C211.34 229.97 220.88 225.91 230.32 221.63C237.41 218.41 239.16 214.76 238.89 206.86C238.5 195.66 238.31 184.45 238.16 173.24C238.08 167 240.59 162.22 246.38 159.3C250.7 157.12 254.84 154.61 259.1 152.32C270.67 146.1 279.49 136.73 288.18 127.17C294.45 120.27 301 113.73 309.72 109.72C315.82 106.92 321.84 107.07 328.18 108.38C334.9 109.77 341.66 111.44 348.47 111.79C369.08 112.85 389.74 113.07 410.35 114.14C420.39 114.66 430.38 116.36 440.39 117.5C448.2 118.39 455.99 119.49 463.82 120.07C472.3 120.7 479.81 117.69 486.91 113.19C491.17 110.49 495.68 108.1 500.29 106.04C509.26 102.04 518.46 103.34 527.67 105.38C543.26 108.82 558.87 112.24 575.03 111.09C596.08 109.6 613.19 100.74 626.38 84.13C632.78 76.06 632.88 67.65 629.37 58.55C627.57 53.89 625.92 49.08 627.92 44.04C628.68 42.12 629.5 40.02 630.9 38.61C637.2 32.3 639.63 24.15 641.8 15.96C643.18 10.76 643.75 5.34 644.68 0.02C646.24 0.02 647.79 0.02 649.35 0.02C647.6 7.44 646.02 14.91 644.04 22.28C642.23 29.01 639.53 35.3 634.46 40.47C629.89 45.13 630.71 50.7 632.79 56.31C635.82 64.48 638.1 73.04 632.97 80.92C629.01 87.02 624.18 92.8 618.78 97.67C605.23 109.88 588.77 114.93 570.7 115.26C557.96 115.49 545.57 113.26 533.16 110.64C524.98 108.91 516.71 105.86 508.26 108.07C502.69 109.53 496.82 111.4 492.23 114.69C478.89 124.26 464.36 125.93 448.91 122.89C429.33 119.04 409.6 118.04 389.68 117.74C370.97 117.46 352.28 115.31 333.59 113.84C330.87 113.63 328.18 112.7 325.52 111.97C317.34 109.72 310.27 112.31 304.33 117.6C297.4 123.77 290.73 130.29 284.45 137.12C274.51 147.92 262.57 155.8 249.52 162.12C244.69 164.46 242.05 167.9 242.14 173.25C242.32 184.13 242.34 195.02 242.87 205.88C243.38 216.27 240.41 221.72 230.78 225.92C219.96 230.64 209.05 235.14 198.28 239.96C184.85 245.97 176.77 256.2 173.8 270.78C171.69 281.16 169.04 291.45 162.15 300.05C157.03 306.44 150.8 311.5 143.73 315.39C132.95 321.31 125.02 330.09 118.28 340C107.88 355.28 100.21 371.98 93.84 389.28C89.34 401.49 84.79 413.67 80.58 425.98C76.15 438.92 72.24 452.04 67.84 464.99C63.59 477.52 59.27 490.04 54.52 502.39C50.81 512.04 46.65 521.55 42.23 530.9C36.04 543.99 27.92 555.94 19.03 567.33C12.98 575.1 6.39 582.47 0.03 590.02C0.03 587.8 0.03 585.58 0.03 583.35Z" fill="white" fill-opacity="0.12"/>
<path d="M760.7 0.02C763.67 11.02 767.01 21.94 769.53 33.04C774.15 53.42 776.05 73.96 772.3 94.79C767.92 119.07 756.58 139.7 740.47 158.07C728.42 171.81 714.15 182.7 698.31 191.57C682.32 200.52 665.31 206.98 647.44 211.06C637.03 213.44 626.48 214.47 615.82 215.13C602.22 215.97 588.63 217.41 575.11 219.11C562.14 220.75 549.26 223.05 536.34 225.07C517.84 227.96 499.37 231.08 480.82 233.68C467.46 235.55 454.18 234.94 440.76 232.56C416.23 228.2 391.78 222.44 366.57 224.08C358.8 224.59 351.21 226 345.38 232.06C342.77 234.77 341.58 238.04 341.15 241.57C340 250.93 339.23 260.34 337.97 269.68C336.77 278.57 335.08 287.41 330.09 295.14C325.34 302.5 318.59 307.13 309.85 308.01C300.15 308.99 290.38 309.3 280.65 309.99C276.45 310.29 272.47 311.64 269.72 314.89C255.33 331.83 237.7 345.29 221.47 360.26C208.99 371.77 196.63 383.53 185.38 396.22C178.47 404.01 173.35 413.52 168.2 422.68C163.95 430.24 160.52 438.3 157.33 446.38C155.4 451.25 153.88 456.49 155.7 461.94C156.57 464.55 158.31 465.83 161.02 466.14C166.74 466.8 172.12 465.36 177.1 462.94C188.89 457.22 200.48 451.07 212.21 445.2C226.41 438.09 240.57 430.89 254.92 424.1C270.66 416.66 286.6 409.65 302.45 402.44C312.99 397.64 323.58 392.96 334.03 387.97C344.14 383.14 353.89 377.53 364.14 373.04C381.08 365.61 398.82 361.56 417.48 363.09C433.15 364.37 447.19 370.17 460.3 378.67C479.55 391.15 495.85 406.64 508.91 425.51C519.07 440.19 527.27 456 529.57 473.73C531.3 487.06 530.5 500.74 530.43 514.26C530.38 523.35 529.38 532.37 526.5 541.13C523.17 551.23 517.82 560.12 511.14 568.27C502.75 578.5 494.76 589.02 489.01 601C487.4 604.35 486.17 607.96 485.32 611.58C483.93 617.49 486.9 621.47 492.93 621.03C498.49 620.63 504.2 619.6 509.43 617.73C522.95 612.89 535.98 606.92 547.72 598.45C563.61 586.99 575.7 572.41 584.44 554.87C591.79 540.12 596.29 524.44 600.09 508.54C602.84 497.07 608.17 486.85 614.54 477.12C626.22 459.29 639.99 443.32 657.52 430.98C663.7 426.63 670.28 422.68 677.1 419.47C688.21 414.23 697.31 406.68 703.93 396.61C712.4 383.74 720.18 370.4 727.93 357.08C734.88 345.14 742.91 334.28 756.15 328.94C765.54 325.16 775.25 322.16 784.93 319.14C789.24 317.8 793.81 317.25 798.27 316.41C798.77 316.32 799.37 316.72 799.92 316.9C799.48 317.36 799.11 318.11 798.6 318.23C792.88 319.55 787.09 320.59 781.41 322.04C767.55 325.58 754 330 743.16 339.91C735.57 346.84 730.91 355.94 725.92 364.75C717.61 379.4 709.92 394.48 698.16 406.85C692.57 412.73 686.15 417.43 678.71 420.78C663.93 427.42 651.32 437.14 639.99 448.58C626.47 462.23 615.12 477.54 606.92 494.9C603.7 501.7 602.11 509.32 600.14 516.66C597.05 528.19 593.64 539.56 588.71 550.49C583.45 562.15 576.84 572.85 568.38 582.46C559.28 592.8 548.82 601.56 536.56 607.69C526.14 612.91 515.17 617.1 504.26 621.24C500.54 622.65 496.23 622.96 492.18 622.99C485.35 623.04 481.76 618.95 483.28 612.22C484.52 606.71 486.68 601.27 489.26 596.22C495.55 583.92 504.57 573.48 512.95 562.6C522.38 550.36 527.49 536.45 528.1 520.97C528.5 510.65 528.89 500.33 529.05 490.01C529.34 471.72 523.69 455.02 515.01 439.18C504.58 420.18 490.62 404.11 473.75 390.66C462.1 381.37 449.68 373.13 435.25 368.64C423.45 364.97 411.37 363.98 399.06 365.47C380.22 367.75 362.95 374.57 346.51 383.66C325.49 395.28 303.16 404.04 281.44 414.13C260.99 423.63 240.68 433.44 220.44 443.39C208.78 449.12 197.54 455.7 185.85 461.35C178.54 464.88 171.05 468.41 162.54 468.18C156.27 468.01 152.7 465.05 153.18 458.77C153.61 453.12 154.76 447.32 156.77 442.03C162.51 426.94 170.64 413.05 179.88 399.84C187.13 389.47 196.07 380.58 205.44 372.15C220.52 358.59 235.87 345.35 250.86 331.69C256.47 326.58 261.47 320.79 266.56 315.13C270.39 310.87 275.02 308.42 280.65 308.01C290.16 307.31 299.71 307.06 309.19 306.07C321.12 304.82 328.27 297.43 332.11 286.52C336.13 275.11 336.81 263.12 338.17 251.23C338.78 245.87 339.12 240.24 341.07 235.32C344.29 227.2 352.01 224.53 359.9 223.08C372.38 220.8 384.93 221.57 397.37 223.43C416.76 226.34 436.03 230.33 455.5 232.44C465.49 233.52 475.87 231.98 485.98 230.8C498.74 229.32 511.41 227.03 524.11 225.03C542.62 222.12 561.07 218.82 579.64 216.36C592.6 214.65 605.7 213.87 618.75 213.05C631.53 212.25 644.04 210.17 656.35 206.69C672.02 202.27 686.93 196.02 700.95 187.82C715.61 179.25 728.7 168.67 739.95 155.87C748.88 145.71 756.27 134.51 761.85 122.23C769.42 105.55 772.73 87.97 772.29 69.59C771.96 55.97 769.91 42.67 766.56 29.52C764.04 19.66 761.37 9.84 758.77 0C759.44 0 760.1 0 760.77 0L760.7 0.02Z" fill="white" fill-opacity="0.12"/>
<path d="M787.36 0.02C788.85 5.56 790.45 11.07 791.82 16.64C793.75 24.48 795.79 32.31 797.3 40.24C800.14 55.16 800.96 70.15 798.55 85.28C796.87 95.82 794.28 106.04 790.34 115.95C784.91 129.61 777.1 141.75 767.35 152.7C753.31 168.46 737.88 182.67 720.61 194.86C705.76 205.35 690.02 214.31 672.6 219.48C659.91 223.24 646.78 225.64 633.73 228.06C621.86 230.26 609.85 231.75 597.87 233.38C588.09 234.71 578.27 235.73 568.48 236.95C554.07 238.74 540.02 241.69 526.36 247.06C518.34 250.22 509.48 251.55 500.88 252.89C478.33 256.39 455.56 257.31 432.8 256.82C425.29 256.66 417.78 254.33 410.35 252.64C402.82 250.93 395.48 248.22 387.89 246.95C374.23 244.67 368.05 251.76 364.1 262.5C360.35 272.68 359.27 283.37 357.82 294.02C356.89 300.85 355.79 308.04 350.02 312.83C347.31 315.08 343.94 316.75 340.62 318.05C333.34 320.9 325.97 323.32 319.2 327.54C315.66 329.74 310.86 330.6 306.57 330.77C298.94 331.08 291.26 330.51 283.62 330.07C280.79 329.91 278.54 330.79 276.79 332.74C263 348.1 245.72 359.29 229.81 372.12C221.27 379.01 212.78 386.05 207.14 395.73C204.45 400.34 202.81 405.17 205.35 410.56C207.72 415.6 212.09 418.22 217.47 416.52C224.04 414.44 230.57 412.01 236.78 409.04C250.61 402.42 264.12 395.12 277.98 388.57C293.29 381.34 308.87 374.67 324.31 367.69C334.96 362.88 345.35 357.43 356.22 353.21C368.75 348.35 381.53 343.92 394.51 340.46C404.33 337.84 414.67 336.66 424.77 340.02C430.52 341.94 436.22 344.03 441.87 346.24C457.76 352.47 473.41 359.24 488.09 368.04C505.94 378.75 521.63 391.81 533.07 409.49C540.48 420.95 545.54 433.36 548.1 446.75C550.03 456.86 552.12 466.98 553.31 477.2C554.78 489.79 554.57 502.42 552.49 515.03C549.33 534.16 541.53 551.2 530.59 567.03C528.33 570.31 526.79 574.22 525.56 578.05C524.28 582.06 526.5 584.38 530.73 584.34C536.68 584.29 541.3 581.07 545.48 577.53C557.34 567.48 565.72 554.97 570.15 540.01C575.17 523.06 579.89 506.02 584.89 489.06C588.61 476.43 593.27 464.17 599.69 452.61C607.6 438.37 618.39 426.91 632.02 418.03C648.35 407.39 664.76 396.88 680.83 385.87C692.58 377.82 700.58 366.53 706.22 353.49C714.64 334.03 727.29 318.59 747.66 310.66C757.11 306.98 766.9 304.74 777.01 304.03C783.65 303.57 790.31 303.34 796.97 303.05C797.99 303.01 799.02 303.18 800.05 303.25L800.13 304.47C799.04 304.66 797.96 304.94 796.86 305.03C787.46 305.73 777.99 305.91 768.67 307.17C754.13 309.14 740.73 314.2 729.36 323.9C720.91 331.11 714.4 339.84 710.19 349.97C702.33 368.83 689.98 383.39 672.5 394.14C656.2 404.17 640.36 415 624.69 426C613.85 433.61 606.34 444.33 600.17 455.94C591.13 472.96 586.15 491.41 581.07 509.85C577.66 522.2 574.28 534.61 569.84 546.6C564.26 561.68 554.92 574.32 541.02 582.9C537.89 584.83 533.88 585.81 530.17 586.22C525.3 586.77 522.28 583.19 523.62 578.46C524.82 574.19 526.43 569.81 528.9 566.17C536.94 554.31 543.64 541.83 547.61 528.05C552.97 509.42 553.59 490.39 550.61 471.33C548.82 459.86 546.75 448.37 543.68 437.2C539.88 423.37 532.94 410.92 523.58 399.94C510.42 384.5 494.19 373.14 476.31 363.79C460.24 355.39 443.41 348.89 426.49 342.58C418.19 339.48 409.53 339.78 400.86 341.25C385.17 343.91 370.25 349.04 355.83 355.57C338.47 363.43 321.33 371.78 303.97 379.65C291.32 385.38 278.36 390.43 265.76 396.25C257.48 400.07 249.64 404.83 241.52 408.99C234.07 412.81 226.7 416.79 218.3 418.44C207.85 420.49 199.8 411.91 202.62 401.46C204.47 394.61 208.35 388.81 213.47 384.33C225.21 374.05 237.58 364.49 249.49 354.4C258.28 346.95 266.82 339.19 275.32 331.41C277.87 329.07 280.5 327.88 283.96 328.11C290.05 328.53 296.15 328.84 302.25 329C308.99 329.18 315.2 327.91 321.23 324.25C326.71 320.92 332.94 318.59 339.11 316.67C348.52 313.73 353.62 307.56 355.1 298.08C356.14 291.4 356.97 284.69 358.07 278.02C359.58 268.81 361.85 259.83 367.44 252.1C371.99 245.81 378.68 243.68 385.84 244.72C393.79 245.88 401.74 247.75 409.34 250.34C422.66 254.89 436.27 255.6 450.07 254.84C465.03 254.01 480.02 253.33 494.91 251.79C509.01 250.32 522.7 246.87 536.04 241.67C543.58 238.74 551.84 237.4 559.91 236.17C574.81 233.91 589.82 232.34 604.77 230.32C616.63 228.71 628.54 227.32 640.26 224.97C652.82 222.46 665.38 219.59 677.56 215.69C690.26 211.62 701.96 205.02 713.1 197.65C732.42 184.86 749.6 169.59 765.06 152.33C774.32 142 782.1 130.71 787.46 117.96C795.7 98.37 799.36 77.9 797.59 56.59C796.56 44.18 793.74 32.12 790.48 20.12C788.68 13.51 787.52 6.73 786.07 0.03C786.51 0.03 786.96 0.03 787.4 0.03L787.36 0.02Z" fill="white" fill-opacity="0.12"/>
<path d="M0.03 686.02C9.37 681.52 18.63 676.84 28.08 672.58C36.53 668.78 43.62 663.12 50.69 657.32C66.57 644.29 77.08 627.33 86.12 609.31C90.77 600.05 95.33 590.71 99.28 581.14C106.36 563.99 113.05 546.71 116.26 528.26C118.35 516.27 121.09 504.39 123.74 492.5C127.11 477.39 130.25 462.21 134.31 447.29C139.21 429.27 145.1 411.55 155.91 395.94C164.87 382.99 175.96 372.12 187.95 362.05C198.23 353.41 208.97 345.2 218.42 335.72C225.18 328.94 230.4 320.54 235.83 312.54C244.82 299.3 257.2 290.94 272.11 285.82C278.69 283.56 285.33 281.36 291.61 278.42C298.84 275.05 303.59 268.86 305.96 261.44C309.12 251.58 311.42 241.44 314.12 231.43C317.26 219.8 320.72 208.1 331.75 201.39C337.2 198.07 343.5 195.75 349.72 194.2C363.82 190.68 377.59 193.43 391.25 197.55C401.51 200.64 411.83 203.96 422.37 205.52C432.38 207 442.82 207.37 452.89 206.39C474.05 204.32 495.11 201.12 516.19 198.24C543.79 194.47 571.39 190.96 599.34 190.83C613.89 190.76 628.18 188.15 642.29 184.39C656.99 180.47 671.06 175.06 684.36 167.81C700.05 159.26 714.34 148.84 724.82 133.99C730.72 125.62 733.87 116.09 735.92 106.21C739.48 89.03 740.05 71.59 738.83 54.17C737.56 36.05 736.74 17.84 732.69 0.02H734.69C739.91 27.72 742.12 55.65 740.78 83.82C740.17 96.59 738.2 109.19 733.77 121.21C729.59 132.57 722.21 141.83 713.32 149.95C701.57 160.68 688.15 168.85 673.75 175.36C658.18 182.4 642.03 187.98 625.01 190.05C612.15 191.61 599.16 192.04 586.25 193.14C569.67 194.55 553.06 195.7 536.56 197.75C512.69 200.72 488.96 204.71 465.09 207.66C451.21 209.37 437.12 210.27 423.25 207.76C413.59 206.01 404.07 203.29 394.62 200.57C382.23 197 369.86 193.35 356.78 195.02C346.74 196.3 337.02 198.65 329.17 205.82C323.43 211.07 320.16 217.75 318.12 224.99C315.13 235.63 312.99 246.52 309.85 257.11C305.76 270.92 297.15 280.1 282.68 284.26C268.06 288.46 253.62 293.94 243.46 306.25C238.36 312.43 234 319.23 229.44 325.84C222.94 335.27 214.38 342.64 205.79 350.05C193.65 360.53 181.31 370.84 169.86 382.04C157.73 393.91 149.04 408.34 143.88 424.58C139.04 439.83 134.23 455.13 130.43 470.66C126.3 487.52 123.41 504.69 119.86 521.69C116.54 537.6 112.99 553.46 106.34 568.41C99.58 583.62 93.32 599.08 85.94 613.98C78.85 628.29 70.36 641.87 58.48 652.9C50.17 660.61 41.76 668.24 31.4 673.21C22.46 677.5 13.48 681.69 4.52 685.93C3.03 686.64 1.52 687.32 0.03 688.01C0.03 687.34 0.03 686.68 0.03 686.01V686.02Z" fill="white" fill-opacity="0.12"/>
<path d="M0.03 647.35C4.43 644.91 8.92 642.61 13.23 640.01C22.01 634.73 30.88 629.58 38.17 622.18C47.33 612.9 55.32 602.7 62.01 591.55C66.71 583.72 71.22 575.72 75.09 567.45C81.72 553.29 86.5 538.63 87.22 522.69C87.62 513.8 89.19 504.79 91.55 496.2C95.9 480.35 100.87 464.64 106.26 449.11C110.01 438.31 114.68 427.81 119.34 417.35C123.27 408.54 127.48 399.83 132.1 391.36C137.41 381.61 142.45 371.39 151.95 364.91C170.99 351.92 187.66 336.36 202.84 319.14C211.52 309.29 219.57 299.05 224.46 286.52C227.18 279.55 233.78 276.14 240.75 274.04C248.78 271.62 256.92 269.59 264.92 267.07C271.8 264.9 275.73 259.47 277.87 253.01C281.55 241.9 284.55 230.56 288.15 219.42C291.43 209.27 294.96 199.18 302.06 190.83C305.61 186.65 310.18 184.25 315.24 182.41C323.3 179.48 331.3 176.34 339.28 173.2C352.19 168.12 365.33 164.72 379.43 165.83C388.83 166.57 397.45 169.62 405.3 174.38C416.79 181.35 429.14 183.98 442.33 184.16C454.49 184.33 466.45 182.97 478.3 180.3C488.66 177.96 499.02 175.55 509.47 173.71C514.55 172.81 519.85 173.08 525.06 172.94C546.92 172.34 568.74 171.38 590.45 168.28C607.61 165.83 624.49 162.41 640.51 155.77C658.75 148.21 675.67 138.46 689.08 123.54C695.15 116.78 698.43 108.85 699.89 99.86C700.91 93.57 702.94 87.43 704.72 81.29C708.09 69.64 711.36 57.92 709.93 45.67C709.26 39.91 707.19 34.32 705.95 28.62C703.89 19.11 702 9.56 700.03 0.03C700.7 0.03 701.36 0.03 702.03 0.03C703.33 10.83 705.18 21.5 709 31.75C713.17 42.93 713.22 54.41 710.58 65.83C708.22 76.05 705.05 86.09 702.39 96.24C701.55 99.45 701.33 102.81 700.65 106.06C698.59 115.91 692.52 123.3 685.54 130.04C673.75 141.44 659.88 149.72 644.85 155.96C636.41 159.46 627.73 162.64 618.87 164.8C607.81 167.51 596.51 169.38 585.23 170.98C563.87 174.02 542.32 174.9 520.78 174.9C511.07 174.9 501.9 177.09 492.65 179.32C473.5 183.95 454.2 187.53 434.38 185.86C424.07 184.99 414.19 182.25 405.23 176.69C390.3 167.44 374.11 165.1 357.33 169.76C346.63 172.73 336.32 177.09 325.84 180.82C322.52 182 319.24 183.35 315.86 184.33C307.38 186.79 302.01 192.72 298.09 200.17C291.31 213.08 288.06 227.23 283.87 241.06C281.9 247.57 279.28 253.93 276.4 260.11C273.81 265.67 268.49 268.25 262.91 269.95C255.93 272.07 248.86 273.87 241.83 275.81C233.69 278.06 228.16 282.84 224.48 290.76C220.99 298.25 216.51 305.47 211.39 311.97C198.15 328.79 182.88 343.69 166.12 357.01C161.99 360.29 157.6 363.26 153.28 366.29C147.57 370.29 143.68 375.86 140.03 381.61C129.72 397.85 121.94 415.36 114.61 433.07C106.58 452.47 99.67 472.29 94.25 492.58C91.19 504.03 89.22 515.67 88.78 527.62C88.33 540.02 84.14 551.67 79.31 562.99C73.23 577.25 65.57 590.63 56.65 603.33C45.33 619.44 31.49 632.65 14.03 641.95C9.27 644.48 4.68 647.32 0.01 650.01C0.01 649.12 0.01 648.23 0.01 647.34L0.03 647.35Z" fill="white" fill-opacity="0.12"/>
<path d="M672.03 0.02C672.49 10.33 673.02 20.64 673.4 30.95C674 47.37 674.6 63.8 675.01 80.22C675.54 101.03 666.09 116.6 649.2 128.03C635.27 137.46 619.72 142.78 603.36 146.22C589.03 149.23 574.6 147.61 560.2 147.72C552.43 147.78 544.66 147.42 536.9 146.99C526.86 146.43 517.31 148.19 508.11 152.16C491.68 159.24 474.3 160.65 456.69 161.06C439.86 161.46 423.99 157.55 408.65 151C393.4 144.48 377.72 139.9 360.92 142.09C354.15 142.97 347.33 144.35 340.85 146.46C328.5 150.47 316.44 155.33 305.24 162.07C294.4 168.6 284.53 176.37 279.3 188.16C275.98 195.65 274.08 203.83 272.1 211.84C269.64 221.8 268.1 231.98 262.37 240.87C257.14 248.99 249.25 252.27 240.28 254.03C231.82 255.69 223.27 257.09 215.02 259.5C208.71 261.34 204.61 266.39 201.98 272.42C196.03 286.07 188.63 298.83 177.61 309C168.32 317.58 158.77 325.93 148.88 333.8C136.67 343.51 126.22 354.63 118.71 368.33C111.64 381.24 106.19 394.87 101.98 408.97C98.15 421.79 94.54 434.66 90.6 447.44C85.85 462.85 81.29 478.33 75.85 493.5C70.64 508 64.58 522.21 58.55 536.4C53.49 548.3 47.11 559.42 38.41 569.2C31.9 576.51 26.01 584.38 19.9 592.04C13.79 599.7 7.75 607.41 1.63 615.06C1.27 615.51 0.57 615.7 0.03 616.01C0.03 615.12 0.03 614.23 0.03 613.34C4.78 607.59 9.67 601.96 14.24 596.07C22.46 585.47 30.43 574.71 39.53 564.76C48.89 554.52 54.5 541.69 59.89 529C64.76 517.54 69.48 505.98 73.48 494.2C79.41 476.75 84.6 459.04 90.19 441.47C96.18 422.64 101.57 403.57 108.54 385.11C115.22 367.38 125.19 351.37 139.89 338.84C150.84 329.5 161.97 320.35 172.77 310.84C184.04 300.93 192.61 288.97 198.33 275.04C203.7 261.97 213.83 255.71 227.53 253.89C235.48 252.84 243.6 252.28 251.03 248.5C257.54 245.19 261.89 240.01 263.98 233.35C267.04 223.57 269.77 213.63 271.79 203.58C275.22 186.47 284.47 173.59 298.67 163.92C310.44 155.91 323.42 150.49 336.78 145.76C349.7 141.19 362.88 138.4 376.54 140.06C383.83 140.94 391.1 142.78 398.12 145.01C408.2 148.21 417.91 152.63 428.03 155.69C440.49 159.46 453.43 159.44 466.34 158.76C478.89 158.1 491.27 156.45 503.14 152.01C506.66 150.7 510.18 149.4 513.67 148.01C523.47 144.09 533.73 145.01 543.9 145.17C558.22 145.4 572.54 145.67 586.86 145.97C598.12 146.21 608.81 143.34 619.38 139.97C632.94 135.65 645.66 129.66 656.27 119.88C667.56 109.47 673.41 96.58 672.98 81.21C672.31 57.13 671.31 33.05 670.44 8.97C670.33 5.98 670.17 2.99 670.04 0C670.71 0 671.37 0 672.04 0L672.03 0.02Z" fill="white" fill-opacity="0.12"/>
<path d="M622.03 0.02C620.56 3.8 619.2 7.63 617.61 11.36C611.56 25.53 608.99 40.34 608.97 55.71C608.97 60.12 608.65 64.64 607.61 68.91C605.69 76.82 600.51 82.1 592.27 82.86C585.82 83.45 579.21 83.25 572.75 82.56C551.67 80.31 530.61 77.31 509.39 80.24C503.64 81.03 498.1 83.27 492.45 84.76C474.68 89.44 456.89 95.09 438.42 94.76C420.84 94.45 403.25 92.25 385.74 90.23C372 88.64 358.37 86.1 344.7 83.91C341.21 83.35 337.69 82.71 334.3 81.71C315.45 76.18 299.66 82.12 285.85 94.79C275.97 103.86 266.79 113.71 256.69 122.52C250.71 127.73 243.64 131.72 236.9 136.02C227.46 142.05 218.97 148.91 214.69 159.73C211.27 168.37 211.04 177.48 211.05 186.58C211.05 192.48 209.42 197.54 204.19 200.72C199.8 203.38 195.19 205.69 190.66 208.11C184.34 211.48 177.72 214.39 171.73 218.27C162.67 224.14 159.01 233.13 159.02 243.75C159.02 252.01 158.07 260.11 154.77 267.79C150.48 277.77 143.33 285.51 134.87 291.95C124.9 299.56 114.6 306.73 104.34 313.96C93.92 321.3 86.82 331.13 82 342.79C75.61 358.27 71.6 374.45 67.85 390.71C65.54 400.74 63.19 410.76 60.56 420.7C56.46 436.19 52.26 451.66 47.82 467.05C44.76 477.65 41.73 488.32 37.68 498.56C35.51 504.06 31.18 508.7 27.86 513.74C19.15 526.95 10.45 540.18 1.73 553.39C1.25 554.11 0.58 554.71 0 555.37C0 554.04 0 552.7 0 551.37C3.16 546.62 6.29 541.84 9.5 537.12C17.06 526 24.96 515.1 32.13 503.73C35.43 498.49 37.75 492.52 39.79 486.63C42.57 478.61 44.74 470.37 47.04 462.18C50.8 448.77 54.54 435.35 58.1 421.88C60.73 411.93 62.99 401.89 65.51 391.91C68.32 380.76 70.87 369.53 74.18 358.52C78.19 345.17 82.84 331.85 92.78 321.63C98.49 315.76 105.49 311.12 112.01 306.05C121.9 298.36 132.38 291.34 141.69 283.02C152.74 273.15 157.04 259.88 156.99 245.18C156.96 237.98 158 231.04 162.18 224.95C166.09 219.27 171.5 215.27 177.55 212.18C184.42 208.66 191.44 205.42 198.41 202.1C205.69 198.63 209.46 193.35 209.14 184.82C208.79 175.63 209.55 166.43 213.34 157.77C217.93 147.31 225.87 139.86 235.62 134.69C248.97 127.62 259.73 117.63 270.1 106.97C278.67 98.16 287.33 89.38 298.29 83.38C309.1 77.47 320.48 76.61 332.41 79.03C345.1 81.6 357.81 84.12 370.6 86.1C384.62 88.27 398.71 90.15 412.83 91.5C428.5 93.01 444.24 94.39 459.84 90.27C474.37 86.43 488.85 82.18 503.59 79.37C513.53 77.48 523.93 76.86 534.05 77.29C549.99 77.97 565.88 79.99 581.79 81.51C587.66 82.07 593.33 81.56 598.54 78.62C602.9 76.16 605.09 72.02 605.88 67.34C606.62 62.99 606.93 58.52 606.94 54.1C607 37.9 610.67 22.51 616.99 7.68C618.06 5.16 619 2.58 619.99 0.02C620.66 0.02 621.32 0.02 621.99 0.02H622.03Z" fill="white" fill-opacity="0.12"/>
<path d="M268.03 0.02C266.24 11.51 264.42 22.99 262.7 34.49C262.29 37.22 262.14 39.99 262 42.74C261.89 44.94 263.15 45.86 265.28 46.03C270.25 46.43 274.6 44.47 278.23 41.65C292.07 30.91 307.63 30.9 323.83 33.35C340.05 35.8 356.32 37.95 372.57 40.17C385.64 41.95 398.68 44.11 411.81 45.23C421.84 46.08 432 46.01 442.07 45.55C462.47 44.63 482.85 43.1 503.24 41.97C517.76 41.17 532.3 40.73 546.81 39.88C555.57 39.37 562.24 34.82 565.98 27.07C570.24 18.28 573.61 9.06 577.36 0.02C578.69 0.02 580.03 0.02 581.36 0.02C577.65 11.69 573.92 23.33 566.67 33.45C561.87 40.15 555.12 43.41 547.18 43.86C530.68 44.8 514.15 45.21 497.64 46.11C479.36 47.11 461.1 48.5 442.83 49.54C429.53 50.3 416.24 50.42 402.98 48.38C391.49 46.61 379.91 45.48 368.4 43.86C356.45 42.18 344.56 39.97 332.58 38.52C322.58 37.31 312.51 36.46 302.45 36.19C295.57 36 289.48 39.22 283.74 42.93C278.09 46.58 272.5 50.45 265.24 50.02C260.79 49.75 257.66 47.17 258.08 42.71C258.74 35.57 260.18 28.51 261.19 21.41C262.2 14.29 263.09 7.14 264.04 0.01C265.37 0.01 266.71 0.01 268.04 0.01L268.03 0.02Z" fill="white" fill-opacity="0.12"/>
<path d="M192.03 0.02C190.34 8.78 186.8 16.79 182.92 24.8C179.38 32.11 176.84 39.93 174.33 47.68C170.97 58.06 164.96 66.59 156.98 73.78C150.69 79.45 143.91 84.58 137.77 90.4C128.29 99.4 121.82 110.61 115.9 122.14C107.81 137.9 102.3 154.69 96.4 171.32C92.27 182.96 88.49 194.73 84.27 206.34C80.47 216.8 73.93 225.69 67.16 234.36C56.58 247.9 45.61 261.15 35.33 274.91C30.89 280.86 27.88 287.87 24.01 294.26C17.94 304.27 9.86 312.35 0.03 318.69V314.02C9.12 307.73 16.85 300.01 21.72 290.09C27.46 278.41 35.04 268.09 43.01 257.95C52.99 245.25 63.05 232.62 72.72 219.69C79.2 211.03 82.47 200.75 85.89 190.61C88.99 181.43 91.91 172.18 95.16 163.05C98.63 153.29 102.06 143.5 106.09 133.97C114.13 114.92 123.83 96.87 139.73 82.96C145.89 77.57 152.14 72.26 158.19 66.74C165.16 60.38 168.61 51.9 171.85 43.29C175.27 34.24 179.06 25.33 182.5 16.28C184.53 10.93 186.2 5.45 188.03 0.02C189.36 0.02 190.7 0.02 192.03 0.02Z" fill="white" fill-opacity="0.12"/>
<path d="M244.7 0.02C243.19 7.95 242.16 16.01 240.04 23.77C237.45 33.22 234.35 42.57 230.73 51.67C223.03 71.01 211 88.05 201.12 106.24C197.39 113.11 194.1 120.23 190.75 127.3C189.96 128.96 189.6 130.88 189.32 132.72C188.9 135.47 190.27 136.71 193.47 137.01C202.76 137.87 210.76 134.48 217.64 128.8C228.49 119.85 238.96 110.43 249.52 101.14C260.93 91.11 272 80.66 283.76 71.06C289.46 66.41 296.04 62.37 302.87 59.72C308.91 57.37 315.82 56.67 322.4 56.35C342.74 55.34 363.01 56.82 383.13 59.8C396.15 61.73 409.04 64.66 422.09 66.21C430.38 67.2 438.97 67.31 447.26 66.36C466.74 64.12 486.07 60.46 505.56 58.4C525.56 56.28 545.69 56.66 565.79 57.71C567.66 57.81 569.55 57.61 571.42 57.43C574.15 57.17 575.53 55.4 575.89 52.86C577.48 41.65 581.95 31.51 587.1 21.55C590.18 15.59 592.81 9.39 595.54 3.26C595.97 2.3 595.88 1.12 596.03 0.03C596.92 0.03 597.81 0.03 598.7 0.03C594.71 8.86 590.82 17.74 586.71 26.52C582.81 34.86 579.32 43.32 578 52.5C577.33 57.18 575.13 59.48 569.68 59.64C563.48 59.82 557.26 59.38 551.05 59.23C532.16 58.78 513.3 59 494.56 61.82C481.19 63.84 467.83 65.93 454.43 67.8C439.95 69.82 425.66 69.56 411.15 66.49C396.12 63.31 380.75 61.52 365.44 60.02C352.32 58.74 339.07 58.32 325.88 58.28C316.16 58.25 306.2 58.74 297.58 64.12C291.35 68.01 285.13 72.1 279.62 76.92C263.03 91.42 246.8 106.34 230.4 121.06C223.42 127.33 216.2 133.33 207.57 137.25C202.24 139.67 196.54 139.56 190.92 138.55C187.99 138.02 186.41 135.06 187.45 131.79C188.98 126.99 190.54 122.09 192.94 117.7C201.33 102.32 210.13 87.16 218.69 71.88C226.87 57.28 233.41 41.95 237.68 25.77C239.92 17.32 241.07 8.61 242.7 0.02C243.37 0.02 244.03 0.02 244.7 0.02Z" fill="white" fill-opacity="0.12"/>
<path d="M0.03 390.02C6.01 386.17 12.32 382.74 17.9 378.38C33.64 366.08 45.65 350.32 57.64 334.54C64.73 325.2 71.57 315.51 79.8 307.24C87.1 299.91 96.15 294.31 104.45 287.98C113.96 280.72 123.43 273.28 128.79 262.3C131.66 256.43 133.61 249.92 134.87 243.49C137.66 229.26 139.58 214.86 142.2 200.59C144.46 188.3 147.15 176.08 149.74 163.85C151.81 154.08 154.69 144.49 160.13 136.08C164.54 129.26 169.93 123.07 174.82 116.55C183.89 104.47 192.6 92.13 199.05 78.43C201.07 74.13 201.61 69.16 203.09 64.59C204.87 59.06 206.72 53.53 208.92 48.15C214.25 35.1 219.9 22.18 225.15 9.1C226.26 6.31 226.21 3.06 226.7 0.02C227.37 0.02 228.03 0.02 228.7 0.02C228.6 7.59 225.93 14.53 223.05 21.32C218.02 33.17 212.44 44.79 207.5 56.67C205.88 60.57 205.58 65.01 204.59 69.18C202.48 78.01 198.15 85.91 193.12 93.25C183.92 106.67 174.18 119.73 164.56 132.86C159.58 139.66 156.25 147.25 154.12 155.28C151.22 166.17 148.5 177.14 146.39 188.21C143.88 201.36 142.23 214.67 139.95 227.87C138 239.19 136.59 250.73 131.79 261.29C128.05 269.5 122.1 276.29 115.07 281.92C106.92 288.44 98.6 294.76 90.12 300.85C80.32 307.89 73.06 317.18 65.96 326.72C54.14 342.57 42.59 358.66 28.09 372.29C20.45 379.48 12.35 386.05 3.06 391.03C2.14 391.53 1.05 391.71 0.03 392.03C0.03 391.36 0.03 390.7 0.03 390.03V390.02Z" fill="white" fill-opacity="0.12"/>
<path d="M208.03 0.02C205.33 13.26 201.94 26.12 194.91 38.04C190.31 45.84 187.26 54.71 184.51 63.41C181.9 71.68 177.37 78.14 171.25 84.16C160.52 94.72 150.02 105.56 141.46 118.09C137.41 124.01 135.85 130.8 134.22 137.53C131.59 148.39 129.42 159.36 127.03 170.28C124.4 182.27 122.07 194.34 119 206.22C115.73 218.83 112.42 231.5 107.83 243.66C104.81 251.67 99.85 259.03 95.18 266.31C84.93 282.29 71.35 295.43 57.84 308.56C45.26 320.78 32.73 333.07 19.64 344.72C13.78 349.93 6.6 353.63 0.03 358.02C0.03 357.35 0.03 356.69 0.03 356.02C10.91 349.99 20.42 342.18 29.25 333.5C43.89 319.11 58.6 304.79 73.11 290.27C85.09 278.28 95.47 264.91 103.05 249.8C107.47 241.01 110.33 231.32 112.94 221.77C116.73 207.91 119.72 193.84 122.92 179.82C126.72 163.21 130.33 146.56 134.11 129.95C136.05 121.42 140.84 114.35 146.55 108.02C156.34 97.17 166.61 86.74 176.42 75.9C178.52 73.58 179.89 70.38 180.93 67.36C185.57 53.78 191.16 40.69 197.76 27.89C201.49 20.67 202.71 12.16 205.03 4.22C205.43 2.84 205.7 1.42 206.03 0.02C206.7 0.02 207.36 0.02 208.03 0.02Z" fill="white" fill-opacity="0.12"/>
<path d="M0.03 290.02C2.67 286.02 5.79 282.25 7.87 277.98C14.65 264.03 21.16 249.95 27.58 235.83C33.95 221.8 40.06 207.66 46.33 193.58C51.31 182.42 56.32 171.27 61.39 160.15C67.21 147.37 71.37 134.09 72.04 120.03C72.6 108.41 72.28 96.76 72.4 85.12C72.51 74.47 72.71 63.87 75.94 53.52C79 43.73 86.47 37.3 96.7 37.12C112.16 36.85 126.71 33.25 140.33 26.03C151.78 19.95 161.65 12.12 167.36 0.02H169.36C165.75 9.46 158.87 16.23 150.87 21.85C134.8 33.15 116.8 38.68 97.16 39.04C87.14 39.22 80.76 44.43 77.84 54.07C73.73 67.61 74.22 81.46 74.87 95.3C75.75 113.98 73.92 132.34 67.76 150.02C64.88 158.31 60.83 166.2 57.25 174.25C49.5 191.66 41.77 209.07 33.93 226.44C28.41 238.68 22.88 250.91 17.08 263.01C12.99 271.55 8.49 279.9 4.02 288.25C3.02 290.12 1.36 291.65 0.01 293.34C0.01 292.23 0.01 291.12 0.01 290.01L0.03 290.02Z" fill="white" fill-opacity="0.12"/>
<path d="M564.7 0.02C561.03 11.27 553.98 18.86 542.24 22.22C526.26 26.79 509.96 29.16 493.47 30.1C471.77 31.35 450.04 32.33 428.31 32.88C420.95 33.06 413.52 31.8 406.18 30.79C393.67 29.07 381.21 27.07 368.74 25.1C343.39 21.09 317.94 18.48 292.23 18.88C289.48 18.92 286.71 18.45 283.96 18.12C278.36 17.45 276.41 13.95 278.72 8.76C280.02 5.83 281.38 2.93 282.71 0.02C283.6 0.02 284.49 0.02 285.38 0.02C283.75 3.28 281.95 6.46 280.53 9.81C278.82 13.87 279.91 15.87 284.16 16.09C294.68 16.62 305.25 16.49 315.74 17.33C329.99 18.46 344.21 20.01 358.39 21.79C373.11 23.64 387.84 25.64 402.45 28.21C432.01 33.41 461.54 30.44 491.05 28.23C503.08 27.33 515.11 25.86 527 23.8C534.44 22.52 541.85 20.26 548.82 17.36C556.28 14.27 559.93 7.31 562.7 0.02H564.7Z" fill="white" fill-opacity="0.12"/>
<path d="M0.03 214.02C3.99 206.57 8.13 199.21 11.88 191.65C16.57 182.18 21.08 172.62 25.42 162.98C30.44 151.83 32.16 139.96 31.08 127.9C30.08 116.66 28.08 105.51 26.56 94.31C25.02 83.01 23.21 71.73 22.12 60.38C21.06 49.24 24.08 38.74 28.23 28.43C31.55 20.17 34.1 11.6 36.99 3.17C37.35 2.13 37.69 1.07 38.03 0.02C38.7 0.02 39.36 0.02 40.03 0.02C36.68 10.05 34.03 20.39 29.83 30.05C23.17 45.38 22.9 60.92 25.77 76.92C27.82 88.36 30.02 99.78 31.64 111.27C33.79 126.49 34.92 141.85 29.81 156.7C27 164.87 23.11 172.7 19.35 180.51C13.76 192.12 7.86 203.58 2.05 215.09C1.52 216.14 0.71 217.04 0.03 218.02C0.03 216.69 0.03 215.35 0.03 214.02Z" fill="white" fill-opacity="0.12"/>
<path d="M0.03 515.35C1.99 511.2 4.31 507.18 5.85 502.88C9.22 493.44 12.46 483.93 15.28 474.31C18.83 462.18 21.12 449.76 20.97 437.05C20.9 430.86 19.57 424.98 13.97 421.1C9.74 418.17 5.01 417.56 0.04 418.01V416.01C5.11 415.55 9.97 416.22 14.38 418.94C20.55 422.76 22.98 428.85 22.83 435.59C22.64 443.74 21.86 451.94 20.56 460C18.19 474.75 13.59 488.93 8 502.75C5.62 508.63 2.7 514.28 0.03 520.02C0.03 518.46 0.03 516.91 0.03 515.35Z" fill="white" fill-opacity="0.12"/>
<path d="M0.03 720.69C4.49 721.11 9.05 721.1 13.39 722.07C18.3 723.16 22.52 725.96 25.8 729.87C28.87 733.52 29.37 737.98 28.75 742.42C27.98 747.99 27.1 753.62 25.5 759C21.83 771.37 17.72 783.62 13.74 795.9C13.33 797.16 12.56 798.3 11.95 799.49L10.81 799.1C11.35 797.14 11.83 795.16 12.43 793.21C16.8 779.09 21.49 765.06 25.43 750.83C26.72 746.18 26.37 741 26.26 736.07C26.18 732.41 23.53 730 20.69 727.94C15.09 723.88 8.94 721.92 1.98 722.81C1.34 722.89 0.67 722.73 0.02 722.69C0.02 722.02 0.02 721.36 0.02 720.69H0.03Z" fill="white" fill-opacity="0.12"/>
<path d="M69.36 0.02C68.8 5.86 72.56 11.49 78.41 11.87C88.34 12.5 98.32 12.57 108.27 12.34C116.21 12.16 123.82 9.98 130.7 5.93C133.38 4.35 135.6 2.01 138.03 0.02C139.14 0.02 140.25 0.02 141.36 0.02C133.78 8.57 123.77 12.48 112.88 13.83C104.34 14.89 95.65 14.8 87.02 14.95C83.84 15 80.55 14.63 77.49 13.81C71.97 12.33 68.34 8.75 67.29 2.92C67.12 1.95 66.89 0.99 66.69 0.02C67.58 0.02 68.47 0.02 69.36 0.02Z" fill="white" fill-opacity="0.12"/>
<path d="M438.03 0.02C442.96 1.35 447.82 3.2 452.84 3.92C469.35 6.28 485.78 4.74 502.11 1.88C503.91 1.56 505.62 0.66 507.37 0.03C509.59 0.03 511.81 0.03 514.04 0.03C508 1.69 502.06 3.97 495.92 4.9C481.22 7.12 466.37 8.32 451.61 5.79C444.51 4.56 437.66 1.98 430.7 0.02C433.14 0.02 435.59 0.02 438.03 0.02Z" fill="white" fill-opacity="0.12"/>
<path d="M0.03 481.35C1.33 476.82 3.14 472.37 3.81 467.75C5.01 459.36 5.68 450.88 6.27 442.42C6.52 438.76 6.84 434.71 2.53 432.67C1.77 432.31 0.87 432.23 0.04 432.01C0.04 431.34 0.04 430.68 0.04 430.01C4.78 430.43 8.08 433.27 8.03 437.93C7.96 445.64 7.82 453.42 6.73 461.03C5.54 469.28 3.25 477.37 1.36 485.52C1.16 486.41 0.49 487.18 0.04 488.01C0.04 485.79 0.04 483.57 0.04 481.34L0.03 481.35Z" fill="white" fill-opacity="0.12"/>
<path d="M0.03 784.02C6.16 774 11.51 763.63 12.06 751.6C12.42 743.73 7.9 740.1 0.03 741.35C0.03 740.46 0.03 739.58 0.03 738.69C2.3 739.07 4.61 739.28 6.83 739.87C11.27 741.04 14.21 744.38 13.94 748.96C13.64 754.2 13.28 759.67 11.55 764.55C9.02 771.65 5.26 778.32 1.94 785.13C1.61 785.8 0.68 786.18 0.03 786.7C0.03 785.81 0.03 784.92 0.03 784.03V784.02Z" fill="white" fill-opacity="0.12"/>
<path d="M424.02 506.5C424.08 515.36 423.72 523.12 419.96 529.98C417.23 534.97 413.56 539.48 410.07 544.02C404.51 551.26 398.99 558.56 393.01 565.45C385.29 574.35 374.77 579.11 364.24 583.83C355.71 587.66 347.22 591.62 339.02 596.1C331.9 599.99 327.93 606.07 327.91 614.7C327.9 622.26 324.54 629.08 321.06 635.62C309.16 658 293 676.97 273.74 693.31C265.2 700.55 255.56 706.18 245.08 710.15C233.02 714.72 220.97 719.41 208.67 723.23C194.05 727.78 179.06 730.97 163.61 730.72C157.91 730.63 152.02 730.38 147.33 726.28C146.28 725.36 145.1 724.36 144.56 723.14C142.19 717.72 137.55 715.37 132.32 714C124.08 711.84 115.71 710.16 107.51 707.89C104.17 706.96 100.86 705.39 97.99 703.44C92.55 699.73 90.77 693.51 92.55 686.62C94.93 677.4 100.14 669.6 105 661.61C111 651.74 117.24 641.98 122.62 631.78C128.71 620.23 132.06 607.85 132.09 594.55C132.13 573.27 139.81 554.66 153.18 538.29C162.94 526.33 174.87 516.96 188.22 509.34C196.9 504.39 206.11 503.24 215.82 505.46C218.73 506.13 221.7 506.55 224.67 506.88C228.05 507.25 230.41 505.84 232.23 502.79C234.58 498.84 237.26 495.03 240.16 491.46C244.24 486.42 249.96 484.52 256.25 484.03C261.77 483.6 267.35 483.54 272.78 482.62C280.04 481.39 285.73 476.78 291.71 472.82C303.07 465.28 314.22 457.32 326.09 450.67C334.19 446.13 343.36 443.49 352.07 440.06C357.23 438.03 362.43 436.24 368.16 436.72C378.41 437.58 386.81 442.45 394.32 448.97C406.36 459.41 415.28 472.11 420.77 487.11C423.19 493.72 424.66 500.53 424.01 506.5H424.02ZM420.75 507.46C419.76 501.71 419.56 495.68 417.64 490.26C411.26 472.21 400.51 457.22 384.32 446.6C377.39 442.06 369.58 438.81 361.38 441.33C350.65 444.62 340.09 448.69 329.85 453.3C316.32 459.39 304.46 468.36 292.55 477.1C282.99 484.12 272.7 488.41 260.64 487.97C257.79 487.87 254.86 488.17 252.08 488.77C245.15 490.27 241.21 495.39 237.95 501.16C234.88 506.6 231.59 511.74 224.18 510.95C221.21 510.63 218.25 510.13 215.34 509.45C207.4 507.61 199.69 507.93 192.34 511.72C182.99 516.54 174.54 522.64 166.82 529.78C146.56 548.51 135.47 571.23 135.93 599.23C136.07 607.48 133.74 615.42 130.85 623.14C125.04 638.66 115.46 652.08 107.02 666.15C102.97 672.9 99.66 680.15 96.61 687.43C94.66 692.09 96.27 697.74 99.61 699.8C102.47 701.57 105.62 703.11 108.85 703.99C117.05 706.24 125.42 707.88 133.62 710.13C139.11 711.63 144.37 713.94 147.07 719.5C149.27 724.01 153.05 725.59 157.67 726.07C175.25 727.9 192.08 723.88 208.75 719.22C217.98 716.64 227.05 713.37 236 709.92C246.16 706 256.09 701.44 264.9 694.9C286.84 678.63 304.05 658.22 317.18 634.35C320.64 628.06 323.95 621.53 323.97 614.14C324 605.25 327.6 598.19 335.12 593.99C345.57 588.16 356.48 583.15 367.29 578C374.28 574.67 381.46 571.55 386.77 565.79C392.82 559.23 398.39 552.23 404.04 545.33C407.44 541.17 410.68 536.88 413.88 532.56C419.38 525.11 420.02 516.41 420.76 507.45L420.75 507.46Z" fill="white" fill-opacity="0.12"/>
<path d="M799.85 415.53C800.01 418.42 800.31 420.53 798.29 422.84C792.02 429.99 786.78 437.88 783.24 446.79C782.71 448.11 782.12 449.55 782.14 450.93C782.28 461.71 776.85 469.5 768.97 476.02C760.91 482.7 751.68 487.36 742.07 491.29C730.8 495.91 721.12 502.95 712.08 510.92C688.73 531.51 669.52 555.47 654.85 582.91C651.09 589.95 648.43 597.7 646.14 605.39C638.99 629.39 627.26 650.37 606.37 664.92C597.86 670.85 588.4 675.66 578.88 679.84C567.28 684.92 555.25 689.12 543.22 693.12C531.06 697.16 518.69 700.53 506.38 704.12C498.1 706.54 489.77 708.78 481.49 711.19C471.42 714.11 461.3 716.87 451.36 720.17C439.6 724.06 429.1 730.37 420.12 738.9C409.91 748.59 400.37 759 389.88 768.38C383.05 774.49 375.14 779.42 367.57 784.68C361.06 789.2 354.3 793.36 347.75 797.82C344.86 799.79 341.89 800.63 337.74 799.6C342.77 796.22 347.38 793.17 351.95 790.06C364.5 781.54 378.08 774.42 389.16 763.88C398.28 755.2 406.92 746.02 415.96 737.26C427.59 725.99 441.46 718.55 456.97 714.1C470.36 710.25 483.78 706.52 497.16 702.66C511.8 698.43 526.51 694.42 541.01 689.74C560.76 683.36 580.45 676.61 598.27 665.71C614.12 656.02 626.41 642.69 633.97 625.62C638.33 615.77 641.65 605.44 645.19 595.23C649.31 583.35 655.48 572.55 662.39 562.19C674.32 544.3 687.92 527.77 703.68 513.07C712.87 504.5 722.57 496.57 733.79 490.78C739.95 487.61 746.45 485.09 752.62 481.94C761.31 477.51 769.44 472.19 774.71 463.68C776.3 461.12 777.75 457.95 777.77 455.05C777.8 447.68 780.65 441.35 784.38 435.5C788.56 428.95 793.58 422.93 798.26 416.71C798.55 416.32 799.08 416.1 799.86 415.54L799.85 415.53Z" fill="white" fill-opacity="0.12"/>
<path d="M194.77 799.47C199.24 796.51 203.83 793.73 208.14 790.56C223.82 779.02 239.65 767.66 254.97 755.66C273.07 741.47 290.34 726.29 306.77 710.15C316.43 700.66 323.87 689.47 331.87 678.7C352.9 650.41 378.51 627.06 408.32 608.35C419.58 601.28 431.38 595.07 442.58 587.92C456.47 579.05 468.41 568.07 476.66 553.5C483.02 542.27 484.96 530.06 485.03 517.38C485.11 503.04 484.87 488.7 481.9 474.62C476.44 448.72 464.64 426.72 441.61 412.16C432.24 406.23 422.82 400.28 412.95 395.26C398.66 387.99 383.41 386.29 368.13 391.71C355.68 396.13 343.52 401.39 331.38 406.61C319.95 411.53 308.52 416.52 297.42 422.14C281.41 430.24 265.78 439.1 249.83 447.32C237.13 453.87 224.3 460.2 211.31 466.17C198.29 472.16 185.51 478.43 173.71 486.69C166.96 491.41 159.55 495.19 152.49 499.48C142.08 505.8 135.37 515.18 132.2 526.66C128.29 540.82 125.44 555.27 121.92 569.55C117.69 586.72 113.05 603.81 103.7 619.07C95.1 633.1 83.8 644.83 71.84 656.04C61.66 665.58 51.69 675.37 42.18 685.56C33.23 695.15 33.63 706.16 38.77 717.67C42.49 726.01 46 734.52 48.74 743.22C51.79 752.91 50.74 762.64 47.07 772.19C43.79 780.73 41.02 789.47 37.98 798.11C37.72 798.85 37.14 799.48 36.7 800.16C36.3 800 35.89 799.83 35.49 799.67C36.62 795.85 37.59 791.97 38.91 788.21C41.53 780.71 44.67 773.38 46.98 765.8C49.29 758.23 49.17 750.35 46.59 742.86C43.72 734.55 40.27 726.43 36.97 718.27C34.06 711.1 31.11 703.7 34.18 696.13C36.41 690.64 39.52 685.12 43.53 680.82C52.23 671.49 61.63 662.78 70.99 654.09C83.11 642.83 94.31 630.85 102.81 616.53C108.78 606.48 112.69 595.57 115.91 584.42C117.87 577.62 119.5 570.73 121.11 563.84C123.51 553.61 125.66 543.32 128.09 533.09C132.22 515.7 141.41 502.27 157.72 493.82C166.77 489.13 174.94 482.77 183.92 477.91C194.46 472.2 205.49 467.39 216.23 462.04C227.43 456.47 238.6 450.81 249.69 445.02C264.29 437.4 278.71 429.42 293.4 421.98C304.18 416.52 315.2 411.5 326.26 406.6C338.76 401.07 351.24 395.45 364.04 390.69C380.81 384.46 397.58 385.39 413.71 393.32C429.25 400.96 443.98 409.9 456.77 421.72C466.51 430.72 473.18 441.83 477.89 454.08C487.86 479.99 488.64 506.97 485.7 534.08C484.42 545.88 478.46 556.24 470.98 565.46C460.59 578.26 447.65 588.04 433.36 596.04C410.75 608.71 388.94 622.49 369.64 639.98C351.42 656.48 336.49 675.71 321.95 695.4C314.96 704.87 306.59 713.54 297.82 721.44C281.91 735.78 265.63 749.77 248.77 762.97C232.7 775.56 215.71 787 199.08 798.86C197.99 799.64 196.42 799.76 195.08 800.18C194.98 799.93 194.88 799.68 194.78 799.42L194.77 799.47Z" fill="white" fill-opacity="0.12"/>
<path d="M91.89 800.27C91.26 799.05 90.16 797.87 90.07 796.61C89.69 791.42 89.08 786.16 89.53 781.02C91.6 757.83 83.29 739.66 64.43 725.96C56.62 720.29 51.14 712.8 52.13 702.37C52.82 695.07 56.6 689.09 61.13 683.57C71.09 671.43 83.61 662.09 95.65 652.25C102.71 646.48 109.52 640.33 112.91 631.71C115.81 624.35 118.01 616.65 119.81 608.93C121.95 599.78 123.15 590.41 125.09 581.21C128.01 567.35 131.2 553.56 134.29 539.74C135.7 533.43 138.41 527.94 143.73 523.88C154.41 515.72 164.74 507.08 175.69 499.3C183.95 493.43 193.86 490.79 203.55 488.16C214.99 485.06 226.28 481.97 235.45 473.79C242.41 467.58 251.34 465.88 260.09 464.06C271.77 461.63 283.8 460.32 294.27 454C299.33 450.95 303.97 447.18 308.84 443.8C323.52 433.6 339.6 426.56 357.11 423C364.47 421.5 372.08 419.5 379.44 422.12C385.19 424.17 390.84 426.95 395.93 430.32C413.77 442.1 428.9 456.77 440.82 474.6C445.57 481.7 449.3 489.35 451.45 497.67C454.3 508.7 452.56 519.03 447.22 529.08C439.62 543.38 428.9 555.05 417.09 565.78C402.21 579.3 385.85 590.86 368.58 601.12C362.91 604.49 356.92 607.33 351.32 610.82C342.43 616.35 337.17 625.03 332.14 633.87C323.26 649.48 314.39 665.11 305.34 680.62C296.74 695.37 284.93 707.44 271.67 717.87C255.78 730.37 239.28 742.1 222.94 754.02C209.95 763.49 196.46 772.31 183.87 782.27C175.68 788.74 167.48 794.89 157.85 798.94C156.09 799.68 154.11 799.9 152.24 800.36C152.13 800.05 152.02 799.75 151.91 799.44C155.02 798.03 158.15 796.63 161.25 795.19C169.42 791.39 176.2 785.64 183.24 780.14C194.08 771.68 205.56 764.05 216.68 755.93C234.8 742.69 253.16 729.74 270.83 715.92C285.21 704.66 297.42 691.23 306.38 675.02C315.27 658.93 324.67 643.12 333.8 627.15C339.63 616.96 348.13 609.94 358.38 604.31C369.73 598.07 380.95 591.37 391.35 583.69C402.84 575.2 413.66 565.73 424.16 556.02C433.9 547.01 441.78 536.37 447.37 524.18C451.69 514.74 451.81 505.13 448.67 495.39C443.1 478.13 431.96 464.56 419.47 451.98C410.46 442.91 400.27 435.29 389.47 428.44C378.81 421.69 367.6 422.53 356.1 425.15C338.98 429.05 323.33 436.21 308.85 446.06C302.96 450.07 297.46 455.04 291.01 457.75C282.85 461.17 273.96 462.94 265.28 465.03C257.34 466.94 249.12 467.88 241.89 471.99C238.57 473.88 235.44 476.17 232.47 478.59C226.4 483.53 219.24 486.15 211.86 487.9C191.69 492.68 173.15 500.5 157.75 514.83C153.73 518.57 149.46 522.08 145.06 525.37C139.82 529.3 137.54 534.74 136.17 540.81C133.85 551.05 131.43 561.28 129.26 571.55C127.06 581.94 125.21 592.42 122.98 602.8C121.29 610.69 119.56 618.58 117.3 626.32C113.94 637.85 106.23 646.32 97.11 653.76C88.09 661.11 78.96 668.38 70.49 676.33C64.36 682.07 58.93 688.52 55.63 696.64C51.7 706.32 55.79 716.09 62.95 722.09C69.71 727.77 76.69 733.16 81.95 740.4C89.06 750.21 91.56 761.36 91.73 773.21C91.84 780.52 91.78 787.83 91.93 795.14C91.96 796.62 92.59 798.09 92.95 799.57C92.61 799.8 92.27 800.04 91.93 800.27H91.89Z" fill="white" fill-opacity="0.12"/>
<path d="M559.61 288.3C570.26 288.3 580.91 288.41 591.56 288.26C598.91 288.16 605.12 284.68 611.21 280.98C621.1 274.97 630.82 268.62 641.03 263.2C647.78 259.61 655.11 256.87 662.45 254.65C672.45 251.63 686.13 258.68 688.4 268.29C689.49 272.9 688.91 278.3 687.72 282.99C684.96 293.8 680.83 304.16 673.57 312.93C668.25 319.35 662.53 325.48 657.65 332.22C653.41 338.07 650.11 344.61 646.35 350.82C640.33 360.76 632 368.51 621.91 373.91C611.26 379.61 600.19 384.61 589 389.16C577.86 393.69 567.61 391.72 558.85 382.93C550.84 374.89 544.72 365.51 538.84 355.93C533.14 346.64 524.66 340.55 515.13 336.1C500.06 329.07 484.66 322.75 469.44 316.01C467.05 314.95 464.77 313.49 462.73 311.86C459.56 309.33 459.42 305.7 462.8 303.5C466.25 301.25 470.13 299.34 474.09 298.23C491.85 293.26 510.01 290.23 528.32 288.39C538.68 287.35 549.17 288.67 559.6 288.31C559.6 287.93 559.6 288.69 559.6 288.31L559.61 288.3ZM567.31 292.55C567.31 292.35 567.31 292.16 567.31 291.96C563.76 291.78 560.22 291.51 556.67 291.43C533.24 290.89 510.2 294 487.41 299.09C480.55 300.62 473.81 302.89 467.2 305.33C463.71 306.62 463.76 308.32 467.29 310.05C474.39 313.54 481.68 316.66 488.89 319.93C499.34 324.67 509.97 329.03 520.18 334.24C530.44 339.47 538.65 347.03 544.48 357.32C548.31 364.09 553.11 370.41 558.16 376.36C568.63 388.68 576.56 389.46 587.69 385.41C598.02 381.65 608.09 376.95 617.8 371.77C629.64 365.46 639.39 356.49 645.58 344.37C650.12 335.46 655.46 327.12 662.29 319.9C672.16 309.46 679.92 297.87 683.34 283.81C684.44 279.28 685.22 274.35 684.64 269.81C683.92 264.21 675.1 258.31 668.97 258.03C662.32 257.73 656.16 259.9 650.56 262.9C638.64 269.28 626.97 276.14 615.41 283.17C607.48 287.99 599.48 292.32 589.96 292.53C582.42 292.69 574.87 292.56 567.33 292.56L567.31 292.55Z" fill="white" fill-opacity="0.12"/>
<path d="M800.41 139.92C799.57 141.13 798.92 142.57 797.85 143.53C789.43 151.09 780.97 158.59 772.46 166.04C754.79 181.51 736.56 196.25 716.8 209.04C698.37 220.96 679.53 232.15 659.65 241.43C645.11 248.22 629.91 253.23 614.09 256.17C596.88 259.37 579.66 262.5 562.49 265.85C549.78 268.33 537.14 271.17 524.44 273.74C506 277.47 487.37 279.92 468.56 278.86C458.88 278.32 449.32 275.84 439.65 274.6C428.77 273.2 417.86 271.74 406.92 271.24C401.8 271.01 396.47 272.59 391.44 274.05C386.92 275.36 384.78 279.2 385 283.8C385.49 293.97 389.95 302.49 397.01 309.61C402.79 315.44 410.24 318.34 418.1 319.95C435.33 323.47 452.9 325.71 469.81 330.37C499 338.4 523.29 354.01 538.17 381.46C545.8 395.52 552.68 409.99 559.98 424.24C561.38 426.97 562.87 429.72 564.75 432.11C569.86 438.58 575.43 439.15 581.28 433.21C593.86 420.44 609.24 412.01 624.8 403.68C639.14 396.01 653.84 388.87 666.28 378.06C674.16 371.21 679.96 363.02 684.12 353.4C692.62 333.76 703.18 315.42 719.64 301.16C729 293.05 739.62 288.59 752.34 288.93C767.22 289.33 782.11 288.96 797 288.95C797.99 288.95 798.98 289.1 799.97 289.19C799.99 289.57 800.01 289.96 800.04 290.34C798.77 290.54 797.5 290.91 796.23 290.91C781.34 290.99 766.45 291.31 751.57 290.95C739.37 290.65 729.36 295.33 720.49 303.01C707.05 314.66 697.87 329.46 690.04 345.21C685.93 353.48 683.05 362.37 677.12 369.7C669.6 378.99 660.29 386.11 650.05 391.99C634.69 400.81 618.9 408.91 603.79 418.12C596.07 422.83 589.32 429.17 582.31 434.99C574.75 441.26 568.05 440.91 562.81 432.57C557.98 424.87 554.04 416.57 550.1 408.34C541.23 389.79 532.06 371.48 516.62 357.25C508.6 349.85 499.34 344.46 489.48 339.88C478.9 334.96 467.92 331.29 456.56 328.9C447.36 326.97 438.02 325.67 428.75 324.06C417.62 322.13 406.4 320.37 397.38 312.66C389.42 305.86 384.79 297.05 383.16 286.86C381.66 277.44 386.74 271.88 396.74 270.05C408.75 267.85 420.61 269.82 432.49 271.51C448.81 273.83 464.88 278.12 481.63 277.01C494.37 276.16 507.03 275.08 519.57 272.42C538.52 268.4 557.56 264.79 576.57 261.08C592.55 257.96 608.7 255.56 624.49 251.7C635.26 249.07 645.96 245.32 655.96 240.55C671.73 233.01 687.15 224.64 702.24 215.79C720.5 205.09 737.84 192.94 753.93 179.13C768.3 166.8 782.52 154.29 796.75 141.8C797.63 141.03 798.08 139.76 798.74 138.72C799.3 139.13 799.86 139.53 800.41 139.94V139.92Z" fill="white" fill-opacity="0.12"/>
<path d="M800.19 335.44C799.14 335.92 798.14 336.59 797.04 336.86C782.29 340.5 769.59 347.85 759.04 358.65C748.42 369.52 741.44 382.67 735.94 396.79C730.93 409.66 725.21 422.42 713.54 430.79C707.41 435.19 700.49 438.57 693.69 441.93C672.18 452.55 654.59 467.44 641.78 487.91C632.58 502.62 625.21 518.23 617.73 533.83C609.46 551.1 601.07 568.37 591.7 585.05C581.9 602.51 567.45 615.39 549.25 624.24C531.87 632.69 513.59 638.43 495.14 643.75C478.04 648.68 460.84 653.29 443.62 657.8C421.92 663.48 403.29 674.76 386.48 689.15C369.35 703.81 352.66 719 335.71 733.87C321.28 746.52 305.64 757.55 289.62 768.07C274.08 778.27 258.63 788.63 243.11 798.87C242.11 799.53 240.87 799.83 239.73 800.3C239.56 800 239.39 799.7 239.22 799.4C242.42 797.02 245.52 794.48 248.85 792.28C265.11 781.55 281.47 770.96 297.73 760.23C311.9 750.89 325.21 740.44 337.95 729.23C355.29 713.96 372.59 698.64 390.2 683.69C401.5 674.1 413.96 666.06 427.98 661.06C439.82 656.84 451.99 653.5 464.07 649.98C473.09 647.35 482.25 645.21 491.27 642.57C502.92 639.17 514.64 635.92 526.06 631.84C543.84 625.49 561.03 617.83 574.64 604.1C583.47 595.2 590.18 584.75 595.98 573.72C600.55 565.02 604.92 556.21 609.19 547.36C614.22 536.93 618.97 526.37 623.99 515.93C636.16 490.57 650.41 466.7 674.6 450.77C683.01 445.23 692.06 440.54 701.14 436.14C713.25 430.27 722.28 421.56 728 409.48C732.75 399.43 736.85 389.06 741.92 379.18C752.52 358.52 768.84 344.12 790.86 336.41C793.65 335.43 796.6 334.93 799.47 334.21C799.7 334.61 799.94 335.02 800.17 335.42L800.19 335.44Z" fill="white" fill-opacity="0.12"/>
<path d="M430.81 799.43C435.74 792.31 440.03 784.63 445.75 778.21C452.52 770.61 462.33 767.34 471.78 764.36C483.9 760.54 496.24 757.39 508.55 754.22C521.08 750.99 533.75 748.34 546.24 744.98C561.7 740.81 577.1 736.38 592.41 731.68C609.52 726.43 624.3 717.03 637.67 705.23C660.01 685.53 680.24 663.91 697.46 639.59C702.09 633.06 705.64 625.76 709.86 618.93C714.76 611.01 721.57 609.15 730.11 613.03C737.23 616.27 744.26 619.81 751.62 622.42C756.22 624.05 761.36 624.11 766.23 625.03C770.41 625.82 774.77 626.3 778.65 627.9C783.09 629.73 784.52 634.03 783.29 638.65C780.84 647.89 774.45 654.28 767.38 660.05C763.47 663.24 758.87 665.64 755.16 669.02C746.28 677.11 742.01 687.9 740.18 699.36C738.41 710.49 737.9 721.83 737.05 733.09C736.38 742.02 731.82 748.26 723.97 751.93C717.39 755.01 710.33 757.06 703.81 760.24C699.03 762.57 694.53 765.67 690.33 768.98C682.48 775.17 673.7 778.86 663.84 780.05C659.88 780.53 655.88 780.69 651.9 781.04C648.02 781.38 646.17 784.36 644.1 787.08C641.17 790.93 638.3 794.82 635.17 798.51C634.33 799.5 632.68 799.78 631.45 800.36C635.84 794.57 640.05 788.96 644.33 783.4C646.62 780.42 649.59 779.02 653.48 778.94C666.11 778.66 678.56 776.63 688.15 767.83C695.88 760.74 705.24 757.73 714.46 753.92C719.2 751.96 723.77 749.47 728.14 746.78C732.95 743.82 734.52 738.86 734.99 733.48C735.99 721.89 736.17 710.15 738.25 698.76C741.02 683.58 747.3 670.26 761.61 661.7C770.29 656.5 777.71 649.36 781.08 639.19C782.92 633.65 780.06 628.87 774.3 628.02C769.59 627.33 764.83 627.09 760.09 626.6C752.24 625.79 745.2 622.55 738.21 619.17C735.13 617.68 732.15 615.95 728.99 614.63C721.59 611.55 715.45 612.19 710.45 621.73C699.07 643.43 683.54 661.94 666.99 679.69C652.81 694.89 637.75 709.15 620.49 720.88C611.75 726.82 601.94 730.6 592.01 733.9C581.75 737.31 571.35 740.36 560.92 743.2C549.19 746.39 537.34 749.18 525.54 752.13C516.21 754.47 506.83 756.63 497.56 759.17C487.55 761.92 477.59 764.86 467.7 768.02C454.73 772.16 444.1 779.3 438.11 792.13C437 794.51 435.43 796.69 433.88 798.83C433.39 799.51 432.26 799.74 431.43 800.17C431.22 799.92 431.01 799.67 430.8 799.42L430.81 799.43Z" fill="white" fill-opacity="0.12"/>
<path d="M299.94 799.2C305.99 794.84 311.9 790.28 318.11 786.14C332.31 776.68 346.97 767.87 360.82 757.93C370.45 751.02 379.08 742.72 388.11 734.98C401.47 723.51 414.84 712.07 430.3 703.37C438.49 698.76 447.51 696.59 456.42 694.11C464.83 691.77 473.35 689.82 481.71 687.31C496.09 683 510.47 678.66 524.67 673.8C532.69 671.06 540.27 667.08 548.19 664.01C555.6 661.14 563.12 658.5 570.71 656.15C583.95 652.04 594.82 644.43 604.01 634.28C616.11 620.9 624.76 605.36 632.32 589.08C640.77 570.88 649.45 552.78 658.41 534.83C668.84 513.95 683.78 496.91 703.93 484.95C712.22 480.03 721.22 476.29 729.93 472.06C740.16 467.1 750.44 462.14 758.06 453.36C766.28 443.89 771.13 432.79 773.09 420.37C774.07 414.15 774.95 407.8 776.98 401.89C780.68 391.13 789.69 385.53 799.33 380.89L800.18 381.71C799.35 382.47 798.65 383.46 797.68 383.95C791.99 386.82 786.83 390.37 782.79 395.36C778.44 400.73 776.99 407.21 776.05 413.83C774.69 423.38 772.97 432.76 768.4 441.49C761.65 454.39 751.5 463.58 738.64 469.97C727.89 475.31 716.69 479.88 706.36 485.91C690.63 495.1 676.87 506.87 667.88 523.05C659.53 538.08 651.74 553.43 644.07 568.81C636.15 584.69 629.61 601.26 620.04 616.32C611.4 629.92 601.29 642.11 587.5 650.79C578.9 656.21 569.13 658.78 559.62 662.01C554.2 663.85 548.92 666.1 543.59 668.18C533.73 672.03 523.99 676.25 513.98 679.66C502.89 683.44 491.59 686.61 480.32 689.8C469.47 692.87 458.54 695.62 447.64 698.52C433.56 702.27 421.64 710.13 410.53 719.08C396.15 730.67 382.55 743.23 368.12 754.76C359.38 761.74 349.72 767.55 340.46 773.88C328.2 782.26 315.95 790.64 303.66 798.98C302.74 799.61 301.57 799.87 300.52 800.29L299.94 799.21V799.2Z" fill="white" fill-opacity="0.12"/>
<path d="M379.76 800.31C398.4 779.48 416.76 758.86 440.85 744.61C456.88 735.13 473.79 727.73 491.83 723.11C504.58 719.85 517.43 717 530.22 713.91C538.6 711.88 547.02 709.97 555.31 707.62C568.16 703.97 580.9 699.95 593.71 696.17C611.01 691.07 624.95 681.33 635.92 666.94C650.31 648.07 662.63 627.91 674.1 607.19C682.2 592.57 689.8 577.65 698.27 563.25C705.22 551.45 714.5 541.37 724.47 531.98C737.69 519.54 752.73 509.6 767.99 499.91C775.66 495.04 783.28 489.91 790.15 484C793.65 480.99 795.45 476 797.97 471.87C798.53 470.95 798.88 469.9 799.51 468.5C801.01 472.66 798.46 475.34 797.06 478.23C792.97 486.69 785.34 491.45 777.77 496.21C761.09 506.68 744.28 516.96 729.47 530.1C714.42 543.46 702.29 559.01 692.67 576.71C681.36 597.52 669.86 618.25 657.81 638.63C648.81 653.85 638.71 668.4 625.94 680.85C618.45 688.16 609.35 692.83 599.56 696.1C587.72 700.05 575.86 704.02 563.83 707.33C549.55 711.26 535.05 714.4 520.71 718.09C506.37 721.78 491.91 725.13 477.85 729.72C446.24 740.04 420.01 758.7 397.77 783.23C392.91 788.6 387.71 793.66 382.58 798.79C381.86 799.51 380.71 799.8 379.75 800.29L379.76 800.31Z" fill="white" fill-opacity="0.12"/>
<path d="M399.09 799.31C403.73 795.02 408.3 790.64 413.03 786.46C427.83 773.39 443.08 760.92 460.09 750.71C467.58 746.21 475.8 745.26 484.15 744.05C493.45 742.7 502.71 740.9 511.86 738.72C525.84 735.38 539.78 731.82 553.58 727.82C566.62 724.03 579.4 719.34 592.4 715.41C613.46 709.04 628.96 694.85 643.06 679.06C656.23 664.3 668.91 649.06 681.01 633.41C688.12 624.22 693.7 613.84 699.94 603.97C713.82 582.01 728.19 560.4 746.13 541.44C755.35 531.69 765.77 523.53 777.4 516.75C785.38 512.09 792.04 505.65 798.13 498.68C798.54 498.21 799.11 497.9 800.25 497.91C799.78 498.88 799.49 499.99 798.82 500.79C791.77 509.14 783.32 515.84 773.89 521.29C761.53 528.44 751.55 538.33 742.14 548.84C728.43 564.17 716.93 581.13 705.92 598.45C692.22 620 678.91 641.82 661.95 661.09C647.66 677.33 633.57 693.76 615.82 706.46C606.69 712.99 596.05 716.22 585.66 719.92C578.06 722.62 570.34 725 562.58 727.21C549.29 730.98 535.95 734.57 522.6 738.09C515.43 739.98 508.22 741.78 500.95 743.23C493.46 744.72 485.91 746.24 478.32 746.81C471.5 747.32 465.66 749.86 460.04 753.2C438.89 765.76 420.69 782.08 402.69 798.64C401.91 799.36 400.87 799.8 399.95 800.37L399.1 799.32L399.09 799.31Z" fill="white" fill-opacity="0.12"/>
<path d="M676.66 714.1C677.5 703.42 677.61 692.66 682.06 682.75C684.29 677.78 686.92 672.7 690.5 668.69C696.25 662.24 699.7 654.53 704.11 647.34C707.48 641.84 711.01 636.34 715.22 631.48C720.14 625.8 725.89 625.26 732.6 628.69C733.97 629.39 735.32 630.15 736.61 631C741.74 634.36 747.15 636.46 753.48 635.88C756.78 635.57 760.17 635.63 763.45 636.06C765.21 636.29 767.78 637.33 768.24 638.63C768.78 640.15 767.98 642.84 766.8 644.15C762.47 648.95 757.69 653.34 753.16 657.96C746.72 664.52 739.91 670.78 734.04 677.82C726.62 686.72 724.41 697.5 726.52 708.76C728.42 718.9 727.74 728.61 723.88 738.06C722.11 742.39 719.09 745.09 713.81 745.19C707.26 745.32 700.8 745.65 694.3 744.15C686.12 742.26 679.08 735.07 678 726.65C677.46 722.48 677.11 718.29 676.68 714.11L676.66 714.1ZM678.86 715.9C679.11 718.24 679.42 722.44 680.01 726.6C681.08 734.13 687.33 740.95 694.87 742.01C700.96 742.87 707.19 742.68 713.35 743.15C718.04 743.5 720.5 740.94 722.08 737.05C725.62 728.29 726.34 719.33 724.67 710C722.36 697.07 724.7 684.97 733.67 675.04C740.94 667 748.92 659.6 756.59 651.93C759.47 649.05 762.48 646.3 765.19 643.27C766.02 642.35 766.58 640.61 766.31 639.47C766.14 638.76 764.23 638.11 763.06 638.03C759.74 637.8 756.39 637.64 753.08 637.88C747.44 638.28 742.34 636.97 737.61 633.95C735.94 632.88 734.22 631.87 732.48 630.91C725.86 627.26 720.45 627.96 715.71 633.81C712.12 638.23 708.96 643.05 706.04 647.96C701.66 655.33 698.05 663.09 692.34 669.7C688.95 673.63 686.29 678.36 684.08 683.1C679.52 692.87 679.56 703.53 678.85 715.92L678.86 715.9Z" fill="white" fill-opacity="0.12"/>
<path d="M675.73 798.75C683.22 793.21 690.53 787.39 698.26 782.19C709.11 774.89 721.32 770.38 733.54 765.91C743.33 762.33 749.98 755.2 754.87 746.11C761.3 734.14 766.23 721.86 764.91 707.9C764.73 706.03 764.47 704.16 764.19 702.29C762.53 690.95 766.43 681.62 774.77 674.12C780.89 668.61 787.32 663.46 793.56 658.08C795.64 656.29 797.56 654.31 800.13 652.57C799.67 653.66 799.49 655.07 798.69 655.77C792.41 661.3 785.95 666.64 779.65 672.15C774.58 676.59 770.09 681.46 767.44 687.9C765.29 693.12 765.75 698.4 766.47 703.63C768.18 716 766.28 727.72 760.66 738.78C757.77 744.46 754.69 750.09 751.14 755.36C745.82 763.25 737.43 766.95 728.81 769.86C710.57 776.02 694.42 785.66 680.03 798.36C679.07 799.21 677.82 799.71 676.7 800.38C676.37 799.84 676.04 799.3 675.72 798.76L675.73 798.75Z" fill="white" fill-opacity="0.12"/>
<path d="M800.26 171.04C799.6 172.04 799.16 173.34 798.25 174C790.73 179.4 783.09 184.62 775.56 190.01C764.26 198.11 753.09 206.45 745.64 218.53C737.64 231.51 741.83 242.34 753.96 250.07C759.91 253.86 766.75 254.02 773.42 254.96C779.65 255.83 785.9 256.69 792.01 258.11C794.7 258.74 797.09 260.7 799.54 262.18C799.9 262.4 799.86 263.28 800.21 264.69C798.37 263.63 797.16 263.03 796.05 262.27C789.78 258.01 782.5 257.92 775.37 257.01C769.46 256.26 763.37 255.78 757.78 253.93C748.51 250.87 737.02 241.07 740.09 226.41C741.24 220.92 744.25 216.29 747.73 211.96C756.8 200.69 768.5 192.47 780.13 184.2C786.57 179.62 793.17 175.24 799.7 170.78C799.89 170.87 800.07 170.96 800.26 171.05V171.04Z" fill="white" fill-opacity="0.12"/>
<path d="M800.64 617.77C792.78 612.7 785.68 607.71 778.17 603.45C774.83 601.55 770.73 600.72 766.87 600.1C761.3 599.2 755.58 599.2 750 598.31C743.58 597.29 741.49 593.12 744.85 587.42C748.08 581.94 751.62 576.44 756 571.89C769.21 558.14 782.89 544.84 796.41 531.38C797.33 530.47 798.44 529.75 799.47 528.94C799.73 529.14 800 529.34 800.26 529.54C799.72 530.38 799.35 531.39 798.63 532.02C782.27 546.49 766.67 561.7 752.89 578.66C750.02 582.19 747.7 586.34 745.96 590.55C744.55 593.98 745.76 595.51 749.43 596.11C754.13 596.88 758.87 597.59 763.62 597.75C770.57 597.99 776.94 599.6 782.7 603.6C787.67 607.05 792.78 610.29 797.71 613.8C798.87 614.62 799.5 616.17 800.65 617.76L800.64 617.77Z" fill="white" fill-opacity="0.12"/>
<path d="M799.61 239.06C793.27 235.78 786.99 233.01 781.23 229.4C774.64 225.28 773.51 218.73 777.32 211.78C782.62 202.11 790.89 195.38 799.68 188.52C800.36 191.55 799.85 193.29 797.79 195.27C792.12 200.74 786.34 206.26 781.61 212.52C776.92 218.71 778.98 224.32 786.05 227.83C789.7 229.65 793.32 231.56 797.09 233.1C799.74 234.18 800.62 235.75 799.6 239.04L799.61 239.06Z" fill="white" fill-opacity="0.12"/>
<path d="M448.06 799.14C455.36 792.62 462.62 786.07 469.96 779.59C473.93 776.08 478.94 775.44 483.92 775.11C488.23 774.82 492.59 775.21 496.9 774.91C506.62 774.24 516.31 773.31 526.02 772.52C528.45 772.32 530.9 772.01 533.31 772.2C539.14 772.65 542.55 776.35 542.97 782.41C543.42 788.98 541.13 794.51 536.34 798.97C535.65 799.61 534.58 799.84 533.68 800.27L533.2 799.6C534.31 798.36 535.45 797.15 536.54 795.89C539.65 792.3 541.11 788.11 541.01 783.38C540.88 777.24 537.82 773.97 531.7 774.22C526.63 774.43 521.6 775.66 516.52 775.94C507.01 776.46 497.47 776.69 487.94 776.9C480.96 777.06 474.2 777.82 468.77 782.79C463.12 787.97 457.61 793.29 451.96 798.47C451.05 799.31 449.75 799.73 448.63 800.34C448.44 799.94 448.25 799.54 448.06 799.14Z" fill="white" fill-opacity="0.12"/>
<path d="M800.26 741.79C799.82 742.68 799.56 743.73 798.92 744.43C780.44 764.76 759.33 781.88 735.49 795.52C731.95 797.55 728.56 800.91 723.15 799.74C752.7 785.1 777.53 765.04 799.42 741.17C799.7 741.38 799.98 741.58 800.26 741.79Z" fill="white" fill-opacity="0.12"/>
<path d="M799.41 557.94C800.67 561.89 799.62 564.01 797.49 566.2C793.98 569.82 790.83 574.18 792.3 579.44C793.36 583.24 795.69 586.86 798.12 590.05C800.02 592.55 800.23 594.87 799.78 598.33C794.64 592.57 790.08 587.14 788.22 580.07C787.18 576.14 788.29 572.18 790.43 568.92C792.88 565.19 796.08 561.94 799.41 557.93V557.94Z" fill="white" fill-opacity="0.12"/>
<path d="M771.4 799.44C780.69 789.65 789.98 779.86 799.28 770.08L800.15 770.54C799.76 771.57 799.64 772.86 798.94 773.6C791.26 781.75 783.51 789.84 775.7 797.88C774.71 798.9 773.29 799.52 772.07 800.32C771.84 800.03 771.62 799.73 771.39 799.44H771.4Z" fill="white" fill-opacity="0.12"/>
<path d="M408.12 505.39C406.12 521.62 400.14 538.01 384.39 549.24C376.71 554.72 367.62 556.9 358.56 558.98C351.99 560.49 345.44 562.1 338.92 563.8C325.92 567.18 318.33 575.77 314.07 588.35C309.83 600.88 305.08 613.3 299.6 625.33C293.7 638.29 286.03 650.3 276.6 661.11C266.11 673.14 253.97 682.71 238.83 688.31C230.05 691.56 221.5 695.4 212.79 698.82C199.66 703.98 186.06 706.37 172.07 703.8C161.17 701.8 150.79 697.95 141.45 691.82C135.67 688.03 134.19 682.23 135.34 675.79C136.38 669.91 137.99 664.14 139.23 658.3C142.25 644.13 145.4 629.99 148.13 615.77C151.02 600.76 152.93 585.55 156.3 570.66C159.39 557.03 166.12 545.28 179.47 538.9C188.41 534.63 197.93 532.09 207.79 531.02C212.53 530.5 217.3 530.06 222.06 530.01C234.2 529.89 242.78 523.63 249.83 514.5C253.94 509.18 257.97 503.61 264.62 501.31C268.32 500.03 272.4 499.02 276.26 499.16C285.11 499.47 291.8 496.15 297.19 489.33C305.46 478.87 316.65 472.77 328.78 467.73C336.46 464.54 343.77 460.22 350.78 455.68C356.86 451.75 362.71 451.38 368.97 454.33C378.57 458.85 387.92 463.79 395.26 471.77C403.45 480.66 407.77 491.09 408.14 505.39H408.12ZM406.14 504.88C405.7 492.16 401.94 482.38 394.39 473.89C387.15 465.74 377.85 460.85 368.3 456.24C362.46 453.42 357.16 454.06 351.43 457.59C343.21 462.65 334.58 467.17 325.76 471.09C315.4 475.69 305.81 481.34 298.89 490.29C292.56 498.48 284.68 501.41 274.74 501.2C267.86 501.05 261.73 503.61 257.08 508.99C254.71 511.73 252.35 514.49 250.05 517.29C243.29 525.54 235.24 531.31 224.08 531.92C216.45 532.34 208.73 532.7 201.27 534.19C194.07 535.63 186.85 537.8 180.18 540.84C167.36 546.68 161.23 558.19 158.26 571.14C155.22 584.39 153.61 597.96 151.01 611.32C147.91 627.28 144.45 643.17 141.09 659.08C139.92 664.6 138.39 670.04 137.36 675.58C136.24 681.67 137.29 687.31 143.25 690.5C148.76 693.45 154.47 696.12 160.29 698.41C175.59 704.41 191.13 704.13 206.48 698.79C217.81 694.85 228.97 690.35 240.07 685.79C254.48 679.87 266.27 670.43 276.22 658.45C285.67 647.08 293.38 634.63 299.32 621.2C304.12 610.33 308.24 599.13 312.13 587.9C315.99 576.74 321.95 567.54 333.6 563.75C343.02 560.68 352.74 558.5 362.35 556.02C370.06 554.03 377.78 551.87 384.18 546.98C398.49 536.06 404.33 520.74 406.15 504.88H406.14Z" fill="white" fill-opacity="0.12"/>
<path d="M594.71 344.01C584.2 344.25 578.14 342.22 575.01 334.96C571.48 326.79 576.41 313.01 587.31 312.67C591.62 312.54 596.21 309.58 600.02 306.96C611.28 299.23 622.02 290.74 633.34 283.09C642.89 276.64 653.71 273.53 665.35 273.95C670.57 274.14 673.04 277.85 671.46 282.89C669 290.72 664.11 297.19 659.31 303.61C651.13 314.55 641.39 323.93 629.63 331.01C617.86 338.1 605.29 342.93 594.71 343.99V344.01ZM591.17 342.19C603.52 341.24 614.84 337.03 625.57 331.07C639.18 323.51 650.23 313 659.1 300.32C662.98 294.77 666.29 288.76 669.3 282.68C671.22 278.81 669.24 276.22 664.99 275.93C663.89 275.86 662.77 275.84 661.67 275.9C650.12 276.6 639.69 280.56 630.35 287.23C621.4 293.63 612.73 300.41 603.81 306.86C598.91 310.4 594.01 314.89 587.72 314.77C578.37 314.6 573.75 326.7 576.84 334.1C579.5 340.45 584.78 342.26 591.18 342.17L591.17 342.19Z" fill="white" fill-opacity="0.12"/>
<path d="M695.52 717.97C696.13 714.46 696.29 711.76 697.11 709.28C698.3 705.66 701.35 704.86 704.4 707.15C707.66 709.6 710.85 712.15 714.04 714.7C716.23 716.45 716.97 718.71 716.27 721.48C715.2 725.7 712.85 729.16 709.45 731.69C705.4 734.7 700.16 733.2 698.26 728.4C696.86 724.87 696.29 721.01 695.52 717.97ZM700.92 709.47C699.79 715.77 699.05 721.29 701.81 726.68C702.18 727.41 702.75 728.25 703.45 728.58C706.73 730.13 708.45 727.49 709.9 725.51C711.45 723.38 714.27 720.79 711.45 717.99C708.46 715.02 704.89 712.63 700.92 709.47Z" fill="white" fill-opacity="0.12"/>
<path d="M153.26 665.05C154.61 655.97 155.51 646.79 157.39 637.82C161.25 619.42 165.53 601.1 169.83 582.8C171.64 575.08 173.38 567.26 176.17 559.87C179.7 550.55 187.33 545.35 197.07 544.21C215.68 542.02 234.32 540.07 252.99 538.61C265.14 537.66 277.01 539.31 287.86 545.72C297.58 551.47 301.97 559.8 301.4 571C300.8 582.64 298.03 593.85 293.62 604.48C289.2 615.14 284.12 625.6 278.42 635.64C270.93 648.86 259.61 658.77 247.77 668.05C239.25 674.73 230.39 680.84 220.31 684.98C205.21 691.17 189.66 694.68 173.3 691.89C166.8 690.78 160.64 688.35 157.04 682.21C154.46 677.81 153.72 672.89 153.98 667.82C154.03 666.93 153.98 666.04 153.98 665.15C153.74 665.11 153.5 665.08 153.26 665.04V665.05ZM155.22 664.86C155.48 664.9 155.75 664.94 156.01 664.98C156.01 666.87 155.95 668.76 156.01 670.64C156.45 682.75 162.45 687.73 172.87 689.81C187.4 692.71 201.52 689.79 215.25 684.84C228.19 680.18 239.26 672.39 249.87 663.86C260.75 655.12 270.71 645.42 277.76 633.31C287.8 616.07 295.59 597.86 298.63 577.94C299.69 570.99 300.32 563.92 296.87 557.44C293.34 550.79 287.25 546.81 280.45 544.23C270.65 540.51 260.38 539.7 249.99 540.73C232.56 542.46 215.12 544.15 197.72 546.12C188.64 547.15 181.3 551.69 178.13 560.4C174.79 569.59 172.46 579.18 170.21 588.71C166.43 604.75 162.88 620.84 159.61 636.99C157.75 646.2 156.64 655.56 155.19 664.85L155.22 664.86Z" fill="white" fill-opacity="0.12"/>
<path d="M392.48 502.34C391.02 509.8 390.74 517.56 388.7 524.86C386.1 534.16 378.28 539.55 368.55 539.98C358.18 540.45 348.76 537.27 339.54 532.93C330.69 528.76 323.59 522.8 318.88 514.17C314.22 505.63 313.92 493.12 322.02 487.87C333.5 480.43 344.11 470.76 358.24 468.71C372.64 466.62 390.18 475.72 392.05 494.36C392.32 497 392.34 499.67 392.48 502.33C392.24 502.27 392.72 502.39 392.48 502.33V502.34ZM390.43 502.67C390.33 500.45 390.24 498.23 390.14 496.02C389.17 475.08 365.6 464.97 349.8 473.28C341.53 477.63 333.67 482.77 325.64 487.59C320.4 490.73 317.87 495.33 317.78 501.51C317.69 507.71 319.72 513.18 323.54 517.75C335.46 532.01 351.23 538.17 369.47 537.75C376.65 537.58 382.98 534.08 385.83 527.05C388.96 519.32 390.47 511.11 390.44 502.68L390.43 502.67Z" fill="white" fill-opacity="0.12"/>
<path d="M166.95 648.18C169.04 637.11 170.68 625.92 173.33 614.99C176.53 601.8 180.63 588.83 184.27 575.75C187.51 564.12 195.57 557.33 206.92 555.26C217 553.42 227.35 552.76 237.62 552.37C246.69 552.02 255.81 552.72 264.9 553.04C271.66 553.28 278.11 554.41 282.73 560.12C286.24 564.46 286.94 569.73 286.67 574.89C286.04 587.03 283.54 599.03 277.64 609.6C272.81 618.25 266.37 626.11 259.95 633.74C250.28 645.23 239.64 655.87 227.15 664.36C215.95 671.98 203.27 673.97 190.08 672.38C185.46 671.82 180.9 670.19 176.5 668.54C170.57 666.32 168.71 661.1 168.1 655.35C167.86 653.04 168.06 650.69 168.06 648.36C167.69 648.3 167.32 648.24 166.94 648.18H166.95ZM243.07 555.03C243.05 554.56 243.03 554.1 243.01 553.63C232.19 554.47 221.31 554.81 210.58 556.31C203.27 557.34 196.35 560.26 191.26 566.23C187.15 571.05 185.89 577.14 184.31 582.9C179.76 599.5 175.38 616.18 171.77 633C170.18 640.38 170.22 648.19 170.26 655.8C170.28 660.42 172.28 664.83 177.16 666.6C181.58 668.2 186.13 669.94 190.74 670.43C204.58 671.9 217.57 669.4 228.94 660.69C241.21 651.29 251.95 640.31 261.87 628.55C270.05 618.85 277.74 608.82 280.81 596.04C283.03 586.77 285.89 577.63 284.05 567.91C283.23 563.57 281.22 559.71 277.1 558.06C273.19 556.49 268.89 555.42 264.69 555.15C257.51 554.69 250.28 555.02 243.07 555.02V555.03Z" fill="white" fill-opacity="0.12"/>
<path d="M362.91 477.85C376.7 477.99 385.55 489.73 382.62 503.89C381.47 509.45 379.47 514.53 374.03 516.81C370.58 518.26 366.56 518.97 362.8 518.92C353.67 518.79 345.74 514.69 338.34 509.79C333.89 506.84 333.2 503.04 336.22 497.21C340.85 488.25 347.2 480.94 357.68 478.6C359.39 478.22 361.17 478.09 362.91 477.85ZM381.03 499.66C380.94 486.87 374.01 479.7 362.58 480.11C349.75 480.58 340.21 490.71 336.84 501.6C336.32 503.28 337.51 506.57 338.97 507.6C346.53 512.92 354.75 517.12 364.29 516.97C367.58 516.92 371.2 516.06 374.04 514.46C380.04 511.08 380.75 504.86 381.02 499.65L381.03 499.66Z" fill="white" fill-opacity="0.12"/>
<path d="M193.42 614.3C194.43 603.51 195.06 592.77 201.99 583.92C210.45 573.13 221.39 567.76 235.47 569.68C242.94 570.7 249.95 572.61 256 577.27C260.58 580.8 262.83 585.59 262.98 591.28C263.24 601.47 258.66 609.62 251.46 616.32C240.07 626.92 226.5 633.42 211.33 636.57C203.69 638.15 197.94 634.77 195.79 627.27C194.59 623.06 194.18 618.63 193.42 614.3ZM196.14 614.52C196.14 616.74 195.87 619 196.19 621.17C197.53 630.33 201.09 636.99 213.07 634.18C225.93 631.15 237.57 625.53 247.72 617.02C254.38 611.43 259.22 604.69 260.75 595.83C261.98 588.71 259.39 581.94 253.44 577.86C247.82 574.01 241.44 572.56 234.81 571.51C222.85 569.62 208.04 576.77 202.01 587.3C197.14 595.81 196.4 605.09 196.14 614.52Z" fill="white" fill-opacity="0.12"/>
</svg>
