<svg width="40" height="40" viewBox="0 0 40 40" fill="none" xmlns="http://www.w3.org/2000/svg">
<path d="M24.5833 6.66667C24.5833 9.2 22.5333 11.25 20 11.25C17.4666 11.25 15.4166 9.2 15.4166 6.66667C15.4166 4.13333 17.4666 2.08333 20 2.08333C22.5333 2.08333 24.5833 4.13333 24.5833 6.66667ZM17.9166 6.66667C17.9166 7.81667 18.85 8.75 20 8.75C21.15 8.75 22.0833 7.81667 22.0833 6.66667C22.0833 5.51667 21.15 4.58333 20 4.58333C18.85 4.58333 17.9166 5.51667 17.9166 6.66667Z" fill="#3B4045"/>
<path d="M11.25 6.66667C11.25 9.2 9.20004 11.25 6.66671 11.25C4.13337 11.25 2.08337 9.2 2.08337 6.66667C2.08337 4.13333 4.13337 2.08333 6.66671 2.08333C9.20004 2.08333 11.25 4.13333 11.25 6.66667ZM4.58337 6.66667C4.58337 7.81667 5.51671 8.75 6.66671 8.75C7.81671 8.75 8.75004 7.81667 8.75004 6.66667C8.75004 5.51667 7.81671 4.58333 6.66671 4.58333C5.51671 4.58333 4.58337 5.51667 4.58337 6.66667Z" fill="#3B4045"/>
<path d="M37.9167 6.66667C37.9167 9.2 35.8667 11.25 33.3333 11.25C30.8 11.25 28.75 9.2 28.75 6.66667C28.75 4.13333 30.8 2.08333 33.3333 2.08333C35.8667 2.08333 37.9167 4.13333 37.9167 6.66667ZM31.25 6.66667C31.25 7.81667 32.1833 8.75 33.3333 8.75C34.4833 8.75 35.4167 7.81667 35.4167 6.66667C35.4167 5.51667 34.4833 4.58333 33.3333 4.58333C32.1833 4.58333 31.25 5.51667 31.25 6.66667Z" fill="#3B4045"/>
<path d="M24.5833 33.3334C24.5833 35.8667 22.5333 37.9167 20 37.9167C17.4666 37.9167 15.4166 35.8667 15.4166 33.3334C15.4166 30.8001 17.4666 28.7501 20 28.7501C22.5333 28.7501 24.5833 30.8001 24.5833 33.3334ZM17.9166 33.3334C17.9166 34.4834 18.85 35.4167 20 35.4167C21.15 35.4167 22.0833 34.4834 22.0833 33.3334C22.0833 32.1834 21.15 31.2501 20 31.2501C18.85 31.2501 17.9166 32.1834 17.9166 33.3334Z" fill="#3B4045"/>
<path d="M21.25 10L21.25 30C21.25 30.6833 20.6833 31.25 20 31.25C19.3167 31.25 18.75 30.6833 18.75 30L18.75 10C18.75 9.31667 19.3167 8.75 20 8.75C20.6833 8.75 21.25 9.31667 21.25 10Z" fill="#3B4045"/>
<path d="M34.5833 10.0001L34.5833 16.6667C34.5833 20.7001 32.3666 22.9167 28.3333 22.9167L11.6666 22.9167C7.63329 22.9167 5.41663 20.7001 5.41663 16.6667L5.41663 10.0001C5.41663 9.31675 5.98329 8.75008 6.66663 8.75008C7.34996 8.75008 7.91663 9.31675 7.91663 10.0001L7.91663 16.6667C7.91663 19.3001 9.03329 20.4167 11.6666 20.4167L28.3333 20.4167C30.9666 20.4167 32.0833 19.3001 32.0833 16.6667L32.0833 10.0001C32.0833 9.31675 32.65 8.75008 33.3333 8.75008C34.0166 8.75008 34.5833 9.31675 34.5833 10.0001Z" fill="#3B4045"/>
</svg>
