<svg width="1150" height="1002" viewBox="0 0 1150 1002" fill="none" xmlns="http://www.w3.org/2000/svg">
<path d="M1.37644 948.07C35.6667 948.07 69.957 948.07 104.247 948.07C106.083 948.07 106.083 945.172 104.247 945.172C69.957 945.172 35.6667 945.172 1.37644 945.172C-0.458814 945.172 -0.458814 948.07 1.37644 948.07Z" fill="#3B4045"/>
<path d="M110.429 976.081C183.163 976.081 255.801 976.081 328.535 976.081C330.37 976.081 330.37 973.183 328.535 973.183C255.801 973.183 183.163 973.183 110.429 973.183C108.594 973.183 108.594 976.081 110.429 976.081Z" fill="#3B4045"/>
<path d="M387.746 949.615C458.741 949.615 529.64 949.615 600.635 949.615C671.244 949.615 741.95 949.615 812.559 949.615C852.741 949.615 892.827 949.615 933.009 949.615C934.845 949.615 934.845 946.717 933.009 946.717C862.014 946.717 791.115 946.717 720.12 946.717C649.511 946.717 578.805 946.717 508.196 946.717C468.014 946.717 427.928 946.717 387.746 946.717C385.91 946.717 385.91 949.615 387.746 949.615Z" fill="#3B4045"/>
<path d="M702.444 929.331C784.934 929.331 867.424 929.331 949.913 929.331C973.385 929.331 996.761 929.331 1020.23 929.331C1022.07 929.331 1022.07 926.433 1020.23 926.433C937.743 926.433 855.253 926.433 772.763 926.433C749.291 926.433 725.916 926.433 702.444 926.433C700.609 926.433 700.609 929.331 702.444 929.331Z" fill="#3B4045"/>
<path d="M866.071 980.717C939.095 980.717 1012.22 980.717 1085.24 980.717C1106.2 980.717 1127.06 980.717 1148.02 980.717C1149.86 980.717 1149.86 977.819 1148.02 977.819C1075 977.819 1001.88 977.819 928.856 977.819C907.896 977.819 887.032 977.819 866.071 977.819C864.14 977.819 864.14 980.717 866.071 980.717Z" fill="#3B4045"/>
<path d="M882.589 51.4992C902.197 61.0618 908.379 83.6644 910.601 103.659C913.595 130.512 912.919 158.234 912.726 185.183C912.339 244.104 908.862 303.026 905.674 361.85C899.396 479.403 893.021 596.956 886.742 714.509C883.168 780.675 879.594 846.841 876.117 913.007C876.021 914.842 878.918 914.842 879.015 913.007C885.487 792.846 891.958 672.685 898.333 552.62C901.521 492.83 904.708 433.136 907.993 373.345C911.18 313.844 914.851 254.343 915.623 194.746C915.816 178.132 915.817 161.518 915.43 144.807C915.14 130.608 915.044 116.313 913.402 102.21C910.89 81.636 904.225 58.647 884.134 48.8912C882.396 48.215 880.947 50.7264 882.589 51.4992Z" fill="#E8E8E8"/>
<path d="M831.878 32.3738C853.901 36.0443 874.572 44.5444 892.828 57.2946C894.373 58.3571 895.822 55.8457 894.277 54.7832C875.827 41.9364 854.77 33.3397 832.651 29.5726C830.816 29.1862 830.043 31.9874 831.878 32.3738Z" fill="#E8E8E8"/>
<path d="M746.393 4.16922C776.434 7.26018 808.792 11.2205 831.878 32.7606C833.23 34.0163 835.258 31.9878 833.906 30.7321C810.241 8.61247 777.303 4.459 746.393 1.27145C744.462 1.07826 744.558 3.97603 746.393 4.16922Z" fill="#E8E8E8"/>
<path d="M831.202 32.8564C827.048 63.766 809.951 92.2607 784.547 110.324C783.002 111.386 784.451 113.897 785.996 112.835C812.366 93.9994 829.849 64.9251 834.099 32.8564C834.389 31.0212 831.491 31.0212 831.202 32.8564Z" fill="#E8E8E8"/>
<path d="M744.559 2.52689C769.866 33.2433 783.485 72.5564 782.712 112.352C782.712 114.188 785.61 114.188 785.61 112.352C786.286 71.7836 772.377 31.7944 746.587 0.498452C745.428 -0.950433 743.399 1.07801 744.559 2.52689Z" fill="#E8E8E8"/>
<path d="M759.724 36.2375C748.132 35.4647 737.411 50.0502 743.013 60.8685C747.166 68.8857 762.911 73.1358 768.417 64.4425C769.383 62.897 766.871 61.4481 765.905 62.9936C761.559 69.9482 748.036 65.2152 745.428 58.9367C741.564 49.857 750.451 38.4591 759.82 39.1353C761.559 39.2318 761.559 36.3341 759.724 36.2375Z" fill="#E8E8E8"/>
<path d="M743.786 1.94675C744.848 15.4697 746.973 28.896 750.257 42.0326C750.74 43.8679 753.541 43.0951 753.058 41.2599C749.871 28.3165 747.746 15.1799 746.683 1.94675C746.49 0.111499 743.592 0.111499 743.786 1.94675Z" fill="#E8E8E8"/>
<path d="M761.848 69.6585C768.223 84.1474 774.599 98.6362 780.877 113.125C781.65 114.864 784.161 113.318 783.389 111.676C777.013 97.1873 770.638 82.6985 764.36 68.2096C763.684 66.5676 761.172 68.0165 761.848 69.6585Z" fill="#E8E8E8"/>
<path d="M762.621 68.4027C766.388 79.2211 770.252 90.0394 776.144 99.9885C777.11 101.631 779.525 100.182 778.655 98.5396C773.439 88.7837 769.672 78.5449 767.257 67.8232C766.485 68.3061 765.615 68.7891 764.843 69.2721C764.939 69.3687 764.939 69.3687 765.036 69.4653C764.939 68.8857 764.843 68.3061 764.843 67.7266C764.746 67.8232 764.746 67.9198 764.649 68.0164C765.422 67.9198 766.195 67.8232 766.968 67.7266C766.871 67.5334 775.468 59.7094 776.047 59.2265C775.274 59.0333 774.405 58.8401 773.632 58.5503C775.661 67.3402 777.013 76.2267 777.882 85.2098C778.848 85.1132 779.814 84.92 780.684 84.8234C779.042 78.5449 776.917 72.363 774.405 66.3743C773.729 64.7322 771.218 65.3118 771.604 67.147C773.246 74.971 774.792 82.795 776.434 90.7156C777.4 90.4258 778.269 90.2326 779.235 89.9428C777.11 83.3746 774.792 76.9995 772.184 70.6244C771.507 68.8857 768.899 69.5618 769.382 71.3971C771.314 78.6415 773.246 85.9826 775.178 93.227C776.047 92.8406 776.917 92.4542 777.786 92.0679C775.081 85.7894 772.473 79.5109 769.769 73.1358C769.093 71.6869 766.581 72.7494 767.161 74.2949C771.024 84.7268 774.888 95.1588 778.559 105.687C779.138 107.426 781.843 106.75 781.36 104.915C779.911 99.7953 778.848 94.5793 778.365 89.2667C777.4 89.3633 776.434 89.5565 775.564 89.6531C777.303 95.6418 779.042 101.631 780.78 107.619C781.263 109.454 783.968 108.682 783.581 106.847C782.036 100.085 780.973 93.227 780.297 86.2723C779.331 86.3689 778.365 86.5621 777.496 86.6587C778.752 93.7099 779.911 100.761 781.65 107.716C782.036 109.261 784.644 108.972 784.451 107.329C783.678 98.6361 782.229 90.0394 780.104 81.5393C779.621 79.704 776.917 80.4768 777.303 82.312C777.979 85.3064 777.979 88.2042 777.593 91.2951C778.462 91.0054 779.428 90.8122 780.297 90.5224C777.882 86.3689 776.337 82.1189 775.758 77.3858C775.564 75.9369 773.922 75.3574 773.053 76.6131C772.377 77.579 771.797 78.5449 771.121 79.5109C771.99 79.5109 772.763 79.5109 773.632 79.5109C772.377 76.6131 771.894 73.9085 771.99 70.721C771.024 70.721 770.059 70.721 769.093 70.721C768.899 71.3971 768.706 72.0732 768.513 72.7494C769.286 72.9426 770.155 73.1358 770.928 73.4255C770.445 70.9141 770.445 68.9823 770.638 66.5675C769.672 66.6641 768.706 66.8573 767.837 66.9539C767.644 68.0164 767.547 69.0789 767.354 70.1414C768.223 70.1414 768.996 70.1414 769.865 70.1414C770.252 68.7891 770.735 67.4368 771.121 66.0845C770.445 65.7947 769.672 65.505 768.996 65.2152C768.513 66.7607 768.03 68.3061 767.547 69.8516C768.32 70.3346 769.189 70.8175 769.962 71.3005C770.638 68.2096 771.99 65.9879 774.309 63.7663C773.536 63.5731 772.667 63.3799 771.894 63.0902C772.28 65.6982 771.99 67.8232 771.121 70.3346C772.087 70.4312 773.053 70.6244 773.922 70.721C773.922 68.5959 774.212 66.7607 774.985 64.7322C774.019 64.6356 773.053 64.4425 772.184 64.3459C772.184 66.0845 772.28 67.8232 772.28 69.5619C772.28 71.1073 774.888 71.5903 775.081 69.9482C775.371 68.2096 775.661 66.4709 775.951 64.7322C774.985 64.7322 774.115 64.7322 773.149 64.7322C773.149 65.6982 773.053 66.6641 773.053 67.7266C772.28 69.4653 774.792 70.9141 775.564 69.1755C776.434 67.2436 776.627 66.0845 775.951 63.9595C775.564 62.7038 773.439 62.5106 773.149 63.9595C772.86 65.6982 772.57 67.4368 772.28 69.1755C773.246 69.2721 774.212 69.4653 775.081 69.5619C775.081 67.8232 774.985 66.0845 774.985 64.3459C774.985 62.7038 772.666 62.414 772.184 63.9595C771.314 66.2777 771.024 68.3061 771.024 70.721C771.024 72.363 773.343 72.6528 773.826 71.1073C774.888 68.113 775.081 65.505 774.598 62.3174C774.405 61.1583 772.86 61.0617 772.184 61.6413C769.576 64.0561 767.934 66.9539 767.064 70.4312C766.774 71.7835 768.416 72.9426 769.479 71.8801C771.507 69.6584 772.184 67.4368 771.604 64.4425C771.411 63.5731 770.155 63.0902 769.479 63.5731C766.581 65.505 765.808 68.4027 767.161 71.5903C767.644 72.6528 769.093 72.363 769.672 71.5903C770.928 69.755 771.121 68.2096 770.445 66.1811C769.865 64.539 767.74 64.9254 767.644 66.5675C767.354 69.1755 767.547 71.5903 768.03 74.1983C768.223 75.2608 769.769 75.5506 770.445 74.8744C771.604 73.6187 772.087 72.6528 771.894 70.8175C771.701 68.9823 768.996 68.8857 768.996 70.8175C768.899 74.4881 769.576 77.6756 771.024 81.0563C771.507 82.1189 772.956 81.8291 773.536 81.0563C774.212 80.0904 774.792 79.1245 775.468 78.1586C774.598 77.8688 773.632 77.6756 772.763 77.3858C773.439 82.6984 774.985 87.4314 777.689 91.9713C778.462 93.3236 780.201 92.5508 780.394 91.1985C780.877 87.8178 780.684 84.8234 780.008 81.4427C779.042 81.7325 778.172 81.9257 777.206 82.2155C779.331 90.4258 780.684 98.8293 781.456 107.233C782.422 107.136 783.388 106.943 784.258 106.847C782.615 99.8918 781.36 92.8406 780.104 85.7894C779.814 84.1473 777.11 84.5337 777.303 86.1757C777.979 93.4202 779.042 100.471 780.684 107.523C781.65 107.233 782.519 107.04 783.485 106.75C781.746 100.761 780.008 94.7725 778.269 88.7837C777.786 87.2383 775.274 87.528 775.468 89.1701C776.047 94.7725 777.013 100.182 778.559 105.591C779.525 105.301 780.394 105.108 781.36 104.818C777.593 94.2895 773.826 83.8575 769.962 73.4255C769.093 73.8119 768.223 74.1983 767.354 74.5847C770.058 80.8632 772.667 87.1417 775.371 93.5168C776.047 95.0622 778.462 93.9031 777.979 92.3577C776.047 85.1132 774.115 77.7722 772.184 70.5278C771.218 70.8176 770.348 71.0107 769.382 71.3005C771.894 77.6756 774.212 84.1473 776.434 90.619C777.013 92.3576 779.621 91.6815 779.235 89.8463C777.593 82.0223 776.047 74.1983 774.405 66.2777C773.439 66.5675 772.57 66.7607 771.604 67.0504C774.115 73.0392 776.24 79.2211 777.882 85.4996C778.269 87.0451 780.877 86.7553 780.684 85.1132C779.814 75.8404 778.365 66.7607 776.337 57.681C776.047 56.6185 774.695 56.3287 773.922 57.0048C771.218 59.5162 766.485 62.5106 764.649 65.7947C763.78 67.4368 763.78 68.3062 764.843 69.5619C765.519 70.3346 766.581 69.9482 767.161 69.2721C767.257 69.1755 767.257 69.0789 767.354 68.9823C767.74 68.4993 767.547 67.63 767.161 67.2436C767.064 67.147 767.064 67.147 766.968 67.0504C765.905 65.9879 764.263 67.0504 764.553 68.4993C766.968 79.5109 770.831 90.0394 776.24 99.8919C777.11 99.4089 777.883 98.9259 778.752 98.443C773.053 88.6871 769.189 78.1586 765.519 67.5334C764.746 65.8913 761.945 66.6641 762.621 68.4027Z" fill="#E8E8E8"/>
<path d="M745.331 6.10045C748.132 16.4358 750.161 26.8678 751.513 37.3964C751.61 38.4589 752.672 39.2316 753.735 38.6521C756.922 36.9134 760.11 35.6577 763.684 34.7884C764.553 34.5952 765.036 33.4361 764.553 32.6634C760.11 25.9985 755.956 19.1404 752.093 12.1858C751.223 10.5437 748.809 11.9926 749.581 13.6347C752.189 19.3336 754.218 25.2257 755.86 31.2145C756.729 30.8281 757.598 30.4417 758.468 30.0554C756.246 25.8053 754.701 21.4586 753.735 16.7256C752.865 17.112 751.996 17.4984 751.127 17.8847C754.701 23.1007 756.632 28.7997 756.922 35.0782C757.792 34.6918 758.564 34.402 759.434 34.0156C757.212 31.9872 755.956 29.7656 755.28 26.7712C754.604 27.3508 753.831 27.8337 753.155 28.4133C755.184 29.9588 755.86 31.6974 755.377 33.7259C756.246 33.4361 757.212 33.2429 758.081 32.9531C755.667 29.7656 753.735 26.3849 751.996 22.8109C751.32 23.4871 750.644 24.1632 749.968 24.8394C752.672 26.578 756.246 43.8681 763.104 36.0441C765.616 33.1463 764.167 29.4758 762.525 26.4814C759.82 21.4586 756.439 16.8222 752.962 12.379C751.899 11.0267 749.871 12.7653 750.644 14.1176C754.411 20.5893 757.212 27.3508 759.047 34.5952C759.917 34.2088 760.786 33.8225 761.655 33.4361C761.269 32.5668 760.883 31.794 760.496 30.9247C759.82 31.6008 759.144 32.277 758.468 32.9531C758.468 32.8565 758.468 32.8565 758.468 32.7599C757.888 33.2429 757.212 33.7259 756.632 34.1122C757.888 34.5952 759.24 35.0782 760.496 35.5611C762.235 36.2373 763.008 33.4361 761.269 32.7599C760.013 32.277 758.661 31.794 757.405 31.3111C756.536 30.9247 755.57 31.8906 755.57 32.6634C755.473 40.2942 766.292 34.2088 759.917 30.3451C758.564 29.5724 757.309 31.1179 757.888 32.3736C758.275 33.2429 758.661 34.0157 759.047 34.885C759.723 36.4305 762.042 35.2714 761.655 33.7259C759.723 26.1917 756.922 19.237 752.962 12.5721C752.189 13.1517 751.416 13.7312 750.644 14.3108C752.769 17.112 754.797 19.9132 756.729 22.8109C757.502 23.97 758.275 25.1291 758.951 26.3848C759.53 27.2542 760.013 28.2201 760.4 29.186C761.945 31.2145 760.786 32.3736 756.826 32.5668C755.473 31.5042 755.28 27.9303 754.701 26.3848C753.928 24.453 752.962 23.1973 751.223 22.1348C749.871 21.362 748.712 22.9075 749.195 24.1632C750.934 27.8337 752.865 31.1179 755.28 34.3054C756.149 35.4645 757.792 35.0782 757.985 33.5327C758.371 30.152 757.115 27.6406 754.314 25.7087C753.252 24.936 751.899 26.1917 752.189 27.3508C752.962 30.7315 754.604 33.5327 757.115 35.8509C757.985 36.6236 759.627 36.1407 759.627 34.7884C759.337 27.9303 757.212 21.7484 753.445 16.1461C752.479 14.7938 750.451 15.6631 750.837 17.3052C751.899 22.2314 753.542 26.8678 755.86 31.3111C756.633 32.7599 758.951 31.794 758.468 30.152C756.826 23.8734 754.604 17.7881 751.899 11.896C751.03 12.379 750.257 12.8619 749.388 13.3449C753.252 20.3961 757.405 27.1576 761.848 33.8225C762.138 33.1463 762.428 32.3736 762.718 31.6974C758.951 32.5668 755.473 33.9191 752.093 35.8509C752.865 36.2373 753.541 36.7202 754.314 37.1066C752.962 26.2883 750.933 15.5665 748.036 5.03793C747.649 3.49245 744.848 4.26519 745.331 6.10045Z" fill="#E8E8E8"/>
<path d="M745.427 55.3629C743.206 49.8571 748.518 44.7377 752.768 42.2263C756.922 39.7149 761.558 38.8456 766.388 39.1354C767.74 39.232 768.127 37.5899 767.45 36.624C766.581 35.5615 765.808 34.4989 764.939 33.4364C764.166 32.4705 762.331 33.2432 762.427 34.4989C762.138 32.5671 759.433 33.7262 758.177 33.7262C753.541 33.6296 755.376 32.7603 755.183 30.1523C754.797 26.9647 752.961 23.6806 752.189 20.5896C751.03 16.0498 750.45 11.5099 750.064 6.87351C749.967 5.03826 747.069 5.03826 747.166 6.87351C747.552 12.3793 748.325 17.7885 749.774 23.101C750.45 25.4193 752.092 28.317 751.802 30.7318C751.706 31.7943 750.933 32.5671 750.933 33.6296C751.03 35.8512 753.251 37.2035 755.28 37.2035C757.501 37.2035 759.723 36.7206 762.041 36.8172C763.297 36.9137 763.49 37.2035 764.649 36.4308C765.036 36.141 765.422 35.658 765.325 35.1751C765.325 34.9819 765.229 34.6921 765.229 34.4989C764.359 34.8853 763.587 35.1751 762.717 35.5614C763.587 36.624 764.359 37.6865 765.229 38.749C765.615 37.8797 765.905 37.1069 766.291 36.2376C756.825 35.658 737.41 43.482 742.529 56.1356C743.302 57.8743 746.103 57.1016 745.427 55.3629Z" fill="#E8E8E8"/>
<path d="M750.933 39.1356C746.683 42.613 743.399 47.5392 742.723 53.1415C742.143 58.0678 745.137 62.4144 748.808 65.5054C758.66 73.9089 769.189 64.5394 775.371 56.6189C776.53 55.17 774.501 53.1415 773.342 54.5904C768.32 61.0621 759.53 70.5282 750.933 63.4769C747.166 60.386 744.848 56.1359 746.103 51.2097C747.166 47.1528 749.774 43.7721 753.058 41.1641C754.507 40.005 752.382 37.9765 750.933 39.1356Z" fill="#E8E8E8"/>
<path d="M779.814 74.8749C779.814 74.7783 779.814 74.6817 779.718 74.5851C779.524 75.1647 779.235 75.6476 779.042 76.2272C779.138 76.1306 779.235 76.1306 779.331 76.034C778.655 75.8408 777.979 75.6476 777.303 75.551C778.655 77.6761 778.655 81.5398 779.042 83.9546C779.524 87.1421 780.007 90.4263 780.394 93.6138C780.973 99.1196 781.263 104.625 781.456 110.228C781.456 112.063 784.354 112.063 784.354 110.228C784.161 103.466 783.775 96.7048 782.905 89.9433C782.615 87.3353 782.229 84.8239 781.746 82.2159C781.36 79.6079 781.263 76.2272 779.814 74.0056C779.428 73.3294 778.559 73.1362 777.786 73.5226C777.689 73.6192 777.593 73.6192 777.496 73.7158C776.916 74.0056 776.627 74.7783 776.82 75.3579C776.82 75.4545 776.82 75.551 776.916 75.6476C777.496 77.4829 780.297 76.7102 779.814 74.8749Z" fill="#E8E8E8"/>
<path d="M746.297 6.68062C749.677 10.9307 752.189 15.6637 753.831 20.8797C754.41 22.6184 757.212 21.8456 756.632 20.107C754.797 14.408 752.092 9.28861 748.325 4.65218C747.263 3.1067 745.138 5.23174 746.297 6.68062Z" fill="#E8E8E8"/>
<path d="M668.346 21.5554C681.579 25.3225 694.909 28.6067 708.432 31.3113C710.267 31.6976 711.04 28.8965 709.205 28.5101C695.682 25.8055 682.352 22.5214 669.119 18.7543C667.38 18.1747 666.608 20.9759 668.346 21.5554Z" fill="#E8E8E8"/>
<path d="M634.54 66.6643C659.847 64.6358 684.864 59.9028 709.302 52.5618C711.041 51.9822 710.365 49.1811 708.529 49.7606C684.381 57.005 659.654 61.7381 634.54 63.6699C632.704 63.8631 632.704 66.7609 634.54 66.6643Z" fill="#E8E8E8"/>
<path d="M726.496 68.1128C720.7 71.6867 715.291 75.7436 710.172 80.1868C708.723 81.4425 710.848 83.4709 712.2 82.2152C717.126 77.9652 722.439 74.1015 727.945 70.6242C729.587 69.6582 728.138 67.1468 726.496 68.1128Z" fill="#E8E8E8"/>
<path d="M728.331 99.1197C707.66 116.989 686.893 134.859 666.222 152.728C664.773 153.984 666.898 156.013 668.251 154.757C688.921 136.887 709.689 119.018 730.359 101.148C731.808 99.989 729.78 97.864 728.331 99.1197Z" fill="#E8E8E8"/>
<path d="M736.155 121.142C729.876 133.119 723.501 145.193 717.223 157.171C716.353 158.813 718.865 160.262 719.734 158.62C726.013 146.642 732.388 134.568 738.666 122.591C739.536 120.949 737.024 119.5 736.155 121.142Z" fill="#E8E8E8"/>
<path d="M753.155 127.903C749.967 146.739 748.035 165.768 747.263 184.893C747.166 186.728 750.064 186.728 750.16 184.893C750.933 166.057 752.865 147.222 755.956 128.676C756.246 126.841 753.445 126.068 753.155 127.903Z" fill="#E8E8E8"/>
<path d="M839.702 35.2718C864.43 31.9876 886.742 48.1186 898.913 68.5962C913.305 92.7443 913.788 122.591 913.112 149.927C911.663 211.843 909.055 273.662 906.544 335.481C901.521 459.988 895.243 584.496 887.902 709.004C883.748 778.937 879.208 848.773 874.282 918.706C873.992 922.473 879.788 922.376 880.078 918.706C889.061 791.107 896.788 663.509 903.26 535.814C909.731 408.408 915.43 280.906 918.908 153.404C919.68 123.557 919.487 90.8124 903.26 64.5393C890.027 43.0958 865.975 26.0955 839.798 29.5728C836.031 29.9592 836.031 35.7547 839.702 35.2718Z" fill="#E8E8E8"/>
<path d="M834.486 34.0158C841.44 34.209 848.395 34.3056 855.157 35.8511C862.208 37.4932 867.617 41.4535 873.896 44.641C875.538 45.5103 876.987 42.9989 875.344 42.1296C868.776 38.8455 863.174 34.7886 855.929 33.0499C848.878 31.4079 841.634 31.2147 834.486 31.0215C832.651 31.0215 832.651 33.9193 834.486 34.0158Z" fill="#E8E8E8"/>
<path d="M834.486 35.9475C855.157 37.976 874.765 45.5102 891.572 57.7774C893.117 58.8399 894.566 56.3285 893.021 55.266C875.731 42.8056 855.64 35.1748 834.486 33.0498C832.651 32.8566 832.651 35.7544 834.486 35.9475Z" fill="#E8E8E8"/>
<path d="M830.332 29.1868C839.412 30.9254 848.298 33.2437 856.992 35.9483C858.73 36.5278 859.503 33.7266 857.764 33.1471C848.974 30.3459 840.088 28.1243 831.105 26.3856C829.27 25.9992 828.497 28.8004 830.332 29.1868Z" fill="#E8E8E8"/>
<path d="M832.457 28.8968C843.758 30.1525 854.77 32.5673 865.492 36.0446C867.23 36.6241 868.003 33.823 866.264 33.2434C855.253 29.6695 843.952 27.2547 832.457 25.999C830.622 25.8058 830.622 28.7036 832.457 28.8968Z" fill="#E8E8E8"/>
<path d="M796.911 12.1858C811.787 17.4018 825.986 23.9701 839.509 31.8907C841.151 32.8566 842.6 30.3452 840.957 29.3793C827.145 21.2655 812.656 14.6006 797.587 9.38463C795.945 8.80508 795.173 11.6063 796.911 12.1858Z" fill="#E8E8E8"/>
<path d="M792.854 11.2205C808.019 16.8228 822.605 23.5843 836.611 31.6015C838.253 32.5674 839.702 30.056 838.059 29.0901C823.764 20.9763 808.985 14.1183 793.53 8.4193C791.888 7.83975 791.116 10.6409 792.854 11.2205Z" fill="#E8E8E8"/>
<path d="M815.264 83.182C824.054 67.7272 831.685 51.6928 838.156 35.079C838.832 33.3403 836.031 32.5676 835.355 34.3062C828.98 50.6303 821.446 66.4715 812.753 81.7331C811.883 83.2786 814.395 84.7274 815.264 83.182Z" fill="#E8E8E8"/>
<path d="M834.196 33.9191C832.457 36.8169 831.201 39.8112 830.332 43.0954C829.849 44.9306 832.65 45.7034 833.133 43.8681C833.906 40.8738 835.065 38.0726 836.707 35.368C837.673 33.7259 835.162 32.277 834.196 33.9191Z" fill="#E8E8E8"/>
<path d="M84.2524 530.791C84.2524 535.427 84.2524 540.063 84.2524 544.7C84.2524 546.535 87.1502 546.535 87.1502 544.7C87.1502 540.063 87.1502 535.427 87.1502 530.791C87.1502 528.955 84.2524 528.955 84.2524 530.791Z" fill="#E8E8E8"/>
<path d="M85.7011 546.729C153.412 546.729 221.124 546.729 288.835 546.729C290.67 546.729 290.67 543.831 288.835 543.831C221.124 543.831 153.412 543.831 85.7011 543.831C83.8659 543.831 83.8659 546.729 85.7011 546.729Z" fill="#E8E8E8"/>
<path d="M87.247 531.757C154.089 531.757 221.027 531.757 287.869 531.757C289.705 531.757 289.705 528.859 287.869 528.859C221.027 528.859 154.089 528.859 87.247 528.859C85.4118 528.859 85.4118 531.757 87.247 531.757Z" fill="#E8E8E8"/>
<path d="M286.324 531.37C286.517 536.007 286.421 540.643 285.841 545.28C285.648 547.115 288.546 547.115 288.739 545.28C289.319 540.643 289.512 536.007 289.222 531.37C289.125 529.438 286.228 529.438 286.324 531.37Z" fill="#E8E8E8"/>
<path d="M200.743 466.267C195.237 487.131 198.328 508.671 203.351 529.245C203.834 531.081 206.539 530.308 206.152 528.473C201.226 508.285 198.135 487.421 203.544 467.04C204.027 465.205 201.226 464.432 200.743 466.267Z" fill="#E8E8E8"/>
<path d="M246.817 470.13C247.494 474.477 248.17 478.727 248.846 483.074C249.136 484.909 251.937 484.136 251.647 482.301C250.971 477.954 250.295 473.704 249.619 469.357C249.329 467.522 246.528 468.295 246.817 470.13Z" fill="#E8E8E8"/>
<path d="M250.488 483.557C258.312 477.665 262.755 489.159 262.852 495.148C262.948 502.682 259.375 509.443 251.164 510.023C249.329 510.12 249.329 513.017 251.164 512.921C262.369 512.245 266.619 502.392 265.556 492.347C264.784 484.619 257.346 474.863 249.039 481.142C247.494 482.204 248.943 484.716 250.488 483.557Z" fill="#E8E8E8"/>
<path d="M249.908 510.989C249.329 516.785 248.266 522.387 246.914 528.086C246.431 529.921 249.232 530.694 249.715 528.859C251.164 522.967 252.227 517.074 252.903 510.989C252.999 509.057 250.102 509.154 249.908 510.989Z" fill="#E8E8E8"/>
<path d="M252.517 488.097C255.608 485.586 256.863 493.506 256.96 494.569C257.056 495.825 256.863 497.177 256.574 498.433C255.801 501.427 254.159 503.842 251.841 505.774C250.392 506.933 252.42 508.961 253.869 507.802C258.312 504.131 260.63 498.239 259.664 492.54C258.988 488.29 255.221 482.108 250.488 486.069C249.039 487.228 251.068 489.256 252.517 488.097Z" fill="#E8E8E8"/>
<path d="M250.102 485.682C249.715 492.443 249.812 499.205 250.295 506.063C250.391 507.898 253.289 507.898 253.193 506.063C252.71 499.301 252.613 492.54 252.999 485.682C253.096 483.75 250.198 483.75 250.102 485.682Z" fill="#E8E8E8"/>
<path d="M205.573 469.551C217.26 473.318 229.431 474.284 241.602 472.449C243.437 472.159 242.664 469.358 240.829 469.648C229.141 471.386 217.55 470.42 206.346 466.75C204.607 466.17 203.834 468.971 205.573 469.551Z" fill="#E8E8E8"/>
<path d="M212.237 462.21C206.539 458.636 213.203 450.812 214.169 446.273C215.135 441.733 212.527 439.511 210.789 435.647C208.277 430.045 214.073 425.892 214.942 420.482C215.715 415.749 211.851 411.789 217.067 407.925C218.516 406.863 217.164 404.351 215.618 405.414C212.431 407.732 210.499 411.306 211.175 415.363C211.658 418.357 212.431 419.903 210.982 422.994C210.306 424.539 209.34 425.892 208.567 427.437C207.601 429.562 206.732 431.784 207.021 434.198C207.215 436.613 208.47 437.676 209.629 439.608C213.01 445.307 209.919 448.204 207.987 453.614C206.538 457.67 206.925 462.114 210.789 464.528C212.334 465.688 213.783 463.176 212.237 462.21Z" fill="#E8E8E8"/>
<path d="M229.431 392.953C227.982 396.72 226.147 400.97 225.857 405.027C225.568 408.698 228.272 410.726 229.141 414.01C230.204 417.971 226.437 421.255 226.05 425.118C225.568 430.141 230.011 433.425 225.664 438.255C224.408 439.607 226.437 441.732 227.693 440.283C229.914 437.869 231.073 434.971 230.687 431.687C230.397 429.272 228.659 427.243 229.045 424.635C229.335 422.607 230.88 420.772 231.556 418.84C232.715 415.749 232.232 413.334 230.687 410.533C227.596 404.737 230.107 399.425 232.232 393.726C232.909 391.987 230.107 391.215 229.431 392.953Z" fill="#E8E8E8"/>
<path d="M243.727 421.737C239.187 426.47 237.062 432.942 238.318 439.51C238.704 441.635 239.767 443.761 239.863 445.982C240.056 448.783 238.318 450.136 237.545 452.55C236.483 455.641 240.25 460.085 237.931 462.499C236.676 463.852 238.704 465.88 239.96 464.528C241.409 462.982 241.795 461.244 241.409 459.119C241.022 456.801 239.67 455.158 240.636 452.744C241.216 451.295 242.375 450.522 242.761 448.88C243.534 445.209 241.602 441.732 241.022 438.158C240.153 432.846 242.085 427.63 245.755 423.766C247.108 422.414 244.983 420.385 243.727 421.737Z" fill="#E8E8E8"/>
<path d="M101.736 528.858C101.446 525.091 101.349 521.421 101.446 517.654C100.963 518.137 100.48 518.62 99.997 519.103C115.548 517.557 131.196 516.784 146.844 516.591C154.379 516.494 161.913 516.591 169.35 516.881C171.186 516.977 173.118 516.977 174.953 517.074C176.208 517.171 179.396 516.688 180.555 517.364C183.356 519.006 182.197 527.892 182.294 530.694C182.39 532.529 185.288 532.529 185.192 530.694C185.095 526.733 185.771 521.517 184.709 517.75C184.226 516.108 183.646 515.239 181.907 514.563C178.43 513.307 172.924 513.983 169.254 513.886C164.907 513.693 160.464 513.597 156.117 513.597C137.378 513.404 118.543 514.273 99.9005 516.108C99.1277 516.205 98.4516 516.688 98.4516 517.557C98.2584 521.324 98.355 524.995 98.7413 528.762C98.9345 530.694 101.832 530.694 101.736 528.858Z" fill="#E8E8E8"/>
<path d="M125.884 514.95C125.884 513.211 125.208 509.541 125.981 507.995C127.236 505.194 132.452 505.967 134.964 505.87C140.469 505.677 145.879 505.387 151.384 505.194C156.504 505.001 161.623 504.808 166.839 504.614C170.123 504.518 173.794 503.552 175.146 507.222C175.919 509.347 175.629 512.631 175.822 514.853C176.015 516.688 178.913 516.688 178.72 514.853C178.334 510.989 179.493 502.876 174.47 501.523C171.669 500.751 167.805 501.62 164.811 501.717C160.271 501.91 155.828 502.103 151.288 502.296C143.367 502.586 134.674 501.91 126.947 503.359C121.441 504.325 122.986 510.796 122.89 514.95C122.986 516.785 125.884 516.785 125.884 514.95Z" fill="#E8E8E8"/>
<path d="M157.374 516.785C159.016 521.228 159.595 525.671 159.016 530.307C158.822 532.143 161.72 532.143 161.913 530.307C162.59 525.381 162.01 520.648 160.175 516.012C159.499 514.273 156.697 515.046 157.374 516.785Z" fill="#E8E8E8"/>
<path d="M157.567 504.228C159.305 508.188 159.692 512.342 158.919 516.592C158.533 518.427 161.334 519.2 161.72 517.364C162.686 512.342 162.107 507.512 160.078 502.779C159.305 501.04 156.891 502.489 157.567 504.228Z" fill="#E8E8E8"/>
<path d="M168.481 503.358C169.157 506.836 169.834 510.409 170.22 513.887C170.413 515.722 173.311 515.722 173.118 513.887C172.635 510.12 172.055 506.256 171.282 502.586C170.896 500.75 168.095 501.523 168.481 503.358Z" fill="#E8E8E8"/>
<path d="M173.408 517.267C174.857 521.131 175.146 524.995 174.277 528.955C173.891 530.79 176.595 531.563 177.078 529.728C178.141 525.285 177.851 520.745 176.209 516.495C175.533 514.756 172.732 515.529 173.408 517.267Z" fill="#E8E8E8"/>
<path d="M68.7017 268.35C68.7017 272.31 68.8948 276.27 69.1846 280.134C69.3778 281.969 72.2756 281.969 72.0824 280.134C71.696 276.174 71.5028 272.31 71.5994 268.35C71.5994 266.514 68.7017 266.514 68.7017 268.35Z" fill="#E8E8E8"/>
<path d="M71.4062 283.321C141.049 283.321 210.596 283.321 280.239 283.321C282.074 283.321 282.074 280.423 280.239 280.423C210.596 280.423 141.049 280.423 71.4062 280.423C69.571 280.423 69.571 283.321 71.4062 283.321Z" fill="#E8E8E8"/>
<path d="M71.0192 269.412C140.662 269.412 210.209 269.412 279.852 269.412C281.687 269.412 281.687 266.514 279.852 266.514C210.209 266.514 140.662 266.514 71.0192 266.514C69.0874 266.514 69.0874 269.412 71.0192 269.412Z" fill="#E8E8E8"/>
<path d="M279.273 268.35C279.273 272.889 279.273 277.333 279.273 281.873C279.273 283.708 282.171 283.708 282.171 281.873C282.171 277.333 282.171 272.889 282.171 268.35C282.171 266.514 279.273 266.514 279.273 268.35Z" fill="#E8E8E8"/>
<path d="M79.327 226.621C82.5146 240.144 85.7021 253.667 89.0828 267.094C89.5658 268.929 92.367 268.156 91.884 266.321C88.5033 252.895 85.3157 239.372 82.1282 225.849C81.7418 224.013 78.9406 224.786 79.327 226.621Z" fill="#E8E8E8"/>
<path d="M80.6791 226.428C87.8269 226.235 94.8781 225.945 101.929 225.462C105.31 225.269 108.691 224.979 112.072 224.689C115.935 224.303 120.185 223.433 123.856 225.172C125.498 225.945 127.043 223.433 125.305 222.661C119.316 219.763 111.878 221.791 105.503 222.274C97.1964 222.854 88.8894 223.337 80.4859 223.53C78.7472 223.53 78.7472 226.428 80.6791 226.428Z" fill="#E8E8E8"/>
<path d="M122.889 224.109C121.73 238.405 119.219 252.508 115.548 266.417C115.065 268.252 117.867 269.025 118.35 267.19C122.117 253.087 124.628 238.695 125.787 224.109C125.884 222.274 122.986 222.274 122.889 224.109Z" fill="#E8E8E8"/>
<path d="M89.4689 222.951C83.8665 216.286 79.4233 209.428 76.6221 201.121C74.2073 194.069 72.855 186.728 71.5027 179.387C70.9232 179.967 70.3436 180.547 69.7641 181.126C87.5371 187.211 96.4236 204.501 99.9009 221.888C100.287 223.723 103.088 222.951 102.702 221.115C99.0316 202.666 89.2757 184.797 70.5368 178.421C69.3777 178.035 68.605 179.194 68.7981 180.16C70.3436 188.564 71.8891 196.967 74.98 204.888C77.8778 212.325 82.3211 218.797 87.4405 224.882C88.5996 226.428 90.628 224.399 89.4689 222.951Z" fill="#E8E8E8"/>
<path d="M98.0657 204.598C95.5543 195.615 103.958 189.047 108.787 182.672C113.424 176.586 117.191 169.922 120.282 162.87C119.413 162.774 118.543 162.677 117.674 162.484C122.407 181.899 126.947 205.178 111.878 221.405C110.623 222.758 112.651 224.786 113.907 223.434C129.651 206.337 125.401 182.189 120.379 161.711C120.089 160.552 118.254 160.166 117.771 161.325C113.907 170.405 108.691 178.518 102.316 186.053C97.5827 191.558 93.2361 197.74 95.3611 205.371C95.7475 207.11 98.5486 206.434 98.0657 204.598Z" fill="#E8E8E8"/>
<path d="M166.066 267.094C166.066 261.588 166.066 256.082 166.066 250.673C166.066 248.838 163.168 248.838 163.168 250.673C163.168 256.179 163.168 261.684 163.168 267.094C163.168 269.025 166.066 269.025 166.066 267.094Z" fill="#E8E8E8"/>
<path d="M164.618 251.736C199.681 251.736 234.647 251.736 269.71 251.736C271.545 251.736 271.545 248.838 269.71 248.838C234.647 248.838 199.681 248.838 164.618 248.838C162.782 248.838 162.782 251.736 164.618 251.736Z" fill="#E8E8E8"/>
<path d="M268.648 251.542C268.648 256.854 268.648 262.263 268.648 267.576C268.648 269.411 271.546 269.411 271.546 267.576C271.546 262.263 271.546 256.854 271.546 251.542C271.546 249.61 268.648 249.61 268.648 251.542Z" fill="#E8E8E8"/>
<path d="M185.482 249.803C185.482 246.616 185.482 243.332 185.482 240.144C185.482 238.309 182.584 238.309 182.584 240.144C182.584 243.332 182.584 246.616 182.584 249.803C182.584 251.735 185.482 251.735 185.482 249.803Z" fill="#E8E8E8"/>
<path d="M184.033 240.337C211.562 240.337 239.187 240.337 266.716 240.337C268.551 240.337 268.551 237.439 266.716 237.439C239.187 237.439 211.562 237.439 184.033 237.439C182.197 237.439 182.197 240.337 184.033 240.337Z" fill="#E8E8E8"/>
<path d="M265.75 238.888C265.75 242.559 265.75 246.229 265.75 249.9C265.75 251.735 268.648 251.735 268.648 249.9C268.648 246.229 268.648 242.559 268.648 238.888C268.648 236.956 265.75 236.956 265.75 238.888Z" fill="#E8E8E8"/>
<path d="M207.891 237.633C207.891 232.61 207.891 227.491 207.891 222.468C207.891 220.632 204.994 220.632 204.994 222.468C204.994 227.491 204.994 232.61 204.994 237.633C204.994 239.468 207.891 239.468 207.891 237.633Z" fill="#E8E8E8"/>
<path d="M207.698 223.048C226.147 223.048 244.5 223.048 262.949 223.048C264.784 223.048 264.784 220.15 262.949 220.15C244.5 220.15 226.147 220.15 207.698 220.15C205.863 220.15 205.863 223.048 207.698 223.048Z" fill="#E8E8E8"/>
<path d="M262.369 221.116C262.369 226.621 262.369 232.127 262.369 237.536C262.369 239.372 265.267 239.372 265.267 237.536C265.267 232.031 265.267 226.525 265.267 221.116C265.267 219.28 262.369 219.28 262.369 221.116Z" fill="#E8E8E8"/>
<path d="M243.051 222.371C244.403 227.587 244.693 232.707 244.21 238.019C244.017 239.855 246.915 239.855 247.108 238.019C247.687 232.417 247.301 227.008 245.852 221.599C245.369 219.763 242.568 220.536 243.051 222.371Z" fill="#E8E8E8"/>
<path d="M251.744 223.241C252.227 227.491 252.42 231.644 252.227 235.894C252.13 237.73 255.028 237.73 255.125 235.894C255.318 231.644 255.221 227.491 254.642 223.241C254.449 221.405 251.551 221.405 251.744 223.241Z" fill="#E8E8E8"/>
<path d="M239.96 239.661C240.443 242.849 240.346 246.133 239.96 249.417C239.767 251.252 242.665 251.252 242.858 249.417C243.341 245.939 243.244 242.462 242.761 238.888C242.471 237.053 239.67 237.826 239.96 239.661Z" fill="#E8E8E8"/>
<path d="M247.301 239.178C247.88 241.786 247.687 244.297 246.818 246.905C246.238 248.644 249.039 249.417 249.619 247.678C250.681 244.684 250.778 241.593 250.102 238.405C249.716 236.667 246.914 237.439 247.301 239.178Z" fill="#E8E8E8"/>
<path d="M225.471 250.287C226.051 256.082 226.147 261.781 225.761 267.577C225.664 269.412 228.562 269.412 228.659 267.577C229.045 261.781 228.948 256.082 228.369 250.287C228.176 248.451 225.278 248.451 225.471 250.287Z" fill="#E8E8E8"/>
<path d="M255.222 250.673C255.898 256.082 255.898 261.395 255.028 266.804C254.739 268.639 257.54 269.412 257.83 267.576C258.699 261.974 258.892 256.372 258.119 250.673C257.926 248.838 255.028 248.838 255.222 250.673Z" fill="#E8E8E8"/>
<path d="M359.831 91.3918C359.831 108.199 359.831 125.006 359.831 141.813C359.831 143.648 362.729 143.648 362.729 141.813C362.729 125.006 362.729 108.199 362.729 91.3918C362.729 89.4599 359.831 89.4599 359.831 91.3918Z" fill="#E8E8E8"/>
<path d="M319.262 143.938C345.825 143.938 372.484 143.938 399.047 143.938C400.882 143.938 400.882 141.04 399.047 141.04C372.484 141.04 345.825 141.04 319.262 141.04C317.426 141.04 317.426 143.938 319.262 143.938Z" fill="#E8E8E8"/>
<path d="M385.041 144.518C385.041 161.035 385.041 177.649 385.041 194.166C385.041 196.001 387.939 196.001 387.939 194.166C387.939 177.649 387.939 161.035 387.939 144.518C387.939 142.682 385.041 142.682 385.041 144.518Z" fill="#E8E8E8"/>
<path d="M814.008 903.927C811.497 908.08 815.071 912.91 823.281 931.069C835.838 958.791 835.259 965.166 833.23 969.416C829.85 976.371 822.605 977.24 823.281 980.621C824.247 985.547 840.185 989.314 845.787 983.229C848.299 980.524 847.912 976.757 847.14 969.32C843.662 938.507 842.986 936.285 841.827 926.916C839.799 910.302 840.861 906.052 836.514 902.381C830.043 897.262 817.486 898.324 814.008 903.927Z" fill="#3B4045" stroke="#3B4045" stroke-width="3" stroke-miterlimit="10"/>
<path d="M964.306 899.677C971.551 894.558 984.204 899.967 990.773 906.342C996.278 911.558 995.023 915.035 1001.4 919.575C1002.85 920.638 1009.51 925.371 1017.92 924.888C1024.39 924.501 1025.64 921.314 1030.47 922.28C1033.85 922.859 1035.3 924.791 1041.77 930.876C1051.92 940.536 1055.68 942.757 1055.01 944.11C1054.33 945.365 1051.14 944.689 1037.14 942.757C1026.9 941.308 1021.59 940.632 1017.92 940.439C1009.51 940.053 1009.13 941.115 996.761 941.405C984.011 941.791 977.539 941.791 972.903 939.376C962.568 933.967 959.863 921.99 959.67 920.831C959.38 919.285 956.579 905.086 964.306 899.677Z" fill="#3B4045" stroke="#3B4045" stroke-width="3" stroke-miterlimit="10"/>
<path d="M823.957 862.875C830.236 863.068 832.94 870.409 838.543 876.784C853.128 893.591 878.532 894.171 899.396 894.654C938.806 895.523 949.431 880.551 968.266 890.694C978.602 896.296 988.358 907.79 988.164 920.444C987.875 936.961 970.585 948.649 958.414 952.899C947.596 956.666 941.703 954.348 912.05 948.939C864.333 940.149 854.867 941.501 836.611 931.069C826.179 925.08 816.809 917.45 810.821 905.955C808.309 901.126 804.349 893.108 806.184 883.449C808.02 873.307 816.133 862.585 823.957 862.875Z" fill="#3B4045" stroke="#3B4045" stroke-width="3" stroke-miterlimit="10"/>
<path d="M962.954 891.37C964.982 888.569 972.999 895.62 981.499 892.046C988.744 888.955 992.028 879.972 994.056 874.177C997.824 863.841 995.312 860.171 999.369 856.307C1003.23 852.54 1006.61 854.955 1017.91 851.671C1025.55 849.449 1031.73 847.71 1035.11 842.398C1037.81 838.148 1035.88 836.023 1037.72 825.204C1038.3 821.92 1040.52 808.784 1043.7 808.687C1046.02 808.59 1048.82 815.545 1049.02 821.92C1049.11 824.528 1048.73 826.363 1045.06 838.437C1042.74 845.972 1041.58 849.739 1041.1 850.318C1036.36 856.21 1030.09 853.313 1017.91 858.915C1012.02 861.62 1006.32 864.228 1003.33 870.12C1000.62 875.529 1002.94 877.944 1000.05 885.961C997.341 893.302 992.994 897.649 992.125 898.518C988.937 901.705 982.465 907.984 974.931 906.439C966.431 904.893 960.925 894.171 962.954 891.37Z" fill="#3B4045" stroke="#3B4045" stroke-width="3" stroke-miterlimit="10"/>
<path d="M940.448 937.058C939.289 939.376 936.005 946.041 937.164 954.252C938.323 962.655 943.539 969.9 947.113 974.729C952.039 981.587 954.937 983.036 954.357 985.934C953.295 992.309 938.999 992.792 939.096 995.883C939.289 998.974 953.778 1000.52 964.886 999.843C973.193 999.36 975.125 997.911 976.187 996.559C978.505 993.275 975.897 989.411 974.835 980.718C974.062 974.536 974.642 970.189 975.511 962.848C976.96 950.774 979.278 950.001 980.148 941.018C980.824 933.871 981.983 921.99 976.187 917.836C968.267 912.234 948.079 921.99 940.448 937.058Z" fill="#3B4045" stroke="#3B4045" stroke-width="3" stroke-miterlimit="10"/>
<path d="M743.882 876.108C745.428 883.932 753.928 888.859 766.388 893.978C779.621 899.484 817.099 914.938 823.957 904.603C825.696 901.995 825.116 898.325 823.957 896.006C821.06 890.501 813.139 891.08 799.423 888.762C787.445 886.734 776.337 884.898 765.036 878.813C754.604 873.307 748.422 866.642 745.138 868.864C742.82 870.506 743.786 875.625 743.882 876.108Z" fill="#3B4045" stroke="#3B4045" stroke-width="3" stroke-miterlimit="10"/>
<path d="M728.814 842.011C731.808 847.033 735.479 851.573 739.825 855.63C741.178 856.886 743.206 854.857 741.854 853.602C737.7 849.738 734.223 845.391 731.325 840.562C730.359 838.92 727.848 840.369 728.814 842.011Z" fill="#3B4045"/>
<path d="M716.353 849.255C719.348 852.926 723.211 855.534 727.558 857.079C729.297 857.755 730.07 854.954 728.331 854.278C724.371 852.829 720.99 850.415 718.382 847.227C717.223 845.778 715.194 847.807 716.353 849.255Z" fill="#3B4045"/>
<path d="M716.836 868.284C719.541 868.574 722.246 868.767 725.047 869.057C726.882 869.25 726.882 866.353 725.047 866.159C722.342 865.87 719.638 865.676 716.836 865.387C715.001 865.193 715.001 868.091 716.836 868.284Z" fill="#3B4045"/>
<path d="M796.139 848.966C792.758 850.318 787.446 852.83 782.23 857.563C777.786 861.619 773.536 865.483 772.957 870.796C771.894 880.455 783.678 889.631 792.855 893.302C794.497 893.978 813.912 901.319 824.634 890.018C831.878 882.29 830.236 871.279 829.946 869.54C827.725 855.148 814.781 848.386 813.429 847.71C810.145 843.267 806.764 838.92 803.48 834.477C801.065 839.307 798.65 844.136 796.139 848.966Z" fill="#3B4045" stroke="#3B4045" stroke-width="3" stroke-miterlimit="10"/>
<path d="M787.156 862.006C788.605 866.159 792.468 868.96 796.912 868.864C798.747 868.767 798.747 865.869 796.912 865.966C793.821 866.063 790.923 864.131 789.957 861.233C789.281 859.494 786.48 860.267 787.156 862.006Z" fill="white"/>
<path d="M773.053 868.863C773.923 868.863 774.309 869.153 774.406 869.829C774.116 870.119 773.923 870.505 773.633 870.795C773.053 870.988 772.957 870.699 772.764 870.506C772.667 870.409 772.763 870.312 772.667 870.409C772.57 870.506 772.57 870.795 772.474 870.988C773.053 870.699 773.633 870.312 774.212 870.023C774.309 870.119 774.309 870.119 774.212 870.023C774.309 870.023 774.309 870.119 774.309 870.119C774.406 870.216 774.309 870.216 774.309 870.023C774.406 870.119 774.406 870.119 774.309 870.023C774.212 869.25 773.246 868.863 772.57 869.057C771.798 869.25 771.411 870.023 771.604 870.795C771.798 871.761 772.57 872.534 773.536 872.824C774.309 873.114 774.985 872.534 775.275 871.858C775.661 870.988 775.758 870.023 775.275 869.25C774.792 868.38 773.729 867.897 772.764 868.187C771.798 868.477 771.315 869.54 771.508 870.506C771.798 871.471 772.764 872.148 773.729 871.858C774.502 871.665 774.985 870.892 774.695 870.119C774.599 869.153 773.826 868.67 773.053 868.863Z" fill="white"/>
<path d="M772.474 871.375C773.923 876.301 779.718 878.716 784.161 876.398C785.803 875.528 784.355 873.017 782.712 873.886C779.815 875.335 776.144 873.596 775.275 870.602C774.792 868.767 771.991 869.54 772.474 871.375Z" fill="white"/>
<path d="M121.344 789.851C123.469 790.237 126.56 790.817 130.423 791.3C148.873 794.005 162.009 793.908 178.237 794.101C187.992 794.198 202.385 794.487 220.448 795.164C239.669 793.811 258.988 792.459 278.21 791.01C251.647 788.306 225.084 785.504 198.521 782.8C172.731 785.118 147.037 787.436 121.344 789.851Z" fill="#EB306E"/>
<path d="M178.141 849.835C183.646 850.994 189.152 852.153 194.658 853.312C213.783 852.153 234.744 849.255 256.863 843.46C261.113 842.397 265.267 841.238 269.227 839.982C238.897 843.267 208.567 846.551 178.141 849.835Z" fill="#EB306E"/>
<path d="M122.6 926.046C122.697 934.16 122.793 942.37 122.89 950.484C167.516 956.183 212.238 961.882 256.864 967.581C256.864 959.467 256.864 951.257 256.864 943.143C284.199 930.972 311.438 918.802 338.774 906.631C331.143 905.472 323.512 904.313 315.881 903.154C315.012 904.506 314.143 905.858 313.37 907.307C280.239 917.546 247.108 927.881 213.976 938.12C183.55 934.063 153.027 930.007 122.6 926.046Z" fill="#EB306E"/>
<path d="M72.9512 815.641C106.372 819.698 139.89 823.755 173.311 827.812C210.595 825.204 247.88 822.499 285.165 819.891C277.051 817.283 268.937 814.772 260.823 812.164C244.016 813.419 227.113 814.675 210.306 815.931C178.527 813.709 146.844 811.391 115.065 809.169C101.06 811.294 86.9571 813.42 72.9512 815.641Z" fill="#00CB77"/>
<path d="M198.425 874.852C208.76 876.398 219.192 877.943 229.528 879.489C258.119 872.051 286.614 864.71 315.205 857.272C305.739 855.824 296.369 854.471 286.903 853.022C257.346 860.363 227.885 867.608 198.425 874.852Z" fill="#00CB77"/>
<path d="M79.5195 899.387C123.566 905.666 167.515 912.041 211.561 918.319C225.181 915.421 239.38 912.041 254.159 907.984C274.443 902.478 293.278 896.393 310.762 890.211C304.193 889.052 297.625 887.893 291.057 886.733C270.483 892.432 249.908 898.131 229.238 903.83C192.726 898.807 156.214 893.881 119.702 888.858C106.372 892.432 92.9459 895.91 79.5195 899.387Z" fill="#00CB77"/>
<path d="M115.258 792.652C115.258 798.448 115.258 804.34 115.258 810.136C115.258 811.971 118.156 811.971 118.156 810.136C118.156 804.34 118.156 798.448 118.156 792.652C118.156 790.817 115.258 790.817 115.258 792.652Z" fill="#3B4045"/>
<path d="M117.19 793.231C151.384 794.39 185.674 795.453 219.868 796.612C221.703 796.709 221.703 793.811 219.868 793.714C185.674 792.555 151.384 791.493 117.19 790.333C115.258 790.237 115.258 793.135 117.19 793.231Z" fill="#3B4045"/>
<path d="M117.19 812.357C148.293 812.936 179.396 814.385 210.402 816.703C212.237 816.8 212.237 813.902 210.402 813.806C179.396 811.584 148.293 810.135 117.19 809.459C115.258 809.459 115.258 812.357 117.19 812.357Z" fill="#3B4045"/>
<path d="M220.834 796.998C240.636 795.26 260.534 794.101 280.335 793.425C282.17 793.328 282.17 790.43 280.335 790.527C260.437 791.106 240.636 792.362 220.834 794.101C218.999 794.197 218.902 797.095 220.834 796.998Z" fill="#3B4045"/>
<path d="M210.885 816.8C234.164 814.482 257.539 812.26 280.818 809.942C282.653 809.748 282.653 806.851 280.818 807.044C257.539 809.362 234.164 811.584 210.885 813.902C209.049 814.095 209.049 816.993 210.885 816.8Z" fill="#3B4045"/>
<path d="M219.385 796.612C218.709 797.675 218.226 798.737 218.033 799.993C217.743 802.118 218.613 803.76 217.55 805.885C216.294 808.59 215.522 810.715 216.005 813.709C216.295 815.544 219.096 814.771 218.806 812.936C218.323 809.749 219.965 808.3 220.931 805.692C221.8 802.987 220.158 800.669 221.897 798.061C222.863 796.515 220.351 794.97 219.385 796.612Z" fill="#3B4045"/>
<path d="M117.577 792.362C143.657 788.788 169.834 786.277 196.203 784.635C198.038 784.538 198.038 781.64 196.203 781.737C169.64 783.379 143.174 785.987 116.901 789.561C114.969 789.851 115.742 792.555 117.577 792.362Z" fill="#3B4045"/>
<path d="M194.271 784.732C222.38 784.925 250.392 787.436 278.017 792.266C279.852 792.556 280.625 789.754 278.79 789.465C250.875 784.538 222.573 781.93 194.271 781.737C192.436 781.834 192.436 784.732 194.271 784.732Z" fill="#3B4045"/>
<path d="M122.89 802.215C131.197 804.147 139.89 802.118 148.39 802.215C157.856 802.312 167.322 803.374 176.788 804.533C178.624 804.726 178.624 801.829 176.788 801.636C167.998 800.67 159.112 799.607 150.225 799.414C141.629 799.221 132.163 801.442 123.662 799.51C121.827 798.931 121.054 801.732 122.89 802.215Z" fill="#3B4045"/>
<path d="M161.14 808.493C175.919 808.976 190.794 809.653 205.573 810.522C207.408 810.618 207.408 807.721 205.573 807.624C190.794 806.755 175.919 806.079 161.14 805.596C159.305 805.499 159.305 808.397 161.14 808.493Z" fill="#3B4045"/>
<path d="M185.288 803.374C193.788 804.05 202.385 804.92 210.885 805.982C212.72 806.175 212.72 803.278 210.885 803.085C202.385 802.022 193.885 801.153 185.288 800.477C183.356 800.283 183.453 803.181 185.288 803.374Z" fill="#3B4045"/>
<path d="M226.534 804.822C233.295 805.788 239.863 804.146 246.528 803.18C254.449 801.925 262.466 800.959 270.483 800.476C272.318 800.379 272.318 797.481 270.483 797.578C264.011 797.964 257.54 798.737 251.165 799.606C243.437 800.669 235.227 803.18 227.403 802.118C225.471 801.732 224.698 804.533 226.534 804.822Z" fill="#3B4045"/>
<path d="M238.704 809.846C244.693 810.522 250.199 808.397 255.994 807.238C262.756 805.789 269.71 805.209 276.568 805.113C278.404 805.113 278.404 802.215 276.568 802.215C270.58 802.311 264.687 802.794 258.795 803.76C252.227 804.919 245.466 807.817 238.704 807.044C236.869 806.755 236.869 809.652 238.704 809.846Z" fill="#3B4045"/>
<path d="M277.824 794.584C277.92 799.51 278.017 804.34 278.21 809.266C278.21 811.101 281.108 811.101 281.108 809.266C281.011 804.34 280.915 799.51 280.722 794.584C280.722 792.652 277.824 792.652 277.824 794.584Z" fill="#3B4045"/>
<path d="M70.8261 816.317C70.9227 822.789 70.7295 829.26 70.2465 835.732C70.1499 837.567 73.0477 837.567 73.1443 835.732C73.6272 829.26 73.8204 822.789 73.7238 816.317C73.6272 814.385 70.7295 814.385 70.8261 816.317Z" fill="#3B4045"/>
<path d="M72.2752 838.533C106.083 842.784 139.986 846.454 173.987 849.738C175.822 849.931 175.822 847.034 173.987 846.84C139.986 843.556 106.083 839.886 72.2752 835.636C70.3434 835.443 70.4399 838.34 72.2752 838.533Z" fill="#3B4045"/>
<path d="M173.407 829.068C173.117 835.25 172.731 841.335 172.441 847.517C172.345 849.352 175.243 849.352 175.339 847.517C175.629 841.335 176.015 835.25 176.305 829.068C176.402 827.233 173.504 827.233 173.407 829.068Z" fill="#3B4045"/>
<path d="M174.856 829.647C212.141 828.198 249.426 825.397 286.517 821.437C288.353 821.244 288.353 818.346 286.517 818.539C249.426 822.499 212.141 825.204 174.856 826.749C173.021 826.846 173.021 829.744 174.856 829.647Z" fill="#3B4045"/>
<path d="M175.339 850.511C212.141 846.164 249.039 842.397 286.034 839.016C287.869 838.823 287.869 835.925 286.034 836.119C249.136 839.499 212.238 843.363 175.339 847.613C173.504 847.806 173.504 850.704 175.339 850.511Z" fill="#3B4045"/>
<path d="M285.261 821.05C285.261 826.266 285.358 831.482 285.358 836.698C285.358 838.533 288.256 838.533 288.256 836.698C288.256 831.482 288.159 826.266 288.159 821.05C288.159 819.118 285.261 819.118 285.261 821.05Z" fill="#3B4045"/>
<path d="M72.6615 816.124C87.1503 814.192 101.639 812.454 116.225 811.101C118.06 810.908 118.06 808.01 116.225 808.204C101.446 809.556 86.6674 811.295 71.8887 813.323C70.0535 813.516 70.8262 816.317 72.6615 816.124Z" fill="#3B4045"/>
<path d="M74.1103 818.056C107.531 820.471 140.856 823.948 174.083 828.488C175.919 828.778 176.691 825.976 174.856 825.687C141.435 821.147 107.821 817.573 74.1103 815.158C72.2751 815.062 72.2751 817.959 74.1103 818.056Z" fill="#3B4045"/>
<path d="M260.244 813.13C268.938 814.772 277.534 816.993 285.938 819.891C287.676 820.471 288.449 817.669 286.71 817.09C278.307 814.289 269.807 811.971 261.017 810.328C259.182 809.942 258.409 812.743 260.244 813.13Z" fill="#3B4045"/>
<path d="M88.4062 831.386C105.793 830.516 122.407 836.602 139.697 836.891C141.532 836.891 141.532 833.994 139.697 833.994C122.407 833.704 105.696 827.618 88.4062 828.488C86.571 828.584 86.571 831.482 88.4062 831.386Z" fill="#3B4045"/>
<path d="M121.634 827.619C134.384 832.352 148.197 829.454 161.333 832.352C163.169 832.738 163.941 829.937 162.106 829.551C148.969 826.653 135.157 829.551 122.407 824.818C120.668 824.142 119.895 826.943 121.634 827.619Z" fill="#3B4045"/>
<path d="M181.037 840.272C213.106 833.027 246.43 832.254 279.079 830.322C280.914 830.226 280.914 827.328 279.079 827.425C246.044 829.453 212.623 830.129 180.265 837.47C178.429 837.857 179.202 840.658 181.037 840.272Z" fill="#3B4045"/>
<path d="M234.647 837.857C246.045 838.147 257.443 837.085 268.551 834.67C270.386 834.283 269.613 831.482 267.778 831.869C256.863 834.187 245.755 835.249 234.647 834.959C232.812 834.863 232.812 837.761 234.647 837.857Z" fill="#3B4045"/>
<path d="M91.3037 840.079C91.3037 847.323 91.3037 854.471 91.3037 861.715C91.3037 863.551 94.2015 863.551 94.2015 861.715C94.2015 854.471 94.2015 847.323 94.2015 840.079C94.2015 838.243 91.3037 838.243 91.3037 840.079Z" fill="#3B4045"/>
<path d="M92.3668 863.551C108.015 868.187 125.305 868.284 141.532 869.829C158.726 871.471 176.016 873.21 193.209 874.852C195.044 875.045 195.044 872.147 193.209 871.954C176.595 870.312 159.981 868.767 143.368 867.125C126.85 865.483 109.077 865.483 93.1395 860.75C91.4009 860.267 90.6281 863.068 92.3668 863.551Z" fill="#3B4045"/>
<path d="M193.112 852.443C193.208 859.107 193.208 865.676 193.015 872.341C193.015 874.176 195.913 874.176 195.913 872.341C196.106 865.676 196.106 859.107 196.01 852.443C196.01 850.511 193.112 850.511 193.112 852.443Z" fill="#3B4045"/>
<path d="M177.657 851.96C182.97 852.443 188.283 853.312 193.498 854.568C195.334 855.051 196.107 852.25 194.271 851.767C188.766 850.415 183.26 849.545 177.657 849.062C175.726 848.966 175.726 851.864 177.657 851.96Z" fill="#3B4045"/>
<path d="M194.948 853.988C221.994 851.766 248.846 847.709 275.409 841.624C277.244 841.237 276.472 838.436 274.636 838.823C248.363 844.811 221.8 848.868 194.948 851.09C193.112 851.186 193.112 854.084 194.948 853.988Z" fill="#3B4045"/>
<path d="M194.947 875.238C225.663 869.346 256.187 862.102 286.227 853.505C288.062 853.022 287.289 850.221 285.454 850.704C255.317 859.3 224.891 866.641 194.174 872.437C192.436 872.823 193.208 875.625 194.947 875.238Z" fill="#3B4045"/>
<path d="M284.778 837.954C284.875 842.784 284.778 847.613 284.392 852.346C284.199 854.182 287.097 854.182 287.29 852.346C287.676 847.517 287.773 842.687 287.676 837.954C287.676 836.119 284.778 836.119 284.778 837.954Z" fill="#3B4045"/>
<path d="M275.409 841.624C278.693 841.624 281.977 841.141 285.165 840.368C287 839.885 286.227 837.084 284.392 837.567C281.398 838.34 278.5 838.726 275.409 838.726C273.574 838.726 273.574 841.624 275.409 841.624Z" fill="#3B4045"/>
<path d="M108.593 856.983C131.969 859.784 155.247 862.488 178.623 864.903C180.458 865.096 180.458 862.199 178.623 862.006C155.247 859.591 131.872 856.983 108.593 854.085C106.758 853.892 106.758 856.79 108.593 856.983Z" fill="#3B4045"/>
<path d="M99.6103 848.965C109.463 849.931 119.315 850.704 129.168 851.187C131.003 851.283 131.003 848.386 129.168 848.289C119.315 847.806 109.463 847.033 99.6103 846.067C97.7751 845.971 97.7751 848.868 99.6103 848.965Z" fill="#3B4045"/>
<path d="M141.533 854.278C153.993 854.278 166.357 855.147 178.721 857.079C180.556 857.369 181.329 854.567 179.493 854.278C166.936 852.346 154.283 851.38 141.533 851.38C139.697 851.38 139.601 854.278 141.533 854.278Z" fill="#3B4045"/>
<path d="M199.681 863.647C213.59 861.426 227.403 858.914 241.215 856.113C243.05 855.727 242.278 852.926 240.443 853.312C226.63 856.113 212.817 858.624 198.908 860.846C197.073 861.136 197.845 863.937 199.681 863.647Z" fill="#3B4045"/>
<path d="M225.954 864.807C242.664 859.204 259.858 855.051 277.244 852.539C279.08 852.25 278.307 849.449 276.472 849.738C258.989 852.25 241.892 856.307 225.181 862.006C223.443 862.682 224.215 865.483 225.954 864.807Z" fill="#3B4045"/>
<path d="M268.261 849.931C272.994 848.482 277.727 847.613 282.653 847.227C284.488 847.13 284.488 844.232 282.653 844.329C277.533 844.715 272.414 845.585 267.488 847.13C265.749 847.71 266.522 850.511 268.261 849.931Z" fill="#3B4045"/>
<path d="M113.327 867.318C113.231 874.176 113.038 881.034 112.941 887.892C112.941 889.727 115.839 889.727 115.839 887.892C115.935 881.034 116.128 874.176 116.225 867.318C116.322 865.483 113.424 865.483 113.327 867.318Z" fill="#3B4045"/>
<path d="M114.679 889.824C152.157 894.847 189.731 899.869 227.209 904.796C229.045 905.085 229.045 902.188 227.209 901.898C189.731 896.875 152.157 891.852 114.679 886.926C112.844 886.636 112.844 889.534 114.679 889.824Z" fill="#3B4045"/>
<path d="M197.266 875.818C208.471 877.556 219.676 879.005 230.977 880.068C232.812 880.261 232.812 877.363 230.977 877.17C219.965 876.108 208.954 874.755 198.039 873.017C196.204 872.727 195.431 875.528 197.266 875.818Z" fill="#3B4045"/>
<path d="M231.363 879.779C260.148 877.074 286.518 863.937 314.819 859.108C316.654 858.818 315.882 856.017 314.046 856.307C285.938 861.04 259.858 874.08 231.363 876.784C229.528 877.074 229.528 879.972 231.363 879.779Z" fill="#3B4045"/>
<path d="M286.034 853.989C295.79 855.438 305.642 856.5 315.494 857.08C317.33 857.176 317.33 854.278 315.494 854.182C305.835 853.602 296.273 852.636 286.806 851.187C284.971 850.898 284.199 853.699 286.034 853.989Z" fill="#3B4045"/>
<path d="M227.982 879.488C227.692 887.023 227.499 894.653 227.209 902.188C227.113 904.023 230.011 904.023 230.107 902.188C230.397 894.653 230.59 887.023 230.88 879.488C230.976 877.557 228.079 877.557 227.982 879.488Z" fill="#3B4045"/>
<path d="M228.755 904.892C257.636 897.937 286.131 889.727 314.336 880.358C316.074 879.778 315.302 876.977 313.563 877.557C285.358 886.926 256.863 895.04 227.982 902.091C226.147 902.477 226.919 905.279 228.755 904.892Z" fill="#3B4045"/>
<path d="M313.563 857.755C314.336 864.806 314.529 871.857 314.142 878.909C314.046 880.744 316.944 880.744 317.04 878.909C317.33 871.857 317.137 864.806 316.461 857.755C316.268 855.92 313.37 855.92 313.563 857.755Z" fill="#3B4045"/>
<path d="M122.117 881.71C121.441 881.807 120.861 881.903 120.185 881.903C118.35 882.096 118.35 884.608 120.185 884.801C144.72 887.409 169.061 891.369 193.499 895.233C195.334 895.523 196.107 892.721 194.271 892.432C169.64 888.471 145.009 884.511 120.185 881.903C120.185 882.869 120.185 883.835 120.185 884.801C120.861 884.704 121.441 884.608 122.117 884.608C123.952 884.415 123.952 881.517 122.117 881.71Z" fill="#3B4045"/>
<path d="M129.65 877.46C136.991 879.295 144.332 881.034 151.77 882.483C153.605 882.869 154.378 880.068 152.543 879.681C145.105 878.232 137.764 876.59 130.423 874.659C128.685 874.272 127.912 877.073 129.65 877.46Z" fill="#3B4045"/>
<path d="M160.271 881.228C179.686 884.222 199.005 887.216 218.42 890.211C220.255 890.501 221.028 887.699 219.192 887.41C199.777 884.415 180.459 881.421 161.044 878.427C159.209 878.233 158.436 881.034 160.271 881.228Z" fill="#3B4045"/>
<path d="M244.017 885.574C260.148 885.187 274.733 877.363 290.574 874.949C292.409 874.659 291.637 871.858 289.801 872.147C274.25 874.562 259.954 882.29 244.017 882.676C242.181 882.773 242.181 885.67 244.017 885.574Z" fill="#3B4045"/>
<path d="M238.8 895.329C245.851 893.591 252.903 891.852 259.954 890.017C261.789 889.534 261.016 886.732 259.181 887.215C252.13 888.954 245.079 890.693 238.027 892.528C236.192 892.914 236.965 895.716 238.8 895.329Z" fill="#3B4045"/>
<path d="M286.806 882.387C295.113 880.165 303.42 877.944 311.727 875.625C313.563 875.142 312.79 872.341 310.955 872.824C302.648 875.046 294.341 877.268 286.034 879.586C284.199 880.069 284.971 882.87 286.806 882.387Z" fill="#3B4045"/>
<path d="M76.1391 900.353C91.4973 898.711 106.662 895.523 121.344 890.694C123.083 890.114 122.31 887.313 120.572 887.892C106.083 892.625 91.3041 895.813 76.1391 897.455C74.3039 897.648 74.3039 900.546 76.1391 900.353Z" fill="#3B4045"/>
<path d="M74.9794 900.063C75.2692 906.631 75.6556 913.103 75.9453 919.671C76.0419 921.507 78.9397 921.507 78.8431 919.671C78.5533 913.103 78.167 906.631 77.8772 900.063C77.7806 898.228 74.8828 898.228 74.9794 900.063Z" fill="#3B4045"/>
<path d="M77.588 921.603C122.214 927.495 166.743 933.387 211.368 939.182C213.204 939.472 213.204 936.478 211.368 936.285C166.743 930.393 122.214 924.5 77.588 918.705C75.7528 918.415 75.8494 921.313 77.588 921.603Z" fill="#3B4045"/>
<path d="M76.7183 901.608C119.799 907.693 162.879 913.199 206.055 918.222C207.891 918.415 207.891 915.517 206.055 915.324C163.168 910.398 120.281 904.892 77.491 898.807C75.7524 898.614 74.8831 901.415 76.7183 901.608Z" fill="#3B4045"/>
<path d="M211.465 939.763C245.948 929.814 280.238 919.189 314.239 907.791C315.978 907.211 315.205 904.41 313.466 904.99C279.369 916.291 245.175 927.013 210.692 936.962C208.857 937.445 209.629 940.246 211.465 939.763Z" fill="#3B4045"/>
<path d="M222.959 917.064C253.579 910.205 283.715 901.512 313.273 890.887C315.011 890.307 314.239 887.506 312.5 888.086C282.943 898.711 252.806 907.404 222.186 914.262C220.351 914.649 221.124 917.45 222.959 917.064Z" fill="#3B4045"/>
<path d="M311.534 890.017C311.631 895.523 311.727 900.932 311.824 906.438C311.824 908.273 314.722 908.273 314.722 906.438C314.625 900.932 314.528 895.523 314.432 890.017C314.335 888.182 311.438 888.182 311.534 890.017Z" fill="#3B4045"/>
<path d="M289.608 888.375C297.046 889.148 304.387 889.921 311.824 890.597C313.659 890.79 313.659 887.892 311.824 887.699C304.387 886.926 297.046 886.154 289.608 885.478C287.773 885.284 287.773 888.182 289.608 888.375Z" fill="#3B4045"/>
<path d="M87.2474 916.098C108.594 917.354 129.748 919.962 150.805 923.729C152.64 924.018 153.413 921.217 151.578 920.928C130.328 917.064 108.884 914.552 87.2474 913.2C85.3155 913.104 85.4121 916.001 87.2474 916.098Z" fill="#3B4045"/>
<path d="M143.367 915.807C160.464 918.318 177.56 921.216 194.561 924.404C196.396 924.79 197.169 921.989 195.333 921.603C178.333 918.415 161.236 915.517 144.139 913.006C142.304 912.716 141.532 915.517 143.367 915.807Z" fill="#3B4045"/>
<path d="M210.016 922.762C210.209 927.012 210.499 931.262 210.692 935.416C210.789 937.251 213.687 937.251 213.59 935.416C213.397 931.166 213.107 926.916 212.914 922.762C212.817 920.927 209.919 920.927 210.016 922.762Z" fill="#3B4045"/>
<path d="M226.146 923.631C240.442 920.443 254.641 916.87 268.84 913.006C270.675 912.523 269.903 909.722 268.067 910.205C253.965 914.068 239.669 917.642 225.374 920.83C223.538 921.216 224.311 924.017 226.146 923.631Z" fill="#3B4045"/>
<path d="M225.664 928.943C229.431 928.557 233.102 927.978 236.676 926.915C238.511 926.432 237.738 923.631 235.903 924.114C232.522 925.08 229.141 925.659 225.664 926.046C223.829 926.239 223.829 929.137 225.664 928.943Z" fill="#3B4045"/>
<path d="M277.824 913.585C286.807 910.687 295.79 907.79 304.676 904.989C306.415 904.409 305.642 901.608 303.904 902.187C294.92 905.085 285.937 907.983 277.051 910.784C275.312 911.364 276.085 914.165 277.824 913.585Z" fill="#3B4045"/>
<path d="M295.21 903.444C299.074 902.285 303.034 901.222 306.898 900.063C308.733 899.58 307.96 896.779 306.125 897.262C302.261 898.421 298.301 899.483 294.437 900.643C292.699 901.125 293.375 903.927 295.21 903.444Z" fill="#3B4045"/>
<path d="M120.572 927.012C121.538 934.546 121.924 942.08 121.634 949.711C121.538 951.546 124.435 951.546 124.532 949.711C124.822 942.08 124.435 934.546 123.47 927.012C123.276 925.176 120.379 925.176 120.572 927.012Z" fill="#3B4045"/>
<path d="M124.145 951.739C168.771 957.535 213.3 963.234 257.925 969.029C259.761 969.223 259.761 966.325 257.925 966.132C213.3 960.336 168.771 954.637 124.145 948.842C122.31 948.552 122.31 951.45 124.145 951.739Z" fill="#3B4045"/>
<path d="M255.704 944.495C256.187 952.03 256.573 959.66 257.056 967.195C257.153 969.03 260.051 969.03 259.954 967.195C259.471 959.66 259.085 952.03 258.602 944.495C258.505 942.66 255.607 942.564 255.704 944.495Z" fill="#3B4045"/>
<path d="M257.54 968.836C285.455 955.313 313.467 941.887 341.382 928.364C343.024 927.591 341.575 925.08 339.933 925.852C312.018 939.375 284.006 952.802 256.091 966.325C254.352 967.194 255.898 969.705 257.54 968.836Z" fill="#3B4045"/>
<path d="M257.153 944.108C285.744 933.87 313.563 921.699 340.512 907.596C342.154 906.727 340.705 904.216 339.063 905.085C312.404 918.994 284.778 931.068 256.38 941.307C254.641 941.983 255.414 944.785 257.153 944.108Z" fill="#3B4045"/>
<path d="M337.904 906.438C338.097 913.682 338.291 920.926 338.484 928.074C338.58 929.91 341.478 929.91 341.382 928.074C341.188 920.83 340.995 913.585 340.802 906.438C340.802 904.506 337.904 904.506 337.904 906.438Z" fill="#3B4045"/>
<path d="M314.432 904.892C322.449 904.989 330.466 905.569 338.387 906.728C340.222 907.017 340.995 904.216 339.16 903.926C330.949 902.767 322.739 902.091 314.432 901.995C312.597 901.995 312.597 904.892 314.432 904.892Z" fill="#3B4045"/>
<path d="M213.01 940.053C222.766 941.791 232.618 942.854 242.567 943.24C244.402 943.337 244.402 940.439 242.567 940.342C232.908 939.956 223.345 938.99 213.783 937.251C211.947 936.865 211.175 939.666 213.01 940.053Z" fill="#3B4045"/>
<path d="M265.653 948.455C276.278 945.847 286.421 942.176 296.273 937.443C297.915 936.671 296.466 934.159 294.824 934.932C285.261 939.568 275.312 943.046 264.977 945.654C263.045 946.04 263.818 948.841 265.653 948.455Z" fill="#3B4045"/>
<path d="M266.812 955.99C275.312 952.802 283.523 949.035 291.443 944.688C293.085 943.819 291.636 941.307 289.994 942.177C282.267 946.427 274.346 950.097 266.039 953.188C264.301 953.864 264.977 956.666 266.812 955.99Z" fill="#3B4045"/>
<path d="M301.489 931.842C312.211 928.074 322.836 923.728 333.268 918.995C335.007 918.222 333.461 915.711 331.819 916.483C321.677 921.12 311.342 925.273 300.716 928.944C298.978 929.62 299.75 932.421 301.489 931.842Z" fill="#3B4045"/>
<path d="M305.642 938.217C316.171 933.677 326.217 928.268 335.876 921.989C337.421 920.927 335.972 918.512 334.427 919.478C324.864 925.756 314.722 931.165 304.194 935.705C302.455 936.478 303.904 938.893 305.642 938.217Z" fill="#3B4045"/>
<path d="M662.165 671.429C681.967 744.453 701.768 817.477 721.473 890.5C727.075 911.364 732.774 932.132 738.376 952.996C739.342 956.57 744.945 955.024 743.979 951.45C724.177 878.426 704.376 805.402 684.671 732.379C679.069 711.515 673.37 690.747 667.767 669.883C666.802 666.309 661.199 667.855 662.165 671.429Z" fill="#3B4045"/>
<path d="M605.079 674.52C605.948 754.885 606.817 835.346 607.59 915.711C607.783 938.41 608.073 961.206 608.266 983.905C608.266 987.673 614.062 987.673 614.062 983.905C613.192 903.541 612.323 823.079 611.55 742.714C611.357 720.015 611.067 697.219 610.874 674.52C610.874 670.849 605.079 670.849 605.079 674.52Z" fill="#3B4045"/>
<path d="M524.231 664.185C507.038 742.715 490.424 821.341 474.389 900.16C469.85 922.473 465.406 944.786 460.963 967.002C460.19 970.673 465.793 972.218 466.565 968.548C482.31 889.728 498.538 811.006 515.441 732.379C520.174 710.163 525.004 687.947 529.93 665.731C530.606 662.06 525.004 660.515 524.231 664.185Z" fill="#3B4045"/>
<path d="M484.048 871.086C525.873 871.472 567.601 872.438 609.329 874.08C613.096 874.273 613.096 868.478 609.329 868.284C567.601 866.642 525.776 865.676 484.048 865.29C480.378 865.29 480.378 871.086 484.048 871.086Z" fill="#3B4045"/>
<path d="M611.454 872.824C615.317 873.404 618.312 871.858 621.886 870.409C626.232 868.671 630.579 866.836 634.926 865C642.653 861.716 650.381 858.432 658.108 855.051C674.818 847.71 691.336 840.079 707.66 832.256C711.041 830.613 708.046 825.687 704.762 827.233C689.79 834.477 674.722 841.432 659.46 848.193C651.829 851.574 644.199 854.858 636.471 858.142C632.511 859.784 628.647 861.426 624.687 863.068C621.596 864.324 616.283 867.705 612.903 867.222C609.329 866.739 607.687 872.341 611.454 872.824Z" fill="#3B4045"/>
<path d="M583.732 676.162C576.004 744.743 568.277 813.323 560.55 882C558.328 901.416 556.203 920.927 553.981 940.342C553.595 944.013 559.391 944.013 559.777 940.342C567.504 871.762 575.232 803.181 582.959 734.504C585.181 715.089 587.306 695.577 589.527 676.162C590.01 672.492 584.215 672.492 583.732 676.162Z" fill="#3B4045"/>
<path d="M567.794 839.693C613.675 838.631 659.364 835.733 705.149 832.739C708.819 832.545 708.916 826.653 705.149 826.943C659.364 829.937 613.675 832.738 567.794 833.898C564.027 833.994 564.027 839.79 567.794 839.693Z" fill="#3B4045"/>
<path d="M485.111 870.796C513.992 862.392 541.811 850.995 569.726 839.79C573.107 838.438 571.658 832.835 568.18 834.187C540.265 845.392 512.447 856.79 483.565 865.194C479.992 866.16 481.537 871.762 485.111 870.796Z" fill="#3B4045"/>
<path d="M628.454 597.633C653.279 600.917 673.853 607.775 689.597 614.536C689.887 632.019 690.08 649.406 690.37 666.889C672.211 675.003 644.392 684.759 609.329 687.56C564.414 691.134 528.385 681.571 507.617 674.327C506.748 654.719 505.975 635.11 505.106 615.502C527.902 605.65 572.817 590.292 628.454 597.633Z" fill="white" stroke="#3B4045" stroke-width="3" stroke-miterlimit="10"/>
<path d="M513.026 620.042C520.56 628.445 531.378 631.44 542.293 632.792C556.396 634.627 570.885 635.207 585.18 635.69C614.544 636.656 644.295 635.013 672.21 624.968C673.949 624.388 673.176 621.587 671.437 622.167C644.875 631.729 616.67 633.661 588.754 632.888C575.425 632.502 562.095 631.729 548.765 630.57C536.691 629.508 523.651 627.479 515.151 618.013C513.799 616.564 511.77 618.689 513.026 620.042Z" fill="#3B4045"/>
<path d="M498.731 286.025C492.162 286.702 488.106 291.724 480.088 302.156C458.452 330.168 442.804 354.799 441.451 356.924C438.65 361.271 429.088 374.408 409.866 400.681C374.416 449.267 366.206 458.25 369.297 470.903C372.871 485.682 389.002 498.819 400.883 496.693C407.837 495.438 411.991 489.159 418.269 478.631C426.383 464.915 436.815 446.369 447.923 423.283C476.901 403.578 495.93 382.908 507.81 367.936C531.959 337.509 531.186 324.373 530.316 318.964C527.612 301.77 511.964 284.77 498.731 286.025Z" fill="white" stroke="#3B4045" stroke-width="3" stroke-miterlimit="10"/>
<path opacity="0.09" d="M519.015 298.196C514.282 298.776 513.219 312.492 511.384 320.992C505.009 350.356 481.923 353.35 443.673 396.914C427.639 415.266 416.241 432.266 405.712 448.204C395.473 463.659 387.456 477.182 381.661 487.421C382.627 489.256 385.138 493.12 389.871 495.051C396.246 497.563 402.428 494.762 404.456 493.796C412.087 490.222 413.44 484.716 425.997 463.466C434.014 449.846 433.917 451.295 437.394 444.437C443.77 431.783 443.287 428.016 448.792 421.641C453.622 415.942 457.099 416.232 466.469 408.988C471.298 405.317 479.798 398.749 489.265 389.379C492.066 386.675 503.367 375.277 515.248 357.697C524.617 343.884 526.839 337.316 527.901 333.646C531.765 320.316 529.35 312.492 528.578 310.27C526.839 305.344 522.685 297.713 519.015 298.196Z" fill="#3D3D3D"/>
<path opacity="0.18" d="M448.793 420.289C447.537 419.516 442.514 427.533 431.116 440.573C402.621 472.931 381.178 482.977 384.269 491.187C386.104 495.92 394.991 497.562 401.366 496.21C410.445 494.278 415.275 485.392 424.741 467.715C447.923 424.345 449.565 420.772 448.793 420.289Z" fill="#3D3D3D"/>
<path d="M365.24 847.904C367.945 878.041 370.553 908.178 373.257 938.314C331.239 959.372 311.148 972.701 313.177 978.4C315.591 985.355 351.524 980.622 420.781 964.105C419.428 922.183 418.076 880.166 416.82 838.245C399.627 841.432 382.433 844.62 365.24 847.904Z" fill="#3B4045" stroke="#3B4045" stroke-width="3" stroke-miterlimit="10"/>
<path d="M503.077 503.069C488.299 513.984 467.531 529.342 442.804 548.081C364.95 607.099 355.194 616.082 346.598 632.599C338.097 648.827 335.2 676.162 329.308 730.93C325.251 768.505 324.961 797.482 325.154 814C325.347 832.449 326.313 848.193 327.279 860.364C331.819 864.421 349.012 878.62 375.092 879.103C405.905 879.586 425.61 860.461 429.087 856.983C426.093 839.21 423.678 819.988 422.133 799.511C419.332 762.033 420.201 728.033 422.809 698.379C443.48 682.055 472.457 658.486 505.878 628.446C577.26 564.308 581.993 549.143 579.289 538.422C573.107 514.467 527.322 506.063 503.077 503.069Z" fill="white" stroke="#3B4045" stroke-width="3" stroke-miterlimit="10"/>
<path opacity="0.12" d="M535.242 510.41C524.907 513.887 530.413 537.263 523.458 558.996C515.538 583.82 497.282 590.485 452.076 624.872C437.394 635.98 416.434 653.077 392.479 676.645C392.865 720.015 391.513 766.09 387.746 814.676C386.007 836.699 383.882 858.239 381.467 879.007C387.842 878.137 395.956 876.302 405.036 872.728C415.178 868.671 423.099 863.552 428.604 859.398C425.513 841.046 423.099 821.148 421.553 799.801C418.849 762.323 419.814 728.322 422.326 698.572C439.519 684.083 453.525 672.685 463.088 664.861C476.031 654.333 482.6 649.213 493.708 639.747C500.083 634.338 506.554 628.639 522.685 613.86C564.22 575.996 575.618 564.019 578.419 547.212C579.771 538.615 578.033 533.979 576.874 531.564C573.3 524.512 565.862 521.325 550.987 515.046C542.1 511.473 537.657 509.541 535.242 510.41Z" fill="#3D3D3D"/>
<path opacity="0.15" d="M421.457 697.896C417.013 717.118 413.053 737.499 409.672 759.039C403.201 800.381 400.303 838.824 399.434 873.598C409.383 868.671 419.332 863.649 429.281 858.722C425.707 834.961 422.906 808.687 421.457 780.289C420.008 750.442 420.201 722.913 421.457 697.896Z" fill="#3D3D3D"/>
<path opacity="0.09" d="M570.499 526.058C563.641 525.478 557.459 541.223 553.209 550.399C544.032 570.49 519.111 596.763 469.27 649.213C457.292 661.866 441.161 678.287 421.457 697.026C426.673 693.259 433.724 688.236 441.838 682.151C460.19 668.338 471.105 659.065 506.168 628.832C506.168 628.832 518.822 617.917 570.499 563.729C573.203 560.927 579.771 553.78 579.868 544.12C580.061 536.007 575.618 526.541 570.499 526.058Z" fill="#3D3D3D"/>
<path d="M533.697 276.077C533.31 276.077 531.765 276.173 529.64 276.366C525.293 276.753 518.435 277.526 510.321 279.651C503.753 281.293 498.537 283.224 495.446 284.48C489.941 295.782 482.986 313.265 480.378 335.384C476.611 366.874 484.145 387.158 489.264 418.55C492.742 440.091 495.639 471.29 491.679 510.796C499.986 518.524 521.623 536.586 554.657 541.223C601.312 547.888 635.602 522.774 642.653 517.364C644.778 504.035 646.807 490.512 648.835 476.796C648.835 476.796 651.829 456.125 654.727 433.426C661.585 380.59 668.636 309.401 669.506 300.515C644.682 275.401 624.107 269.605 609.812 269.122C591.266 268.446 548.765 275.304 533.697 276.077Z" fill="#00CB77"/>
<path opacity="0.17" d="M570.209 297.037C575.328 302.35 582.187 310.464 588.368 321.475C618.119 374.214 599.67 435.744 591.459 463.079C585.76 482.205 574.942 510.313 553.499 540.547C561.709 541.995 571.948 542.768 583.635 541.609C611.551 538.808 631.738 525.865 641.881 518.234C648.835 472.159 655.307 424.925 661.102 376.629C664.097 351.708 666.801 327.174 669.409 302.736C665.063 297.327 657.915 289.503 647.193 282.838C638.693 277.526 626.426 269.798 611.164 270.571C587.209 271.923 572.431 293.753 570.209 297.037Z" fill="#3D3D3D"/>
<path d="M351.041 351.516C352.007 351.516 353.069 351.516 354.035 351.516C354.325 350.453 354.615 349.294 354.905 348.231C356.064 350.646 357.996 354.607 360.41 359.533C371.036 381.073 373.161 384.647 375.092 391.118C376.638 396.431 378.473 404.062 379.053 413.818C380.888 412.562 383.593 410.823 387.07 408.891C405.809 398.653 421.457 398.556 435.559 396.045C446.088 394.113 460.867 389.863 478.157 379.527C477.094 380.976 476.032 382.522 474.969 383.971C476.611 384.55 478.35 385.226 479.992 385.806C480.958 387.062 482.213 389.09 483.276 391.698C488.878 405.511 480.571 420.676 472.554 434.585C439.809 492.154 436.429 495.148 430.537 498.046C428.122 499.302 403.78 511.183 386.49 500.171C382.917 497.95 376.445 492.637 368.138 455.063C362.439 429.466 361.763 415.17 356.354 381.556C354.229 368.806 352.297 358.374 351.041 351.516Z" fill="white" stroke="#191919" stroke-width="2" stroke-miterlimit="10"/>
<path d="M356.546 356.828C364.757 374.408 372.871 392.278 375.382 411.596C375.479 412.079 376.155 412.079 376.155 411.596C373.643 392.084 365.529 374.118 357.223 356.442C356.933 356.055 356.353 356.345 356.546 356.828Z" fill="#191919"/>
<path d="M353.359 353.738C358.188 363.977 362.149 374.505 365.433 385.323C365.529 385.806 366.302 385.613 366.109 385.13C362.825 374.215 358.768 363.687 353.938 353.351C353.842 352.965 353.166 353.255 353.359 353.738Z" fill="#191919"/>
<path d="M366.592 384.744C369.78 393.437 371.905 402.42 373.161 411.597C373.257 412.08 373.933 412.08 373.933 411.597C372.678 402.324 370.553 393.341 367.365 384.551C367.172 384.068 366.496 384.261 366.592 384.744Z" fill="#191919"/>
<path d="M358.285 370.931C362.729 381.846 366.592 393.051 369.78 404.449C369.876 404.932 370.649 404.738 370.456 404.255C367.268 392.858 363.405 381.653 358.961 370.738C358.768 370.352 358.092 370.545 358.285 370.931Z" fill="#191919"/>
<path d="M380.695 416.233C392.769 408.216 406.292 403 420.684 400.971C421.167 400.875 420.974 400.198 420.491 400.295C406.002 402.324 392.479 407.539 380.309 415.557C380.019 415.846 380.309 416.523 380.695 416.233Z" fill="#191919"/>
<path d="M386.78 414.977C399.337 407.346 413.536 404.449 427.639 401.261C442.611 397.88 457.196 393.341 471.395 387.545C471.782 387.352 471.588 386.676 471.202 386.869C456.52 392.954 441.355 397.494 425.804 400.971C412.184 404.062 398.468 407.057 386.394 414.398C386.008 414.591 386.394 415.267 386.78 414.977Z" fill="#191919"/>
<path d="M384.462 418.455C399.337 411.403 414.502 407.057 430.44 403.193C446.088 399.329 461.253 393.341 476.514 388.125C476.997 387.931 476.804 387.255 476.321 387.448C460.577 392.858 444.832 399.136 428.605 402.903C413.246 406.574 398.468 411.114 384.075 417.875C383.593 417.972 383.979 418.648 384.462 418.455Z" fill="#191919"/>
<path d="M350.461 351.323C357.513 373.636 364.66 395.852 371.712 418.165C375.189 419.324 378.666 420.483 382.144 421.642C415.178 410.727 448.116 399.909 481.151 388.994C482.31 389.96 483.469 390.926 484.628 391.988C488.395 437.87 492.259 483.654 496.026 529.536C494.674 530.405 493.418 531.178 492.066 532.047C458.548 537.166 425.127 542.286 391.61 547.405C386.78 546.246 382.047 545.087 377.217 543.928C372.967 525.092 368.621 506.354 364.371 487.518C358.092 442.989 351.814 398.46 345.535 353.931C347.177 352.965 348.819 352.095 350.461 351.323Z" fill="white" stroke="#191919" stroke-width="2" stroke-miterlimit="10"/>
<path d="M370.167 418.744C371.712 460.569 374.706 502.49 377.025 544.314C377.121 545.667 379.246 545.667 379.246 544.314C376.928 502.49 373.934 460.665 372.388 418.744C372.292 417.295 370.07 417.295 370.167 418.744Z" fill="#191919"/>
<path d="M380.212 421.352C381.564 433.232 382.144 445.113 382.144 457.091C382.144 458.443 384.269 458.443 384.366 457.091C384.366 445.113 383.786 433.232 382.434 421.352C382.144 419.999 380.019 419.999 380.212 421.352Z" fill="#191919"/>
<path opacity="0.16" d="M440.292 403.482C440.679 413.141 440.389 434.778 428.025 458.057C414.889 482.785 395.667 495.535 387.36 500.364C386.973 492.444 386.49 484.523 386.104 476.699C382.82 482.205 379.632 487.711 376.348 493.217C377.024 510.41 377.797 527.603 378.473 544.893C383.11 545.859 387.746 546.825 392.479 547.888C425.031 542.672 457.679 537.456 490.231 532.24C491.969 531.564 493.611 530.791 495.35 530.115C491.679 483.654 488.009 437.29 484.338 390.829C469.656 394.982 454.974 399.232 440.292 403.482Z" fill="#6C6D6D"/>
<path opacity="0.1" d="M380.695 422.318C380.019 422.318 379.246 440.187 379.729 459.603C380.309 487.228 382.917 499.302 382.144 525.672C381.854 534.268 381.371 541.32 380.985 545.86C384.559 546.343 388.229 546.825 391.803 547.308C391.127 542.575 390.161 535.717 389.195 527.507C381.564 466.074 381.757 422.318 380.695 422.318Z" fill="#6C6D6D"/>
<path d="M406.678 427.727C429.667 422.318 452.27 415.557 474.486 407.443C476.225 406.767 475.452 403.965 473.713 404.642C451.497 412.659 428.894 419.42 405.905 424.926C404.167 425.409 404.939 428.21 406.678 427.727Z" fill="#191919"/>
<path d="M354.518 430.624C353.455 431.01 353.552 432.942 352.683 441.925C352.103 448.011 351.91 448.107 352.103 449.556C352.586 453.613 354.035 454.386 354.518 459.022C354.808 462.016 354.228 462.403 354.711 464.914C355.291 468.005 356.643 470.323 357.706 471.772C357.706 472.738 357.899 474.38 358.671 476.022C360.217 479.017 363.791 481.625 365.723 480.659C366.785 480.176 367.075 478.147 367.558 474.187C368.041 470.517 367.751 470.323 368.138 466.073C368.524 462.596 368.814 461.92 368.524 460.181C368.234 458.056 367.461 457.38 366.689 455.158C365.626 452.067 366.109 450.908 365.433 447.721C364.467 442.408 361.956 438.641 360.603 436.613C359.251 434.488 356.353 430.044 354.518 430.624Z" fill="white"/>
<path d="M353.842 429.755C348.626 441.056 353.842 453.71 365.626 457.863C366.978 458.346 367.558 456.221 366.206 455.738C355.774 452.068 351.137 440.863 355.774 430.817C356.257 429.562 354.421 428.499 353.842 429.755Z" fill="#191919"/>
<path d="M354.228 431.494C361.182 437.966 365.239 446.466 365.819 455.932C365.915 457.284 368.04 457.284 368.04 455.932C367.461 445.886 363.211 436.806 355.773 429.948C354.711 428.982 353.165 430.528 354.228 431.494Z" fill="#191919"/>
<path d="M351.33 443.278C348.819 454.579 355.484 465.301 366.978 467.716C368.331 468.006 368.91 465.88 367.558 465.591C357.319 463.466 351.137 454.096 353.455 443.761C353.745 442.409 351.62 441.829 351.33 443.278Z" fill="#191919"/>
<path d="M353.455 457.477C351.427 466.073 356.643 474.284 365.336 475.926C366.689 476.216 367.268 474.091 365.916 473.801C358.382 472.449 353.745 465.59 355.484 458.056C355.87 456.704 353.842 456.124 353.455 457.477Z" fill="#191919"/>
<path d="M356.257 471.29C355.87 475.443 358.285 479.597 362.149 481.142C363.791 481.819 365.916 481.915 367.172 480.466C368.524 478.921 367.944 476.603 367.172 474.961C366.689 473.705 364.564 474.284 365.047 475.54C365.53 476.603 366.496 478.728 364.95 479.404C363.791 479.887 361.956 478.728 361.086 478.051C359.058 476.409 358.092 473.898 358.382 471.29C358.575 469.841 356.353 469.938 356.257 471.29Z" fill="#191919"/>
<path d="M366.206 475.83C368.331 475.83 369.2 473.705 369.49 471.869C369.876 469.648 369.49 467.329 368.331 465.398C367.654 464.142 365.723 465.301 366.495 466.46C367.172 467.619 367.558 468.875 367.558 470.131C367.558 470.807 367.365 473.608 366.206 473.608C364.853 473.608 364.853 475.83 366.206 475.83Z" fill="#191919"/>
<path d="M368.91 466.943C370.263 465.687 370.263 463.272 369.973 461.534C369.683 459.312 368.717 457.38 367.172 455.738C366.206 454.675 364.66 456.221 365.626 457.283C366.592 458.346 367.365 459.602 367.655 461.147C367.848 462.21 368.138 464.528 367.268 465.397C366.302 466.363 367.848 467.909 368.91 466.943Z" fill="#191919"/>
<path d="M469.463 778.067C473.037 799.704 476.514 821.437 480.088 843.074C440.389 871.279 421.94 887.893 424.741 893.109C428.025 899.194 460.48 889.438 522.106 863.841C519.884 828.488 517.663 793.232 515.344 757.879C500.083 764.641 484.725 771.306 469.463 778.067Z" fill="#3B4045" stroke="#3B4045" stroke-width="3" stroke-miterlimit="10"/>
<path d="M643.136 516.688C644.682 529.535 645.261 550.109 637.631 573.291C634.346 583.144 628.841 599.275 614.352 614.44C605.079 624.099 588.851 641.099 565.186 640.423C546.061 639.844 532.538 628.156 527.612 623.423C526.163 641.582 525.39 661.287 525.777 682.441C526.356 714.992 529.544 744.453 533.794 770.147C522.203 791.59 499.986 804.823 476.514 804.147C446.378 803.278 429.281 779.999 427.349 777.295C420.394 711.901 419.815 657.52 421.07 617.144C422.133 584.206 424.451 556.967 444.349 534.848C463.764 513.211 489.458 508.285 496.219 507.126C545.675 498.336 583.056 533.206 587.499 537.552C594.647 538.035 608.653 537.842 623.721 530.598C632.608 526.251 638.983 520.842 643.136 516.688Z" fill="white" stroke="#3B4045" stroke-width="3" stroke-miterlimit="10"/>
<path d="M529.157 595.315C526.453 607.389 525.004 619.656 524.714 632.02C524.714 633.855 527.612 633.855 527.612 632.02C527.901 619.849 529.254 607.872 531.862 596.088C532.345 594.253 529.543 593.48 529.157 595.315Z" fill="#3B4045"/>
<path d="M529.834 610.77C531.186 607.776 532.442 604.781 533.794 601.69C534.567 599.952 532.055 598.503 531.282 600.241C529.93 603.236 528.674 606.23 527.322 609.321C526.549 610.963 529.061 612.412 529.834 610.77Z" fill="#3B4045"/>
<path d="M583.925 536.104C590.397 542.286 594.84 551.172 599.67 558.706C600.636 560.252 603.147 558.803 602.181 557.258C597.159 549.53 592.619 540.547 585.954 534.075C584.602 532.723 582.573 534.751 583.925 536.104Z" fill="#3B4045"/>
<path opacity="0.09" d="M612.324 534.075C612.517 538.711 612.517 545.087 611.744 552.717C609.909 570.587 608.363 585.752 598.511 592.32C587.016 600.048 569.533 592.707 563.061 589.905C540.652 580.439 538.044 564.598 525.197 563.439C510.032 562.087 494.288 582.371 486.753 598.309C468.111 637.429 489.265 668.049 491.583 738.271C492.452 766.476 489.941 789.272 488.009 803.181C493.032 802.602 499.6 801.153 506.651 797.772C522.976 789.948 531.186 776.522 534.277 770.726C533.601 765.414 532.635 757.203 531.283 747.254C527.998 723.01 526.936 720.402 525.873 709.97C525.39 705.237 525.004 699.924 525.873 665.537C526.163 655.395 526.453 641.389 527.033 624.679C529.641 626.514 533.214 628.832 537.851 631.247C541.038 632.889 552.243 638.781 562.482 640.23C578.806 642.548 592.715 633.372 599.767 628.832C618.988 616.179 627.295 598.405 632.801 586.138C645.068 558.996 645.455 533.495 644.199 517.654C640.818 521.325 634.54 527.217 624.977 530.887C620.148 532.819 615.801 533.689 612.324 534.075Z" fill="#3D3D3D"/>
<path opacity="0.11" d="M640.528 537.649C638.307 536.876 631.642 549.916 630.869 551.461C624.59 563.922 624.784 571.939 622.465 579.666C617.926 595.121 603.243 610.673 588.272 614.536C563.061 621.008 541.907 593.093 530.606 601.883C525.293 606.036 525.583 615.502 527.612 621.105C533.407 637.235 559.68 638.395 563.061 638.491C585.953 639.264 602.761 625.065 608.073 620.428C642.074 591.064 644.585 539.098 640.528 537.649Z" fill="#3D3D3D"/>
<path opacity="0.11" d="M529.35 600.724C527.708 600.434 522.589 616.662 519.112 632.6C512.06 665.055 512.93 690.072 513.123 702.243C513.413 724.845 511.481 757.204 501.725 798.352C505.685 797.386 511.771 795.261 517.953 790.528C527.419 783.284 531.476 774.204 532.924 770.147C530.993 748.993 529.64 731.027 528.674 717.311C526.356 684.18 525.197 667.276 525.68 651.821C526.743 621.008 531.186 601.11 529.35 600.724Z" fill="#3D3D3D"/>
<path d="M485.884 442.698C486.753 440.187 492.549 440.187 494.094 440.187C500.856 440.187 506.265 444.63 508.004 448.397C508.487 449.459 508.583 450.329 508.583 450.812C508.776 453.42 507.231 456.028 505.879 456.897C500.856 460.085 484.145 447.624 485.884 442.698Z" fill="white" stroke="#3B4045" stroke-width="3" stroke-miterlimit="10"/>
<path d="M662.068 293.946C677.426 303.412 675.591 330.168 673.273 363.686C670.665 400.681 661.778 426.664 658.398 436.13C652.409 452.454 645.744 465.687 640.238 475.153C620.34 483.654 588.658 493.699 549.441 491.96C535.242 491.284 522.589 489.256 511.674 486.648C498.634 495.631 488.105 495.534 483.566 495.051C476.514 494.375 467.241 491.188 467.338 488.097C467.338 485.972 471.878 484.233 473.906 483.46C478.832 481.528 483.179 481.722 483.179 481.528C483.179 481.335 479.605 481.529 475.838 481.142C473.327 480.852 468.4 480.466 464.15 478.244C462.605 477.472 454.974 473.705 453.525 466.363C452.173 459.699 456.23 452.164 463.667 447.721C470.525 445.886 482.6 443.664 497.185 446.272C508.003 448.204 516.31 452.068 521.816 455.062C547.799 448.687 573.783 442.215 599.669 435.84C600.152 430.431 601.022 422.511 602.084 412.755C605.465 381.942 607.107 366.487 609.715 353.447C616.09 321.378 620.244 300.418 636.471 293.077C643.716 289.889 654.244 289.116 662.068 293.946Z" fill="white" stroke="#3B4045" stroke-width="3" stroke-miterlimit="10"/>
<path opacity="0.18" d="M646.903 291.724C650.091 311.526 652.989 340.793 650.381 375.953C647.483 414.686 645.841 434.005 632.125 450.039C611.55 474.091 567.215 486.165 532.731 476.409C519.401 472.642 500.179 464.045 476.611 468.875C469.849 470.227 459.514 473.414 459.707 475.926C459.9 477.858 466.855 479.789 471.781 480.369C475.548 480.755 477.963 480.466 478.156 481.238C478.736 483.074 467.821 486.165 468.111 489.352C468.304 492.057 476.901 494.182 483.952 494.375C489.361 494.568 498.924 493.892 510.515 487.227C520.754 489.642 532.441 491.67 545.288 492.443C586.34 494.954 619.954 484.233 640.915 475.153C645.165 467.522 650.574 456.8 655.79 443.471C671.921 402.516 673.756 368.418 674.046 359.146C674.625 345.236 674.142 325.725 669.602 302.639C668.926 301.19 666.029 295.684 659.364 292.787C653.761 290.372 648.642 291.338 646.903 291.724Z" fill="#3D3D3D"/>
<path opacity="0.21" d="M621.113 475.636C606.141 477.954 597.448 480.369 590.687 481.722C563.254 487.517 541.038 484.909 533.214 483.943C525.197 483.074 518.629 481.722 514.089 480.756C508.583 482.977 500.373 485.778 490.134 486.938C476.997 488.386 467.628 486.455 467.338 488.097C467.048 489.642 475.066 493.699 483.566 494.665C496.509 496.114 507.038 489.835 511.771 486.551C517.759 488.193 526.356 490.318 536.885 491.574C592.812 498.432 641.977 475.25 641.398 473.125C641.301 472.449 634.54 473.511 621.113 475.636Z" fill="#3D3D3D"/>
<path d="M459.321 475.83C468.401 471.966 478.253 471.193 487.816 473.415C489.651 473.801 490.424 471 488.588 470.614C478.156 468.199 467.724 469.068 457.872 473.318C456.133 474.091 457.679 476.602 459.321 475.83Z" fill="#3B4045"/>
<path d="M454.202 466.557C464.923 462.693 476.128 461.437 487.429 462.886C489.265 463.079 489.265 460.182 487.429 459.988C475.935 458.54 464.344 459.795 453.429 463.755C451.69 464.432 452.463 467.233 454.202 466.557Z" fill="#3B4045"/>
<path d="M456.907 456.704C467.532 453.613 478.35 452.454 489.362 453.226C491.197 453.323 491.197 450.425 489.362 450.329C478.157 449.556 466.952 450.812 456.134 453.903C454.299 454.385 455.071 457.187 456.907 456.704Z" fill="#3B4045"/>
<path d="M508.003 139.495C481.054 161.325 482.116 205.757 492.742 234.445C499.406 252.604 510.225 265.065 517.179 271.923C518.918 279.264 520.56 286.701 522.299 294.043C530.799 295.878 542.004 297.327 555.044 296.168C584.408 293.463 605.079 279.167 614.255 271.73C607.783 255.695 601.311 239.661 594.84 223.53C593.97 217.638 592.715 208.558 591.169 197.547C587.209 168.666 587.402 167.12 585.663 162.484C584.891 160.552 573.976 132.926 548.379 128C527.611 124.04 510.515 137.37 508.003 139.495Z" fill="white" stroke="#3B4045" stroke-width="3" stroke-miterlimit="10"/>
<path d="M485.787 213.388C484.242 219.473 482.6 228.939 483.759 240.434C484.532 248.065 485.787 261.298 495.35 274.048C505.685 287.861 519.691 293.077 525.583 295.008C525.1 293.463 524.617 291.531 524.328 289.309C524.038 286.895 524.134 284.77 524.328 283.128C530.703 286.508 537.078 289.986 543.356 293.366C559.391 278.684 564.703 265.355 566.539 255.599C567.987 247.968 568.857 233.962 572.334 208.462C572.914 203.922 574.169 195.711 579.385 193.683C581.8 192.717 585.084 193.103 587.306 194.939C593.681 200.251 587.209 215.416 588.562 215.899C589.914 216.286 601.022 201.024 597.255 183.444C595.323 174.365 590.011 168.086 586.92 164.995C579.965 175.91 572.238 187.115 563.737 198.609C558.328 205.95 552.919 212.905 547.606 219.57C545.578 220.632 542.584 221.888 539.106 221.598C536.402 221.405 535.436 220.439 533.407 219.86C525.873 217.735 521.816 226.524 514.475 225.365C508.39 224.399 507.81 217.928 501.145 217.735C497.958 217.638 496.606 219.087 493.322 218.411C489.844 217.638 487.429 215.32 485.787 213.388Z" fill="#3B4045" stroke="#3B4045" stroke-width="3" stroke-miterlimit="10"/>
<path d="M516.89 187.598C514.572 198.126 513.123 208.751 512.543 219.473C512.447 220.632 513.799 221.212 514.765 220.729C518.532 218.797 522.299 216.865 526.163 214.933C527.805 214.064 526.356 211.553 524.714 212.422C520.947 214.354 517.18 216.286 513.316 218.218C514.089 218.604 514.765 219.087 515.538 219.473C516.214 208.945 517.566 198.609 519.788 188.37C520.078 186.535 517.277 185.762 516.89 187.598Z" fill="#3B4045"/>
<path d="M501.725 193.49C502.787 195.132 502.981 197.644 502.111 198.127C501.049 198.706 498.054 196.485 497.668 193.973C497.571 193.2 497.668 191.848 498.344 191.462C499.31 190.979 500.952 192.235 501.725 193.49Z" fill="#3B4045" stroke="#3B4045" stroke-width="3" stroke-miterlimit="10"/>
<path d="M496.702 183.541C500.083 181.802 504.14 182.092 507.231 184.507C508.68 185.666 510.708 183.637 509.259 182.478C505.203 179.194 499.89 178.615 495.254 181.029C493.612 181.899 495.06 184.41 496.702 183.541Z" fill="#3B4045"/>
<path d="M530.413 184.99C535.242 181.802 541.811 182.865 545.095 187.695C546.157 189.24 548.669 187.791 547.606 186.246C543.453 180.257 535.146 178.422 528.964 182.479C527.418 183.541 528.867 186.052 530.413 184.99Z" fill="#3B4045"/>
<path d="M464.537 166.541C503.077 168.762 541.617 172.046 579.965 176.2C585.567 176.78 585.47 168.086 579.965 167.507C541.617 163.353 503.077 160.069 464.537 157.847C458.934 157.558 458.934 166.251 464.537 166.541Z" fill="#3B4045"/>
<path d="M489.554 160.649C490.134 154.756 492.549 139.591 504.333 127.324C519.691 111.29 547.993 104.528 570.016 118.148C587.306 128.87 596.482 149.54 593.391 170.598C558.714 167.313 524.134 163.933 489.554 160.649Z" fill="#EB306E"/>
<path opacity="0.69" d="M538.237 113.898C533.697 117.665 533.697 125.489 535.339 133.892C537.078 143.069 541.521 154.273 548.283 165.671C563.254 167.41 578.323 169.149 593.295 170.887C593.971 167.7 594.55 162.967 593.971 157.268C593.971 157.268 593.005 146.932 587.499 137.563C576.488 119.017 547.703 105.977 538.237 113.898Z" fill="#CA236A"/>
<path opacity="0.24" d="M585.278 220.439C581.897 222.275 578.516 221.792 577.357 221.599C578.806 224.4 581.8 230.388 583.925 238.792C585.857 246.713 588.658 257.531 584.988 269.991C581.704 281.099 574.749 288.44 570.016 292.497C575.812 291.435 583.442 289.406 591.846 285.253C601.602 280.423 608.556 274.628 613.096 270.185C605.948 249.997 598.897 229.809 591.749 209.621C591.749 210.007 591.363 217.252 585.278 220.439Z" fill="#3D3D3D"/>
<path opacity="0.19" d="M551.47 172.916C552.532 177.552 553.498 184.507 552.339 192.717C550.407 206.53 543.742 216.093 540.168 220.439C542.293 219.763 544.418 219.087 546.544 218.411C550.794 213.292 555.044 207.882 559.294 202.28C566.248 193.104 572.72 184.121 578.516 175.331C569.533 174.655 560.453 173.785 551.47 172.916Z" fill="#3D3D3D"/>
<path d="M538.333 194.359C539.396 196.001 539.589 198.513 538.72 198.996C537.657 199.575 534.663 197.354 534.276 194.842C534.18 194.07 534.276 192.717 534.952 192.331C535.918 191.848 537.464 193.104 538.333 194.359Z" fill="#3B4045" stroke="#3B4045" stroke-width="3" stroke-miterlimit="10"/>
<path d="M496.026 218.507C505.682 218.507 513.509 210.68 513.509 201.024C513.509 191.369 505.682 183.541 496.026 183.541C486.37 183.541 478.543 191.369 478.543 201.024C478.543 210.68 486.37 218.507 496.026 218.507Z" stroke="#3B4045" stroke-width="2" stroke-miterlimit="10"/>
<path d="M536.691 218.507C546.347 218.507 554.174 210.68 554.174 201.024C554.174 191.369 546.347 183.541 536.691 183.541C527.036 183.541 519.208 191.369 519.208 201.024C519.208 210.68 527.036 218.507 536.691 218.507Z" stroke="#3B4045" stroke-width="2" stroke-miterlimit="10"/>
<path d="M515.538 201.604C515.924 201.121 516.697 200.927 517.18 201.314C517.759 201.797 518.628 201.893 519.208 201.314C519.691 200.831 519.788 199.768 519.208 199.285C517.566 197.836 514.958 197.836 513.509 199.575C513.026 200.155 512.93 201.024 513.509 201.604C513.992 202.183 515.055 202.183 515.538 201.604Z" fill="#3B4045"/>
<path d="M479.992 202.183C481.827 201.217 483.662 200.154 485.401 198.995C486.946 198.029 485.498 195.518 483.952 196.484C482.213 197.643 480.378 198.705 478.543 199.671C476.804 200.541 478.35 203.052 479.992 202.183Z" fill="#3B4045"/>
<path d="M555.237 201.894C563.254 199.866 571.368 197.934 579.385 195.905C581.221 195.422 580.448 192.621 578.613 193.104C570.595 195.133 562.482 197.064 554.464 199.093C552.629 199.576 553.402 202.377 555.237 201.894Z" fill="#3B4045"/>
</svg>
