<?xml version="1.0" encoding="UTF-8"?><svg id="Layer_2" xmlns="http://www.w3.org/2000/svg" viewBox="0 0 1277.31 1050.53"><defs><style>.cls-1{fill:#8e8d8d;}.cls-2{fill:#bbf969;}</style></defs><g id="Layer_1-2"><g><g id="_5c0jJv.tif"><g><path class="cls-2" d="M32.43,426.12c0-4.46,.01-8.93,0-13.39-.04-12.73,1.81-25.34,3.13-37.99,.69-6.56,1.95-13.02,3.14-19.49,1.21-6.55,3.5-12.96,5.44-19.41,3.09-10.32,7.37-20.33,11.38-30.41,6.71-16.85,14.48-33.22,26.58-47.99,9.34-11.39,19.75-22,30.64-32.33,4.02-3.81,7.51-7.96,12.55-11,6.05-3.65,12.62-6.44,19.28-9.08,8.86-3.51,16.92-8.37,26.24-11.09,3.84-1.12,7.67-2.26,11.48-3.44,5.17-1.61,8.93-5.05,13.42-7.54,2.41-1.34,4.85-2.22,7.72-1.92,30.75,3.19,61.64,.9,92.45,1.57,1.42,.03,2.89-.05,4.26-.33,7.65-1.55,15.07,.28,22.57,1,8.97,.87,17.07,4.16,25.59,6.29,5.96,1.49,12.22,2.06,18.16,3.73,1.14,.32,2.35,.52,3.42,.97,11.74,4.87,24.2,8.56,35.26,14.52,5.51,2.97,10.67,6.55,15.27,10.61,4.11,3.63,8.12,7.38,12.6,10.67,9.09,6.66,14.82,15.1,19.13,24.37,3.56,7.68,7.7,15.19,9.98,23.24,1.61,5.67,2.72,11.43,4.34,17.09,1.76,6.13,2.71,12.39,3.49,18.6,.81,6.42,1.02,12.94-.44,19.42-.98,4.35-1.99,8.71-2.86,13.07-1.65,8.28-4.97,16.1-8.11,24.01-4.46,11.23-12.49,20.83-18.86,31.19-7.45,12.14-17.16,23.17-23.99,35.56-8.6,15.61-19.33,30.25-28.45,45.61-5.77,9.72-10.47,19.83-14.51,30.15-3.8,9.68-8.16,19.19-12.38,28.74-2.67,6.05-4.2,12.44-6.34,18.66-1.72,4.99-3.62,9.94-5.36,14.92-1.65,4.71-2.67,9.53-3.39,14.41-.73,4.94-1.1,9.92-2.31,14.81-.93,3.74,.17,7.62-.86,11.38-.9,3.29-.79,6.65-.78,10,.02,8.56,.29,17.12-.07,25.67-.38,8.96,.94,17.84,1.72,26.69,.93,10.56,1.48,21.29,4.97,31.59,3,8.85,4.74,17.91,7,26.88,2.08,8.23,4.11,16.46,6.92,24.54,1.66,4.79,3.5,9.55,5.25,14.32,2.33,6.35,3.44,13.01,6.58,19.16,5.33,10.42,8.1,21.55,12.73,32.16,3,6.86,6.53,13.57,8.68,20.67,.73,2.42,1.39,4.88,1.67,7.36,.89,7.75,3.43,15.24,4.94,22.88,1.24,6.28,2.79,12.55,3.14,18.96,.26,4.81,.8,9.64,1.6,14.41,2.5,14.75,3.65,29.56,3.01,44.46-.57,13.39-5.24,25.87-11.72,38.02-5.59,10.47-11.67,20.62-20.48,29.45-12.27,12.3-27.47,20.5-46.06,24.6-18.53,4.09-37.32,3.58-56.08,3.14-6.94-.16-13.62-2.68-20.2-4.83-13.48-4.4-24.52-11.87-35.47-19.54-4.08-2.86-8.07-5.74-11.71-8.98-6.48-5.77-11.45-12.43-15.95-19.35-5.03-7.74-10.2-15.42-14.78-23.34-5.73-9.93-9.85-20.44-14.16-30.86-4.55-11-7.62-22.38-11.54-33.54-3.32-9.46-5.23-19.28-7.79-28.94-1.6-6.04-3.46-12.04-4.83-18.12-1.26-5.62-2.63-11.21-4.32-16.75-2.59-8.48-5.5-16.92-7.62-25.49-3.54-14.31-8.92-28.24-11.84-42.67-1.49-7.39-4.47-14.48-6.96-21.66-1.54-4.43-2.4-8.98-3.49-13.5-1.22-5.06-2.9-10.04-4.55-15.02-2.24-6.76-4.26-13.55-5.98-20.43-1.52-6.07-3.57-12.05-5.36-18.07-1.99-6.71-3.96-13.43-5.93-20.15-1.65-5.64-3.56-11.24-4.83-16.93-1.83-8.19-4.96-16.08-7.17-24.17-1.4-5.13-3.64-10.09-5.39-15.16-2.39-6.94-4.8-13.87-6.97-20.86-1.88-6.06-3.94-12.13-4.98-18.31-.88-5.21-2.02-10.36-3.05-15.54-.81-4.09-2.1-8.1-3.12-12.16-1.17-4.69-2.37-9.37-3.37-14.08-1.33-6.25-2.55-12.51-3.7-18.78-.53-2.91-.96-5.86-1.39-8.77-1.74-11.84-3.46-23.68-4.37-35.62-1.08-14.17-2.48-28.31-1.89-42.52Z"/><path class="cls-1" d="M556.24,632.52c0-1.12,.06-2.24-.01-3.35-.71-10.31,1.21-20.29,5.21-30.01,3.56-8.64,6.01-17.62,11.46-25.69,5.34-7.91,10.58-15.87,15.46-23.99,5.66-9.41,11.3-18.79,15.06-29.01,3.94-10.69,10.04-20.62,17.34-30.17,7.36-9.63,15.88-18.71,21.3-29.42,2.63-5.2,7.65-9.27,11.48-13.92,5.4-6.55,10.39-13.32,17.15-19.05,8.33-7.06,17.69-9.16,29.43-7.44,13.95,2.05,26,7.1,37.62,13.41,4.44,2.41,8.85,4.88,14.04,6.06,.42,.1,.83,.33,1.25,.34,12.07,.29,24.27,1.39,35.5-3.89,2.4-1.13,4.9-2.12,7.39-3.11,7.98-3.16,15.84-3.22,23.16,1.22,13.27,8.06,24.18,18,30.97,30.61,4.77,8.86,7.5,18.37,9.74,27.95,1.8,7.72,4.05,15.36,5.87,23.07,1.2,5.06,1.87,10.21,3.01,15.28,1.32,5.9,2.9,11.75,4.35,17.62,1.1,4.43,2.21,8.86,3.29,13.3,1.79,7.35,5.4,14.1,9.59,20.66,1.72,2.7,3.6,5.33,5.18,8.09,4.48,7.8,11.02,14.27,18.06,20.47,6.12,5.39,9.39,12.26,13.19,18.86,4.26,7.42,6.19,15.37,8.54,23.28,2.76,9.28,3.05,18.75,3.46,28.15,.35,7.92-1.1,15.91-1.84,23.86-.57,6.11-1.76,12.12-4.38,17.88-4.78,10.53-9.92,20.95-19.54,29.09-5.88,4.98-11.93,10.07-20.81,11.18-9.19,1.15-18.46,1.27-27.68,.63-5.69-.39-11.42-.28-17.1-1.18-6.62-1.06-12.56-3.17-18.24-6.18-10.53-5.58-21.1-11.12-31.86-16.36-6.72-3.27-14.04-5.1-22-5.16-8.96-.08-17.8,.51-26.62,1.73-2.94,.41-5.89,.61-8.88,.6-16.09-.05-32.19,.14-48.28-.12-11.48-.19-22.64-2.14-33.4-5.72-6.11-2.03-12.86-2.91-18.59-5.47-11.05-4.93-23.38-7.94-33.07-14.94-12.2-8.8-23.39-18.51-31.25-30.38-5.34-8.06-9.7-16.65-12.83-25.56-1.11-3.15-1.44-6.56-1.63-9.86-.27-4.45-.07-8.93-.07-13.39Z"/><path class="cls-2" d="M249.31,94.85c-.07-7.07,1.43-13.98,2.57-20.94,1.26-7.74,2.7-15.41,6.12-22.7,4.1-8.73,8.46-17.42,16.12-24.43,6.73-6.16,14.59-10.91,24.82-12.22,17.01-2.18,29.97,3.54,39.77,14.8,5.45,6.27,10.79,12.7,14.35,19.96,2.35,4.78,3.83,9.79,4.99,14.91,1.64,7.27,3.82,14.45,5.83,21.65,.21,.74,.31,1.9,1.58,1.85,1.04-.04,.94-1.12,1.28-1.78,6.39-12.72,11.16-25.96,17.11-38.8,5.82-12.56,13.62-24.4,25.39-33.88,7.91-6.37,16.91-11.45,27.98-12.81,9.19-1.13,18.29-.3,26.61,3.6,8.27,3.88,16.54,7.76,22.86,13.98,3.32,3.27,6.12,6.82,8.45,10.58,5.91,9.52,12.75,18.72,16.08,29.22,1.89,5.96,3.8,11.92,4.86,18.08,1.01,5.89,1.47,11.8,2.02,17.71,.48,5.19-.25,10.37-.4,15.56-.28,10.09-3.75,19.73-5.95,29.54-1.43,6.39-4,12.58-7.9,18.22-5.09,7.38-9.62,15.08-15.68,21.93-7.31,8.27-16.76,13.87-29.06,16.18-12.37,2.32-23.86,.49-34.87-3.99-5.22-2.12-9.71-5.42-13.6-9.16-9.94-9.55-17.21-20.62-24.91-31.43-3.59-5.04-5.26-10.78-7.23-16.37-2.77-7.87-7.76-14.94-11.21-22.57-.38-.84-.89-1.84-2.25-1.78-1.79,.08-2.3,1.39-2.7,2.5-1.96,5.41-3.86,10.83-5.68,16.27-2.53,7.54-5.96,14.7-10.95,21.39-5.99,8.04-14.81,12.5-25.1,15.36-2.91,.81-5.73,1.82-8.79,2.28-7.66,1.17-14.64-.37-21.12-3.69-4.32-2.22-8.51-4.64-12.64-7.12-7.89-4.74-12.85-11.32-16.29-18.84-2.73-5.97-5.85-11.83-8.31-17.88-3.31-8.14-3.89-16.66-4.14-25.19Z"/><path class="cls-1" d="M879.11,323.15c.71,7.25-.37,16.72-2.87,25.93-4.45,16.34-10.49,32.33-23.47,45.49-8.6,8.72-19.43,14.84-32.87,17.57-14.58,2.96-26.96-.61-38.15-8.13-10.29-6.92-16.96-16.2-22.46-26.1-3.46-6.23-4.82-13-6.79-19.62-3.16-10.6-4.19-21.34-3.7-32.21,.38-8.6,2.07-17.03,4.81-25.34,2.53-7.65,5.16-15.26,8.18-22.79,3.14-7.85,8.09-14.79,14.22-21.2,3.95-4.13,8.07-8.11,12.77-11.64,5.96-4.48,13.01-6.78,20.91-7.31,2.95-.2,5.71-1.09,8.76-1.1,11.52-.02,20.69,4.13,29.44,10.14,13.3,9.12,19.74,21.67,25.42,34.53,2.84,6.42,3.79,13.4,4.72,20.33,.86,6.41,.94,12.77,1.09,21.45Z"/><path class="cls-1" d="M884.46,472.52c-1.19-6.85,.47-14.41,1.47-21.94,1.55-11.69,5.69-22.91,10.65-33.91,2.58-5.72,4.19-11.77,7.53-17.22,8.28-13.52,20.2-23.75,37.8-28.5,10.4-2.81,19.39-.02,27.08,5.79,8.87,6.71,16.17,14.5,19.23,24.49,1.31,4.29,1.83,8.76,3.27,13.01,3.69,10.94,3.34,22.16,2.39,33.21-1.18,13.85-4.28,27.53-10.73,40.5-5.9,11.85-12.56,23.35-22.04,33.48-8.33,8.89-19.33,14.47-32.84,14.36-11.65-.09-21.41-4.46-27.4-13.55-4.92-7.47-9.46-15.08-12.82-23.17-3.48-8.37-4.05-17.01-3.59-26.56Z"/><path class="cls-1" d="M597.98,315.6c.1-8.95,.32-19.09,3.38-28.96,3.77-12.16,10.79-22.53,25.05-27.83,19.08-7.1,35.73-3.07,50.41,8.74,13.72,11.03,22.91,24.47,28.58,39.52,3.3,8.76,5.7,17.78,6.02,27.16,.17,4.88,.85,9.78,1.02,14.71,.24,7.04-2.05,13.74-3.49,20.56-.58,2.74-1.4,5.41-2.39,8.06-2.08,5.59-5.91,10.13-11.09,13.91-6.58,4.81-13.18,9.73-21.61,12.06-5.47,1.51-11.01,2.04-17.09,1.16-8.19-1.18-13.84-5.04-19.78-9.25-7.48-5.3-13.97-11.28-19.72-17.89-3.21-3.69-5.6-7.77-7.89-11.88-4.26-7.65-8.24-15.4-9.71-23.87-1.44-8.29-1.63-16.65-1.7-26.19Z"/><path class="cls-1" d="M610.56,456.8c.23,11.12-2.28,20.76-5.94,30.08-3.1,7.88-10.17,13.54-17.84,18.57-5.06,3.33-10.33,5.86-17.13,5.57-4.81-.2-9.12-1.35-12.99-3.6-5.52-3.21-10.97-6.53-16.32-9.94-5.08-3.24-9.02-7.39-11.88-12.16-4.41-7.36-9.96-14.27-12.5-22.38-1.76-5.64-2.98-11.3-3.69-17.14-.78-6.39-1.56-12.8-.85-19.13,1.08-9.63,1.46-19.56,7.27-28.26,5.79-8.66,14.13-14.94,26.19-16.76,6.3-.95,12.25,.44,17.92,2.72,17.76,7.15,29.71,18.85,37.01,34.05,3.42,7.12,6.78,14.27,8.57,21.86,1.38,5.84,2.55,11.69,2.15,16.52Z"/><path class="cls-2" d="M232.92,118.18c-.52,9.89-1.5,19.71-5.18,29.23-1.37,3.54-3.5,6.71-6.38,9.34-6.48,5.94-13.36,11.55-21.05,16.44-2.43,1.55-5.08,2.17-7.75,1.51-7.79-1.94-15.7-3.68-22.78-7.25-7.62-3.85-11.61-10.28-16.16-16.26-4.03-5.3-5.46-11.33-6.94-17.48-2.88-12-2.43-23.95-.9-35.93,1.18-9.24,4.61-17.89,10.85-25.66,2.94-3.67,5.41-7.58,9.28-10.74,7.11-5.8,15.59-8.23,25.23-7.49,4.87,.37,9.26,2.37,13.06,4.98,11.09,7.63,19.06,17.12,23.38,28.69,2.28,6.1,2.94,12.45,4.12,18.73,.75,3.97,1.29,7.89,1.2,11.9Z"/><path class="cls-2" d="M125.68,168.34c.45,10.43-2.59,19.37-8.38,27.54-5.12,7.23-12.47,12.26-22.74,13.36-4.31,.46-8.65-.02-12.31-2.21-9.82-5.87-17.16-13.33-19.86-23.46-1.9-7.15-3.42-14.41-2.76-21.75,.98-10.83,3.34-21.45,11.88-30.11,10.17-10.3,24.8-11.15,36.97-2.38,6.31,4.54,8.81,10.99,11.89,17.12,2.36,4.69,3.92,9.6,5.02,14.61,.59,2.68,.12,5.38,.3,7.28Z"/><path class="cls-2" d="M58.32,235.91c-.77,7.16-2.41,15.95-8.32,23.8-6.04,8.03-15.56,10.8-25.98,7.27-5.43-1.84-9.05-5.52-12.09-9.52-3.91-5.16-7.25-10.55-9.61-16.4-4.06-10.05-2.7-19.47,3.57-28.55,3.51-5.08,7.42-9.84,12.72-13.75,6.89-5.08,16.02-4.96,23.14,.76,11.71,9.41,16.56,21.14,16.58,36.4Z"/></g></g><g><path d="M467.89,941.99l35.3-3.43c2.12,11.85,6.43,20.55,12.93,26.11,6.5,5.56,15.26,8.33,26.29,8.33,11.68,0,20.49-2.47,26.41-7.42,5.92-4.94,8.88-10.72,8.88-17.34,0-4.25-1.25-7.86-3.74-10.85-2.49-2.98-6.84-5.58-13.05-7.78-4.25-1.47-13.93-4.08-29.05-7.84-19.45-4.82-33.09-10.74-40.94-17.77-11.03-9.89-16.55-21.94-16.55-36.16,0-9.15,2.59-17.71,7.78-25.68,5.19-7.97,12.66-14.03,22.43-18.2,9.76-4.17,21.55-6.25,35.36-6.25,22.55,0,39.53,4.94,50.92,14.83,11.4,9.89,17.38,23.08,17.96,39.59l-36.28,1.59c-1.55-9.23-4.88-15.87-9.99-19.92-5.11-4.04-12.77-6.07-22.98-6.07s-18.79,2.17-24.76,6.5c-3.84,2.78-5.76,6.5-5.76,11.15,0,4.25,1.8,7.89,5.39,10.91,4.57,3.84,15.69,7.84,33.34,12.01,17.65,4.17,30.7,8.48,39.16,12.93,8.46,4.46,15.07,10.54,19.86,18.26,4.78,7.72,7.17,17.26,7.17,28.62,0,10.29-2.86,19.94-8.58,28.92-5.72,8.99-13.81,15.67-24.27,20.04s-23.49,6.56-39.1,6.56c-22.72,0-40.16-5.25-52.33-15.75-12.18-10.5-19.45-25.8-21.82-45.9Z"/><path d="M639.48,1000.45v-179.67h58.22c22.06,0,36.44,.9,43.14,2.7,10.29,2.7,18.92,8.56,25.86,17.59,6.94,9.03,10.42,20.69,10.42,34.99,0,11.03-2,20.31-6.01,27.82-4,7.52-9.09,13.42-15.26,17.71-6.17,4.29-12.44,7.13-18.81,8.52-8.66,1.72-21.2,2.57-37.63,2.57h-23.65v67.78h-36.28Zm36.28-149.28v50.99h19.85c14.3,0,23.86-.94,28.68-2.82,4.82-1.88,8.6-4.82,11.34-8.82,2.74-4,4.11-8.66,4.11-13.97,0-6.54-1.92-11.93-5.76-16.18-3.84-4.25-8.7-6.9-14.58-7.97-4.33-.82-13.03-1.23-26.11-1.23h-17.53Z"/><path d="M794.53,911.72c0-18.3,2.74-33.66,8.21-46.08,4.08-9.15,9.66-17.36,16.73-24.63,7.07-7.27,14.81-12.66,23.22-16.18,11.19-4.74,24.1-7.11,38.73-7.11,26.47,0,47.66,8.21,63.55,24.63,15.89,16.42,23.84,39.26,23.84,68.51s-7.89,51.7-23.65,68.08c-15.77,16.38-36.85,24.57-63.24,24.57s-47.96-8.15-63.73-24.45c-15.77-16.3-23.65-38.75-23.65-67.35Zm37.38-1.23c0,20.34,4.7,35.77,14.09,46.27,9.4,10.5,21.33,15.75,35.79,15.75s26.33-5.21,35.6-15.63c9.27-10.42,13.91-26.04,13.91-46.88s-4.52-35.95-13.54-46.08c-9.03-10.13-21.02-15.2-35.97-15.2s-27.01,5.13-36.16,15.38c-9.15,10.25-13.73,25.72-13.73,46.39Z"/><path d="M1032.54,1000.45v-149.28h-53.31v-30.39h142.78v30.39h-53.19v149.28h-36.28Z"/><path d="M1131.21,941.99l35.3-3.43c2.12,11.85,6.43,20.55,12.93,26.11,6.5,5.56,15.26,8.33,26.29,8.33,11.68,0,20.49-2.47,26.41-7.42,5.92-4.94,8.89-10.72,8.89-17.34,0-4.25-1.25-7.86-3.74-10.85-2.49-2.98-6.84-5.58-13.05-7.78-4.25-1.47-13.93-4.08-29.05-7.84-19.45-4.82-33.09-10.74-40.94-17.77-11.03-9.89-16.55-21.94-16.55-36.16,0-9.15,2.59-17.71,7.78-25.68,5.19-7.97,12.66-14.03,22.43-18.2,9.76-4.17,21.55-6.25,35.36-6.25,22.55,0,39.53,4.94,50.92,14.83,11.4,9.89,17.38,23.08,17.96,39.59l-36.28,1.59c-1.55-9.23-4.88-15.87-9.99-19.92-5.11-4.04-12.77-6.07-22.98-6.07s-18.79,2.17-24.76,6.5c-3.84,2.78-5.76,6.5-5.76,11.15,0,4.25,1.8,7.89,5.39,10.91,4.58,3.84,15.69,7.84,33.34,12.01,17.65,4.17,30.7,8.48,39.16,12.93,8.46,4.46,15.08,10.54,19.86,18.26,4.78,7.72,7.17,17.26,7.17,28.62,0,10.29-2.86,19.94-8.58,28.92-5.72,8.99-13.81,15.67-24.27,20.04-10.46,4.37-23.49,6.56-39.1,6.56-22.72,0-40.16-5.25-52.33-15.75-12.18-10.5-19.45-25.8-21.82-45.9Z"/></g></g></g></svg>