<svg width="256" height="256" viewBox="0 0 256 256" fill="none" xmlns="http://www.w3.org/2000/svg">
<path d="M36.0386 101.799C35.5651 101.803 35.0955 101.714 34.6566 101.536C34.2177 101.358 33.8181 101.096 33.4807 100.764L33.2115 100.484L33.1494 100.401C32.6091 99.8357 32.2705 99.1077 32.1863 98.3301C31.7514 94.8537 31.5335 91.3537 31.5339 87.8502C31.5174 82.7824 31.9751 77.7241 32.9008 72.7415C33.8191 68.1378 36.0488 63.8979 39.3213 60.5322C41.3384 58.4776 43.9238 57.073 46.7453 56.4991C49.5668 55.9252 52.4955 56.2082 55.155 57.3117C59.9178 59.392 64.185 62.4592 67.6748 66.3107C68.3477 66.9878 68.7253 67.9036 68.7253 68.8581C68.7253 69.8127 68.3477 70.7285 67.6748 71.4056L38.6067 100.701C38.271 101.036 37.8718 101.3 37.4325 101.478C36.9932 101.656 36.5228 101.744 36.0489 101.737L36.0386 101.799ZM44.323 65.7411C42.127 68.0684 40.6336 70.969 40.0151 74.1084C39.1769 78.6512 38.7609 83.2618 38.7724 87.8813C38.7724 88.6787 38.7724 89.4761 38.7724 90.2838L59.9392 68.9203C51.4062 61.3193 47.264 62.9865 44.2712 65.71L44.323 65.7411Z" fill="#EB306E"/>
<path d="M134.665 192.742C113.759 192.745 93.3445 186.396 76.1273 174.537C58.9102 162.677 45.7027 145.866 38.2547 126.331C37.0795 123.198 36.8335 119.792 37.5462 116.523C38.259 113.253 39.9001 110.259 42.2726 107.899L119.007 31.1638C121.966 28.5077 125.7 26.8726 129.658 26.4997C133.616 26.1268 137.59 27.0358 140.992 29.0926C159.978 39.2515 177.356 52.1632 192.563 67.4083C208.604 83.4387 221.196 99.6141 228.973 114.164C230.264 116.569 230.993 119.236 231.106 121.964C231.219 124.692 230.713 127.41 229.626 129.914C221.729 148.566 208.51 164.475 191.62 175.654C174.73 186.832 154.919 192.783 134.665 192.762V192.742ZM131.051 33.6905C128.484 33.6755 126.003 34.6085 124.082 36.3105L47.3779 113.004C45.9928 114.379 45.0326 116.124 44.6121 118.03C44.1916 119.936 44.3285 121.923 45.0065 123.753C51.8235 141.633 63.8315 157.067 79.4875 168.07C95.1434 179.073 113.732 185.144 132.864 185.501C151.997 185.858 170.799 180.486 186.855 170.075C202.911 159.665 215.487 144.69 222.967 127.077C223.62 125.576 223.925 123.948 223.86 122.312C223.796 120.677 223.363 119.077 222.594 117.633C215.149 103.694 203.001 88.1194 187.447 72.5757C172.731 57.8193 155.91 45.3227 137.534 35.4924C135.56 34.3527 133.33 33.7328 131.051 33.6905" fill="#EB306E"/>
<path d="M142.587 73.8909C141.433 75.1085 139.959 75.9767 138.335 76.396C136.71 76.8154 135.001 76.7691 133.401 76.2624C132.87 76.0543 132.444 75.6443 132.215 75.1221C131.986 74.5999 131.973 74.0082 132.179 73.4767C132.291 73.1928 132.46 72.9353 132.677 72.7208L141.417 63.9807C141.669 63.7247 141.982 63.5361 142.326 63.432C142.671 63.3279 143.035 63.3117 143.388 63.3848C143.74 63.4579 144.068 63.618 144.342 63.8505C144.617 64.0831 144.829 64.3806 144.958 64.716C145.466 66.3127 145.513 68.02 145.096 69.6425C144.678 71.265 143.812 72.7373 142.597 73.8909" fill="#0A0E14"/>
<path d="M167.948 98.6301C166.796 99.8476 165.325 100.717 163.702 101.138C162.08 101.559 160.372 101.515 158.773 101.012C158.437 100.881 158.14 100.668 157.908 100.392C157.675 100.117 157.516 99.788 157.443 99.4352C157.369 99.0825 157.386 98.717 157.49 98.3721C157.594 98.0272 157.782 97.7137 158.038 97.46L166.767 88.7198C167.173 88.3157 167.722 88.0889 168.295 88.0889C168.867 88.0889 169.417 88.3157 169.822 88.7198C170.037 88.9362 170.206 89.1932 170.319 89.4758C170.826 91.0734 170.873 92.7816 170.453 94.4045C170.034 96.0273 169.166 97.499 167.948 98.6508" fill="#0A0E14"/>
<path d="M193.661 123.701C192.509 124.919 191.037 125.788 189.415 126.209C187.793 126.63 186.084 126.587 184.486 126.083C183.952 125.875 183.523 125.464 183.292 124.94C183.061 124.416 183.047 123.822 183.253 123.287C183.363 123.003 183.532 122.745 183.75 122.531L192.491 113.791C192.743 113.535 193.056 113.347 193.4 113.243C193.744 113.138 194.109 113.122 194.461 113.195C194.814 113.268 195.142 113.429 195.416 113.661C195.691 113.894 195.902 114.191 196.032 114.526C196.539 116.124 196.586 117.832 196.166 119.455C195.747 121.078 194.878 122.55 193.661 123.701" fill="#0A0E14"/>
<path d="M133.474 229.255C156.657 229.271 179.464 223.394 199.752 212.175C220.04 200.957 237.144 184.766 249.457 165.123C249.746 164.654 249.926 164.125 249.981 163.576C250.037 163.027 249.967 162.472 249.778 161.954L244.144 148.492C243.951 147.973 243.613 147.521 243.17 147.189C242.728 146.857 242.199 146.659 241.647 146.619C241.095 146.578 240.543 146.697 240.057 146.961C239.571 147.226 239.171 147.624 238.904 148.109C217.686 186.756 178.738 209.207 133.443 209.207C84.1298 209.207 43.101 182.645 23.8914 137.215C23.384 136.034 22.8558 134.833 22.4416 133.632C22.1639 132.925 21.6192 132.357 20.9255 132.049C20.2318 131.74 19.4447 131.718 18.7343 131.985C18.3447 132.123 17.9909 132.346 17.6988 132.638L7.77812 142.092C7.38147 142.492 7.11035 142.999 6.99812 143.551C6.88589 144.103 6.93744 144.676 7.14643 145.199L7.31212 145.593C17.7673 170.397 35.3134 191.563 57.7499 206.435C80.1864 221.308 106.515 229.225 133.433 229.193L133.474 229.255Z" fill="#20CA78"/>
</svg>
