<svg width="1920" height="600" viewBox="0 0 1920 600" fill="none" xmlns="http://www.w3.org/2000/svg">
<g opacity="0.8">
<path opacity="0.05" d="M1920 507.149C1919.79 456.697 1889.26 413.357 1845.76 394.247C1889.08 374.775 1919.25 331.124 1919.02 280.698C1918.81 230.221 1888.27 186.855 1844.75 167.77C1888.09 148.298 1918.24 104.673 1918.03 54.1959C1917.72 -14.0987 1861.88 -69.4119 1793.54 -69.1016L1777.88 -69.0499C1810.72 -91.4699 1832.22 -129.25 1832.04 -171.893C1831.76 -240.187 1775.92 -295.5 1707.57 -295.216C1672.9 -295.061 1641.61 -280.631 1619.18 -257.539C1618.01 -325.084 1562.53 -379.517 1494.73 -379.207C1444.25 -379 1400.85 -348.486 1381.73 -305.017C1362.27 -348.305 1318.59 -378.431 1268.1 -378.225C1223.95 -378.018 1185.24 -354.693 1163.43 -319.756C1158.74 -343.676 1147.12 -365.14 1130.77 -382H1097.57C1125.67 -363.769 1144.35 -332.195 1144.51 -296.302L1144.59 -278.614L1123.34 -278.511L1123.26 -296.199C1123.08 -341.065 1086.39 -377.423 1041.47 -377.242C996.543 -377.035 960.186 -340.366 960.393 -295.5C960.574 -250.609 997.268 -214.276 1042.19 -214.457L1144.87 -214.897L1144.98 -193.666L1042.27 -193.227C985.649 -192.968 939.38 -238.817 939.122 -295.397C938.966 -331.626 957.702 -363.614 986.089 -382H952.862C942.641 -371.449 934.283 -359.114 928.279 -345.487C922.146 -359.166 913.581 -371.501 903.178 -382H869.382C898.339 -363.95 917.721 -331.859 917.876 -295.294C918.135 -238.713 872.255 -192.477 815.635 -192.244L712.954 -191.778L712.851 -213.035L815.532 -213.474C860.455 -213.655 896.838 -250.324 896.631 -295.216C896.45 -340.082 859.756 -376.44 814.833 -376.233C769.91 -376.052 733.553 -339.384 733.734 -294.492L733.811 -276.804L712.566 -276.726L712.488 -294.414C712.333 -331.29 731.767 -363.769 761.008 -382L727.213 -382C710.108 -364.752 698.023 -342.513 693.365 -317.714C673.802 -348.46 641.067 -369.975 603.183 -374.397L603.881 -375.328L588.2 -375.251C584.37 -375.251 580.566 -374.992 576.814 -374.63C575.727 -374.527 574.666 -374.397 573.579 -374.268C570.759 -373.906 567.99 -373.466 565.247 -372.949C564.237 -372.742 563.228 -372.587 562.219 -372.354C558.648 -371.579 555.103 -370.674 551.635 -369.587C551.195 -369.432 550.781 -369.277 550.341 -369.122C547.314 -368.139 544.338 -367.027 541.388 -365.812C540.379 -365.372 539.369 -364.933 538.36 -364.493C535.876 -363.355 533.444 -362.166 531.037 -360.899C530.183 -360.459 529.329 -360.045 528.501 -359.58C525.396 -357.847 522.394 -356.011 519.47 -354.02C518.849 -353.606 518.254 -353.141 517.658 -352.727C515.329 -351.098 513.052 -349.391 510.853 -347.607C509.973 -346.883 509.093 -346.133 508.213 -345.383C506.169 -343.625 504.176 -341.789 502.236 -339.927C501.589 -339.28 500.916 -338.686 500.295 -338.039C497.862 -335.557 495.533 -332.971 493.282 -330.281C492.713 -329.557 492.143 -328.807 491.574 -328.083C489.918 -325.989 488.339 -323.842 486.813 -321.644C486.14 -320.687 485.467 -319.705 484.82 -318.722C483.293 -316.369 481.844 -313.964 480.499 -311.507C480.11 -310.835 479.671 -310.163 479.308 -309.464C477.833 -306.723 476.462 -303.931 475.194 -301.06C475.194 -301.06 475.116 -300.827 475.039 -300.491C468.414 -285.26 464.713 -268.503 464.791 -250.867C464.843 -242.825 465.645 -234.989 467.146 -227.387H467.301C429.857 -215.207 400.201 -185.288 387.547 -147.921L293.225 -147.507H291.594C243.747 -147.274 200.713 -118.053 180.426 -75.282C175.302 -64.5245 171.394 -53.198 169.402 -41.4579C167.409 -30.0022 168.341 -18.9085 168.393 -7.42694C168.393 -10.7111 160.19 -18.2879 157.912 -20.8221C153.824 -25.4251 149.399 -29.7436 144.715 -33.726C135.347 -41.6389 124.893 -48.2331 113.61 -53.0429C103.208 -57.4907 92.2359 -60.1283 81.1086 -61.2403C68.8169 -62.4815 56.2923 -61.8092 44.0523 -59.637C27.8532 -56.7149 12.5597 -50.5087 -1 -41.7165L-1 -15.4175C16.8812 -30.8556 40.1449 -40.2167 65.5564 -40.3459C122.176 -40.5787 168.47 5.24415 168.703 61.8245C168.729 67.8497 169.195 73.7456 170.049 79.5123L147.536 79.6157L147.458 61.9279C147.277 17.0619 110.557 -19.2964 65.6599 -19.1154C38.0229 -18.9861 13.6465 -5.07375 -1 16.0792L-1 108.501C13.7759 129.835 38.4887 143.799 66.3586 143.669L199.652 143.1C206.743 151.117 214.842 158.228 223.77 164.228L66.4621 164.9C40.7142 165.029 17.1141 155.616 -1 139.997L-1 166.426C4.48598 169.968 10.2825 173.097 16.3378 175.735C10.2825 178.45 4.48598 181.657 -1 185.251L-1 211.912C17.0106 195.983 40.6624 186.26 66.5397 186.13C123.185 185.898 169.454 231.721 169.687 288.327L170.385 445.526C164.304 436.656 157.136 428.614 149.036 421.606L148.441 288.404C148.26 243.538 111.566 207.18 66.6432 207.361C38.3852 207.49 13.5172 222.049 -1 244.004L-1 333.503C13.6465 355.665 38.851 370.275 67.3678 370.146L85.0678 370.068L85.1713 392.566C79.3748 391.764 73.4489 391.35 67.4454 391.376C41.2317 391.506 17.2435 381.731 -1 365.595L-1 392.256C4.79651 396.057 10.9035 399.393 17.3211 402.211C10.9035 405.108 4.77063 408.521 -1 412.4L-1 439.294C17.14 422.821 41.18 412.736 67.5489 412.607C124.168 412.374 170.437 458.197 170.67 514.777L170.748 532.491L149.528 532.569L149.451 514.881C149.243 470.015 112.55 433.656 67.6266 433.837C38.7216 433.967 13.3619 449.198 -1 472.032L-1 558.454C13.4913 581.469 39.1874 596.751 68.3511 596.622L171.032 596.183V599.493C171.032 599.699 171.058 599.906 171.058 600.113L171.136 617.413L153.436 617.491L68.4287 617.853C41.7493 617.982 17.347 607.845 -1 591.192L-1 618.085C18.8738 631.429 42.8102 639.187 68.5323 639.083L84.188 639.006L153.513 638.721L177.631 638.618C194.296 687.699 240.849 723.049 295.502 722.816H296.977L297.029 723.023L366.354 722.738L384.054 722.661L405.299 722.557L426.57 722.48L447.79 722.376L469.061 722.273L490.306 722.195L508.006 722.118C508.006 722.118 552.851 720.902 577.228 700.577C590.322 691.63 601.63 680.226 610.454 667.089V669.209L610.532 685.449L610.713 723.773C610.713 723.773 608.565 779.681 646.476 811.824C660.087 825.607 676.933 836.132 695.72 842.364V874.947C697.014 899.849 706.614 923.045 721.778 942H751.511C730.784 923.304 717.69 896.307 717.56 866.284L717.405 847.458L719.553 847.768C725.117 848.518 729.386 848.751 735.183 848.725H738.728L738.806 866.18C738.961 900.832 760.879 930.415 791.544 942H848.991C879.889 930.337 901.858 900.392 901.703 865.482C901.522 820.59 864.802 784.232 819.905 784.439L733.242 784.827H730.68C699.446 782.784 674.578 756.899 674.449 725.143L674.371 709.472H674.397L674.087 639.988C673.931 606.811 700.818 579.71 734.018 579.555C767.219 579.426 794.338 606.294 794.468 639.445C794.623 672.649 767.736 699.749 734.536 699.879L716.836 699.956L716.758 678.726L734.458 678.648C755.936 678.545 773.326 661.012 773.222 639.549C773.145 618.085 755.6 600.708 734.122 600.811C712.618 600.889 695.228 618.422 695.332 639.885L695.461 668.822L695.694 725.04V726.126H695.772C696.445 747.098 713.705 763.674 734.821 763.57L819.802 763.208C876.421 762.95 922.69 808.798 922.948 865.405C923.078 895.738 909.958 923.097 888.997 942H917.928C924.242 933.906 929.599 925.01 933.791 915.494C938.087 925.036 943.547 933.932 950.016 942H979.257C957.883 923.278 944.323 895.867 944.194 865.301C943.961 808.721 989.815 762.458 1046.43 762.226L1149.14 761.786L1149.25 782.991L1046.54 783.456C1001.62 783.637 965.258 820.306 965.439 865.198C965.594 900.884 988.832 931.191 1020.95 942H1072.86C1105.2 931.113 1128.49 900.418 1128.34 864.499L1128.26 846.786L1149.5 846.708L1149.58 864.396C1149.71 895.272 1136.13 923.071 1114.54 942H1143.76C1156.15 926.484 1164.9 907.943 1168.7 887.695C1185.86 914.641 1213.11 934.527 1245.07 942H1301.61C1339.88 933.053 1371.38 906.288 1386.88 871.042C1403.15 907.245 1436.38 934.242 1476.33 942H1523.64C1580.39 930.984 1623.37 881.179 1623.89 821.495C1646.5 844.407 1677.94 858.552 1712.62 858.422C1780.96 858.112 1836.31 802.308 1836 734.013C1835.82 691.345 1813.98 653.771 1780.94 631.61L1796.62 631.558C1864.96 631.248 1920.31 575.469 1920 507.149ZM1042.09 -235.688H1041.83C1008.73 -235.688 981.767 -262.504 981.612 -295.578C981.483 -328.756 1008.37 -355.856 1041.57 -356.011C1074.74 -356.166 1101.86 -329.273 1102.02 -296.121L1102.1 -278.407L1080.85 -278.33L1080.77 -296.018C1080.67 -317.481 1063.13 -334.858 1041.65 -334.781C1020.17 -334.677 1002.78 -317.145 1002.86 -295.681C1002.96 -274.218 1020.51 -256.841 1041.98 -256.918L1144.69 -257.358L1144.79 -236.127L1042.09 -235.688ZM1059.61 -278.226L1041.91 -278.149H1041.83C1032.1 -278.149 1024.15 -286.036 1024.1 -295.759C1024.08 -305.534 1031.97 -313.499 1041.75 -313.55C1051.51 -313.55 1059.48 -305.689 1059.53 -295.914L1059.61 -278.226ZM106.417 397.479L105.951 288.585C105.847 267.122 88.3025 249.745 66.8244 249.822C45.3462 249.926 27.9567 267.458 28.0602 288.947C28.1378 310.385 45.7085 327.788 67.1608 327.685L84.8867 327.607L84.9643 348.838L67.2643 348.915H67.0055C33.9085 348.915 6.94433 322.099 6.81494 289.025C6.65968 255.847 33.5462 228.747 66.7467 228.592C99.9473 228.462 127.067 255.33 127.196 288.508L127.714 406.737C120.986 403.013 113.843 399.91 106.417 397.479ZM84.7832 306.377L67.0831 306.454H67.0055C57.2756 306.454 49.3313 298.567 49.3054 288.844C49.2537 279.069 57.1721 271.104 66.9279 271.079C76.6836 271.027 84.6797 278.914 84.7056 288.689L84.7832 306.377ZM716.577 639.807C716.525 630.058 724.444 622.068 734.199 622.016C743.981 621.99 751.951 629.903 751.977 639.652C752.029 649.401 744.136 657.366 734.355 657.418L716.655 657.495L716.577 639.807ZM1897.77 280.776C1898.03 337.356 1852.15 383.593 1795.53 383.851H1795.06C1738.65 383.851 1692.62 338.106 1692.38 281.681L1691.68 124.482C1697.77 133.326 1704.96 141.368 1713.06 148.376L1713.63 281.577C1713.84 326.469 1750.53 362.802 1795.43 362.621C1840.35 362.414 1876.73 325.745 1876.53 280.879C1876.35 235.987 1839.63 199.629 1794.73 199.836L1777.03 199.914L1776.92 177.416C1782.72 178.218 1788.62 178.631 1794.62 178.605C1851.24 178.347 1897.51 224.195 1897.77 280.776ZM1796.23 546.636C1817.71 546.533 1835.12 529 1835.02 507.511C1834.92 486.073 1817.37 468.67 1795.89 468.773L1686.92 469.239C1684.44 461.843 1681.26 454.758 1677.48 448.06L1795.79 447.543C1828.99 447.414 1856.11 474.282 1856.26 507.433C1856.42 540.611 1829.53 567.711 1796.33 567.867C1763.13 568.022 1736.01 541.128 1735.88 507.95L1735.81 490.263L1757.05 490.185L1757.13 507.873C1757.21 529.336 1774.75 546.714 1796.23 546.636ZM1778.3 490.082L1796 490.004C1805.75 489.978 1813.72 497.865 1813.77 507.614C1813.83 517.363 1805.91 525.354 1796.15 525.405H1796.07C1786.34 525.405 1778.4 517.492 1778.37 507.769L1778.3 490.082ZM1712.23 773.474C1733.71 773.397 1751.12 755.838 1751.02 734.375C1750.94 712.912 1733.37 695.534 1711.89 695.638L1694.19 695.715L1694.09 674.459L1711.82 674.381C1744.99 674.252 1772.14 701.12 1772.27 734.297C1772.42 767.449 1745.54 794.576 1712.33 794.705C1679.13 794.86 1652.01 767.992 1651.86 734.815L1650.88 508.312C1650.7 463.446 1614 427.114 1569.08 427.295C1524.16 427.502 1487.8 464.17 1487.98 509.036C1488.19 553.928 1524.88 590.287 1569.8 590.08L1587.5 590.002L1587.58 611.233L1576.97 611.284H1569.44C1513 611.31 1466.99 565.565 1466.73 509.114C1466.5 452.56 1512.36 406.323 1569 406.064C1625.62 405.832 1671.89 451.655 1672.12 508.235L1673.13 734.711C1673.21 756.174 1690.75 773.578 1712.23 773.474ZM1693.68 577.409C1702.63 590.519 1714.02 601.794 1727.19 610.612L1711.53 610.69L1693.83 610.767L1693.68 577.409ZM1694.27 716.946L1712 716.868C1721.75 716.817 1729.72 724.704 1729.78 734.479C1729.78 744.227 1721.91 752.192 1712.15 752.244H1712.08C1702.35 752.244 1694.4 744.357 1694.35 734.634L1694.27 716.946ZM1357.17 555.609C1335.69 555.713 1318.28 573.245 1318.38 594.709C1318.46 616.172 1336.03 633.549 1357.51 633.472L1569.98 632.541H1577.05L1587.68 632.463L1587.79 653.694L1357.61 654.702H1357.32C1324.25 654.702 1297.29 627.886 1297.13 594.812C1296.98 561.634 1323.89 534.534 1357.07 534.379C1390.27 534.249 1417.39 561.117 1417.54 594.295L1417.62 611.983L1396.37 612.06L1396.3 594.372C1396.19 572.909 1378.65 555.532 1357.17 555.609ZM1375.1 612.164L1357.4 612.241H1357.32C1347.59 612.241 1339.68 604.354 1339.62 594.631C1339.6 584.856 1347.49 576.892 1357.27 576.84C1367.03 576.788 1375 584.727 1375.05 594.476L1375.1 612.164ZM1253.92 425.123C1253.66 368.542 1299.54 322.306 1356.13 322.073C1362.16 322.047 1368.06 321.582 1373.83 320.729L1373.94 343.226L1356.24 343.304C1311.34 343.485 1274.96 380.179 1275.14 425.045C1275.24 447.672 1284.87 469.058 1301.07 484.211C1294.57 487.547 1288.39 491.426 1282.62 495.797C1264.4 476.867 1254.02 451.577 1253.92 425.123ZM1266.81 510.045C1262.25 514.932 1258.06 520.156 1254.33 525.716L1254.2 494.452C1257.96 499.96 1262.17 505.158 1266.81 510.045ZM1355.15 95.5968C1361.18 95.5709 1367.08 95.1055 1372.85 94.2521L1372.95 116.75L1355.25 116.827C1310.36 117.008 1273.97 153.677 1274.15 198.569C1274.36 243.331 1310.85 279.612 1355.59 279.612H1355.95C1400.88 279.405 1437.26 242.737 1437.05 197.845L1436.48 64.669C1438.92 62.4968 1441.27 60.247 1443.55 57.9197C1443.91 78.0124 1449.06 96.9673 1457.94 113.672L1458.3 197.767C1458.56 254.347 1412.68 300.584 1356.06 300.843C1299.44 301.075 1253.17 255.253 1252.91 198.646C1252.68 142.066 1298.53 95.8295 1355.15 95.5968ZM1252.62 129.395L1252.24 41.4473C1265.28 60.5573 1283.55 75.8144 1304.95 85.2013C1283.63 94.7693 1265.49 110.181 1252.62 129.395ZM1355.44 159.288C1333.96 159.392 1316.54 176.925 1316.65 198.388C1316.75 219.774 1334.22 237.125 1355.59 237.125H1355.77C1377.25 237.048 1394.67 219.515 1394.56 198.026L1394.07 89.1578C1401.5 86.6494 1408.59 83.4687 1415.29 79.6933L1415.81 197.948C1415.96 231.126 1389.08 258.226 1355.88 258.382C1322.67 258.511 1295.56 231.643 1295.4 198.465C1295.27 165.314 1322.16 138.187 1355.33 138.058L1373.03 137.98L1373.14 159.211L1355.44 159.288ZM1373.24 180.441L1373.32 198.129C1373.32 207.878 1365.45 215.869 1355.69 215.895H1355.59C1345.86 215.895 1337.94 208.007 1337.92 198.284C1337.86 188.535 1345.76 180.571 1355.54 180.519L1373.24 180.441ZM1374.3 424.606C1374.33 434.38 1366.43 442.345 1356.68 442.371H1356.6C1346.87 442.371 1338.93 434.51 1338.9 424.761C1338.85 415.012 1346.74 407.047 1356.52 406.995L1374.22 406.918L1374.3 424.606ZM1305.93 311.678C1284.61 321.246 1266.5 336.658 1253.61 355.846L1253.22 267.924C1266.26 287.008 1284.53 302.291 1305.93 311.678ZM1296.38 424.942C1296.25 391.79 1323.14 364.664 1356.34 364.534L1374.04 364.457L1374.12 385.687L1356.42 385.765C1334.94 385.842 1317.55 403.401 1317.63 424.864C1317.73 446.25 1335.2 463.627 1356.6 463.627H1356.76C1378.23 463.524 1395.65 445.965 1395.55 424.528L1395.08 315.608C1402.48 313.126 1409.57 309.945 1416.27 306.17L1416.79 424.425C1416.89 444.776 1406.54 463.834 1389.65 474.954C1379.16 472.135 1368.17 470.635 1356.81 470.687C1345.45 470.739 1334.45 472.342 1323.99 475.238C1306.99 464.274 1296.49 445.293 1296.38 424.942ZM1438.04 424.321L1437.47 291.12C1439.92 288.973 1442.25 286.723 1444.53 284.396C1444.89 304.515 1450.04 323.444 1458.92 340.149L1459.28 424.244C1459.41 450.956 1449.47 475.936 1431.23 495.176C1425.41 490.831 1419.2 487.004 1412.65 483.72C1428.72 468.437 1438.14 446.974 1438.04 424.321ZM1354.45 -67.188C1332.97 -67.1104 1315.56 -49.5777 1315.66 -28.0886C1315.74 -6.62531 1333.31 10.7522 1354.79 10.6487C1376.27 10.5712 1393.66 -6.96149 1393.58 -28.4248L1393.5 -46.1384L1414.75 -46.216L1414.82 -28.5282C1414.95 4.64938 1388.07 31.75 1354.89 31.9052H1354.61C1321.54 31.9052 1294.55 5.08899 1294.42 -28.011C1294.26 -61.1627 1321.17 -88.2892 1354.35 -88.4185L1584.53 -89.427L1584.63 -68.1965L1573.99 -68.1447H1566.93L1354.45 -67.188ZM1372.33 -28.3472C1372.33 -18.5724 1364.47 -10.6077 1354.68 -10.5559H1354.61C1344.88 -10.5559 1336.96 -18.4689 1336.91 -28.192C1336.88 -37.941 1344.77 -45.9057 1354.53 -45.9574L1372.23 -46.035L1372.33 -28.3472ZM1497.68 -46.578C1490.77 -41.8458 1484.36 -36.4412 1478.56 -30.4677L1478.48 -46.5005L1497.68 -46.578ZM1567.01 -46.8884H1574.1L1584.71 -46.9659L1584.81 -25.7354L1567.11 -25.6578C1522.19 -25.4509 1485.83 11.2177 1486.01 56.0837C1486.22 100.846 1522.71 137.127 1567.45 137.127H1567.81C1612.73 136.92 1649.09 100.251 1648.91 55.3855L1647.93 -171.091C1647.77 -204.269 1674.66 -231.369 1707.86 -231.524C1741.06 -231.654 1768.18 -204.786 1768.31 -171.608C1768.46 -138.456 1741.58 -111.356 1708.38 -111.201L1690.68 -111.123L1690.57 -132.354L1708.27 -132.431C1729.78 -132.535 1747.17 -150.067 1747.06 -171.531C1746.98 -192.994 1729.41 -210.371 1707.96 -210.294C1686.46 -210.19 1669.07 -192.658 1669.17 -171.194L1670.15 55.282C1670.41 111.888 1624.53 158.125 1567.91 158.358C1511.27 158.616 1465 112.767 1464.77 56.1871C1464.51 -0.393208 1510.39 -46.6298 1567.01 -46.8884ZM1690.49 -153.584L1690.42 -171.272C1690.37 -181.047 1698.26 -189.011 1708.04 -189.063C1717.8 -189.089 1725.77 -181.202 1725.82 -171.427C1725.87 -161.678 1717.95 -153.713 1708.19 -153.662L1690.49 -153.584ZM1465.75 282.664C1465.52 226.083 1511.37 179.847 1567.99 179.588L1670.7 179.148L1670.78 200.379L1568.09 200.819C1523.17 201.025 1486.81 237.694 1487 282.56C1487.2 327.452 1523.9 363.784 1568.79 363.603C1613.72 363.396 1650.07 326.728 1649.89 281.862L1649.82 264.174L1671.06 264.071L1671.14 281.758C1671.4 338.365 1625.52 384.601 1568.9 384.834H1568.43C1512.02 384.834 1466.01 339.089 1465.75 282.664ZM1518.77 395.669C1504.36 402.16 1491.39 411.288 1480.53 422.485L1480.29 369.189C1491.27 380.283 1504.28 389.308 1518.77 395.669ZM1479.31 142.713C1490.28 153.806 1503.3 162.831 1517.76 169.193C1503.35 175.657 1490.41 184.838 1479.54 196.009L1479.31 142.713ZM1637.24 158.073C1650.31 149.126 1661.62 137.722 1670.47 124.559L1670.59 157.918L1637.24 158.073ZM1568.28 243.28C1546.8 243.383 1529.41 260.916 1529.49 282.379C1529.59 303.842 1547.13 321.246 1568.61 321.142C1590.09 321.039 1607.48 303.506 1607.4 282.043L1607.32 264.355L1628.57 264.252L1628.65 281.965C1628.8 315.117 1601.89 342.218 1568.72 342.373H1568.43C1535.36 342.373 1508.4 315.557 1508.24 282.482C1508.11 249.305 1535 222.204 1568.2 222.049L1670.88 221.609L1670.98 242.84L1568.28 243.28ZM1586.16 282.146C1586.16 291.895 1578.29 299.86 1568.53 299.912H1568.46C1558.73 299.912 1550.78 292.025 1550.73 282.302C1550.71 272.527 1558.6 264.562 1568.38 264.51L1586.08 264.433L1586.16 282.146ZM1481.28 595.665C1487.15 601.587 1493.62 606.966 1500.56 611.621L1481.35 611.698L1481.28 595.665ZM1681.98 331.874C1691.56 353.156 1706.98 371.258 1726.21 384.136L1638.22 384.524C1657.32 371.49 1672.59 353.234 1681.98 331.874ZM1794.26 93.6832C1815.74 93.5798 1833.13 76.0471 1833.03 54.5838C1832.95 33.1206 1815.4 15.7172 1793.93 15.8206L1691.22 16.2602L1691.14 -4.97031L1793.82 -5.40991C1827.02 -5.56507 1854.14 21.3028 1854.3 54.4804C1854.43 87.658 1827.54 114.759 1794.34 114.914C1761.17 115.043 1734.05 88.1752 1733.89 54.9976L1733.81 37.3098L1755.06 37.2322L1755.14 54.92C1755.24 76.3833 1772.78 93.7608 1794.26 93.6832ZM1776.3 37.1288L1794 37.0512C1803.79 37.0253 1811.76 44.9124 1811.81 54.6614C1811.83 64.4363 1803.94 72.4009 1794.16 72.4527H1794.08C1784.35 72.4527 1776.43 64.5655 1776.38 54.8166L1776.3 37.1288ZM1795.25 320.16C1816.72 320.056 1834.11 302.524 1834.04 281.06C1833.93 259.597 1816.39 242.194 1794.91 242.297L1777.21 242.375L1777.11 221.144L1794.81 221.067C1828.01 220.911 1855.13 247.779 1855.28 280.957C1855.44 314.134 1828.55 341.235 1795.35 341.39H1795.06C1761.99 341.39 1735.03 314.574 1734.87 281.5L1734.36 163.245C1741.11 166.969 1748.23 170.072 1755.65 172.503L1756.12 281.396C1756.22 302.86 1773.77 320.237 1795.25 320.16ZM1777.31 263.605L1794.99 263.528C1804.77 263.476 1812.74 271.389 1812.79 281.164C1812.82 290.913 1804.92 298.877 1795.14 298.929H1795.06C1785.36 298.929 1777.42 291.016 1777.36 281.319L1777.31 263.605ZM1793.64 -47.871C1850.26 -48.1296 1896.53 -2.28093 1896.79 54.2994C1897.02 110.88 1851.17 157.116 1794.55 157.375C1737.9 157.608 1691.63 111.785 1691.4 55.2045L1691.32 37.5166L1712.57 37.4132L1712.65 55.101C1712.83 99.9929 1749.55 136.325 1794.44 136.144C1839.37 135.937 1875.72 99.2688 1875.54 54.4028C1875.34 9.51093 1838.64 -26.8473 1793.72 -26.6405L1691.04 -26.2009L1690.96 -47.4314L1708.66 -47.509L1793.64 -47.871ZM1707.68 -273.985C1764.3 -274.218 1810.57 -228.395 1810.8 -171.815C1811.06 -115.209 1765.18 -68.9723 1708.56 -68.7395L1690.86 -68.662L1690.75 -89.8925L1708.48 -89.9701C1753.38 -90.1511 1789.76 -126.846 1789.55 -171.712C1789.37 -216.603 1752.68 -252.936 1707.75 -252.755C1662.86 -252.548 1626.47 -215.879 1626.66 -170.988L1627.66 55.463C1627.79 88.6406 1600.91 115.741 1567.73 115.896C1534.53 116.052 1507.41 89.1837 1507.26 56.0061C1507.1 22.8285 1533.99 -4.27212 1567.19 -4.42728L1584.89 -4.50485L1584.99 16.7257L1567.29 16.8033C1545.81 16.9067 1528.4 34.4394 1528.5 55.9026C1528.61 77.3142 1546.05 94.6659 1567.45 94.6659H1567.63C1589.11 94.5624 1606.5 77.0298 1606.39 55.5665L1605.41 -170.91C1605.18 -227.49 1651.03 -273.727 1707.68 -273.985ZM1585.07 37.9562L1585.17 55.6699C1585.17 65.4189 1577.31 73.3836 1567.53 73.4353H1567.45C1557.72 73.4353 1549.8 65.5482 1549.75 55.7992C1549.7 46.0502 1557.61 38.0855 1567.37 38.0338L1585.07 37.9562ZM1494.84 -357.977C1551.46 -358.235 1597.72 -312.387 1597.96 -255.806C1598.22 -199.226 1552.36 -152.989 1495.72 -152.731L1478.02 -152.653L1477.94 -173.884L1495.64 -173.961C1540.54 -174.168 1576.92 -210.837 1576.71 -255.703C1576.53 -300.595 1539.84 -336.953 1494.91 -336.746C1450.02 -336.539 1413.63 -299.871 1413.84 -255.005L1414.28 -152.395L1393.04 -152.291L1392.57 -254.901C1392.34 -311.507 1438.19 -357.744 1494.84 -357.977ZM1584.24 -153.119L1565.04 -153.041C1571.95 -157.773 1578.37 -163.178 1584.19 -169.151L1584.24 -153.119ZM1495.43 -216.448C1516.94 -216.526 1534.33 -234.059 1534.22 -255.522C1534.14 -276.985 1516.57 -294.388 1495.1 -294.285C1473.62 -294.207 1456.23 -276.649 1456.33 -255.186L1456.77 -152.576L1435.53 -152.472L1435.09 -255.082C1434.93 -288.26 1461.82 -315.36 1495.02 -315.516C1528.22 -315.671 1555.34 -288.803 1555.47 -255.625C1555.62 -222.448 1528.74 -195.347 1495.54 -195.192L1477.83 -195.114L1477.73 -216.371L1495.43 -216.448ZM1477.65 -237.601L1477.58 -255.289C1477.52 -265.038 1485.44 -273.003 1495.2 -273.054C1504.95 -273.106 1512.92 -265.193 1512.98 -255.444C1513.03 -245.669 1505.11 -237.705 1495.35 -237.679L1477.65 -237.601ZM1382.5 -131.009L1467.48 -131.371L1495.82 -131.5L1584.35 -131.888L1584.42 -110.658L1354.27 -109.649C1309.35 -109.468 1272.99 -72.7995 1273.17 -27.9076C1273.38 16.9584 1310.07 53.3167 1354.97 53.1357C1399.89 52.9288 1436.28 16.2602 1436.07 -28.6317L1435.99 -46.3195L1457.24 -46.397L1457.31 -28.7092C1457.55 27.8711 1411.69 74.1076 1355.07 74.3662H1354.61C1298.19 74.3662 1252.19 28.621 1251.93 -27.83C1251.69 -84.4103 1297.55 -130.647 1354.17 -130.88L1382.5 -131.009ZM1251.62 -97.0814L1251.49 -131.707C1257.26 -130.905 1263.16 -130.492 1269.19 -130.518L1284.84 -130.595C1271.75 -121.648 1260.47 -110.244 1251.62 -97.0814ZM1371.58 -194.649L1268.9 -194.209H1268.64C1235.57 -194.209 1208.58 -221.025 1208.45 -254.1C1208.3 -287.277 1235.18 -314.378 1268.38 -314.533C1301.56 -314.662 1328.7 -287.794 1328.83 -254.643L1328.91 -236.929L1307.67 -236.851L1307.59 -254.539C1307.51 -276.002 1289.97 -293.38 1268.46 -293.302C1246.98 -293.199 1229.59 -275.666 1229.7 -254.203C1229.78 -232.74 1247.32 -215.362 1268.8 -215.44L1371.51 -215.905L1371.58 -194.649ZM1286.42 -236.748L1268.72 -236.67H1268.64C1258.91 -236.67 1250.99 -244.557 1250.94 -254.281C1250.89 -264.055 1258.81 -272.02 1268.57 -272.072C1278.32 -272.098 1286.29 -264.211 1286.34 -254.436L1286.42 -236.748ZM1268.2 -356.994C1324.82 -357.253 1371.09 -311.404 1371.32 -254.824L1371.4 -237.136L1350.16 -237.032L1350.08 -254.72C1349.9 -299.612 1313.2 -335.97 1268.28 -335.763C1223.38 -335.557 1187 -298.888 1187.21 -254.022C1187.39 -209.13 1224.08 -172.772 1269.01 -172.979L1371.69 -173.418L1371.76 -152.188L1354.06 -152.11L1269.08 -151.748H1268.64C1212.2 -151.748 1166.19 -197.493 1165.94 -253.919C1165.7 -310.525 1211.56 -356.735 1268.2 -356.994ZM1055.16 57.1698C1043.69 65.6516 1033.73 76.073 1025.78 87.9166L1025.6 43.9298C1025.55 34.1808 1033.47 26.2161 1043.23 26.1644C1053.01 26.1385 1060.98 34.0256 1061 43.7746C1061 48.8689 1058.88 53.7046 1055.08 57.0922L1055.16 57.1698ZM1004.36 44.0332L1005.34 270.51C1005.42 291.973 1022.99 309.376 1044.47 309.273C1065.35 309.169 1082.4 292.568 1083.21 271.906C1097.49 277.569 1113.04 280.672 1129.32 280.595C1151.16 280.491 1171.65 274.725 1189.46 264.691L1189.64 303.015C1171.73 293.162 1151.19 287.577 1129.37 287.654C1092.42 287.81 1059.3 304.204 1036.68 330.012C1007.18 326.262 984.226 301.101 984.096 270.613L983.113 44.1366C983.01 19.984 997.061 -1.42758 1018.69 -11.0473C1022.14 -4.66001 1026.15 1.41697 1030.65 7.08017C1015.3 12.3555 1004.28 26.9402 1004.36 44.0332ZM1062.01 270.277C1062.04 280.026 1054.15 287.991 1044.36 288.016H1044.29C1034.56 288.042 1026.61 280.155 1026.59 270.432L1026.38 226.445C1034.89 238.858 1045.58 249.641 1057.9 258.278L1057.54 258.588C1060.38 261.795 1061.99 265.958 1062.01 270.277ZM1129.24 259.364C1072.62 259.597 1026.33 213.774 1026.1 157.194C1025.84 100.588 1071.72 54.3511 1128.34 54.1183C1134.34 54.0925 1140.27 53.627 1146.04 52.7737L1146.14 75.2713L1128.44 75.3489C1083.52 75.5299 1047.16 112.224 1047.34 157.09C1047.55 201.853 1084.03 238.134 1128.78 238.134H1129.14C1174.06 237.927 1210.42 201.258 1210.24 156.392L1209.64 23.1906C1217.69 16.1051 1224.81 8.01108 1230.81 -0.9104L1231.48 156.289C1231.74 212.869 1185.86 259.106 1129.24 259.364ZM1128.62 117.81C1107.14 117.913 1089.75 135.446 1089.86 156.909C1089.93 178.321 1107.38 195.647 1128.78 195.673C1128.85 195.673 1128.91 195.647 1128.96 195.647C1150.44 195.569 1167.83 178.037 1167.75 156.573L1167.26 47.6794C1174.68 45.171 1181.77 41.9903 1188.48 38.2148L1188.99 156.47C1189.12 189.647 1162.24 216.748 1129.06 216.903C1095.86 217.032 1068.74 190.165 1068.59 156.987C1068.46 123.835 1095.34 96.7088 1128.52 96.5795L1146.24 96.5019L1146.32 117.732L1128.62 117.81ZM1146.42 138.963L1146.5 156.651C1146.53 166.426 1138.64 174.39 1128.85 174.442H1128.78C1119.05 174.442 1111.13 166.529 1111.08 156.806C1111.05 147.057 1118.94 139.092 1128.72 139.041L1146.42 138.963ZM1231.79 225.566L1232.29 341.804C1226.23 332.934 1219.04 324.892 1210.94 317.884L1210.65 249.667C1218.67 242.582 1225.79 234.487 1231.79 225.566ZM1145.52 -69.8256C1145.54 -60.0766 1137.63 -52.0861 1127.87 -52.0344H1127.79C1118.06 -52.0344 1110.14 -59.9215 1110.09 -69.6705C1110.07 -79.4195 1117.96 -87.3841 1127.72 -87.4359L1145.44 -87.5135L1145.52 -69.8256ZM1145.34 -108.744L1127.64 -108.666C1106.16 -108.563 1088.77 -91.0303 1088.85 -69.567C1088.95 -48.1555 1106.39 -30.8297 1127.79 -30.8038C1127.84 -30.8038 1127.92 -30.8297 1127.97 -30.8297C1149.45 -30.9073 1166.84 -48.4399 1166.74 -69.929L1166.25 -184.641C1172.33 -175.797 1179.5 -167.755 1187.6 -160.747L1188.01 -70.0066C1188.14 -36.829 1161.25 -9.72843 1128.05 -9.57327C1094.88 -9.44398 1067.76 -36.3119 1067.6 -69.4895C1067.45 -102.641 1094.36 -129.742 1127.53 -129.897L1145.23 -129.975L1145.34 -108.744ZM1145.05 -172.436L1145.16 -151.205L1127.46 -151.128C1082.53 -150.946 1046.15 -114.252 1046.36 -69.386C1046.56 -24.52 1083.23 11.8383 1128.16 11.6573C1173.08 11.4504 1209.44 -25.2182 1209.25 -70.1101L1208.92 -145.878C1215.67 -142.154 1222.76 -139.051 1230.22 -136.62L1230.5 -70.1877C1230.73 -13.6073 1184.88 32.6292 1128.26 32.8878H1127.79C1071.38 32.8878 1025.34 -12.8574 1025.11 -69.3084C1024.85 -125.889 1070.73 -172.099 1127.35 -172.358L1145.05 -172.436ZM1042.37 -171.996L1058.03 -172.048C1051.89 -167.859 1046.12 -163.126 1040.85 -157.903C1032.59 -158.601 1025.91 -165.014 1024.83 -173.16C1030.55 -172.358 1036.42 -171.97 1042.37 -171.996ZM983.32 -186.684C989.738 -183.245 996.466 -180.349 1003.48 -178.073C1003.43 -177.168 1003.4 -176.263 1003.4 -175.358C1003.45 -159.816 1012.69 -146.395 1025.94 -140.241C1022.21 -134.862 1018.9 -129.199 1016.05 -123.277C995.431 -133.75 982.233 -153.351 982.156 -175.28C982.13 -179.133 982.544 -182.935 983.32 -186.684ZM947.687 -215.362C952.811 -209.389 958.504 -203.906 964.663 -198.993C962.153 -191.313 960.859 -183.348 960.91 -175.177C961.04 -144.352 979.62 -117.045 1008.5 -103.339C1006.38 -95.866 1004.98 -88.1341 1004.31 -80.1694C965.827 -95.4523 939.846 -132.767 939.665 -175.099C939.587 -188.986 942.356 -202.691 947.687 -215.362ZM985.235 -65.5847C966.966 -55.9133 951.595 -41.8975 940.312 -25.0372L939.95 -105.718C951.388 -88.9874 966.862 -75.1009 985.235 -65.5847ZM903.023 -207.553C913.089 -191.468 918.42 -173.108 918.497 -153.765L919.377 44.3952L919.481 72.7112C919.662 115.017 894.043 152.539 855.745 168.158C856.004 164.796 856.133 161.357 856.133 157.918C856.107 153.496 855.849 149.152 855.383 144.859C881.726 130.688 898.391 103.07 898.236 72.8147L897.252 -153.662C897.2 -167.884 893.5 -181.538 886.565 -193.666C892.439 -197.804 897.951 -202.458 903.023 -207.553ZM919.791 142.066L920.18 229.833C907.267 210.904 889.179 195.621 867.597 186.182C889.101 176.563 907.06 161.124 919.791 142.066ZM855.745 72.9957L854.762 -153.481C854.736 -161.601 852.174 -169.151 847.878 -175.384C854.917 -177.297 861.723 -179.857 868.218 -182.935C873.29 -174.013 875.955 -164.005 876.007 -153.584L876.99 72.8923C877.094 93.0367 867.105 111.63 850.88 122.775C848.732 115.664 845.938 108.811 842.625 102.294C850.906 94.9245 855.797 84.2704 855.745 72.9957ZM848.344 201.646C890.886 214.834 920.283 254.192 920.49 299.188L921.344 497.348L921.473 525.664C921.655 568.28 895.622 606.035 856.858 621.447C855.797 614.258 854.115 607.25 851.838 600.501C881.234 587.546 900.357 558.531 900.228 525.768L899.245 299.291C899.064 261.898 873.549 230.428 839.08 221.092C842.703 214.938 845.808 208.421 848.344 201.646ZM921.758 595.019L922.12 675.726C910.708 658.969 895.208 645.083 876.835 635.566C895.13 625.895 910.501 611.879 921.758 595.019ZM806.915 512.812C818.378 504.33 828.341 493.909 836.285 482.065L836.492 526.052C836.518 535.801 828.626 543.766 818.844 543.817H818.766C809.037 543.817 801.118 535.93 801.066 526.207C801.066 521.113 803.214 516.277 807.018 512.89L806.915 512.812ZM857.738 525.948L856.728 299.472C856.651 278.009 839.08 260.631 817.628 260.709C796.719 260.812 779.692 277.414 778.864 298.076C764.605 292.412 749.027 289.309 732.75 289.387C710.91 289.49 690.415 295.257 672.612 305.29L672.456 266.967C690.182 276.742 710.548 282.327 732.181 282.327H732.724C769.651 282.172 802.8 265.777 825.417 239.97C854.891 243.719 877.844 268.88 877.974 299.369L878.983 525.845C879.086 549.998 865.035 571.409 843.402 581.029C839.934 574.642 835.923 568.565 831.446 562.902C846.766 557.626 857.815 543.042 857.738 525.948ZM800.083 299.705C800.031 289.956 807.95 281.991 817.706 281.965C827.487 281.914 835.457 289.801 835.483 299.576L835.69 343.536C827.202 331.124 816.515 320.341 804.198 311.729L804.56 311.393C801.687 308.187 800.109 304.023 800.083 299.705ZM834.5 73.0733C834.526 76.978 833.232 80.7018 830.955 83.7532C818.249 66.9963 801.351 53.5753 781.865 44.99C803.188 35.422 821.302 20.0098 834.189 0.822174L834.5 73.0733ZM815.739 -170.988C825.495 -171.039 833.465 -163.152 833.516 -153.377L833.594 -137.732C824.615 -150.817 813.229 -162.118 800.057 -170.936L815.739 -170.988ZM815.351 -255.936C836.829 -256.039 854.244 -273.572 854.141 -295.035C854.037 -316.498 836.492 -333.876 815.014 -333.798C793.536 -333.695 776.146 -316.162 776.25 -294.699L776.328 -276.985L755.057 -276.908L754.979 -294.595C754.85 -327.773 781.736 -354.874 814.937 -355.029C848.111 -355.158 875.231 -328.29 875.386 -295.113C875.541 -261.961 848.655 -234.86 815.454 -234.705L712.773 -234.265L712.67 -255.496L815.351 -255.936ZM797.495 -294.776C797.444 -304.551 805.362 -312.516 815.118 -312.542C824.873 -312.593 832.844 -304.706 832.895 -294.931C832.947 -285.183 825.029 -277.218 815.273 -277.166L797.573 -277.089L797.495 -294.776ZM692.227 -67.8345C692.33 -46.3712 709.875 -28.9937 731.353 -29.0971C752.831 -29.1747 770.247 -46.7074 770.143 -68.1965C770.039 -89.6598 752.495 -107.037 731.017 -106.934L713.317 -106.856L713.213 -128.087L730.939 -128.164C764.114 -128.32 791.233 -101.452 791.388 -68.2741C791.544 -35.0965 764.657 -7.99585 731.456 -7.8407H731.198C698.101 -7.8407 671.137 -34.6569 670.981 -67.7569L670.593 -158.497C678.641 -165.557 685.757 -173.677 691.735 -182.572L692.227 -67.8345ZM713.42 -85.6257L731.12 -85.7033C740.876 -85.755 748.846 -77.842 748.898 -68.093C748.924 -58.3441 741.031 -50.3535 731.275 -50.3277H731.198C721.468 -50.3277 713.523 -58.2148 713.498 -67.9379L713.42 -85.6257ZM503.529 -212.104L588.899 -212.492C610.377 -212.569 627.792 -230.102 627.689 -251.565C627.585 -273.029 610.04 -290.432 588.562 -290.329C567.084 -290.251 549.694 -272.692 549.798 -251.229L549.876 -233.541L528.63 -233.464L528.553 -251.152C528.397 -284.329 555.284 -311.43 588.484 -311.559C621.685 -311.714 648.804 -284.846 648.934 -251.669C649.089 -218.491 622.203 -191.391 589.002 -191.235L504.435 -190.873V-190.925C473.615 -190.796 446.832 -173.47 433.091 -148.102L409.647 -147.999C424.759 -185.184 461.039 -211.587 503.529 -212.104ZM571.043 -251.333C570.991 -261.082 578.91 -269.046 588.666 -269.098C598.421 -269.15 606.417 -261.237 606.443 -251.488C606.495 -241.739 598.577 -233.748 588.821 -233.722L571.121 -233.645L571.043 -251.333ZM66.2809 122.439H65.9963C32.9251 122.439 5.96099 95.6227 5.80573 62.5485C5.67634 29.3709 32.5628 2.2703 65.7375 2.11514C98.9381 1.98585 126.057 28.8538 126.213 62.0313L126.29 79.7191L105.045 79.7967L104.967 62.1089C104.864 40.6456 87.3192 23.2681 65.841 23.3716C44.3629 23.4491 26.9733 40.9818 27.051 62.4451C27.1545 83.9083 44.6993 101.312 66.1774 101.208L175.147 100.743C177.657 108.139 180.814 115.224 184.618 121.922L66.2809 122.439ZM83.7999 79.9001L66.0739 79.9777H66.0222C56.2923 79.9777 48.348 72.0906 48.2962 62.3675C48.2703 52.6185 56.1629 44.628 65.9445 44.6021C75.7003 44.5504 83.6705 52.4634 83.7222 62.2123L83.7999 79.9001ZM189.948 61.7469L189.509 -24.4424C189.948 -80.4538 235.492 -126.018 291.698 -126.251L504.306 -127.182C560.925 -127.414 607.194 -81.5916 607.427 -25.0113C607.685 31.569 561.805 77.8056 505.186 78.0641C448.566 78.3227 402.297 32.474 402.039 -24.1063L401.961 -41.7941L423.206 -41.8975L423.284 -24.2097C423.491 20.6563 460.185 57.0146 505.082 56.8336C550.005 56.6267 586.388 19.9581 586.181 -24.9079C586 -69.7998 549.306 -106.158 504.383 -105.951L291.776 -105.02C247.939 -104.839 212.332 -69.8773 210.831 -26.4594H210.806V-26.0198C210.806 -25.1148 210.676 -24.2097 210.676 -23.2787H210.831L211.194 61.6434C211.401 106.535 248.095 142.894 292.992 142.687C337.915 142.48 374.298 105.811 374.091 60.9452C373.91 16.0533 337.19 -20.2791 292.293 -20.0981L274.593 -20.0205V-24.9079C275.24 -34.0363 282.77 -41.2769 292.06 -41.3286H292.19C348.809 -41.5613 395.104 4.26149 395.336 60.8418C395.595 117.448 349.715 163.685 293.095 163.917H292.63C236.217 163.917 190.207 118.172 189.948 61.7469ZM573.605 -127.492L589.287 -127.544C595.29 -127.57 601.19 -128.035 606.987 -128.888L607.142 -94.2886C598.188 -107.373 586.802 -118.648 573.605 -127.492ZM506.919 474.385C500.916 474.411 494.99 474.876 489.219 475.755L489.116 453.232L506.816 453.154C551.739 452.973 588.122 416.305 587.915 371.413C587.734 326.547 551.014 290.189 506.117 290.37C461.22 290.577 424.837 327.245 425.018 372.137L425.613 505.339C423.155 507.485 420.8 509.735 418.522 512.062C418.186 491.943 413.011 473.014 404.135 456.335L403.772 372.215C403.54 315.634 449.394 269.398 506.014 269.139C562.659 268.906 608.928 314.755 609.16 371.335C609.419 427.916 563.539 474.152 506.919 474.385ZM609.471 440.613L609.859 528.534C596.791 509.45 578.548 494.193 557.147 484.78C578.47 475.212 596.584 459.8 609.471 440.613ZM506.635 410.693C528.113 410.616 545.528 393.057 545.425 371.594C545.321 350.131 527.776 332.753 506.298 332.857C484.82 332.934 467.431 350.493 467.508 371.956L468 480.824C460.599 483.332 453.509 486.513 446.78 490.288L446.263 372.034C446.134 338.856 473.02 311.755 506.221 311.626C539.395 311.471 566.541 338.339 566.67 371.516C566.825 404.668 539.939 431.795 506.738 431.924L489.038 432.001L488.935 410.771L506.635 410.693ZM488.857 389.54L488.779 371.852C488.728 362.103 496.62 354.139 506.402 354.087C516.157 354.035 524.128 361.948 524.179 371.697C524.231 381.472 516.313 389.437 506.557 389.463L488.857 389.54ZM499.622 637.196H507.618C529.122 637.066 546.512 619.559 546.408 598.096C546.33 576.633 528.786 559.23 507.282 559.333C485.803 559.411 468.414 576.969 468.517 598.432L468.595 616.12L447.35 616.198L447.272 598.51C447.117 565.332 474.003 538.232 507.204 538.102C540.379 537.947 567.524 564.815 567.679 597.993C567.809 631.144 540.922 658.271 507.721 658.426C501.33 658.504 494.938 658.581 488.546 658.685C473.201 658.892 457.83 659.098 442.459 659.305C423.827 659.564 405.144 659.797 386.486 660.055C370.236 660.262 353.959 660.495 337.708 660.702C330.281 660.805 322.828 660.986 315.376 660.986H312.581C307.173 660.96 301.79 660.805 296.408 660.443C285.979 659.693 275.447 657.728 266.261 652.763C252.856 645.548 242.453 632.231 237.796 617.827C235.907 612.034 234.897 605.932 234.794 599.829L234.432 514.493C234.276 481.341 261.163 454.24 294.363 454.085C327.564 453.956 354.683 480.824 354.813 513.976C354.968 547.153 328.081 574.28 294.881 574.409L277.181 574.487L277.077 553.256L294.803 553.178C316.281 553.075 333.671 535.542 333.567 514.079C333.49 492.616 315.919 475.238 294.467 475.316C272.989 475.419 255.573 492.952 255.651 514.415L255.806 543.998C255.858 559.333 255.936 574.642 255.987 589.976C256.039 601.639 256.789 613.301 264.242 622.844C270.453 630.757 278.63 635.696 288.179 637.506C289.55 637.764 290.948 637.971 292.371 638.101C301.971 639.006 311.623 638.126 321.224 637.971C330.799 637.868 340.347 637.894 349.948 637.868L406.464 637.609L461.634 637.377L499.622 637.196ZM489.763 598.329C489.711 588.58 497.629 580.589 507.385 580.538C517.141 580.538 525.137 588.425 525.163 598.174C525.215 607.923 517.296 615.913 507.54 615.939L489.84 616.017L489.763 598.329ZM277 532.025L276.922 514.312C276.87 504.563 284.789 496.598 294.544 496.546C304.326 496.521 312.296 504.408 312.322 514.157C312.374 523.931 304.455 531.896 294.7 531.948L277 532.025ZM364.387 616.56C371.296 611.853 377.714 606.423 383.536 600.449L383.614 616.482L364.387 616.56ZM505.651 184.217C527.129 184.139 544.545 166.581 544.441 145.117C544.338 123.68 526.793 106.277 505.315 106.38C483.837 106.458 466.447 124.016 466.525 145.479L467.017 254.373C459.616 256.856 452.525 260.037 445.797 263.812L445.28 145.557C445.202 125.232 455.553 106.147 472.451 95.0279C482.75 97.7948 493.592 99.2947 504.746 99.2947H505.289C516.649 99.243 527.621 97.6655 538.076 94.7434C555.103 105.708 565.609 124.689 565.687 145.04C565.842 178.217 538.929 205.318 505.755 205.447L488.055 205.525L487.951 184.294L505.651 184.217ZM487.848 163.064L487.77 145.376C487.744 135.627 495.637 127.637 505.418 127.611C515.174 127.559 523.144 135.472 523.196 145.221C523.222 154.97 515.329 162.96 505.574 162.986L487.848 163.064ZM424.034 145.661L424.63 278.862C422.171 281.009 419.816 283.258 417.539 285.586C417.203 265.493 412.027 246.538 403.151 229.859L402.789 145.738C402.66 119.051 412.597 94.0452 430.84 74.8058C436.663 79.1502 442.899 82.9774 449.446 86.2616C433.35 101.544 423.931 123.034 424.034 145.661ZM556.164 258.33C577.461 248.736 595.575 233.324 608.488 214.136L608.876 302.058C595.808 282.974 577.538 267.717 556.164 258.33ZM505.936 247.909C499.907 247.96 494.007 248.4 488.236 249.279L488.132 226.756L505.832 226.678C550.755 226.497 587.113 189.828 586.932 144.937C586.828 122.31 577.228 100.924 561.003 85.7702C567.524 82.4602 573.683 78.5813 579.479 74.1852C597.697 93.1143 608.074 118.405 608.177 144.859C608.436 201.439 562.555 247.676 505.936 247.909ZM595.29 59.9367C599.845 55.0751 604.011 49.8257 607.737 44.2659L607.867 75.5299C604.114 70.0219 599.896 64.8241 595.29 59.9367ZM292.112 -62.5591H291.957C271.151 -62.4816 254.254 -45.9833 253.27 -25.4509H253.244V-24.882C253.244 -24.4166 253.193 -23.9511 253.193 -23.4598H253.296V-21.6755L253.684 61.4624C253.788 82.9257 271.333 100.329 292.811 100.226C314.289 100.122 331.678 82.5895 331.601 61.1263C331.497 39.663 313.952 22.2855 292.474 22.363L274.774 22.4406L274.671 1.21008L292.397 1.13251C325.571 1.00321 352.691 27.8452 352.846 61.0228C353.001 94.2004 326.089 121.301 292.914 121.456H292.63C259.558 121.456 232.594 94.64 232.439 61.5659L232.051 -26.0974C233.371 -58.0079 259.61 -83.6604 291.879 -83.7897L504.487 -84.7206C537.661 -84.8499 564.807 -57.982 564.936 -24.8303C565.091 8.34726 538.205 35.4479 505.004 35.6031C471.804 35.7582 444.684 8.86446 444.529 -24.2873L444.477 -42.0009L465.697 -42.0785L465.8 -24.3907C465.878 -2.92743 483.423 14.4501 504.901 14.3725C526.379 14.2691 543.794 -3.26359 543.691 -24.7269C543.613 -46.1901 526.043 -63.5935 504.564 -63.4901L292.112 -62.5591ZM380.793 -25.6837C374.919 -31.6055 368.476 -36.9584 361.515 -41.6389L380.716 -41.7165L380.793 -25.6837ZM274.878 43.6712L292.578 43.5936C302.333 43.5677 310.304 51.4548 310.355 61.2038C310.381 70.9787 302.489 78.9434 292.733 78.9951H292.655C282.926 78.9951 274.981 71.108 274.955 61.359L274.878 43.6712ZM486.968 -42.1819L504.668 -42.2595C514.424 -42.2854 522.394 -34.3983 522.446 -24.6234C522.497 -14.8745 514.579 -6.90975 504.823 -6.85803H504.746C495.016 -6.85803 487.071 -14.7452 487.046 -24.4683L486.968 -42.1819ZM381.803 200.793C370.831 189.699 357.789 180.674 343.323 174.313C357.737 167.848 370.675 158.668 381.57 147.497L381.803 200.793ZM68.2476 575.392H67.9888C34.9177 575.418 7.92766 548.575 7.79828 515.501C7.64301 482.324 34.5295 455.223 67.7301 455.094C100.931 454.939 128.05 481.807 128.179 514.958L128.257 532.672L107.012 532.75L106.934 515.062C106.857 493.598 89.2858 476.221 67.8077 476.299C46.3554 476.402 28.94 493.935 29.0435 515.398C29.147 536.861 46.6918 554.265 68.17 554.161L170.851 553.721L170.955 574.952L68.2476 575.392ZM85.7665 532.853L68.0665 532.931H67.9888C58.259 532.931 50.3146 525.043 50.2888 515.294C50.237 505.571 58.1555 497.581 67.9112 497.555C77.6669 497.503 85.663 505.39 85.6889 515.139L85.7665 532.853ZM135.891 185.82L223.848 185.458C204.75 198.491 189.483 216.748 180.089 238.134C170.515 216.826 155.092 198.724 135.891 185.82ZM191.113 327.142L293.82 326.702C315.272 326.599 332.688 309.066 332.584 287.603C332.481 266.139 314.936 248.762 293.458 248.839C271.979 248.943 254.59 266.476 254.668 287.939L254.745 305.627L233.5 305.73L233.422 288.042C233.293 254.865 260.179 227.764 293.38 227.609C326.555 227.48 353.7 254.348 353.829 287.525C353.985 320.677 327.098 347.777 293.898 347.933L191.216 348.372L191.113 327.142ZM275.939 287.861C275.887 278.086 283.805 270.122 293.561 270.07C303.317 270.07 311.287 277.931 311.339 287.706C311.391 297.455 303.472 305.42 293.716 305.471L276.016 305.549L275.939 287.861ZM191.294 369.603L294.001 369.163C338.898 368.956 375.282 332.288 375.075 287.422C374.893 242.53 338.199 206.197 293.276 206.378C248.353 206.585 211.996 243.254 212.177 288.146L212.255 305.833L191.009 305.911L190.932 288.223C190.699 231.643 236.579 185.406 293.199 185.148C349.818 184.915 396.087 230.738 396.32 287.318C396.579 343.898 350.698 390.161 294.079 390.394L191.398 390.833L191.294 369.603ZM382.786 427.269C371.814 416.175 358.772 407.151 344.306 400.789C358.72 394.324 371.659 385.17 382.553 373.973L382.786 427.269ZM191.475 412.064L224.857 411.935C211.763 420.882 200.455 432.26 191.63 445.422L191.475 412.064ZM507.903 700.887C457.623 701.327 407.343 701.766 357.064 702.206C343.711 702.335 330.074 703.008 316.514 703.008C311.184 703.008 305.853 702.904 300.574 702.62C279.303 701.482 258.575 697.37 239.788 685.372C210.961 666.96 192.459 634.325 192.303 600.036L191.941 514.7C191.682 458.119 237.563 411.883 294.182 411.624C350.802 411.366 397.07 457.214 397.329 513.795C397.562 568.875 354.062 614.026 299.539 616.637H295.036C285.28 616.689 277.31 608.776 277.258 599.027V595.717L294.984 595.64C339.881 595.459 376.265 558.764 376.058 513.898C375.877 469.006 339.183 432.674 294.26 432.855C249.363 433.062 212.979 469.73 213.16 514.596C213.16 514.596 213.549 599.312 213.523 599.312C213.523 599.518 213.523 599.725 213.523 599.932C213.523 599.932 213.523 601.613 213.626 601.613C213.29 601.613 214.946 615.241 215.179 616.482C216.033 621.266 217.275 625.973 218.931 630.524C222.114 639.264 226.824 647.436 233.06 654.392C241.47 663.779 252.442 670.632 264.268 674.924C277.517 679.708 291.31 680.226 305.258 680.743C324.614 681.441 343.97 680.82 363.326 680.665C374.919 680.588 386.512 680.51 398.105 680.432C414.434 680.303 430.737 680.2 447.065 680.07L490.254 679.76C496.103 679.734 501.951 679.683 507.799 679.631C552.696 679.45 589.08 642.781 588.873 597.889C588.691 553.023 551.998 516.665 507.075 516.872C462.177 517.053 425.794 553.721 426.001 598.613L426.079 616.301L404.808 616.379L404.73 598.691C404.497 542.111 450.352 495.874 506.997 495.615C563.616 495.383 609.885 541.206 610.144 597.812C610.377 654.392 564.496 700.629 507.877 700.887H507.903ZM589.183 -148.8L504.616 -148.412V-148.464C504.357 -148.464 504.099 -148.412 503.814 -148.412L486.502 -148.335L458.762 -148.205C469.604 -161.057 485.7 -169.332 503.711 -169.643L589.106 -170.005C634.003 -170.212 670.386 -206.88 670.205 -251.772C669.998 -296.638 633.304 -332.996 588.381 -332.79C543.484 -332.609 507.1 -295.94 507.307 -251.048L507.385 -233.36H504.254C503.995 -233.386 503.736 -233.334 503.478 -233.334L487.693 -233.283C486.657 -239.024 486.088 -244.919 486.036 -250.971C486.01 -261.573 487.589 -271.813 490.539 -281.459C503.374 -323.273 542.294 -353.839 588.303 -354.02H588.769C645.182 -354.02 691.191 -308.275 691.424 -251.85C691.683 -195.269 645.803 -149.033 589.183 -148.8ZM628.206 -133.983C635.607 -136.491 642.723 -139.672 649.426 -143.447L649.736 -67.6534C649.943 -22.7874 686.637 13.5709 731.56 13.364C776.457 13.183 812.841 -23.4856 812.634 -68.3775C812.452 -110.864 779.536 -145.697 737.926 -149.11V-149.447L730.835 -149.395L713.135 -149.317L713.032 -170.548L730.758 -170.625C787.377 -170.884 833.646 -125.035 833.879 -68.4551C834.138 -11.8748 788.257 34.3618 731.638 34.6204C675.018 34.8531 628.75 -10.9697 628.491 -67.5759L628.206 -133.983ZM732.362 197.379C753.84 197.302 771.23 179.769 771.126 158.306C771.049 136.843 753.478 119.439 732.026 119.543L714.3 119.62L714.222 98.3896L731.922 98.312C765.097 98.1569 792.242 125.025 792.372 158.202C792.527 191.38 765.64 218.481 732.44 218.636H732.181C699.11 218.636 672.12 191.82 671.99 158.72L671.473 40.4646C678.201 44.1883 685.317 47.3174 692.744 49.7481L693.236 158.642C693.313 180.105 710.884 197.483 732.362 197.379ZM714.403 140.851L732.103 140.773C741.859 140.721 749.829 148.634 749.881 158.383C749.933 168.132 742.014 176.123 732.259 176.175H732.181C722.451 176.175 714.507 168.262 714.481 158.539L714.403 140.851ZM628.801 1.70142C634.857 10.5712 642.05 18.6134 650.15 25.6213L650.745 158.823C650.926 203.689 687.62 240.047 732.543 239.866C777.44 239.659 813.824 202.991 813.617 158.099C813.436 113.233 776.742 76.8746 731.819 77.0815L714.119 77.1591L714.015 54.6614C719.812 55.463 725.712 55.8768 731.741 55.851C788.361 55.5924 834.629 101.441 834.888 158.021C835.121 214.602 789.24 260.838 732.621 261.097H732.181C675.743 261.097 629.733 215.352 629.474 158.901L628.801 1.70142ZM629.785 228.178C635.84 237.048 643.034 245.09 651.133 252.098L651.444 320.341C643.396 327.4 636.28 335.52 630.302 344.416L629.785 228.178ZM630.587 413.693C630.354 357.113 676.208 310.876 732.854 310.617C789.473 310.385 835.742 356.208 836.001 412.788C836.234 469.394 790.379 515.631 733.734 515.863C727.73 515.915 721.83 516.355 716.034 517.208L715.93 494.71L733.656 494.633C778.553 494.452 814.937 457.783 814.73 412.891C814.548 368.025 777.854 331.667 732.931 331.848C688.034 332.055 651.651 368.724 651.858 413.615L652.427 546.817C644.379 553.877 637.263 561.971 631.286 570.892L630.587 413.693ZM733.475 452.172C754.953 452.094 772.343 434.536 772.239 413.072C772.136 391.609 754.591 374.232 733.113 374.335C711.634 374.413 694.245 391.945 694.348 413.409L694.814 522.328C687.413 524.811 680.323 527.966 673.621 531.741L673.103 413.512C672.948 380.334 699.834 353.234 733.035 353.104C766.21 352.949 793.355 379.817 793.484 412.995C793.64 446.146 766.753 473.273 733.552 473.402L715.852 473.48L715.749 452.249L733.475 452.172ZM715.671 431.019L715.594 413.331C715.542 403.582 723.46 395.591 733.216 395.566C742.972 395.514 750.942 403.427 750.994 413.176C751.046 422.925 743.127 430.889 733.371 430.941L715.671 431.019ZM734.743 742.34H732.595C723.849 741.331 716.991 733.987 716.939 724.962V721.187L734.639 721.109C779.536 720.928 815.92 684.26 815.739 639.368C815.532 594.502 778.838 558.143 733.941 558.324C689.018 558.531 652.634 595.2 652.841 640.066L652.971 669.003L653.152 709.55L653.204 725.221C653.385 768.613 687.75 803.937 730.628 806.057H730.81C732.207 806.135 733.578 806.264 735.002 806.264V806.031L819.983 805.669C853.183 805.514 880.303 832.408 880.458 865.586C880.613 898.737 853.727 925.864 820.526 925.993C787.326 926.148 760.206 899.254 760.051 866.103L759.973 848.389L781.244 848.311L781.322 865.999C781.4 887.463 798.944 904.84 820.423 904.763C841.901 904.659 859.316 887.126 859.213 865.663C859.109 844.2 841.564 826.822 820.086 826.9L730.861 827.288C676.209 825.297 632.191 780.482 631.958 725.324L631.777 685.346L631.596 640.169C631.337 583.589 677.218 537.352 733.837 537.12C790.457 536.861 836.725 582.684 836.984 639.264C837.217 695.87 791.362 742.107 734.743 742.34ZM802.49 848.208L820.19 848.13C829.945 848.105 837.916 855.992 837.967 865.766C838.019 875.515 830.101 883.48 820.345 883.532H820.241C810.537 883.532 802.593 875.645 802.567 865.922L802.49 848.208ZM819.724 741.978L804.042 742.055C810.201 737.84 815.946 733.108 821.225 727.884C829.505 728.583 836.156 734.996 837.269 743.141C831.524 742.34 825.676 741.952 819.724 741.978ZM878.75 756.666C872.358 753.226 865.604 750.33 858.592 748.055C858.669 747.15 858.695 746.245 858.695 745.339C858.617 729.798 849.379 716.377 836.13 710.222C839.856 704.87 843.169 699.206 846.041 693.259C866.665 703.732 879.837 723.333 879.94 745.262C879.94 749.115 879.552 752.942 878.75 756.666ZM914.383 785.344C909.259 779.37 903.592 773.888 897.407 769.001C899.943 761.295 901.211 753.304 901.186 745.158C901.056 714.334 882.45 687.052 853.597 673.321C855.693 665.848 857.117 658.116 857.763 650.151C896.243 665.434 922.25 702.749 922.431 745.081C922.483 758.942 919.714 772.673 914.383 785.344ZM917.152 -224.542C921.655 -231.007 925.536 -237.937 928.719 -245.204C930.272 -241.816 931.928 -238.48 933.765 -235.248C929.884 -228.214 926.701 -220.819 924.268 -213.216C922.12 -217.095 919.74 -220.896 917.152 -224.542ZM933.351 815.186C931.824 811.798 930.142 808.462 928.305 805.23C932.187 798.196 935.369 790.8 937.802 783.172C939.95 787.076 942.33 790.878 944.918 794.55C940.441 801.015 936.56 807.919 933.351 815.186ZM941.916 340.149C954.803 359.078 972.892 374.361 994.499 383.8C972.995 393.445 955.036 408.883 942.279 427.916L941.916 340.149ZM959.073 777.534C948.981 761.45 943.676 743.09 943.573 723.747L942.719 525.586L942.589 497.27C942.408 454.965 968.052 417.443 1006.35 401.823C1006.07 405.211 1005.94 408.625 1005.96 412.064C1005.99 416.486 1006.22 420.83 1006.71 425.123C980.344 439.294 963.705 466.937 963.834 497.167L964.818 723.669C964.896 737.892 968.57 751.52 975.531 763.648C969.657 767.785 964.119 772.44 959.073 777.534ZM1006.32 496.986L1007.31 723.462C1007.36 731.582 1009.9 739.133 1014.22 745.365C1007.15 747.305 1000.37 749.839 993.878 752.916C988.806 743.995 986.115 733.987 986.063 723.566L985.08 497.089C985.002 476.945 994.991 458.352 1011.22 447.207C1013.36 454.344 1016.13 461.171 1019.47 467.687C1011.19 475.057 1006.27 485.711 1006.32 496.986ZM1013.75 368.336C971.184 355.121 941.787 315.789 941.606 270.794L940.726 72.6337L940.623 44.3177C940.416 1.72727 966.448 -36.0533 1005.21 -51.4655C1006.3 -44.2766 1007.96 -37.2687 1010.23 -30.5194C980.836 -17.538 961.713 11.4763 961.868 44.2142L962.851 270.691C963.006 308.083 988.521 339.554 1023.02 348.889C1019.39 355.07 1016.29 361.56 1013.75 368.336ZM1129.45 308.911C1186.07 308.652 1232.34 354.475 1232.6 411.081L1233.29 568.28C1227.21 559.411 1220.02 551.368 1211.92 544.36L1211.35 411.159C1211.14 366.293 1174.45 329.934 1129.55 330.115C1084.63 330.322 1048.27 366.991 1048.45 411.883C1048.66 456.749 1085.33 493.107 1130.25 492.9L1147.98 492.823L1148.05 515.346C1142.28 514.519 1136.36 514.131 1130.35 514.157H1129.89C1073.48 514.157 1027.44 468.411 1027.21 411.96C1026.95 355.38 1072.83 309.144 1129.45 308.911ZM1129.73 372.602C1108.26 372.706 1090.87 390.213 1090.97 411.702C1091.05 433.165 1108.59 450.543 1130.07 450.439L1147.77 450.362L1147.87 471.592L1130.17 471.67H1129.89C1096.82 471.67 1069.85 444.853 1069.7 411.779C1069.57 378.602 1096.46 351.527 1129.63 351.372C1162.83 351.217 1189.95 378.085 1190.11 411.262L1190.62 529.491C1183.87 525.768 1176.75 522.664 1169.33 520.234L1168.86 411.34C1168.76 389.877 1151.21 372.499 1129.73 372.602ZM1147.69 429.131L1129.97 429.209H1129.89C1120.16 429.209 1112.24 421.322 1112.19 411.598C1112.16 401.849 1120.06 393.859 1129.81 393.833C1139.59 393.781 1147.56 401.694 1147.61 411.443L1147.69 429.131ZM1027.57 496.908C1027.54 493.004 1028.86 489.28 1031.12 486.229C1043.85 502.985 1060.72 516.432 1080.23 524.992C1058.91 534.56 1040.77 549.972 1027.88 569.16L1027.57 496.908ZM1046.36 740.995H1046.28C1036.55 740.995 1028.61 733.108 1028.55 723.385L1028.5 707.714C1037.46 720.799 1048.84 732.099 1062.01 740.917L1046.36 740.995ZM1131.34 740.607H1130.87C1074.46 740.633 1028.45 694.888 1028.19 638.437C1027.93 581.856 1073.81 535.62 1130.43 535.387C1187.08 535.129 1233.35 580.951 1233.58 637.532L1233.86 703.99C1226.46 706.473 1219.37 709.653 1212.67 713.429L1212.33 637.635C1212.13 592.769 1175.46 556.411 1130.54 556.592C1085.61 556.799 1049.26 593.467 1049.44 638.333C1049.62 680.846 1082.53 715.679 1124.17 719.092V719.428H1131.23L1148.96 719.325L1149.04 740.556L1131.34 740.607ZM1046.72 825.917C1025.24 826.021 1007.85 843.553 1007.93 865.017C1008.03 886.48 1025.58 903.857 1047.06 903.78C1068.53 903.676 1085.92 886.144 1085.85 864.681L1085.77 846.993L1107.01 846.889L1107.09 864.577C1107.25 897.755 1080.36 924.855 1047.16 925.01H1046.9C1013.8 925.01 986.839 898.194 986.684 865.12C986.555 831.942 1013.44 804.816 1046.64 804.687L1149.32 804.221L1149.43 825.478L1046.72 825.917ZM1064.6 864.784C1064.63 874.533 1056.73 882.498 1046.98 882.549H1046.9C1037.17 882.549 1029.23 874.662 1029.17 864.939C1029.12 855.164 1037.04 847.2 1046.82 847.148L1064.52 847.07L1064.6 864.784ZM1169.84 637.816C1169.74 616.353 1152.2 598.975 1130.72 599.079C1109.24 599.182 1091.85 616.689 1091.95 638.152C1092.03 659.616 1109.58 677.019 1131.05 676.916L1148.78 676.838L1148.86 698.094L1131.16 698.172H1130.87C1097.8 698.172 1070.84 671.356 1070.68 638.256C1070.55 605.078 1097.44 577.978 1130.61 577.822C1163.81 577.693 1190.93 604.561 1191.09 637.739L1191.48 728.479C1183.43 735.565 1176.34 743.659 1170.34 752.554L1169.84 637.816ZM1148.68 655.607L1130.98 655.685H1130.9C1121.17 655.685 1113.22 647.798 1113.2 638.075C1113.15 628.326 1121.04 620.335 1130.82 620.309C1140.58 620.258 1148.55 628.171 1148.6 637.92L1148.68 655.607ZM1273.79 924.028H1273.33C1216.91 924.028 1170.88 878.282 1170.65 821.831C1170.39 765.251 1216.27 719.015 1272.89 718.782L1357.87 718.394L1375.57 718.316L1375.67 739.547L1272.99 740.012C1228.07 740.193 1191.68 776.862 1191.89 821.754C1192.1 866.62 1228.79 902.978 1273.69 902.771C1318.61 902.59 1354.97 865.922 1354.79 821.03L1354.71 803.342L1375.96 803.239L1376.03 820.952C1376.27 877.533 1330.41 923.769 1273.79 924.028ZM1254.95 664.27C1263.88 677.355 1275.29 688.63 1288.46 697.474L1272.78 697.551C1266.78 697.577 1260.88 698.043 1255.11 698.896L1254.95 664.27ZM1273.17 782.474C1251.69 782.551 1234.3 800.11 1234.38 821.547C1234.48 843.036 1252.03 860.414 1273.51 860.336C1294.99 860.233 1312.38 842.674 1312.3 821.211L1312.22 803.523L1333.47 803.42L1333.54 821.133C1333.67 854.311 1306.79 881.411 1273.61 881.541H1273.33C1240.26 881.567 1213.29 854.75 1213.14 821.65C1213.01 788.473 1239.89 761.372 1273.07 761.243L1375.77 760.778L1375.85 782.008L1273.17 782.474ZM1291.05 821.314C1291.08 831.063 1283.19 839.028 1273.4 839.08H1273.33C1263.62 839.08 1255.68 831.193 1255.63 821.469C1255.6 811.72 1263.49 803.73 1273.25 803.678L1290.98 803.626L1291.05 821.314ZM1386.1 697.06L1357.79 697.163H1357.32C1300.91 697.189 1254.9 651.444 1254.64 594.993C1254.41 538.413 1300.27 492.176 1356.88 491.918C1413.5 491.685 1459.77 537.508 1460.03 594.088L1460.11 611.802L1438.86 611.879L1438.79 594.191C1438.6 549.3 1401.89 512.967 1356.99 513.148C1312.07 513.355 1275.71 550.024 1275.89 594.89C1276.1 639.781 1312.79 676.14 1357.69 675.933L1587.87 674.924L1587.97 696.181L1499.44 696.543L1471.11 696.672L1386.1 697.06ZM1588.05 717.411L1588.12 733.444C1582.25 727.497 1575.81 722.144 1568.85 717.489L1588.05 717.411ZM1500.14 859.328C1521.62 859.25 1539.01 841.692 1538.93 820.228C1538.83 798.765 1521.28 781.388 1499.8 781.465L1482.1 781.543L1482 760.312L1499.7 760.234C1532.9 760.105 1560.02 786.973 1560.18 820.151C1560.33 853.328 1533.45 880.429 1500.24 880.558H1499.96C1466.89 880.558 1439.92 853.768 1439.77 820.668L1439.33 718.058L1460.57 717.954L1461.01 820.564C1461.12 842.028 1478.66 859.431 1500.14 859.328ZM1482.18 802.773L1499.91 802.696C1509.66 802.67 1517.63 810.557 1517.69 820.332C1517.71 830.081 1509.82 838.045 1500.04 838.097H1499.96C1490.23 838.097 1482.31 830.21 1482.26 820.487L1482.18 802.773ZM1500.43 923.045C1443.78 923.278 1397.54 877.429 1397.28 820.849L1396.84 718.239L1418.08 718.135L1418.52 820.771C1418.73 865.637 1455.43 901.996 1500.32 901.789C1545.25 901.608 1581.6 864.939 1581.42 820.047C1581.21 775.181 1544.52 738.823 1499.62 739.004L1481.92 739.081L1481.82 717.877L1499.52 717.799C1556.14 717.541 1602.41 763.363 1602.67 819.944C1602.93 876.55 1557.05 922.787 1500.43 923.045ZM1814.76 734.116C1815.02 790.697 1769.14 836.933 1712.52 837.166C1655.9 837.425 1609.63 791.576 1609.37 734.996L1608.39 508.519C1608.28 487.056 1590.74 469.679 1569.26 469.756C1547.78 469.86 1530.39 487.392 1530.47 508.855C1530.57 530.319 1548.12 547.696 1569.6 547.619L1587.32 547.541L1587.4 568.772L1569.7 568.849H1569.44C1536.34 568.849 1509.38 542.033 1509.22 508.933C1509.09 475.781 1535.98 448.681 1569.18 448.526C1602.36 448.396 1629.5 475.264 1629.63 508.416L1630.61 734.918C1630.82 779.784 1667.52 816.142 1712.44 815.936C1757.34 815.755 1793.72 779.086 1793.51 734.194C1793.33 689.302 1756.64 652.97 1711.71 653.151L1694.01 653.228L1693.91 631.998L1711.64 631.92C1768.26 631.687 1814.52 677.51 1814.76 734.116ZM1587.22 526.311L1569.52 526.388H1569.44C1559.71 526.388 1551.77 518.501 1551.71 508.752C1551.69 499.003 1559.61 491.038 1569.36 490.987C1579.12 490.961 1587.09 498.848 1587.14 508.597L1587.22 526.311ZM1693.37 508.131C1693.34 502.132 1692.88 496.236 1692.02 490.469L1714.53 490.366L1714.61 508.054C1714.82 552.92 1751.51 589.278 1796.41 589.097C1841.33 588.89 1877.72 552.222 1877.51 507.33C1877.33 462.464 1840.63 426.105 1795.71 426.312L1662.42 426.881C1655.35 418.865 1647.23 411.754 1638.3 405.754L1795.61 405.082C1852.25 404.823 1898.52 450.672 1898.75 507.252C1899.01 563.833 1853.13 610.069 1796.51 610.328C1739.89 610.56 1693.63 564.738 1693.37 508.131Z" fill="white"/>
</g>
</svg>
