<svg width="1070" height="1001" viewBox="0 0 1070 1001" fill="none" xmlns="http://www.w3.org/2000/svg">
<path d="M644.081 81.6784C621.628 94.9669 615.213 117.878 612.555 127.318C611.914 129.609 604.399 157.744 617.413 187.07C621.262 195.776 625.386 204.758 634.734 209.065C640.141 211.631 644.998 211.448 664.06 209.798C672.95 209.065 682.572 208.149 692.836 207.049C700.076 197.793 712.54 179.28 716.206 153.253C716.847 148.396 724.362 90.4763 692.836 75.0799C672.216 64.9073 647.381 79.6622 644.081 81.6784Z" fill="#EB306E"/>
<path d="M229.479 218.321C240.918 218.321 250.191 208.063 250.191 195.41C250.191 182.756 240.918 172.499 229.479 172.499C218.04 172.499 208.767 182.756 208.767 195.41C208.767 208.063 218.04 218.321 229.479 218.321Z" fill="#EB306E"/>
<path d="M699.16 585.451C707.663 585.451 714.556 578.804 714.556 570.604C714.556 562.405 707.663 555.758 699.16 555.758C690.657 555.758 683.764 562.405 683.764 570.604C683.764 578.804 690.657 585.451 699.16 585.451Z" fill="#EB306E"/>
<path d="M229.662 495.822C235.989 495.822 241.118 490.694 241.118 484.367C241.118 478.04 235.989 472.911 229.662 472.911C223.336 472.911 218.207 478.04 218.207 484.367C218.207 490.694 223.336 495.822 229.662 495.822Z" fill="#EB306E"/>
<path d="M208.309 210.714C218.381 210.714 226.546 202.139 226.546 191.561C226.546 180.982 218.381 172.407 208.309 172.407C198.237 172.407 190.072 180.982 190.072 191.561C190.072 202.139 198.237 210.714 208.309 210.714Z" fill="#00CB77"/>
<path d="M694.945 561.99C701.17 561.99 706.217 556.738 706.217 550.259C706.217 543.781 701.17 538.529 694.945 538.529C688.719 538.529 683.672 543.781 683.672 550.259C683.672 556.738 688.719 561.99 694.945 561.99Z" fill="#00CB77"/>
<path d="M845.609 238.483C852.442 238.483 857.981 232.574 857.981 225.286C857.981 217.997 852.442 212.089 845.609 212.089C838.776 212.089 833.237 217.997 833.237 225.286C833.237 232.574 838.776 238.483 845.609 238.483Z" fill="#00CB77"/>
<path d="M576.905 320.047C574.889 316.84 571.59 319.864 570.215 322.063C567.374 326.646 565.541 332.328 567.649 337.551C569.207 341.492 573.056 344.791 577.547 344.15C581.671 343.6 584.787 340.209 584.695 336.085C584.695 334.985 583.137 334.16 582.313 335.077C577.455 341.217 571.498 349.923 576.356 357.805C579.746 363.212 588.086 363.945 591.385 358.08C590.561 357.988 589.736 357.897 588.911 357.713C589.369 360.279 589.827 362.845 590.194 365.411C590.469 367.153 593.127 366.42 592.852 364.678C592.393 362.112 591.935 359.546 591.569 356.98C591.385 355.789 589.552 355.697 589.094 356.613C587.628 359.18 584.329 360.096 581.671 358.813C578.738 357.347 577.455 354.047 577.455 350.84C577.455 345.524 581.213 340.851 584.329 336.91C583.504 336.543 582.771 336.268 581.946 335.902C582.038 339.384 578.647 341.95 575.256 341.217C572.69 340.667 571.04 338.468 570.124 336.085C569.207 333.611 569.299 331.136 570.032 328.662C570.124 328.478 573.881 320.322 574.431 321.239C575.439 322.888 577.822 321.513 576.905 320.047Z" fill="#EB306E"/>
<path d="M202.719 328.295C204.735 322.796 211.425 325.179 213.533 329.028C214.266 330.311 214.632 331.778 214.816 333.244C215.182 335.993 214.907 337.093 212.525 338.743C209.958 341.309 209.317 340.301 210.692 335.718C211.333 335.443 212.066 335.169 212.708 334.894C214.449 334.435 216.465 334.527 218.207 335.077C222.606 336.543 224.805 341.217 224.163 345.524C223.98 346.624 225.08 347.724 226.18 347.082C232.137 343.692 240.018 347.449 241.393 354.139C241.759 355.88 244.417 355.147 244.05 353.406C242.309 344.975 232.32 340.576 224.805 344.791C225.446 345.341 226.18 345.799 226.821 346.349C228.013 338.284 221.872 330.77 213.349 332.053C210.417 332.511 206.018 334.344 205.651 337.826C205.376 340.667 208.034 342.775 210.692 343.05C218.573 343.783 218.39 332.328 215.824 327.745C212.341 321.513 202.719 319.955 199.969 327.654C199.419 329.212 202.077 329.945 202.719 328.295Z" fill="#EB306E"/>
<path d="M685.23 673.247C692.287 677.921 698.243 683.878 703.009 690.843C704.017 692.309 706.4 690.935 705.392 689.468C700.351 682.137 694.119 675.905 686.696 670.956C685.138 669.856 683.764 672.239 685.23 673.247Z" fill="#00CB77"/>
<path d="M703.101 678.287C704.567 680.029 705.942 681.861 707.408 683.603C708.508 684.977 710.432 683.053 709.332 681.678C707.866 679.937 706.491 678.104 705.025 676.363C703.925 674.988 702.001 677.004 703.101 678.287Z" fill="#00CB77"/>
<path d="M694.669 652.627C700.993 658.492 706.216 665.182 710.249 672.789C711.074 674.347 713.456 672.972 712.632 671.414C708.508 663.624 703.101 656.659 696.594 650.702C695.311 649.419 693.386 651.436 694.669 652.627Z" fill="#00CB77"/>
<path d="M61.0354 755.82C63.0516 775.707 66.5341 795.319 71.3913 814.748C71.8495 816.489 74.5072 815.756 74.049 814.015C69.2834 794.861 65.8009 775.432 63.7847 755.82C63.6014 754.079 60.8521 754.079 61.0354 755.82Z" fill="#E8E8E8"/>
<path d="M71.9413 815.665C89.9954 820.339 108.783 820.339 126.837 815.665C128.578 815.206 127.845 812.549 126.104 813.007C108.508 817.589 90.2703 817.589 72.6745 813.007C71.0249 812.549 70.2917 815.206 71.9413 815.665Z" fill="#E8E8E8"/>
<path d="M128.945 812.915C130.136 793.395 131.694 773.874 133.527 754.354C133.71 752.613 130.961 752.613 130.778 754.354C128.945 773.874 127.387 793.395 126.195 812.915C126.104 814.656 128.853 814.656 128.945 812.915Z" fill="#E8E8E8"/>
<path d="M62.5938 757.286C85.4134 761.96 108.875 761.777 131.694 756.645C133.435 756.278 132.702 753.621 130.961 753.987C108.691 758.936 85.6883 759.211 63.327 754.629C61.5857 754.262 60.8525 756.92 62.5938 757.286Z" fill="#E8E8E8"/>
<path d="M62.3184 763.885C63.0516 767.642 67.8171 767.459 70.7497 767.734C78.173 768.376 85.6879 768.559 93.1112 768.376C100.259 768.192 107.408 767.642 114.556 766.818C120.238 766.085 125.737 765.351 130.777 762.51C132.335 761.686 130.961 759.303 129.403 760.128C120.33 765.168 107.774 764.985 97.6018 765.443C92.5613 765.626 87.4292 765.718 82.3887 765.626C79.731 765.535 65.526 766.176 64.9761 763.152C64.6095 761.411 62.0435 762.144 62.3184 763.885Z" fill="#E8E8E8"/>
<path d="M67.5423 795.686C71.9413 803.475 77.5317 810.349 84.2218 816.306C85.5048 817.497 87.521 815.572 86.1463 814.381C79.5479 808.607 74.1408 801.917 69.9251 794.311C69.1003 792.753 66.7175 794.128 67.5423 795.686Z" fill="#E8E8E8"/>
<path d="M63.9683 774.515C73.3161 790.278 84.6801 804.758 97.6937 817.772C98.9768 819.055 100.901 817.039 99.6182 815.847C86.7879 803.017 75.6073 788.72 66.3511 773.141C65.4347 771.674 63.0519 773.049 63.9683 774.515Z" fill="#E8E8E8"/>
<path d="M79.2731 767.917C88.9874 785.238 100.26 801.642 112.998 816.947C114.098 818.322 116.023 816.397 114.923 815.023C102.368 799.901 91.1869 783.68 81.6558 766.542C80.831 764.984 78.4483 766.359 79.2731 767.917Z" fill="#E8E8E8"/>
<path d="M96.7773 768.559C106.217 782.672 115.748 796.694 125.37 810.715C126.379 812.182 128.761 810.807 127.753 809.341C118.131 795.319 108.599 781.297 99.16 767.184C98.1519 765.718 95.7692 767.092 96.7773 768.559Z" fill="#E8E8E8"/>
<path d="M111.44 767.734C116.206 775.432 121.338 782.947 126.653 790.279C127.661 791.653 130.044 790.279 129.036 788.904C123.721 781.572 118.589 774.057 113.823 766.359C112.907 764.893 110.524 766.268 111.44 767.734Z" fill="#E8E8E8"/>
<path d="M32.1675 675.173C33.2672 681.496 34.3669 687.911 35.5583 694.235C35.9249 695.976 36.1999 697.809 37.6662 698.909C38.6743 699.734 41.9735 699.642 42.615 700.558C42.7067 700.008 42.7983 699.459 42.7983 698.909C41.4236 700.283 40.0489 701.658 38.5826 702.941C38.216 703.308 38.1244 703.858 38.216 704.316C39.0408 706.79 39.5907 710.456 41.2403 712.564C42.0651 713.664 43.5314 713.48 44.173 714.122C44.7228 714.672 44.5395 714.305 44.2646 715.955C44.0813 717.329 44.0813 718.796 44.2646 720.262C44.5395 722.462 45.181 724.569 46.0059 726.586C50.7714 738.133 60.0275 747.481 68.9171 756.095C70.2001 757.287 72.1247 755.362 70.8417 754.171C65.1597 748.672 59.4777 742.99 54.8038 736.575C50.2215 730.251 44.8145 721.728 47.6555 713.664C47.8388 713.205 47.6555 712.564 47.2889 712.289C45.5477 710.914 43.8064 711.464 42.615 709.265C40.3239 705.141 41.6069 703.766 44.5396 700.925C44.9978 700.558 45.0894 699.734 44.7228 699.275C43.9897 698.176 43.4398 697.809 42.2484 697.442C41.5153 697.168 40.4155 697.442 39.6824 697.076C38.1244 696.251 38.1244 694.235 37.8495 692.769C36.7497 686.72 35.65 680.58 34.6419 674.531C34.4586 672.698 31.8009 673.431 32.1675 675.173Z" fill="#E8E8E8"/>
<path d="M34.1837 674.805C69.9253 686.719 94.3945 720.078 95.1277 757.836C95.1277 759.577 97.8771 759.577 97.8771 757.836C97.1439 718.887 71.8499 684.52 34.9169 672.148C33.2673 671.598 32.5341 674.256 34.1837 674.805Z" fill="#E8E8E8"/>
<path d="M89.0788 720.261C97.9684 695.609 111.074 671.781 132.06 655.56C133.435 654.46 132.06 652.077 130.686 653.177C109.057 669.948 95.5856 694.142 86.4211 719.528C85.8713 721.178 88.529 721.911 89.0788 720.261Z" fill="#E8E8E8"/>
<path d="M129.678 655.01C130.319 663.441 131.052 671.873 131.694 680.396C131.877 682.137 134.627 682.137 134.443 680.396C133.802 671.964 133.069 663.533 132.427 655.01C132.335 653.269 129.586 653.269 129.678 655.01Z" fill="#E8E8E8"/>
<path d="M132.885 679.479C131.694 679.754 130.502 680.029 129.403 680.396C127.661 680.854 128.395 683.511 130.136 683.053C131.327 682.778 132.519 682.503 133.618 682.137C135.36 681.679 134.626 679.112 132.885 679.479Z" fill="#E8E8E8"/>
<path d="M128.028 682.87C128.395 684.612 129.861 685.711 131.511 685.895C132.244 685.986 132.885 685.253 132.885 684.52C132.885 683.695 132.244 683.237 131.511 683.145C131.786 683.145 131.511 683.145 131.419 683.145C131.327 683.145 131.144 683.054 131.327 683.145C131.236 683.054 131.144 683.054 131.052 682.962C130.869 682.87 131.236 683.145 130.961 682.87C130.869 682.779 130.869 682.779 130.778 682.687C130.961 682.87 130.778 682.687 130.778 682.595C130.686 682.504 130.686 682.321 130.686 682.504C130.686 682.412 130.594 682.229 130.594 682.137C130.411 681.404 129.586 680.946 128.945 681.221C128.211 681.404 127.845 682.137 128.028 682.87Z" fill="#E8E8E8"/>
<path d="M130.136 684.887C130.228 690.111 130.044 695.243 129.494 700.375C129.311 702.025 129.586 705.874 128.486 707.157C128.395 707.248 126.745 707.523 126.378 707.798C125.004 708.898 126.928 710.822 128.303 709.723C128.761 709.356 129.861 709.723 130.594 708.898C131.694 707.798 131.511 705.232 131.694 703.949C132.519 697.626 132.885 691.21 132.794 684.795C132.885 683.146 130.136 683.146 130.136 684.887Z" fill="#E8E8E8"/>
<path d="M125.279 710.181C128.211 713.663 127.387 719.437 127.112 723.652C126.745 728.51 125.92 733 123.538 737.216C120.147 743.448 115.381 748.672 112.907 755.453C112.265 757.103 114.923 757.836 115.564 756.186C118.864 747.297 126.47 740.698 128.761 731.351C130.411 724.661 131.969 713.938 127.203 708.256C126.104 706.973 124.179 708.898 125.279 710.181Z" fill="#E8E8E8"/>
<path d="M103.65 756.736C106.217 730.709 113.09 705.323 124.087 681.679C124.82 680.121 122.438 678.654 121.705 680.304C110.524 704.498 103.467 730.251 100.901 756.828C100.718 758.569 103.467 758.477 103.65 756.736Z" fill="#E8E8E8"/>
<path d="M49.5798 690.11C65.6177 710.272 77.3483 733.458 84.2217 758.203C84.6799 759.944 87.3376 759.211 86.8794 757.469C79.8227 732.175 67.8172 708.714 51.5044 688.186C50.4046 686.811 48.4801 688.736 49.5798 690.11Z" fill="#E8E8E8"/>
<path d="M51.3212 723.926C59.0194 723.468 66.1677 725.301 72.6745 729.334C74.1408 730.25 75.6071 727.867 74.0492 726.951C67.1758 722.735 59.386 720.719 51.3212 721.177C49.4883 721.269 49.4883 724.018 51.3212 723.926Z" fill="#E8E8E8"/>
<path d="M68.0923 711.647C67.5424 706.607 68.1839 701.75 70.1085 696.984C70.75 695.335 68.0923 694.602 67.4508 696.251C65.4346 701.2 64.7931 706.332 65.3429 711.647C65.5262 713.389 68.2756 713.389 68.0923 711.647Z" fill="#E8E8E8"/>
<path d="M97.7852 696.434C100.809 703.857 105.208 711.739 106.308 719.62C106.583 721.361 109.241 720.628 108.966 718.887C107.774 710.914 103.376 703.032 100.443 695.701C99.8014 694.051 97.1436 694.784 97.7852 696.434Z" fill="#E8E8E8"/>
<path d="M114.648 705.141C117.306 702.116 119.872 698.542 123.262 696.251C126.103 694.326 129.219 693.043 131.419 690.386C132.519 689.011 130.594 687.087 129.494 688.461C127.112 691.302 123.629 692.494 120.788 694.693C117.672 697.076 115.289 700.283 112.723 703.216C111.532 704.591 113.456 706.515 114.648 705.141Z" fill="#E8E8E8"/>
<path d="M115.564 755.82C119.963 754.629 124.454 754.17 129.036 754.445C130.778 754.537 130.778 751.788 129.036 751.696C124.179 751.421 119.505 751.879 114.831 753.162C113.182 753.62 113.823 756.278 115.564 755.82Z" fill="#E8E8E8"/>
<path d="M115.198 756.919C120.33 757.377 125.279 756.736 130.227 755.178C131.877 754.628 131.144 751.97 129.494 752.52C124.82 753.987 120.055 754.536 115.198 754.17C113.456 754.078 113.456 756.828 115.198 756.919Z" fill="#E8E8E8"/>
<path d="M63.7849 756.461C64.9763 756.461 66.0761 756.461 67.2674 756.461C69.0087 756.461 69.0087 753.712 67.2674 753.712C66.0761 753.712 64.9763 753.712 63.7849 753.712C62.0437 753.712 62.0437 756.461 63.7849 756.461Z" fill="#E8E8E8"/>
<path d="M130.961 778.64C160.012 778.64 189.156 778.64 218.207 778.64C219.948 778.64 219.948 775.891 218.207 775.891C189.156 775.891 160.012 775.891 130.961 775.891C129.22 775.891 129.22 778.64 130.961 778.64Z" fill="#E8E8E8"/>
<path d="M622.728 760.494C640.049 760.494 657.278 760.494 674.599 760.494C676.34 760.494 676.34 757.745 674.599 757.745C657.278 757.745 640.049 757.745 622.728 757.745C620.987 757.745 620.987 760.494 622.728 760.494Z" fill="#E8E8E8"/>
<path d="M779.991 762.144C854.681 762.144 929.372 762.144 1004.06 762.144C1025.32 762.144 1046.59 762.144 1067.85 762.144C1069.59 762.144 1069.59 759.395 1067.85 759.395C993.157 759.395 918.467 759.395 843.776 759.395C822.514 759.395 801.252 759.395 779.991 759.395C778.25 759.395 778.25 762.144 779.991 762.144Z" fill="#E8E8E8"/>
<path d="M669.376 461.272C662.41 475.661 654.896 489.774 646.922 503.612C646.556 504.346 646.831 505.537 647.747 505.629C687.063 511.585 722.255 531.106 756.163 550.81C757.721 551.726 759.096 549.343 757.538 548.427C723.354 528.631 687.979 509.019 648.389 502.971C648.664 503.612 648.939 504.346 649.214 504.987C657.278 491.149 664.702 477.035 671.667 462.647C672.491 461.089 670.2 459.623 669.376 461.272Z" fill="#E8E8E8"/>
<path d="M675.424 511.219C678.173 503.337 680.922 495.364 683.672 487.483C684.863 484.184 685.688 480.518 687.246 477.31C687.613 475.386 688.804 473.919 690.637 472.82C691.737 473.095 692.836 473.37 693.936 473.644C695.586 474.103 697.235 474.469 698.793 474.928C702.551 475.844 708.599 475.844 707.958 480.884C707.5 484.459 705.392 488.308 704.2 491.79C701.451 499.58 698.793 507.37 696.044 515.16C695.494 516.809 698.152 517.542 698.702 515.893C702.276 505.629 705.85 495.273 709.424 485.008C710.249 482.626 712.54 478.593 710.707 476.027C708.691 473.278 702.642 473.095 699.526 472.27C696.502 471.537 691.187 468.787 688.071 470.254C685.413 471.445 684.863 476.027 684.038 478.318C680.281 489.041 676.524 499.855 672.766 510.577C672.216 512.135 674.874 512.869 675.424 511.219Z" fill="#E8E8E8"/>
<path d="M710.799 521.025C716.664 508.653 722.621 496.189 728.487 483.817C731.419 477.585 734.352 471.445 737.376 465.213C738.751 462.372 739.851 458.981 741.592 456.323C743.058 454.032 743.425 453.482 745.991 454.491C747.366 455.04 749.015 456.415 750.207 457.24C751.764 458.34 754.239 459.531 755.339 460.997C756.713 462.739 756.164 464.572 755.339 466.771C754.239 469.704 752.589 472.545 751.215 475.386C748.19 481.618 745.166 487.849 741.958 494.081C735.91 505.903 729.586 517.634 723.08 529.273C722.163 530.831 724.546 532.206 725.462 530.648C733.436 516.534 741.042 502.238 748.19 487.758C751.765 480.609 755.705 473.278 758.73 465.855C760.837 460.447 756.255 458.248 752.223 455.407C749.015 453.207 743.975 448.167 740.492 452.291C738.293 454.857 737.101 459.164 735.635 462.28C733.802 466.038 732.061 469.795 730.228 473.644C722.896 489.041 715.565 504.437 708.325 519.833C707.683 521.208 710.066 522.674 710.799 521.025Z" fill="#E8E8E8"/>
<path d="M741.225 540.087C749.107 527.715 757.996 515.985 767.802 505.171C767.252 505.262 766.702 505.354 766.152 505.354C769.635 507.737 773.026 510.028 776.508 512.411C776.325 511.769 776.142 511.128 776.05 510.486C768.26 522.675 760.471 534.772 752.681 546.961C751.764 548.427 754.055 549.802 755.063 548.335C762.853 536.147 770.643 524.05 778.433 511.861C778.891 511.219 778.525 510.394 777.975 509.936C774.492 507.553 771.101 505.262 767.619 502.88C767.161 502.513 766.336 502.696 765.969 503.063C755.98 514.152 746.907 525.974 738.934 538.529C737.926 540.271 740.309 541.645 741.225 540.087Z" fill="#E8E8E8"/>
<path d="M850.558 452.933C841.393 449.45 835.619 440.286 837.269 430.48C838.919 420.491 848.725 411.601 858.806 417.558C865.771 421.682 869.345 431.03 866.687 438.636C863.938 446.793 854.957 451.65 846.617 450.367C844.876 450.092 844.142 452.75 845.884 453.025C855.69 454.491 866.046 449.084 869.345 439.369C872.644 429.655 867.329 417.925 857.798 413.984C846.617 409.402 836.444 419.024 834.52 429.747C832.504 441.111 839.194 451.558 849.733 455.591C851.474 456.232 852.207 453.575 850.558 452.933Z" fill="#E8E8E8"/>
<path d="M869.345 451.191C851.107 450.641 857.981 421.407 874.11 422.506C890.24 423.698 883.641 456.598 865.954 450.55C864.304 450 863.571 452.658 865.221 453.207C885.658 460.173 894.822 422.965 875.302 419.849C865.771 418.291 857.156 427.272 855.69 436.161C854.223 444.959 860.18 453.574 869.345 453.849C871.086 454.032 871.086 451.283 869.345 451.191Z" fill="#E8E8E8"/>
<path d="M855.69 368.253C854.132 366.604 853.398 363.946 854.59 361.93C855.781 360.005 858.714 359.089 860.547 360.555C862.196 361.838 862.563 364.587 861.005 365.962C859.172 367.612 856.239 366.787 854.498 365.412C853.123 364.313 851.199 366.237 852.574 367.337C855.415 369.536 859.814 370.636 862.838 367.978C865.587 365.504 865.312 360.922 862.563 358.539C859.722 356.064 855.231 356.798 852.848 359.547C850.191 362.663 850.924 367.337 853.673 370.178C854.956 371.461 856.881 369.536 855.69 368.253Z" fill="#E8E8E8"/>
<path d="M589.736 437.262C587.17 421.682 596.243 402.895 613.839 403.079C622.82 403.17 631.526 406.836 640.599 405.553C647.014 404.637 652.513 400.971 656.362 395.93C660.211 390.89 662.411 384.566 662.777 378.243C663.235 368.895 659.661 359.364 662.227 350.108C663.51 345.434 666.26 341.126 670.934 339.385C675.424 337.827 680.281 338.744 684.955 338.56C691.737 338.285 697.053 335.353 700.443 329.396C705.209 321.056 704.109 311.067 707.408 302.269C711.349 291.638 722.438 282.565 734.169 287.789C735.727 288.522 737.193 286.139 735.543 285.406C719.597 278.258 706.309 292.646 703.193 307.126C701.177 316.566 701.543 331.229 690.271 334.986C682.389 337.644 673.5 333.52 666.26 338.927C660.303 343.326 658.562 351.391 658.653 358.447C658.928 368.803 662.136 378.884 657.553 388.782C653.338 398.13 644.998 403.72 634.642 403.079C625.478 402.529 616.405 398.771 607.149 401.154C591.477 405.095 584.787 423.607 587.262 438.087C587.445 439.645 590.103 438.912 589.736 437.262Z" fill="#E8E8E8"/>
<path d="M705.575 371.919C702.184 364.22 706.858 356.889 714.282 354.414C719.689 352.582 725.646 352.49 730.319 348.824C733.985 345.983 735.177 342.409 734.718 337.827C734.26 333.519 734.26 330.129 737.651 327.196C740.492 324.721 744.249 323.805 747.915 323.622C757.996 323.255 771.835 328.387 779.166 318.581C782.557 313.999 781.549 308.317 783.107 303.185C785.215 296.037 792.088 291.638 799.42 292.004C801.161 292.096 801.161 289.346 799.42 289.255C793.829 288.98 788.422 291.088 784.573 295.12C779.808 300.161 780.449 305.843 778.983 312.166C775.042 329.487 750.94 317.298 739.576 322.705C735.36 324.721 731.969 328.296 731.602 333.061C731.144 338.652 733.71 343.234 728.028 347.083C725.004 349.099 721.521 349.741 718.039 350.565C712.265 351.94 706.583 353.681 703.651 359.272C701.268 363.671 701.268 368.711 703.284 373.202C703.926 374.943 706.217 373.477 705.575 371.919Z" fill="#E8E8E8"/>
<path d="M868.887 249.848C868.52 249.023 868.154 248.106 867.879 247.19C869.07 245.815 870.17 244.441 871.361 243.066C871.728 242.974 873.377 244.074 873.927 244.074C875.302 244.257 876.493 243.891 877.593 243.066C880.984 240.408 879.792 236.193 880.801 232.618C882.45 226.478 889.69 230.694 892.989 226.112C896.289 221.621 895.097 212.09 903.895 214.656C905.636 215.114 906.369 212.457 904.628 211.998C899.588 210.532 895.006 212.915 893.173 217.772C892.623 219.147 892.44 220.705 891.89 222.079C890.698 225.287 889.415 225.745 885.933 225.928C883.367 226.112 881.35 225.928 879.609 228.128C878.143 230.052 878.143 232.527 877.868 234.818C877.593 238.209 877.868 241.05 872.827 240.683C871.819 240.592 870.995 239.675 869.895 239.675C863.846 239.583 864.854 247.007 866.321 250.581C866.871 252.23 869.62 251.497 868.887 249.848Z" fill="#E8E8E8"/>
<path d="M886.116 257.454C884.65 255.53 882.176 249.939 886.483 248.473C888.041 247.923 890.057 248.565 891.707 248.565C893.173 248.565 894.456 248.565 895.647 247.557C899.313 244.624 896.656 239.4 898.58 235.734C901.696 229.777 907.928 234.451 912.327 231.335C915.443 229.136 916.268 224.92 916.817 221.438C917.092 219.697 914.435 218.963 914.16 220.705C913.518 224.829 912.785 229.411 907.653 229.869C904.995 230.144 902.979 229.228 900.505 230.419C896.472 232.344 895.189 235.918 895.098 240.042C895.006 243.524 895.831 245.266 889.965 245.54C889.232 245.54 888.499 245.357 887.766 245.357C885.658 245.54 883.825 246.64 882.634 248.381C880.068 252.047 881.534 256.263 884.1 259.47C885.292 260.845 887.216 258.829 886.116 257.454Z" fill="#E8E8E8"/>
<path d="M106.95 307.126C114.556 297.961 125.37 290.446 137.834 291.729C151.398 293.104 158.088 303.918 159.371 316.565C161.57 337.552 156.438 362.663 170.643 380.533C176.233 387.59 184.573 391.348 193.554 389.148C204.368 386.582 212.8 378.059 222.423 373.019C233.787 367.062 249.458 363.854 259.722 373.843C267.237 381.175 268.887 392.356 271.361 402.07C273.652 410.868 277.593 420.582 285.474 425.806C290.24 428.922 295.464 429.197 300.962 428.83C307.103 428.372 319.658 428.006 318.375 437.628C318.192 439.37 320.941 439.37 321.124 437.628C321.582 433.871 319.841 430.847 316.817 428.647C312.051 425.165 306.553 425.714 300.962 426.081C294.639 426.539 289.232 425.989 284.375 421.499C279.976 417.466 277.318 411.784 275.393 406.194C272.186 396.571 271.269 386.032 265.771 377.234C260.364 368.528 251.016 364.312 240.935 364.679C228.196 365.137 217.474 372.469 207.301 379.25C202.444 382.458 197.22 385.849 191.263 386.857C184.115 388.048 177.791 384.932 173.209 379.617C164.595 369.536 163.22 355.148 162.762 342.501C162.303 330.679 163.861 317.848 159.921 306.393C156.346 295.945 147.274 289.438 136.368 288.888C123.721 288.247 112.632 295.853 104.842 305.201C103.834 306.576 105.758 308.5 106.95 307.126Z" fill="#E8E8E8"/>
<path d="M60.669 448.535C74.9656 472.362 87.7043 497.015 98.9767 522.401C99.7098 524.05 102.093 522.584 101.359 521.026C90.0871 495.64 77.2568 470.988 63.0518 447.16C62.1353 445.602 59.7526 446.977 60.669 448.535Z" fill="#E8E8E8"/>
<path d="M62.4104 447.435C84.6801 433.596 107.591 420.674 131.144 408.944C132.702 408.119 131.327 405.736 129.769 406.561C106.308 418.292 83.3971 431.214 61.0357 445.052C59.4777 446.06 60.8524 448.443 62.4104 447.435Z" fill="#E8E8E8"/>
<path d="M129.494 407.752C141.133 432.221 153.414 456.324 166.427 480.06C167.252 481.618 169.635 480.243 168.81 478.685C155.796 454.949 143.424 430.846 131.877 406.377C131.052 404.727 128.761 406.102 129.494 407.752Z" fill="#E8E8E8"/>
<path d="M102.093 522.95C123.996 509.753 145.624 496.189 167.069 482.259C168.535 481.343 167.161 478.96 165.694 479.877C144.249 493.807 122.621 507.37 100.718 520.567C99.2516 521.483 100.626 523.866 102.093 522.95Z" fill="#E8E8E8"/>
<path d="M100.352 439.369C99.8017 456.965 100.81 474.47 103.376 491.882C103.651 493.623 106.309 492.89 106.034 491.149C103.468 474.011 102.551 456.69 103.101 439.369C103.193 437.628 100.443 437.628 100.352 439.369Z" fill="#E8E8E8"/>
<path d="M100.443 438.453C113.182 448.442 125.92 458.248 138.842 467.962C140.217 469.062 141.592 466.679 140.217 465.58C127.478 456.048 114.831 446.334 102.368 436.528C100.993 435.428 99.0685 437.353 100.443 438.453Z" fill="#E8E8E8"/>
<path d="M106.217 492.432C116.756 482.992 130.502 477.952 140.492 467.779C141.775 466.496 139.759 464.572 138.567 465.855C128.578 475.936 114.923 481.068 104.292 490.507C102.917 491.607 104.933 493.532 106.217 492.432Z" fill="#E8E8E8"/>
<path d="M64.3349 462.923C67.2676 461.456 70.2002 460.082 73.1328 458.615C74.6908 457.882 73.3161 455.5 71.7582 456.233C68.8255 457.699 65.8929 459.074 62.9602 460.54C61.4023 461.365 62.777 463.656 64.3349 462.923Z" fill="#E8E8E8"/>
<path d="M73.7742 478.502C76.2486 476.853 78.9063 475.478 81.6557 474.287C83.3053 473.645 82.5721 470.987 80.9225 471.629C77.8982 472.912 75.0572 474.378 72.3079 476.12C70.9332 477.128 72.3079 479.51 73.7742 478.502Z" fill="#E8E8E8"/>
<path d="M84.1301 496.464C86.6961 495.181 89.2622 493.898 91.8283 492.707C93.3862 491.882 92.0116 489.591 90.4536 490.324C87.8875 491.607 85.3215 492.89 82.7554 494.081C81.1974 494.814 82.5721 497.197 84.1301 496.464Z" fill="#E8E8E8"/>
<path d="M89.4453 514.427C92.2863 511.953 95.219 509.845 98.5182 508.012C100.076 507.095 98.7015 504.804 97.1435 505.629C93.7526 507.554 90.5451 509.845 87.5208 512.503C86.1461 513.694 88.0706 515.618 89.4453 514.427Z" fill="#E8E8E8"/>
<path d="M134.718 425.806C136.826 424.34 139.026 423.332 141.5 422.69C143.241 422.232 142.508 419.666 140.767 420.032C138.109 420.674 135.543 421.774 133.252 423.423C131.877 424.431 133.252 426.814 134.718 425.806Z" fill="#E8E8E8"/>
<path d="M142.875 441.478C145.807 439.645 148.74 437.812 151.581 435.887C153.047 434.971 151.673 432.588 150.206 433.504C147.274 435.337 144.341 437.17 141.5 439.095C139.942 440.103 141.317 442.486 142.875 441.478Z" fill="#E8E8E8"/>
<path d="M152.222 460.265C155.338 458.89 158.546 457.516 161.662 456.141C163.311 455.408 161.845 453.025 160.287 453.758C157.171 455.133 153.963 456.507 150.848 457.882C149.198 458.615 150.664 460.998 152.222 460.265Z" fill="#E8E8E8"/>
<path d="M158.913 472.545C161.387 470.162 164.136 468.146 167.161 466.405C168.719 465.58 167.344 463.197 165.786 464.022C162.578 465.855 159.646 467.963 156.988 470.529C155.705 471.812 157.63 473.736 158.913 472.545Z" fill="#E8E8E8"/>
<path d="M109.882 510.853C112.174 514.244 114.098 517.818 115.564 521.575C116.206 523.225 118.864 522.492 118.222 520.842C116.664 516.81 114.74 512.961 112.265 509.386C111.257 508.012 108.874 509.386 109.882 510.853Z" fill="#E8E8E8"/>
<path d="M123.904 503.246C125.645 506.362 127.295 509.386 129.036 512.502C129.861 514.06 132.244 512.686 131.419 511.128C129.678 508.012 128.028 504.987 126.287 501.871C125.462 500.313 123.079 501.688 123.904 503.246Z" fill="#E8E8E8"/>
<path d="M140.125 491.607C141.958 494.907 143.791 498.206 145.624 501.505C146.449 503.063 148.831 501.688 148.007 500.13C146.174 496.831 144.341 493.532 142.508 490.233C141.683 488.675 139.3 490.049 140.125 491.607Z" fill="#E8E8E8"/>
<path d="M154.697 482.901C156.163 486.383 157.629 489.866 159.187 493.257C159.921 494.906 162.212 493.44 161.57 491.882C160.104 488.4 158.638 484.917 157.08 481.526C156.346 479.968 153.964 481.343 154.697 482.901Z" fill="#E8E8E8"/>
<path d="M71.5745 433.321C73.3158 436.162 74.9654 439.003 76.7066 441.752C77.6231 443.31 80.0059 441.844 79.0894 440.378C77.3482 437.537 75.6985 434.696 73.9573 431.946C73.0408 430.48 70.6581 431.855 71.5745 433.321Z" fill="#E8E8E8"/>
<path d="M87.3377 424.156C88.9873 427.822 90.6369 431.488 92.2865 435.154C93.0197 436.803 95.4025 435.337 94.6693 433.779C93.0197 430.113 91.3701 426.448 89.7205 422.782C88.8957 421.132 86.6045 422.507 87.3377 424.156Z" fill="#E8E8E8"/>
<path d="M101.543 415.359C104.017 418.658 105.942 422.232 107.225 426.081C107.775 427.731 110.432 426.997 109.882 425.348C108.508 421.224 106.583 417.375 103.925 413.984C102.917 412.609 100.535 413.892 101.543 415.359Z" fill="#E8E8E8"/>
<path d="M116.847 408.302C118.772 411.234 120.605 414.075 122.529 417.008C123.446 418.474 125.829 417.1 124.912 415.633C122.988 412.701 121.155 409.86 119.23 406.927C118.222 405.461 115.839 406.836 116.847 408.302Z" fill="#E8E8E8"/>
<path d="M259.355 226.57C250.466 223.821 250.007 214.381 254.223 207.325C258.347 200.451 266.32 198.618 272.552 204.3C277.684 209.066 278.142 217.222 273.377 222.446C268.611 227.761 260.822 227.67 255.323 223.637C253.948 222.538 252.573 224.92 253.948 226.02C260.913 231.152 271.086 230.327 276.31 223.088C281.717 215.756 279.792 205.492 272.185 200.543C253.856 188.721 238.094 222.813 258.622 229.228C260.363 229.778 261.096 227.12 259.355 226.57Z" fill="#E8E8E8"/>
<path d="M274.11 228.952C267.237 231.06 265.587 222.812 268.612 218.413C271.086 214.839 275.943 212.731 280.342 213.923C284.558 215.022 287.582 219.33 286.482 223.637C285.108 229.044 279.426 230.969 274.385 230.144C272.644 229.869 271.911 232.527 273.652 232.802C280.434 233.993 287.765 231.06 289.232 223.729C290.515 217.405 285.566 211.632 279.426 210.898C272.644 210.074 265.221 215.022 264.304 221.987C263.479 228.036 268.978 233.443 275.027 231.519C276.585 231.06 275.852 228.403 274.11 228.952Z" fill="#E8E8E8"/>
<path d="M215.641 288.614C213.441 293.104 216.557 297.595 221.139 298.786C224.622 299.703 228.288 298.878 231.862 299.061C235.711 299.244 239.56 300.161 243.043 301.719C250.741 305.201 255.69 311.525 255.964 320.048C256.239 327.196 254.132 334.619 257.247 341.401C263.846 355.698 281.992 344.792 291.339 354.048C299.129 361.838 295.922 376.043 306.369 382C307.927 382.916 309.302 380.534 307.744 379.617C298.396 374.302 300.596 360.463 293.997 352.765C290.515 348.733 285.474 347.633 280.342 347.266C274.11 346.9 266.045 348.183 261.463 342.867C256.148 336.636 258.989 327.288 258.714 319.956C258.531 314.183 256.606 308.959 252.574 304.835C248.999 301.261 244.326 298.786 239.468 297.503C236.994 296.862 234.428 296.403 231.862 296.312C228.563 296.128 214.266 297.778 218.115 289.988C218.848 288.43 216.465 287.056 215.641 288.614Z" fill="#E8E8E8"/>
<path d="M1.37468 783.313C17.9624 783.313 34.4585 783.313 51.0463 783.313C52.7875 783.313 52.7875 780.564 51.0463 780.564C34.4585 780.564 17.9624 780.564 1.37468 780.564C-0.458225 780.564 -0.458225 783.313 1.37468 783.313Z" fill="#E8E8E8"/>
<path d="M28.1352 845.449C60.0276 845.449 91.8285 845.449 123.721 845.449C125.462 845.449 125.462 842.7 123.721 842.7C91.8285 842.7 60.0276 842.7 28.1352 842.7C26.3023 842.7 26.3023 845.449 28.1352 845.449Z" fill="#E8E8E8"/>
<path d="M119.872 828.22C149.473 828.22 179.166 828.22 208.767 828.22C210.509 828.22 210.509 825.471 208.767 825.471C179.166 825.471 149.473 825.471 119.872 825.471C118.039 825.471 118.039 828.22 119.872 828.22Z" fill="#E8E8E8"/>
<path d="M612.83 823.454C627.769 819.788 642.798 819.422 658.011 821.804C664.427 822.812 670.933 823.82 677.44 823.271C683.764 822.721 689.904 820.796 696.044 819.147C703.009 817.222 709.974 815.756 717.306 816.306C724.821 816.855 732.061 818.963 739.392 820.613C745.716 822.079 752.131 823.087 758.638 822.996C765.511 822.812 772.293 821.621 778.983 820.613C797.312 817.68 814.541 819.513 832.687 822.537C834.428 822.812 835.161 820.155 833.42 819.88C818.757 817.497 804.002 815.022 789.064 816.489C773.484 818.047 759.004 821.896 743.241 818.688C730.044 816.031 717.489 811.907 703.926 814.473C696.686 815.847 689.812 818.413 682.572 819.788C674.508 821.346 666.718 820.43 658.653 819.147C642.982 816.764 627.494 816.947 612.006 820.796C610.448 821.254 611.181 823.912 612.83 823.454Z" fill="#E8E8E8"/>
<path d="M753.597 795.594C782.374 794.036 811.15 792.478 839.927 791.012C854.132 790.279 867.879 790.553 881.992 792.478C888.315 793.303 894.364 793.486 900.687 792.753C907.744 791.928 915.076 790.828 921.674 794.219C923.232 795.044 924.607 792.661 923.049 791.837C911.868 786.155 898.946 791.47 886.941 790.37C879.792 789.729 872.827 788.354 865.679 787.987C858.256 787.621 850.833 787.804 843.409 788.171C813.441 789.545 783.473 791.378 753.506 792.936C751.856 792.936 751.856 795.686 753.597 795.594Z" fill="#E8E8E8"/>
<path d="M190.072 874.317C203.635 875.6 217.29 876.883 230.854 875.325C237.177 874.592 243.226 873.217 249.366 871.384C257.339 869.001 264.488 868.36 272.736 869.826C279.059 870.926 285.291 872.484 291.614 873.034C298.305 873.584 304.995 873.217 311.685 872.575C325.706 871.201 339.728 868.818 353.658 871.934C355.399 872.3 356.133 869.643 354.391 869.276C341.011 866.344 327.631 868.268 314.159 869.643C307.469 870.284 300.779 870.926 294.089 870.559C286.482 870.193 279.151 868.177 271.727 866.985C265.496 865.977 259.539 865.977 253.398 867.443C246.8 869.093 240.568 871.292 233.786 872.301C219.307 874.408 204.552 872.942 190.072 871.659C188.239 871.384 188.33 874.133 190.072 874.317Z" fill="#E8E8E8"/>
<path d="M335.054 134.833C331.48 132.359 326.623 128.418 328.089 123.469C329.647 118.337 333.496 120.811 337.07 119.62C341.836 118.062 341.561 112.288 340.186 108.531C338.812 104.865 335.879 95.9757 343.486 99C345.227 99.7331 346.51 100.925 348.526 100.283C350.359 99.7331 351.275 98.0835 351.734 96.3423C352.1 94.7843 351.825 93.1347 351.734 91.4851C351.55 90.3853 351.459 89.1939 351.459 88.0942C351.092 85.4365 352.742 84.3368 356.224 84.795C356.316 86.5362 359.065 86.5362 358.974 84.795C358.79 82.2289 356.866 80.396 354.116 80.4877C350.909 80.5793 349.168 83.6952 348.801 86.6279C348.526 88.6441 350.176 93.318 349.259 94.9676C348.159 95.7007 347.06 96.5255 345.868 97.2587C345.41 96.9838 344.952 96.7088 344.494 96.4339C343.669 96.159 343.027 95.6091 342.202 95.4258C339.361 94.7843 337.07 96.5255 336.062 99.0916C334.321 103.491 337.437 107.156 338.353 111.28C339.545 116.962 335.237 116.321 331.48 116.962C329.83 117.237 328.456 118.062 327.356 119.254C321.582 125.944 328.272 133.367 333.771 137.216C335.146 138.224 336.52 135.841 335.054 134.833Z" fill="#E8E8E8"/>
<path d="M353.108 132.267C350.084 128.785 347.793 124.019 353.658 122.186C355.124 121.728 356.774 121.911 358.149 120.995C361.173 118.887 359.89 116.046 359.34 113.113C359.065 111.464 358.424 109.264 359.432 107.615C360.165 106.423 362.823 105.965 364.197 105.69C366.122 105.232 368.138 104.957 369.788 103.857C372.262 102.116 373.178 98.9999 371.529 96.3422C370.612 94.8759 368.23 96.2506 369.146 97.7169C371.895 102.116 359.065 103.307 356.866 106.515C354.3 110.272 359.707 116.871 355.216 119.253C353.475 120.17 351.275 119.528 349.626 120.72C348.434 121.545 347.61 122.828 347.243 124.202C346.235 128.143 348.893 131.534 351.275 134.283C352.375 135.566 354.3 133.642 353.108 132.267Z" fill="#E8E8E8"/>
<path d="M244.876 110.548C242.493 108.898 242.218 105.965 242.951 103.399C243.409 101.658 245.609 96.8925 247.717 96.7092C251.199 96.3426 252.94 100.742 253.857 103.308C254.682 105.782 254.957 108.257 255.048 110.823C255.048 112.564 257.797 112.564 257.797 110.823C257.706 105.69 254.315 89.9275 245.884 94.5098C242.676 96.251 240.293 101.291 239.927 104.774C239.56 108.073 240.843 111.006 243.501 112.93C244.876 113.938 246.25 111.556 244.876 110.548Z" fill="#E8E8E8"/>
<path d="M243.776 112.013C240.476 112.838 237.177 113.663 233.786 114.488C231.862 114.946 228.562 115.129 227.005 116.595C224.347 119.07 225.08 126.676 225.08 129.884C225.08 130.8 225.996 131.442 226.821 131.167C227.279 131.075 227.738 130.892 228.288 130.8C230.67 129.517 231.862 130.342 231.953 133.092C233.786 134.924 233.786 136.024 231.953 136.207C230.854 136.666 229.754 136.849 228.562 136.849C227.829 136.941 227.188 137.399 227.188 138.224C227.371 144.089 227.829 149.863 228.471 155.728C228.654 157.469 231.403 157.469 231.22 155.728C230.579 149.863 230.12 144.089 229.937 138.224C229.479 138.682 229.021 139.14 228.562 139.598C232.412 139.14 238.552 137.582 237.727 132.358C236.811 126.768 230.029 127.41 226.18 128.509C226.73 128.967 227.371 129.426 227.921 129.792C227.921 127.684 227.921 125.668 228.104 123.56C228.379 120.261 228.196 119.07 231.22 117.878C235.344 116.229 240.201 115.679 244.509 114.579C246.25 114.304 245.517 111.647 243.776 112.013Z" fill="#E8E8E8"/>
<path d="M256.973 112.838C260.822 112.655 264.763 112.655 268.612 113.113C272.277 113.572 272.094 114.121 272.644 117.329C273.011 119.345 273.102 121.453 273.285 123.469C274.019 131.351 274.569 139.232 275.027 147.114C275.118 148.855 277.868 148.855 277.776 147.114C277.226 136.391 276.86 125.394 275.118 114.763C274.66 112.105 274.202 111.28 271.453 110.822C266.687 109.906 261.738 109.906 256.973 110.181C255.231 110.181 255.231 112.93 256.973 112.838Z" fill="#E8E8E8"/>
<path d="M230.488 157.653C235.895 156.736 241.302 155.82 246.617 154.904C252.757 153.896 258.623 154.354 264.763 153.896C267.604 153.621 281.076 152.246 276.127 146.656C274.935 145.373 273.011 147.297 274.202 148.58C274.935 149.405 262.472 151.238 262.197 151.238C258.348 151.329 254.499 151.146 250.65 151.604C243.684 152.429 236.719 153.895 229.754 155.087C228.013 155.27 228.746 157.928 230.488 157.653Z" fill="#E8E8E8"/>
<path d="M717.306 685.437C717.031 695.059 716.756 704.682 716.481 714.396C728.67 715.221 740.767 715.954 752.956 716.779C752.956 706.881 752.956 696.984 752.956 687.086C741.042 686.536 729.22 685.986 717.306 685.437Z" fill="white" stroke="#3B4045" stroke-width="2" stroke-miterlimit="10"/>
<path d="M733.16 792.386C734.81 803.017 735.543 811.815 735.91 818.139C737.101 839.125 736.185 843.982 734.352 847.832C729.861 857.271 721.705 861.212 722.438 862.495C722.988 863.32 727.02 862.403 744.983 852.964C743.883 832.069 742.875 811.265 741.775 790.37C738.934 791.103 736.093 791.745 733.16 792.386Z" fill="white" stroke="#3B4045" stroke-width="2" stroke-miterlimit="10"/>
<path d="M709.424 725.027C725.004 725.119 740.584 725.302 756.163 725.394C754.422 746.289 752.772 767.092 751.031 787.988C737.468 786.888 723.813 785.88 710.249 784.78C709.883 764.893 709.608 745.006 709.424 725.027Z" fill="white" stroke="#3B4045" stroke-width="2" stroke-miterlimit="10"/>
<path d="M715.748 791.653C720.697 803.659 722.346 814.014 722.896 820.979C723.721 831.244 724.271 839.125 719.322 844.349C717.489 846.365 714.465 848.29 708.6 852.23C703.376 855.713 700.901 856.996 701.085 857.363C701.36 857.912 706.4 856.813 728.395 849.023C729.861 841.6 731.053 832.069 730.778 820.888C730.411 808.974 728.487 798.801 726.379 791.195C722.896 791.378 719.322 791.47 715.748 791.653Z" fill="white" stroke="#3B4045" stroke-width="2" stroke-miterlimit="10"/>
<path d="M723.721 863.32C726.47 861.029 729.037 858.554 731.511 855.896C734.352 852.781 738.568 848.015 742.967 852.139C743.058 851.406 743.15 850.673 743.241 849.94C736.735 853.147 730.32 856.355 723.813 859.471C722.53 860.112 723.171 862.037 724.546 862.037C730.686 862.128 734.535 851.406 740.859 853.422C742.508 853.972 743.242 851.314 741.592 850.764C738.843 849.94 736.735 850.673 734.444 852.322C731.786 854.247 728.028 859.287 724.638 859.287C724.912 860.112 725.096 861.029 725.371 861.853C731.877 858.646 738.293 855.438 744.799 852.322C745.624 851.956 745.716 850.764 745.074 850.123C742.6 847.832 738.201 847.007 735.085 848.473C732.794 849.481 731.328 852.139 729.678 853.88C727.204 856.538 724.638 858.921 721.888 861.304C720.422 862.495 722.346 864.511 723.721 863.32Z" fill="#3B4045"/>
<path d="M734.993 849.023C737.743 849.115 740.4 849.665 742.966 850.764C744.524 851.498 745.991 849.115 744.341 848.382C741.317 847.007 738.292 846.274 734.993 846.182C733.252 846.274 733.252 849.023 734.993 849.023Z" fill="#3B4045"/>
<path d="M719.963 845.815C722.071 846.365 723.904 847.465 725.37 849.114C726.562 850.397 728.486 848.473 727.295 847.19C725.462 845.265 723.171 843.89 720.605 843.249C719.047 842.699 718.314 845.357 719.963 845.815Z" fill="#3B4045"/>
<path d="M705.117 856.904C707.958 854.796 710.891 852.872 713.915 851.039C715.289 850.214 716.756 849.114 718.222 848.656C720.513 847.831 721.888 848.381 723.996 849.298C723.996 848.473 723.996 847.74 723.996 846.915C721.063 848.198 717.764 848.106 714.74 849.389C711.807 850.581 709.058 853.513 706.033 854.063C706.4 854.888 706.767 855.713 707.133 856.538C712.54 853.88 718.589 853.422 723.996 850.764C725.554 849.939 724.179 847.648 722.621 848.381C717.214 851.039 711.166 851.497 705.758 854.155C704.292 854.888 705.392 856.904 706.858 856.629C710.157 856.079 712.815 853.055 715.931 851.864C719.047 850.672 722.438 850.581 725.462 849.298C726.379 848.931 726.379 847.281 725.462 846.915C721.98 845.357 720.422 844.44 716.939 846.273C712.357 848.656 708.05 851.497 703.926 854.521C702.276 855.529 703.651 857.912 705.117 856.904Z" fill="#3B4045"/>
<path d="M720.788 805.675C723.079 804.85 725.371 804.942 727.478 806.042C729.036 806.866 730.411 804.484 728.853 803.659C726.104 802.192 722.988 801.918 720.055 803.017C718.405 803.659 719.139 806.316 720.788 805.675Z" fill="#3B4045"/>
<path d="M723.079 814.839C725.004 814.656 726.837 815.114 728.303 816.397C729.678 817.497 731.602 815.573 730.228 814.473C728.212 812.823 725.737 811.907 723.079 812.09C721.338 812.182 721.338 814.931 723.079 814.839Z" fill="#3B4045"/>
<path d="M724.087 826.295C725.829 826.111 727.478 826.753 728.486 828.219C729.403 829.685 731.786 828.311 730.869 826.844C729.494 824.553 726.837 823.179 724.179 823.545C723.446 823.637 722.804 824.095 722.804 824.92C722.713 825.561 723.354 826.386 724.087 826.295Z" fill="#3B4045"/>
<path d="M735.91 805.033C737.559 804.117 739.667 804.208 741.225 805.491C742.6 806.591 744.524 804.667 743.15 803.567C740.675 801.551 737.376 801.093 734.535 802.65C732.977 803.567 734.352 805.95 735.91 805.033Z" fill="#3B4045"/>
<path d="M737.468 822.354C738.934 821.713 740.584 821.988 741.775 823.088C743.058 824.279 745.074 822.354 743.699 821.163C741.592 819.238 738.659 818.78 736.001 820.063C734.443 820.705 735.91 823.088 737.468 822.354Z" fill="#3B4045"/>
<path d="M737.834 837.018C739.3 836.101 741.133 836.101 742.508 837.201C743.883 838.301 745.807 836.376 744.433 835.277C742.141 833.352 738.934 833.077 736.459 834.727C734.993 835.643 736.368 838.026 737.834 837.018Z" fill="#3B4045"/>
<path d="M758.363 725.302C756.53 746.381 754.697 767.459 752.864 788.537" stroke="#3B4045" stroke-width="6" stroke-miterlimit="10"/>
<path d="M709.974 785.605C725.279 786.705 740.584 787.713 755.888 788.813" stroke="#3B4045" stroke-width="6" stroke-miterlimit="10"/>
<path d="M755.98 686.261C755.613 696.709 755.155 707.065 754.788 717.512" stroke="#3B4045" stroke-width="6" stroke-miterlimit="10"/>
<path d="M757.904 737.674C766.427 736.116 775.5 742.806 776.142 751.604C777.058 762.601 764.503 764.526 756.255 763.334C754.514 763.059 753.78 765.717 755.522 765.992C765.603 767.458 779.808 764.617 778.891 751.604C778.158 740.881 767.436 733.092 757.171 735.016C755.43 735.291 756.163 737.949 757.904 737.674Z" fill="#3B4045"/>
<path d="M755.889 768.191C759.463 768.925 762.304 771.491 763.312 774.973C763.77 776.714 766.428 775.981 765.97 774.24C764.778 769.841 761.204 766.359 756.713 765.534C754.88 765.259 754.147 767.825 755.889 768.191Z" fill="#3B4045"/>
<path d="M754.514 767.276C756.713 770.484 757.721 774.058 757.355 777.998C757.263 779.74 760.012 779.74 760.104 777.998C760.379 773.691 759.279 769.475 756.805 765.901C755.888 764.435 753.505 765.81 754.514 767.276Z" fill="#3B4045"/>
<path d="M709.333 736.391C703.284 732.542 692.195 743.631 690.82 749.038C688.071 760.035 702.184 758.752 708.05 762.418C709.516 763.334 710.891 760.952 709.424 760.035C705.209 757.378 698.977 758.386 695.311 755.086C690.82 751.054 694.944 746.197 698.06 743.356C699.71 741.89 705.3 737.032 707.958 738.682C709.424 739.782 710.891 737.399 709.333 736.391Z" fill="#3B4045"/>
<path d="M707.866 761.135C705.483 762.051 703.284 763.426 701.451 765.35C700.076 766.817 698.335 769.108 699.71 771.124C700.718 772.59 703.101 771.216 702.093 769.749C701.451 768.833 703.834 766.817 704.475 766.267C705.667 765.167 707.041 764.342 708.599 763.792C710.249 763.151 709.608 760.493 707.866 761.135Z" fill="#3B4045"/>
<path d="M706.767 763.06C705.025 765.809 704.475 768.925 705.117 772.041C705.484 773.782 708.141 773.049 707.775 771.308C707.225 768.834 707.775 766.543 709.149 764.435C710.157 762.968 707.775 761.594 706.767 763.06Z" fill="#3B4045"/>
<path d="M715.473 734.65C715.014 741.34 715.106 748.122 715.564 754.812C715.748 756.553 718.497 756.553 718.314 754.812C717.764 748.122 717.764 741.34 718.222 734.65C718.405 732.908 715.656 732.908 715.473 734.65Z" fill="#3B4045"/>
<path d="M717.489 735.383C727.203 735.933 736.826 736.299 746.54 736.483C746.082 736.024 745.624 735.566 745.166 735.108C744.891 741.981 744.616 748.946 744.249 755.82C744.158 757.561 746.907 757.561 746.999 755.82C747.274 748.946 747.549 741.981 747.915 735.108C747.915 734.375 747.274 733.733 746.54 733.733C736.826 733.55 727.203 733.183 717.489 732.634C715.748 732.542 715.748 735.291 717.489 735.383Z" fill="#3B4045"/>
<path d="M716.389 756.004C720.422 757.103 724.912 756.828 728.945 757.103C733.893 757.378 738.934 757.745 743.883 758.02C745.624 758.111 745.624 755.362 743.883 755.27C739.484 754.995 735.085 754.721 730.686 754.446C726.287 754.171 721.338 754.446 717.031 753.346C715.473 752.888 714.74 755.545 716.389 756.004Z" fill="#3B4045"/>
<path d="M719.505 770.208C721.155 773.782 724.729 770.666 727.478 771.949C728.761 772.499 728.486 773.324 730.228 773.415C732.244 773.507 737.193 769.475 738.201 773.232C738.476 774.24 739.759 774.515 740.492 773.873C741.408 773.599 742.416 773.324 743.333 773.14C744.432 774.515 746.449 772.499 745.257 771.216C743.15 768.741 740.492 770.116 738.476 771.949C739.209 772.132 740.034 772.316 740.767 772.59C739.942 769.383 736.551 767.275 733.344 768.741C731.786 769.475 731.602 770.849 729.219 769.933C728.761 769.749 728.578 769.016 728.12 768.833C727.112 768.466 721.796 769.016 721.796 768.925C721.155 767.183 718.772 768.558 719.505 770.208Z" fill="#3B4045"/>
<path d="M724.362 698.083C724.546 697.075 725.737 696.8 726.562 697.166C727.753 697.625 728.395 698.999 728.945 700.007C729.678 701.565 732.061 700.191 731.327 698.633C730.319 696.617 728.761 694.509 726.287 694.234C724.271 694.051 722.163 695.242 721.796 697.258C721.338 699.091 723.996 699.824 724.362 698.083Z" fill="#3B4045"/>
<path d="M741.225 699.366C741.408 698.45 742.233 697.9 743.15 698.266C744.249 698.633 744.708 700.008 744.891 701.016C745.166 702.757 747.823 702.024 747.549 700.283C747.182 698.083 745.716 695.792 743.333 695.426C741.225 695.151 738.934 696.434 738.567 698.633C738.292 700.374 740.95 701.107 741.225 699.366Z" fill="#3B4045"/>
<path d="M725.737 703.857C728.853 709.356 736.276 710.181 740.309 705.232C741.408 703.857 739.484 701.933 738.384 703.307C735.451 706.882 730.411 706.607 728.12 702.483C727.295 700.925 724.912 702.299 725.737 703.857Z" fill="#3B4045"/>
<path d="M629.601 205.858C618.054 201.184 611.089 190.004 606.873 178.823C602.383 167.184 600.458 154.537 601.1 142.073C602.2 119.07 612.006 95.7925 630.151 81.1293C647.289 67.1993 672.675 63.2585 691.737 75.9055C711.624 89.1024 715.198 116.321 715.381 138.224C715.564 162.602 709.882 188.171 691.828 205.675C690.545 206.866 692.47 208.883 693.753 207.599C710.891 190.92 717.397 167.092 718.039 143.815C718.68 120.995 715.931 92.1267 697.144 76.4554C679.548 61.7922 653.429 62.5254 634.642 74.4392C613.838 87.6361 601.558 111.555 598.9 135.658C597.251 150.596 599.084 166.084 604.582 180.198C609.256 192.111 616.679 203.475 628.96 208.424C630.518 209.157 631.159 206.5 629.601 205.858Z" fill="#3B4045"/>
<path d="M628.319 207.599C625.203 211.998 625.844 218.505 630.427 221.804C633.909 224.279 639.041 224.645 643.165 225.195C648.114 225.928 653.155 226.203 658.195 226.203C667.176 226.111 677.441 225.47 685.78 221.987C691.829 219.421 696.411 213.373 693.204 206.866C692.47 205.308 690.088 206.683 690.821 208.241C697.694 222.262 665.16 223.454 658.104 223.454C651.597 223.454 645.09 222.904 638.766 221.713C635.742 221.163 632.351 220.613 630.427 217.955C628.502 215.206 628.869 211.632 630.702 209.065C631.71 207.508 629.327 206.133 628.319 207.599Z" fill="#3B4045"/>
<path d="M631.251 222.445C631.251 227.027 631.343 231.701 631.893 236.283C632.168 238.391 632.626 240.224 634.367 241.507C636.842 243.34 640.966 243.248 643.898 243.523C648.847 243.89 653.888 243.89 658.837 243.707C663.51 243.523 668.184 243.157 672.858 242.699C675.608 242.424 678.724 242.515 680.831 240.407C685.505 235.825 685.597 227.119 684.406 221.345C684.039 219.604 681.381 220.337 681.748 222.078C682.389 225.194 682.573 228.31 681.931 231.518C681.015 236.008 679.732 238.941 674.691 239.858C668.826 240.957 662.227 240.957 656.271 241.049C650.405 241.141 643.807 241.416 638.033 240.041C632.718 238.758 634.092 226.844 634.092 222.445C634.001 220.704 631.251 220.704 631.251 222.445Z" fill="#3B4045"/>
<path d="M632.168 123.744C643.165 130.617 651.505 140.698 656.179 152.795C656.82 154.445 659.478 153.712 658.837 152.062C653.888 139.232 645.181 128.601 633.634 121.361C632.076 120.353 630.702 122.736 632.168 123.744Z" fill="#3B4045"/>
<path d="M658.378 152.795C663.785 141.431 671.667 131.717 681.748 124.202C683.122 123.194 681.748 120.719 680.373 121.819C669.925 129.609 661.677 139.69 655.995 151.42C655.262 152.978 657.645 154.353 658.378 152.795Z" fill="#3B4045"/>
<path d="M656.179 149.588C657.553 168.467 658.195 187.346 657.92 206.225C657.92 207.966 660.669 207.966 660.669 206.225C660.944 187.346 660.303 168.375 658.928 149.588C658.745 147.755 655.995 147.755 656.179 149.588Z" fill="#3B4045"/>
<path d="M548.862 195.777C561.051 191.653 573.148 187.529 585.337 183.405C586.986 182.855 586.253 180.197 584.604 180.747C572.415 184.871 560.318 188.995 548.129 193.119C546.388 193.669 547.121 196.326 548.862 195.777Z" fill="#3B4045"/>
<path d="M562.792 177.448C567.008 176.257 571.224 174.974 575.439 173.782C577.089 173.324 576.448 170.666 574.706 171.125C570.491 172.316 566.275 173.599 562.059 174.79C560.41 175.34 561.051 177.998 562.792 177.448Z" fill="#3B4045"/>
<path d="M532.274 146.929C548.404 146.746 564.442 147.204 580.48 148.212C582.221 148.304 582.221 145.555 580.48 145.463C564.442 144.455 548.312 144.088 532.274 144.18C530.533 144.18 530.533 146.929 532.274 146.929Z" fill="#3B4045"/>
<path d="M566.366 134.466C570.216 135.474 574.156 135.932 578.097 136.024C579.838 136.024 579.838 133.275 578.097 133.275C574.34 133.183 570.674 132.725 567.1 131.808C565.358 131.35 564.625 134.008 566.366 134.466Z" fill="#3B4045"/>
<path d="M560.41 49.1442C574.798 61.5162 587.903 75.0797 599.725 89.9262C600.825 91.3009 602.75 89.3763 601.65 88.0016C589.828 73.1552 576.722 59.5 562.334 47.2196C561.051 46.0282 559.035 47.9528 560.41 49.1442Z" fill="#3B4045"/>
<path d="M600.642 75.1719C603.116 77.7379 605.499 80.304 607.973 82.9617C609.165 84.2447 611.089 82.3202 609.898 81.0372C607.423 78.4711 605.041 75.905 602.566 73.2473C601.375 71.9643 599.45 73.8889 600.642 75.1719Z" fill="#3B4045"/>
<path d="M544.83 80.3042C549.32 82.9619 553.903 85.4363 558.577 87.7275C560.135 88.5523 561.509 86.1695 559.951 85.3447C555.277 82.9619 550.695 80.4875 546.205 77.9215C544.647 77.005 543.272 79.3878 544.83 80.3042Z" fill="#3B4045"/>
<path d="M704.292 59.4092C717.856 45.8457 731.419 32.2822 744.983 18.7188C746.266 17.4357 744.25 15.5112 743.058 16.7942C729.495 30.3577 715.931 43.9212 702.368 57.4846C701.085 58.7676 703.009 60.6922 704.292 59.4092Z" fill="#3B4045"/>
<path d="M717.947 65.7319C721.43 63.1658 724.912 60.6914 728.395 58.1254C729.77 57.1173 728.487 54.7345 727.02 55.7426C723.538 58.3087 720.055 60.7831 716.573 63.3491C715.106 64.3572 716.481 66.74 717.947 65.7319Z" fill="#3B4045"/>
<path d="M661.953 41.4465C664.702 28.1579 666.81 14.7778 668.093 1.30594C668.276 -0.435314 665.527 -0.435314 665.343 1.30594C664.06 14.5028 662.044 27.6997 659.295 40.7133C658.928 42.4546 661.586 43.1877 661.953 41.4465Z" fill="#3B4045"/>
<path d="M739.026 125.76C763.953 123.469 788.789 121.178 813.717 118.887C815.458 118.703 815.458 115.954 813.717 116.137C788.789 118.428 763.953 120.719 739.026 123.011C737.285 123.102 737.193 125.852 739.026 125.76Z" fill="#3B4045"/>
<path d="M634.275 210.899C649.763 214.289 665.526 214.198 680.923 210.715C682.664 210.349 681.931 207.691 680.19 208.058C665.251 211.448 649.947 211.54 635.009 208.241C633.267 207.874 632.534 210.532 634.275 210.899Z" fill="#3B4045"/>
<path d="M636.567 234.176C648.389 235.734 660.211 236.101 672.125 235.276C673.866 235.184 673.866 232.435 672.125 232.526C660.211 233.351 648.389 232.985 636.567 231.427C634.825 231.243 634.825 233.993 636.567 234.176Z" fill="#3B4045"/>
<path d="M721.705 201.642C740.308 214.747 759.279 227.394 778.524 239.583C779.991 240.499 781.365 238.117 779.899 237.2C760.654 225.011 741.683 212.364 723.079 199.259C721.613 198.251 720.238 200.634 721.705 201.642Z" fill="#3B4045"/>
<path d="M487.552 846.273C470.139 867.627 452.818 888.888 435.406 910.242C455.843 982.091 467.39 1000.97 474.263 999.962C479.212 999.229 481.595 988.507 484.253 976.501C490.851 946.533 486.91 920.781 482.878 904.743C493.875 892.463 504.781 880.09 515.778 867.81C506.339 860.662 496.991 853.513 487.552 846.273Z" fill="#3B4045" stroke="#3B4045" stroke-width="2" stroke-miterlimit="10"/>
<path d="M423.309 736.299C434.214 744.731 444.662 741.706 466.29 745.372C484.711 748.488 505.422 755.362 527.417 769.108C503.956 796.602 480.495 825.653 457.217 856.263C451.627 863.686 446.037 871.109 440.63 878.532C449.611 880.64 460.425 883.94 472.155 889.255C483.611 894.387 492.959 900.161 500.382 905.384C535.299 874.958 566.458 845.54 594.227 817.772C607.057 804.942 625.203 785.329 628.044 757.561C628.227 756.003 628.227 754.628 628.227 753.254C627.585 707.156 569.574 673.797 534.291 661.517C495.708 648.137 429.357 640.897 410.845 672.881C399.939 691.76 406.354 723.194 423.309 736.299Z" fill="#EB306E"/>
<path opacity="0.26" d="M491.034 690.202C490.393 698.908 488.835 709.264 485.627 720.719C483.336 728.876 480.586 736.116 477.837 742.256C474.813 743.447 471.88 744.639 468.856 745.83C488.56 753.62 508.355 761.41 528.059 769.2C513.395 785.971 498.641 803.567 483.794 821.896C468.489 840.774 453.918 859.287 440.079 877.524C449.885 880.732 459.6 883.939 469.406 887.055C504.506 848.381 539.606 809.615 574.706 770.941C578.372 760.402 578.188 752.154 577.089 746.38C572.048 718.153 537.498 695.15 491.034 690.202Z" fill="#6D6C6C"/>
<path opacity="0.23" d="M527.876 769.017C531.083 773.874 534.199 778.823 537.407 783.68C510.096 816.58 482.786 849.389 455.476 882.29C450.619 881.007 445.67 879.632 440.813 878.349C458.317 854.338 477.196 829.686 497.633 804.85C507.805 792.478 517.886 780.564 527.876 769.017Z" fill="#6D6C6C"/>
<path d="M436.688 811.449C463.724 816.398 490.851 821.255 517.886 826.204C549.137 894.388 552.619 916.382 546.754 920.14C542.538 922.797 533.74 916.199 523.934 908.776C499.374 890.172 485.718 867.994 478.295 853.056C461.982 850.856 445.67 848.565 429.357 846.366C431.739 834.727 434.214 823.088 436.688 811.449Z" fill="#3B4045" stroke="#3B4045" stroke-width="2" stroke-miterlimit="10"/>
<path d="M380.968 659.593C331.663 674.073 301.604 704.132 282.267 723.927C256.148 750.779 224.072 783.68 233.328 807.966C238.094 820.338 252.574 827.945 320.024 839.675C370.979 848.565 415.152 853.33 449.61 855.988C453.918 840.225 458.225 824.554 462.441 808.791C427.799 797.61 393.249 786.521 358.607 775.34C379.869 770.85 402.23 765.534 425.508 759.028C443.195 754.079 460.058 748.947 476.096 743.539C490.942 713.572 494.15 681.221 478.662 662.892C457.034 637.231 408.553 651.436 380.968 659.593Z" fill="#EB306E"/>
<path opacity="0.29" d="M490.667 691.302C490.209 700.375 488.651 712.014 484.436 724.844C481.869 732.634 478.937 739.415 476.004 745.006C473.53 745.189 471.055 745.464 468.581 745.647C447.686 752.521 425.416 759.027 401.863 765.076C386.65 769.017 371.804 772.408 357.415 775.524C392.149 786.429 426.882 797.243 461.616 808.149C460.883 811.907 459.966 815.847 458.867 819.971C457.583 824.737 456.117 829.136 454.742 833.168C406.812 821.346 358.882 809.524 310.951 797.702C308.752 795.044 301.512 785.421 302.612 772.683C303.803 758.844 317 749.038 333.863 740.057C382.618 714.213 464.365 696.709 490.667 691.302Z" fill="#6D6C6C"/>
<path opacity="0.24" d="M332.763 777.448C341.469 776.806 350.267 776.165 358.973 775.432C393.157 786.796 427.341 798.251 461.524 809.615C460.058 815.022 458.592 820.521 457.125 825.928C415.702 809.707 374.187 793.577 332.763 777.448Z" fill="#6D6C6C"/>
<path d="M368.046 451.924C381.61 443.951 405.163 432.587 436.505 429.288C484.527 424.248 521.369 441.477 535.94 449.267C533.282 485.283 529.158 514.06 525.859 533.855C521.918 557.5 518.711 570.605 517.244 592.325C515.412 619.543 517.703 641.905 519.811 656.568C503.864 661.517 479.762 666.924 450.069 666.282C421.475 665.641 398.381 659.409 382.893 654.002C387.017 621.193 385.642 595.166 383.626 577.478C381.335 557.774 378.219 548.152 374.462 524.324C369.604 493.531 368.321 468.329 368.046 451.924Z" fill="white" stroke="#3B4045" stroke-width="2" stroke-miterlimit="10"/>
<path opacity="0.14" d="M467.206 440.194C469.131 447.159 471.33 456.782 472.796 468.329C473.805 476.119 477.929 511.402 465.098 557.958C457.217 586.643 448.877 616.977 421.567 641.905C412.769 649.97 404.246 655.377 398.014 658.767C411.853 662.342 429.907 665.732 451.26 665.916C479.212 666.191 502.306 661.15 518.344 656.201C517.428 649.328 516.236 638.972 515.778 626.508C515.411 615.603 515.411 598.19 522.926 549.16C528.883 510.577 533.099 493.99 535.207 459.073C535.482 455.041 535.573 451.65 535.757 449.359C529.067 445.418 520.36 441.11 509.638 437.628C499.74 434.42 490.851 432.771 483.519 432.038C478.204 434.695 472.705 437.445 467.206 440.194Z" fill="#6D6C6C"/>
<path opacity="0.17" d="M533.099 464.296C527.967 493.348 521.185 516.809 515.87 533.122C500.29 580.777 489.384 612.853 459.966 636.314C441.729 650.886 422.758 657.026 410.57 659.959C422.942 663.441 440.446 666.832 461.616 666.374C485.993 665.824 505.697 660.325 518.619 655.651C516.878 644.471 514.862 627.699 515.412 607.263C516.053 580.777 520.36 564.831 525.126 535.78C527.784 518.734 531.174 494.356 533.099 464.296Z" fill="#6D6C6C"/>
<path d="M367.497 451.466C355.583 459.714 340.278 472.728 326.898 492.065C296.747 535.871 297.571 582.335 298.763 599.473C304.261 614.228 313.701 633.565 330.197 652.536C339.82 663.625 353.933 679.571 378.036 689.835C386.101 693.318 393.157 695.242 398.289 696.342C402.688 692.401 406.996 688.46 411.395 684.52C397.281 668.024 383.076 650.703 368.871 632.832C357.965 619.177 347.518 605.613 337.437 592.233C337.804 580.961 340.186 560.524 352.467 539.171C359.432 527.073 367.588 518.276 374.095 512.319C371.896 492.065 369.696 471.812 367.497 451.466Z" fill="white" stroke="#3B4045" stroke-width="2" stroke-miterlimit="10"/>
<path opacity="0.13" d="M369.238 471.903C342.844 501.687 330.289 529.914 324.057 547.693C313.151 578.486 315.442 594.616 317.092 602.314C318.467 608.362 321.491 618.718 332.58 634.481C342.203 648.136 362.456 672.605 401.039 692.767C404.43 689.468 407.82 686.261 411.211 682.961C400.306 670.681 389.308 657.759 378.219 644.287C363.648 626.6 350.084 609.187 337.529 592.141C337.895 582.885 339.453 569.963 344.86 555.483C353.017 533.763 365.847 519.467 373.82 511.86C372.171 498.572 370.704 485.283 369.238 471.903Z" fill="#6D6C6C"/>
<path opacity="0.16" d="M337.437 593.333C339.087 604.055 342.477 617.71 349.626 632.465C365.389 664.541 390.041 682.228 402.597 689.926C405.071 687.727 407.454 685.619 409.928 683.42C385.734 653.36 361.631 623.3 337.437 593.333Z" fill="#6D6C6C"/>
<path d="M537.315 449.817C550.695 457.973 567.924 470.712 582.862 489.682C616.771 532.664 615.763 578.303 614.48 595.166C608.248 609.646 597.709 628.616 579.197 647.312C568.382 658.126 552.528 673.797 525.493 683.97C516.42 687.361 508.447 689.285 502.673 690.385C497.816 686.536 492.867 682.687 488.01 678.838C503.773 662.617 519.811 645.662 535.757 628.067C547.946 614.595 559.676 601.306 571.04 588.201C570.582 577.204 568.016 557.133 554.177 536.055C546.296 524.141 537.223 515.526 529.892 509.661C532.458 489.682 534.932 469.796 537.315 449.817Z" fill="white" stroke="#3B4045" stroke-width="2" stroke-miterlimit="10"/>
<path opacity="0.16" d="M536.673 472.086C548.312 484.275 564.167 503.796 576.539 531.014C582.404 543.936 591.935 564.923 592.118 584.718C592.76 644.929 507.53 686.353 502.581 688.735C497.724 685.619 492.959 682.595 488.101 679.479C515.686 649.236 543.18 618.993 570.765 588.751C570.215 578.853 567.924 560.432 556.927 540.82C547.854 524.691 536.582 514.243 529.158 508.47C531.724 496.372 534.199 484.275 536.673 472.086Z" fill="#6D6C6C"/>
<path opacity="0.12" d="M571.682 589.026C570.307 596.999 568.016 605.705 564.442 614.686C548.312 655.377 515.687 677.647 499.191 687.178C495.25 684.612 491.401 682.046 487.46 679.479C515.503 649.328 543.547 619.177 571.682 589.026Z" fill="#6D6C6C"/>
<path d="M558.393 595.807H333.038V738.498H558.393V595.807Z" fill="white" stroke="#3B4045" stroke-width="2" stroke-miterlimit="10"/>
<path d="M442.462 680.762C430.549 682.228 424.775 667.749 427.891 658.126C430.915 648.595 442.187 644.104 451.352 647.403C460.425 650.703 464.824 661.792 461.616 670.681C458.042 680.579 445.578 684.611 436.414 680.212C434.856 679.479 433.39 681.862 435.039 682.595C443.196 686.536 453.185 685.069 459.692 678.654C466.015 672.331 466.932 662.341 462.991 654.552C454.01 636.773 426.241 642.454 424.317 661.975C423.309 672.422 430.824 684.978 442.462 683.603C444.204 683.328 444.204 680.579 442.462 680.762Z" fill="#3B4045"/>
<path opacity="0.14" d="M417.627 595.441C448.144 606.072 468.948 633.29 469.589 662.525C470.414 699.183 439.621 733.642 397.648 737.124C451.077 737.582 504.506 738.04 558.027 738.499C557.843 690.66 557.752 642.821 557.569 595.074C510.921 595.074 464.274 595.258 417.627 595.441Z" fill="#6D6C6C"/>
<path opacity="0.26" d="M558.027 594.982C557.202 624.126 551.428 646.853 546.571 661.792C539.423 683.512 534.291 699.366 519.536 713.388C499.465 732.633 474.446 736.207 463.449 737.124C494.7 737.399 525.951 737.674 557.202 738.04C557.293 710.822 557.477 683.603 557.66 656.293C557.66 635.856 557.843 615.419 558.027 594.982Z" fill="#6D6C6C"/>
<path d="M439.071 377.967C434.031 384.108 438.888 391.622 437.972 411.693C437.513 421.682 435.864 429.747 434.581 435.154C438.888 437.17 446.495 440.011 456.301 440.286C468.398 440.561 477.562 436.804 482.053 434.604C480.037 430.572 477.379 424.34 475.729 416.275C471.605 395.747 478.937 386.124 472.888 378.517C465.832 369.719 445.853 369.628 439.071 377.967Z" fill="white" stroke="#3B4045" stroke-width="2" stroke-miterlimit="10"/>
<path d="M407.087 289.805C401.314 304.651 403.513 318.032 404.796 323.805C404.246 323.897 393.524 326.188 390.591 334.436C387.659 342.776 393.707 354.598 406.354 358.447C410.936 369.628 422.025 391.256 445.395 403.078C449.336 405.003 453.093 406.561 456.851 407.66C460.241 406.377 464.824 404.361 470.047 401.337C486.36 391.897 495.433 380.167 497.541 377.326C501.39 372.194 506.614 363.946 510.28 352.582C512.296 352.948 515.87 353.132 519.353 351.39C527.234 347.358 531.175 334.803 525.676 326.646C521.094 319.864 512.204 319.59 511.104 319.59C512.296 314.824 515.962 297.686 506.706 280.732C496.075 261.212 473.255 250.947 451.81 253.88C420.101 258.004 407.637 288.339 407.087 289.805Z" fill="white" stroke="#3B4045" stroke-width="2" stroke-miterlimit="10"/>
<path d="M437.88 402.253C443.471 405.553 449.611 410.685 456.484 410.135C462.166 409.677 468.49 406.377 472.797 402.895C474.172 401.795 472.247 399.871 470.872 400.97C466.84 404.178 460.333 407.569 455.018 407.477C449.427 407.386 443.745 402.712 439.163 399.871C437.789 398.954 436.414 401.337 437.88 402.253Z" fill="#3B4045"/>
<path d="M437.513 403.444C442.737 407.935 448.694 412.976 456.026 412.609C463.174 412.242 469.864 407.477 474.538 402.345C475.729 401.062 473.805 399.137 472.613 400.42C468.581 404.819 462.899 409.126 456.667 409.768C449.794 410.409 444.295 405.736 439.438 401.52C438.155 400.329 436.23 402.253 437.513 403.444Z" fill="#3B4045"/>
<path d="M440.996 403.995C440.996 403.903 440.996 403.903 440.996 403.995C440.446 403.17 439.438 402.987 438.796 403.628C438.796 403.628 438.796 403.628 438.705 403.72C438.155 404.178 438.155 405.186 438.705 405.645C448.786 415.267 467.298 418.383 474.538 403.628C475.271 402.07 472.98 400.604 472.155 402.254C465.74 415.451 449.519 412.243 440.721 403.72C440.721 404.362 440.721 405.003 440.721 405.645C440.721 405.645 440.721 405.645 440.812 405.553C440.079 405.461 439.346 405.37 438.613 405.278V405.37C439.529 406.836 441.912 405.461 440.996 403.995Z" fill="#3B4045"/>
<path d="M451.993 319.223C450.802 334.069 451.444 348.824 453.826 363.487C453.918 364.22 454.834 364.679 455.476 364.404C459.05 363.212 461.616 361.105 463.541 357.897C464.457 356.339 462.074 354.964 461.158 356.522C459.6 359.18 457.675 360.738 454.743 361.746C455.293 362.021 455.842 362.388 456.392 362.663C454.01 348.274 453.46 333.703 454.651 319.131C454.926 317.39 452.177 317.39 451.993 319.223Z" fill="#3B4045"/>
<path d="M435.681 333.794C435.864 334.619 437.238 339.751 435.681 340.576C434.123 341.401 429.724 338.101 428.349 333.794C427.249 330.128 428.166 325.546 429.907 325.18C431.74 324.721 434.581 329.762 435.681 333.794Z" fill="#3B4045" stroke="#3B4045" stroke-miterlimit="10"/>
<path d="M482.97 333.794C483.153 334.619 484.528 339.751 482.97 340.576C481.412 341.401 477.013 338.101 475.638 333.794C474.538 330.128 475.455 325.546 477.196 325.18C479.029 324.721 481.87 329.762 482.97 333.794Z" fill="#3B4045" stroke="#3B4045" stroke-miterlimit="10"/>
<path d="M448.694 375.585C459.875 380.351 470.048 373.66 478.296 366.421C479.67 365.229 477.654 363.305 476.371 364.496C469.223 370.728 460.058 377.418 450.161 373.202C448.419 372.561 447.045 374.944 448.694 375.585Z" fill="#3B4045"/>
<path d="M480.953 348.366C482.694 348.366 482.694 345.617 480.953 345.617C479.212 345.617 479.212 348.366 480.953 348.366Z" fill="#3B4045"/>
<path d="M491.126 343.233C491.218 343.142 491.309 343.05 491.401 342.959C491.951 342.409 491.951 341.584 491.401 341.034C490.851 340.484 490.026 340.484 489.476 341.034C489.385 341.126 489.293 341.217 489.201 341.309C488.652 341.859 488.652 342.684 489.201 343.233C489.751 343.783 490.576 343.783 491.126 343.233Z" fill="#3B4045"/>
<path d="M488.102 349.924C488.193 349.924 488.285 349.924 488.377 349.924C489.11 349.924 489.751 349.283 489.751 348.549C489.751 347.816 489.11 347.175 488.377 347.175C488.285 347.175 488.193 347.175 488.102 347.175C487.369 347.175 486.727 347.816 486.727 348.549C486.727 349.283 487.277 349.924 488.102 349.924Z" fill="#3B4045"/>
<path d="M424.866 317.39C428.349 314.457 433.481 314.365 436.963 317.206C438.338 318.306 440.263 316.382 438.888 315.282C434.122 311.433 427.524 311.433 422.85 315.465C421.567 316.565 423.583 318.489 424.866 317.39Z" fill="#3B4045"/>
<path d="M469.589 316.382C473.53 312.9 479.12 312.258 483.794 314.732C485.352 315.557 486.727 313.174 485.169 312.35C479.395 309.234 472.522 310.059 467.665 314.457C466.29 315.649 468.214 317.573 469.589 316.382Z" fill="#3B4045"/>
<path d="M425.6 348.091C427.341 348.091 427.341 345.341 425.6 345.341C423.858 345.341 423.858 348.091 425.6 348.091Z" fill="#3B4045"/>
<path d="M435.314 346.808C437.055 346.808 437.055 344.059 435.314 344.059C433.573 344.059 433.573 346.808 435.314 346.808Z" fill="#3B4045"/>
<path d="M430.457 348.916C430.365 349.008 430.274 349.1 430.182 349.191C429.632 349.741 429.632 350.566 430.182 351.116C430.732 351.666 431.557 351.666 432.106 351.116C432.198 351.024 432.29 350.933 432.381 350.841C432.931 350.291 432.931 349.466 432.381 348.916C431.832 348.366 431.007 348.366 430.457 348.916Z" fill="#3B4045"/>
<path d="M422.025 260.02C416.527 263.411 404.521 270.834 396.365 286.047C388.208 301.169 388.3 315.465 388.667 321.606C375.286 345.708 369.238 366.97 366.305 381.45C361.54 404.453 364.106 412.884 367.405 418.474C375.47 432.221 391.691 435.612 395.632 436.437C415.885 440.744 432.015 430.388 435.68 428.005C436.689 424.981 437.697 421.224 438.247 417.008C439.255 409.768 438.705 403.536 437.88 399.046C433.298 395.288 427.982 390.248 422.85 383.649C415.06 373.568 410.661 363.671 408.187 356.522C400.122 355.697 394.074 350.199 393.524 344.059C392.974 338.285 397.006 330.862 402.322 330.862C406.262 330.862 409.103 334.894 409.653 335.627C412.678 333.886 416.893 330.862 420.651 326.096C426.058 319.223 426.974 313.083 429.449 306.667C431.831 300.436 436.414 291.821 446.311 282.84C455.842 286.231 463.449 289.53 468.673 292.004C485.444 299.794 494.975 304.376 502.398 314.366C506.522 319.864 508.63 325.271 509.73 328.662C518.253 322.155 521.735 323.897 522.468 324.263C527.875 327.288 527.692 343.875 519.261 348.458C516.053 350.199 512.387 349.741 510.096 349.191C507.439 358.447 501.573 373.568 488.101 386.948C483.611 391.439 479.029 394.922 474.905 397.579C474.538 400.97 474.355 405.644 475.271 411.143C476.096 416.183 477.562 420.307 478.937 423.24C501.207 437.903 528.883 435.245 543.913 419.482C557.293 405.369 557.293 384.016 552.253 369.444C547.671 356.156 538.781 348.183 534.382 344.7C535.574 339.568 542.172 309.142 523.018 281.19C518.069 273.95 504.231 256.446 479.304 250.397C452.91 243.982 431.19 254.43 422.025 260.02Z" fill="#00CB77"/>
<path opacity="0.17" d="M480.128 297.686C490.484 310.7 493.234 322.705 494.15 328.937C497.907 355.147 482.694 376.409 474.996 387.315C468.673 396.204 462.166 402.528 457.492 406.652C461.524 417.466 465.465 428.189 469.497 439.003C473.622 437.628 477.746 436.253 481.87 434.879C479.945 431.488 477.929 427.272 476.371 422.14C473.53 412.975 473.347 404.911 473.622 399.412C478.662 395.838 484.527 390.981 490.209 384.566C501.573 371.735 507.255 358.538 510.188 349.649C512.021 350.015 515.962 350.474 519.719 348.366C527.6 343.875 526.317 332.694 526.226 331.961C525.951 329.579 525.401 325.729 522.652 324.171C519.444 322.43 514.129 324.08 509.913 329.029C508.63 324.538 504.964 314.182 495.066 305.934C489.568 301.352 483.977 298.969 480.128 297.686Z" fill="#6D6C6C"/>
<path opacity="0.19" d="M453.276 320.048C452.726 319.956 450.894 327.929 445.303 363.121C448.511 363.121 451.718 363.121 454.926 363.121C454.284 358.447 453.551 351.665 453.185 343.417C452.726 329.304 453.826 320.139 453.276 320.048Z" fill="#6D6C6C"/>
<path opacity="0.54" d="M533.832 345.617C532.274 346.533 538.14 354.415 537.315 366.145C537.04 369.811 536.49 378.151 529.892 383.741C529.433 384.108 519.627 392.172 509.913 387.04C504.139 384.016 500.657 377.601 500.84 370.636C498.091 375.768 493.6 382.55 486.543 389.148C482.145 393.272 477.837 396.296 474.08 398.588C473.805 402.62 473.805 408.119 475.271 414.35C476.096 417.741 477.104 420.674 478.112 423.057C480.953 424.89 485.169 427.364 490.668 429.289C494.15 430.48 513.304 437.17 531.999 427.914C535.299 426.264 542.63 422.507 547.946 414.442C548.587 413.434 550.97 409.86 552.711 403.811C558.943 383.099 549.779 364.404 548.954 362.846C543.913 352.673 535.757 344.517 533.832 345.617Z" fill="#00AE77"/>
<path opacity="0.35" d="M408.095 356.889C407.271 356.98 409.103 364.495 407.087 371.918C405.621 377.417 400.947 386.398 392.974 388.231C384.634 390.064 374.278 383.924 369.513 372.468C367.313 377.509 364.381 385.574 363.923 395.838C363.648 402.528 363.281 409.676 366.58 416.733C374.003 432.496 395.815 438.636 412.036 437.17C422.85 436.162 431.007 431.946 435.406 429.105C436.505 425.989 437.605 422.232 438.338 417.924C439.53 410.501 439.255 403.994 438.613 399.229C431.373 394.005 426.424 388.598 423.308 384.657C418.91 379.067 412.953 371.552 409.928 361.104C409.47 359.913 408.645 356.797 408.095 356.889Z" fill="#00AE77"/>
</svg>
