<svg width="40" height="40" viewBox="0 0 40 40" fill="none" xmlns="http://www.w3.org/2000/svg">
<path d="M2.50003 21.6838C2.50003 20.6838 2.98336 19.1338 5.4167 17.6505L10.1667 14.7171C10.6334 14.4338 11.0834 13.5671 11.05 13.0338L10.7667 7.46708C10.6 4.13374 11.9834 2.96716 12.8167 2.55049C13.65 2.13383 15.4334 1.76709 17.9667 3.93375L21.8 7.23382C22.2 7.56716 23.0667 7.75044 23.5667 7.60044L28.95 5.91709C31.65 5.06709 33.1 6.0171 33.7333 6.65043C34.3667 7.28376 35.2834 8.75044 34.3834 11.4504L32.7667 16.3671C32.6167 16.8171 32.75 17.6505 33.0167 18.0338L36.7167 23.1672C38.4167 25.5172 37.9667 27.2171 37.55 28.0004C37.1334 28.7838 36 30.1171 33.1 30.0671L26.7834 29.9504C26.3167 29.9337 25.55 30.3171 25.2667 30.6837L22.1334 34.8171C20.4167 37.0671 18.7 37.1505 17.8167 37.0005C16.9334 36.8505 15.3334 36.1838 14.5001 33.4838L12.8167 28.1004C12.6667 27.6004 12.0167 26.9838 11.5167 26.8504L6.6167 25.5672C3.40003 24.7172 2.68336 23.0505 2.55003 22.1171C2.5167 22.0005 2.50003 21.8505 2.50003 21.6838ZM13.55 13.0837C13.55 14.5171 12.6834 16.1004 11.4834 16.8337L6.73338 19.7671C5.36671 20.6004 4.95005 21.3504 5.01671 21.7504C5.06671 22.1338 5.70002 22.7338 7.23336 23.1505L12.1334 24.4337C13.4667 24.7837 14.7833 26.0337 15.1833 27.3504L16.8667 32.7338C17.1834 33.7671 17.7 34.4337 18.2334 34.5337C18.7667 34.6337 19.4667 34.1671 20.1333 33.3004L23.2667 29.1671C24.0333 28.1504 25.5667 27.4171 26.8334 27.4338L33.1501 27.5505C34.2667 27.5672 35.1 27.3005 35.35 26.8172C35.6 26.3338 35.35 25.5171 34.7 24.6005L31 19.4671C30.2667 18.4504 30 16.7671 30.4 15.5505L32.0167 10.6338C32.35 9.60045 32.3334 8.76716 31.9501 8.38383C31.5667 8.00049 30.7334 7.96706 29.7 8.28373L24.3167 9.96708C23 10.3837 21.2167 10.0171 20.1833 9.11706L16.35 5.81709C15.1334 4.76709 14.2833 4.60044 13.9333 4.78377C13.5833 4.95044 13.2 5.75048 13.2834 7.33382L13.5667 12.9004C13.5501 12.9671 13.55 13.0337 13.55 13.0837Z" fill="#3B4045"/>
<path d="M2.08332 36.5164C2.08332 36.1997 2.19999 35.8831 2.44999 35.6331L7.49999 30.583C7.98332 30.0997 8.78332 30.0997 9.26665 30.583C9.74998 31.0664 9.74998 31.8663 9.26665 32.3497L4.21665 37.3997C3.73332 37.8831 2.93332 37.8831 2.44999 37.3997C2.19999 37.1497 2.08332 36.833 2.08332 36.5164Z" fill="#3B4045"/>
</svg>
