<svg width="32" height="33" viewBox="0 0 32 33" fill="none" xmlns="http://www.w3.org/2000/svg">
<path d="M24.7374 22.7331C24.535 22.9354 24.2581 23.0633 23.9385 23.0633C23.3207 23.0633 22.8094 22.552 22.8094 21.9341L22.8094 10.1313L11.0066 10.1313C10.3888 10.1313 9.87744 9.62003 9.87744 9.0022C9.87744 8.38436 10.3888 7.87305 11.0066 7.87305L23.9385 7.87305C24.5564 7.87305 25.0677 8.38436 25.0677 9.0022L25.0677 21.9341C25.0677 22.2537 24.9398 22.5307 24.7374 22.7331Z" fill="#3B4045"/>
<path d="M24.5566 9.98238L6.62871 27.9103C6.19196 28.347 5.4676 28.347 5.03086 27.9103C4.59411 27.4735 4.59411 26.7491 5.03086 26.3124L22.9587 8.38453C23.3955 7.94778 24.1198 7.94778 24.5566 8.38453C24.9933 8.82127 24.9933 9.54563 24.5566 9.98238Z" fill="#3B4045"/>
</svg>
