<svg width="40" height="40" viewBox="0 0 40 40" fill="none" xmlns="http://www.w3.org/2000/svg">
<path d="M19.1667 36.2499C9.75004 36.2499 2.08337 28.5833 2.08337 19.1666C2.08337 9.74992 9.75004 2.08325 19.1667 2.08325C28.5834 2.08325 36.25 9.74992 36.25 19.1666C36.25 28.5833 28.5834 36.2499 19.1667 36.2499ZM19.1667 4.58325C11.1167 4.58325 4.58337 11.1333 4.58337 19.1666C4.58337 27.1999 11.1167 33.7499 19.1667 33.7499C27.2167 33.7499 33.75 27.1999 33.75 19.1666C33.75 11.1333 27.2167 4.58325 19.1667 4.58325Z" fill="#3B4045"/>
<path d="M36.6667 37.9166C36.35 37.9166 36.0334 37.7999 35.7834 37.5499L32.45 34.2166C31.9667 33.7332 31.9667 32.9332 32.45 32.4499C32.9334 31.9666 33.7334 31.9666 34.2167 32.4499L37.55 35.7832C38.0334 36.2666 38.0334 37.0666 37.55 37.5499C37.3 37.7999 36.9834 37.9166 36.6667 37.9166Z" fill="#3B4045"/>
</svg>
