<svg width="40" height="40" viewBox="0 0 40 40" fill="none" xmlns="http://www.w3.org/2000/svg">
<path d="M18.8277 36.0138L18.8277 36.0138L18.8228 36.0112C15.6539 34.2826 10.1128 32.4631 6.61661 32.0045C6.61608 32.0045 6.61555 32.0044 6.61502 32.0043L6.13503 31.9381L6.13504 31.9381L6.12733 31.9371C4.19821 31.7015 2.58337 29.8675 2.58337 27.9001V7.76676C2.58337 6.58536 3.04473 5.52122 3.88702 4.75281C4.73283 3.98119 5.82747 3.61055 6.98868 3.71476L6.98868 3.7148L6.99485 3.71527C10.5801 3.99232 16.0356 5.7996 19.1009 7.72359L19.1078 7.7279L19.1148 7.73198L19.5148 7.96532L19.5148 7.96533L19.5186 7.96755C19.6836 8.06181 19.8738 8.08256 19.9947 8.08538C20.1118 8.0881 20.2975 8.07703 20.457 7.99731L20.4782 7.98668L20.4984 7.97409L20.765 7.80743L20.7659 7.80692C23.8267 5.88577 29.2683 4.04857 32.8717 3.73343H32.8719H32.8722H32.8726H32.8729H32.8733H32.8736H32.874H32.8744H32.8747H32.8751H32.8754H32.8758H32.8762H32.8765H32.8769H32.8773H32.8776H32.878H32.8784H32.8788H32.8791H32.8795H32.8799H32.8803H32.8807H32.8811H32.8814H32.8818H32.8822H32.8826H32.883H32.8834H32.8838H32.8842H32.8846H32.885H32.8854H32.8858H32.8862H32.8866H32.887H32.8874H32.8878H32.8882H32.8886H32.889H32.8894H32.8898H32.8903H32.8907H32.8911H32.8915H32.8919H32.8923H32.8928H32.8932H32.8936H32.894H32.8944H32.8949H32.8953H32.8957H32.8962H32.8966H32.897H32.8974H32.8979H32.8983H32.8987H32.8992H32.8996H32.9001H32.9005H32.9009H32.9014H32.9018H32.9023H32.9027H32.9031H32.9036H32.904H32.9045H32.9049H32.9054H32.9058H32.9063H32.9067H32.9072H32.9076H32.9081H32.9085H32.909H32.9095H32.9099H32.9104H32.9108H32.9113H32.9117H32.9122H32.9127H32.9131H32.9136H32.914H32.9145H32.915H32.9154H32.9159H32.9164H32.9168H32.9173H32.9178H32.9182H32.9187H32.9192H32.9197H32.9201H32.9206H32.9211H32.9215H32.922H32.9225H32.923H32.9234H32.9239H32.9244H32.9249H32.9253H32.9258H32.9263H32.9268H32.9272H32.9277H32.9282H32.9287H32.9292H32.9296H32.9301H32.9306H32.9311H32.9316H32.9321H32.9325H32.933H32.9335H32.934H32.9345H32.9349H32.9354H32.9359H32.9364H32.9369H32.9374H32.9379H32.9383H32.9388H32.9393H32.9398H32.9403H32.9408H32.9413H32.9417H32.9422H32.9427H32.9432H32.9437H32.9442H32.9447H32.9452H32.9456H32.9461H32.9466H32.9471H32.9476H32.9481H32.9486H32.9491H32.9496H32.95H32.9505H32.951H32.9515H32.952H32.9525H32.953H32.9535H32.9539H32.9544H32.9549H32.9554H32.9559H32.9564H32.9569H32.9574H32.9578H32.9583H32.9588H32.9593H32.9598H32.9603H32.9608H32.9613H32.9617H32.9622H32.9627H32.9632H32.9637H32.9642H32.9646H32.9651H32.9656H32.9661H32.9666H32.9671H32.9676H32.968H32.9685H32.969H32.9695H32.97H32.9704H32.9709H32.9714H32.9719H32.9724H32.9728H32.9733H32.9738H32.9743H32.9747H32.9752H32.9757H32.9762H32.9766H32.9771H32.9776H32.9781H32.9785H32.979H32.9795H32.98H32.9804H32.9809H32.9814H32.9818H32.9823H32.9828H32.9832H32.9837H32.9842H32.9846H32.9851H32.9856H32.986H32.9865H32.987H32.9874H32.9879H32.9883H32.9888H32.9893H32.9897H32.9902H32.9906H32.9911H32.9915H32.992H32.9924H32.9929H32.9934H32.9938H32.9943H32.9947H32.9952H32.9956H32.996H32.9965H32.9969H32.9974H32.9978H32.9983H32.9987H32.9991H32.9996H33H33.0005H33.0009H33.0013H33.0018H33.0022H33.0026H33.0031H33.0035H33.0039H33.0044H33.0048H33.0052H33.0056H33.0061H33.0065H33.0069H33.0073H33.0077H33.0082H33.0086H33.009H33.0094H33.0098H33.0102H33.0107H33.0111H33.0115H33.0119H33.0123H33.0127H33.0131H33.0135H33.0139H33.0143H33.0147H33.0151H33.0155H33.0159H33.0163H33.0167H33.0171H33.0175H33.0179H33.0183H33.0186H33.019H33.0194H33.0198H33.0202H33.0206H33.0209H33.0213H33.0217H33.0221H33.0224H33.0228H33.0232H33.0235H33.0239H33.0243H33.0246H33.025H33.0254H33.0257H33.0261H33.0264H33.0268H33.0272H33.0275H33.0279H33.0282H33.0286H33.0289H33.0292H33.0296H33.0299H33.0303H33.0306H33.0309H33.0313H33.0316H33.0319H33.0323H33.0326H33.0329H33.0332H33.0336H33.0339H33.0342H33.0345H33.0348H33.0352H33.0355H33.0358H33.0361H33.0364H33.0367H33.037H33.0373H33.0376H33.0379H33.0382H33.0385H33.0388H33.0391H33.0394H33.0396H33.0399H33.0402H33.0405H33.0408H33.041H33.0413H33.0416H33.0419H33.0421H33.0424H33.0427H33.0429H33.0432H33.0435H33.0437H33.044H33.0442H33.0445H33.0447H33.045H33.0452H33.0455H33.0457H33.0459H33.0462H33.0464H33.0466H33.0469H33.0471H33.0473H33.0475H33.0478H33.048H33.0482H33.0484H33.0486H33.0488H33.049H33.0492H33.0494H33.0496H33.0498H33.05H33.074L33.0978 3.73114C34.1664 3.62867 35.2767 4.00953 36.1098 4.78317L36.1131 4.78614C36.9554 5.55456 37.4167 6.61869 37.4167 7.80009V27.9168C37.4167 29.8987 35.8041 31.7177 33.8565 31.9537L33.3065 32.0204L33.3065 32.0204L33.3017 32.021C29.8056 32.4792 24.2457 34.3159 21.1418 36.029L21.1417 36.0289L21.1314 36.0349C20.8279 36.2119 20.438 36.3001 20 36.3001C19.5739 36.3001 19.1601 36.2 18.8277 36.0138ZM4.89624 5.86419L4.89624 5.86418L4.89485 5.86546C4.36867 6.34955 4.08337 7.03615 4.08337 7.76676V27.9001C4.08337 28.534 4.35497 29.1308 4.75148 29.5822C5.14758 30.0331 5.70072 30.3759 6.31388 30.4619L6.31729 30.4624L6.81729 30.529C10.5062 31.0209 16.1975 32.8849 19.4774 34.6725L19.4952 34.6821L19.5136 34.6903C19.6487 34.7504 19.7947 34.7812 19.917 34.7934C20.0169 34.8034 20.1935 34.8112 20.3524 34.7477L20.3817 34.7359L20.4093 34.7206C23.6862 32.902 29.4068 31.0222 33.1122 30.5296L33.6751 30.4633L33.6777 30.463C34.2976 30.3869 34.8537 30.0405 35.2495 29.5874C35.6458 29.1337 35.9167 28.5331 35.9167 27.9001V7.78343C35.9167 7.03198 35.6288 6.36796 35.113 5.87273L35.1056 5.86568L35.098 5.85893C34.5626 5.3853 33.8864 5.16375 33.1538 5.20009H33.1537H33.1534H33.1531H33.1528H33.1524H33.1521H33.1518H33.1515H33.1512H33.1509H33.1506H33.1502H33.1499H33.1496H33.1493H33.1489H33.1486H33.1483H33.1479H33.1476H33.1473H33.1469H33.1466H33.1463H33.1459H33.1456H33.1452H33.1449H33.1445H33.1442H33.1438H33.1435H33.1431H33.1428H33.1424H33.142H33.1417H33.1413H33.1409H33.1406H33.1402H33.1398H33.1395H33.1391H33.1387H33.1384H33.138H33.1376H33.1372H33.1368H33.1365H33.1361H33.1357H33.1353H33.1349H33.1345H33.1341H33.1338H33.1334H33.133H33.1326H33.1322H33.1318H33.1314H33.131H33.1306H33.1302H33.1298H33.1294H33.129H33.1286H33.1281H33.1277H33.1273H33.1269H33.1265H33.1261H33.1257H33.1253H33.1248H33.1244H33.124H33.1236H33.1231H33.1227H33.1223H33.1219H33.1215H33.121H33.1206H33.1202H33.1197H33.1193H33.1189H33.1184H33.118H33.1176H33.1171H33.1167H33.1163H33.1158H33.1154H33.1149H33.1145H33.114H33.1136H33.1132H33.1127H33.1123H33.1118H33.1114H33.1109H33.1105H33.11H33.1096H33.1091H33.1087H33.1082H33.1078H33.1073H33.1068H33.1064H33.1059H33.1055H33.105H33.1045H33.1041H33.1036H33.1032H33.1027H33.1022H33.1018H33.1013H33.1008H33.1004H33.0999H33.0994H33.099H33.0985H33.098H33.0976H33.0971H33.0966H33.0962H33.0957H33.0952H33.0947H33.0943H33.0938H33.0933H33.0928H33.0924H33.0919H33.0914H33.0909H33.0905H33.09H33.0895H33.089H33.0885H33.0881H33.0876H33.0871H33.0866H33.0861H33.0857H33.0852H33.0847H33.0842H33.0837H33.0833H33.0828H33.0823H33.0818H33.0813H33.0808H33.0803H33.0799H33.0794H33.0789H33.0784H33.0779H33.0774H33.0769H33.0765H33.076H33.0755H33.075H33.0745H33.074H33.0735H33.0731H33.0726H33.0721H33.0716H33.0711H33.0706H33.0701H33.0696H33.0692H33.0687H33.0682H33.0677H33.0672H33.0667H33.0662H33.0657H33.0652H33.0648H33.0643H33.0638H33.0633H33.0628H33.0623H33.0618H33.0613H33.0609H33.0604H33.0599H33.0594H33.0589H33.0584H33.0579H33.0574H33.057H33.0565H33.056H33.0555H33.055H33.0545H33.054H33.0536H33.0531H33.0526H33.0521H33.0516H33.0511H33.0506H33.0502H33.0497H33.0492H33.0487H33.0482H33.0478H33.0473H33.0468H33.0463H33.0458H33.0454H33.0449H33.0444H33.0439H33.0434H33.043H33.0425H33.042H33.0415H33.0411H33.0406H33.0401H33.0396H33.0392H33.0387H33.0382H33.0377H33.0373H33.0368H33.0363H33.0359H33.0354H33.0349H33.0344H33.034H33.0335H33.033H33.0326H33.0321H33.0316H33.0312H33.0307H33.0303H33.0298H33.0293H33.0289H33.0284H33.028H33.0275H33.027H33.0266H33.0261H33.0257H33.0252H33.0248H33.0243H33.0239H33.0234H33.0229H33.0225H33.022H33.0216H33.0212H33.0207H33.0203H33.0198H33.0194H33.0189H33.0185H33.018H33.0176H33.0172H33.0167H33.0163H33.0159H33.0154H33.015H33.0145H33.0141H33.0137H33.0133H33.0128H33.0124H33.012H33.0115H33.0111H33.0107H33.0103H33.0098H33.0094H33.009H33.0086H33.0082H33.0077H33.0073H33.0069H33.0065H33.0061H33.0057H33.0053H33.0049H33.0045H33.0041H33.0036H33.0032H33.0028H33.0024H33.002H33.0016H33.0012H33.0008H33.0005H33.0001H32.9997H32.9993H32.9989H32.9985H32.9981H32.9977H32.9973H32.997H32.9966H32.9962H32.9958H32.9954H32.9951H32.9947H32.9943H32.9939H32.9936H32.9932H32.9928H32.9925H32.9921H32.9917H32.9914H32.991H32.9907H32.9903H32.99H32.9896H32.9892H32.9889H32.9885H32.9882H32.9879H32.9875H32.9872H32.9868H32.9865H32.9861H32.9858H32.9855H32.9851H32.9848H32.9845H32.9842H32.9838H32.9835H32.9832H32.9829H32.9825H32.9822H32.9819H32.9816H32.9813H32.981H32.9807H32.9804H32.9801H32.9798H32.9795H32.9792H32.9789H32.9786H32.9783H32.978H32.9777H32.9774H32.9771H32.9768H32.9765H32.9763H32.976H32.9757H32.9754H32.9752H32.9749H32.9746H32.9743H32.9741H32.9738H32.9736H32.9733H32.973H32.9728H32.9725H32.9723H32.972H32.9718H32.9715H32.9713H32.9711H32.9708H32.9706H32.9704H32.9701H32.9699H32.9697H32.9694H32.9692H32.969H32.9688H32.9686H32.9683H32.9681H32.9679H32.9677H32.9675H32.9673H32.9671H32.9669H32.9667H32.9445L32.9224 5.20206C31.2773 5.34849 29.1571 5.8609 27.1052 6.55119C25.0529 7.2416 23.0299 8.12304 21.585 9.0261L21.5758 9.03189L21.5668 9.03807L21.3107 9.21415C20.5524 9.67708 19.463 9.67107 18.7477 9.22565L18.7415 9.22184L18.7353 9.2182L18.3402 8.98771C16.8716 8.08676 14.8391 7.211 12.7716 6.52745C10.7024 5.84332 8.56107 5.33947 6.87405 5.20175L6.85375 5.20009H6.83337H6.83298H6.83259H6.8322H6.83181H6.83142H6.83103H6.83064H6.83025H6.82986H6.82947H6.82908H6.82869H6.8283H6.82791H6.82751H6.82712H6.82673H6.82634H6.82595H6.82556H6.82517H6.82478H6.82439H6.824H6.82361H6.82322H6.82283H6.82244H6.82205H6.82166H6.82126H6.82087H6.82048H6.82009H6.8197H6.81931H6.81892H6.81853H6.81814H6.81775H6.81736H6.81697H6.81658H6.81619H6.8158H6.81541H6.81501H6.81462H6.81423H6.81384H6.81345H6.81306H6.81267H6.81228H6.81189H6.8115H6.81111H6.81072H6.81033H6.80994H6.80955H6.80916H6.80876H6.80837H6.80798H6.80759H6.8072H6.80681H6.80642H6.80603H6.80564H6.80525H6.80486H6.80447H6.80408H6.80369H6.8033H6.80291H6.80251H6.80212H6.80173H6.80134H6.80095H6.80056H6.80017H6.79978H6.79939H6.799H6.79861H6.79822H6.79783H6.79744H6.79705H6.79666H6.79626H6.79587H6.79548H6.79509H6.7947H6.79431H6.79392H6.79353H6.79314H6.79275H6.79236H6.79197H6.79158H6.79119H6.7908H6.79041H6.79001H6.78962H6.78923H6.78884H6.78845H6.78806H6.78767H6.78728H6.78689H6.7865H6.78611H6.78572H6.78533H6.78494H6.78455H6.78416H6.78376H6.78337H6.78298H6.78259H6.7822H6.78181H6.78142H6.78103H6.78064H6.78025H6.77986H6.77947H6.77908H6.77869H6.7783H6.77791H6.77751H6.77712H6.77673H6.77634H6.77595H6.77556H6.77517H6.77478H6.77439H6.774H6.77361H6.77322H6.77283H6.77244H6.77205H6.77166H6.77126H6.77087H6.77048H6.77009H6.7697H6.76931H6.76892H6.76853H6.76814H6.76775H6.76736H6.76697H6.76658H6.76619H6.7658H6.76541H6.76501H6.76462H6.76423H6.76384H6.76345H6.76306H6.76267H6.76228H6.76189H6.7615H6.76111H6.76072H6.76033H6.75994H6.75955H6.75916H6.75876H6.75837H6.75798H6.75759H6.7572H6.75681H6.75642H6.75603H6.75564H6.75525H6.75486H6.75447H6.75408H6.75369H6.7533H6.75291H6.75251H6.75212H6.75173H6.75134H6.75095H6.75056H6.75017H6.74978H6.74939H6.749H6.74861H6.74822H6.74783H6.74744H6.74705H6.74666H6.74626H6.74587H6.74548H6.74509H6.7447H6.74431H6.74392H6.74353H6.74314H6.74275H6.74236H6.74197H6.74158H6.74119H6.7408H6.74041H6.74002H6.73962H6.73923H6.73884H6.73845H6.73806H6.73767H6.73728H6.73689H6.7365H6.73611H6.73572H6.73533H6.73494H6.73455H6.73416H6.73376H6.73337H6.73298H6.73259H6.7322H6.73181H6.73142H6.73103H6.73064H6.73025H6.72986H6.72947H6.72908H6.72869H6.7283H6.72791H6.72751H6.72712H6.72673H6.72634H6.72595H6.72556H6.72517H6.72478H6.72439H6.724H6.72361H6.72322H6.72283H6.72244H6.72205H6.72166H6.72126H6.72087H6.72048H6.72009H6.7197H6.71931H6.71892H6.71853H6.71814H6.71775H6.71736H6.71697H6.71658H6.71619H6.7158H6.71541H6.71501H6.71462H6.71423H6.71384H6.71345H6.71306H6.71267H6.71228H6.71189H6.7115H6.71111H6.71072H6.71033H6.70994H6.70955H6.70916H6.70877H6.70837H6.70798H6.70759H6.7072H6.70681H6.70642H6.70603H6.70564H6.70525H6.70486H6.70447H6.70408H6.70369H6.7033H6.70291H6.70251H6.70212H6.70173H6.70134H6.70095H6.70056H6.70017H6.69978H6.69939H6.699H6.69861H6.69822H6.69783H6.69744H6.69705H6.69666H6.69626H6.69587H6.69548H6.69509H6.6947H6.69431H6.69392H6.69353H6.69314H6.69275H6.69236H6.69197H6.69158H6.69119H6.6908H6.69041H6.69001H6.68962H6.68923H6.68884H6.68845H6.68806H6.68767H6.68728H6.68689H6.6865H6.68611H6.68572H6.68533H6.68494H6.68455H6.68416H6.68376H6.68337H6.68298H6.68259H6.6822H6.68181H6.68142H6.68103H6.68064H6.68025H6.67986H6.67947H6.67908H6.67869H6.6783H6.67791H6.67752H6.67712H6.67673H6.67634H6.67595H6.67556H6.67517H6.67478H6.67439H6.674H6.67361H6.67322H6.67283H6.67244H6.67205H6.67166H6.67126H6.67087H6.67048H6.67009H6.6697H6.66931H6.66892H6.66853H6.66814H6.66775H6.66736H6.66697H6.66658H6.66619H6.6658H6.66541H6.66501H6.66462H6.66423H6.66384H6.66345H6.66306H6.66267H6.66228H6.66189H6.6615H6.66111H6.66072H6.66033H6.65994H6.65955H6.65916H6.65876H6.65837H6.65798H6.65759H6.6572H6.65681H6.65642H6.65603H6.65564H6.65525H6.65486H6.65447H6.65408H6.65369H6.6533H6.65291H6.65251H6.65212H6.65173H6.65134H6.65095H6.65056H6.65017H6.64978H6.64939H6.649H6.64861H6.64822H6.64783H6.64744H6.64705H6.64666H6.64627H6.64587H6.64548H6.64509H6.6447H6.64431H6.64392H6.64353H6.64314H6.64275H6.64236H6.64197H6.64158H6.64119H6.6408H6.64041H6.64002H6.63962H6.63923H6.63884H6.63845H6.63806H6.63767H6.63728H6.63689H6.6365H6.63611H6.63572H6.63533H6.63494H6.63455H6.63416H6.63376H6.63337C5.97988 5.20009 5.37504 5.42702 4.89624 5.86419Z" fill="#3B4045" stroke="#3B4045"/>
<path d="M20 34.8999C19.5928 34.8999 19.25 34.5571 19.25 34.1499V9.1499C19.25 8.74271 19.5928 8.3999 20 8.3999C20.4072 8.3999 20.75 8.74271 20.75 9.1499V34.1499C20.75 34.5694 20.4115 34.8999 20 34.8999Z" fill="#3B4045" stroke="#3B4045"/>
<path d="M12.9166 14.8999H9.16663C8.75943 14.8999 8.41663 14.5571 8.41663 14.1499C8.41663 13.7427 8.75943 13.3999 9.16663 13.3999H12.9166C13.3238 13.3999 13.6666 13.7427 13.6666 14.1499C13.6666 14.5571 13.3238 14.8999 12.9166 14.8999Z" fill="#3B4045" stroke="#3B4045"/>
<path d="M14.1666 19.8999H9.16663C8.75943 19.8999 8.41663 19.5571 8.41663 19.1499C8.41663 18.7427 8.75943 18.3999 9.16663 18.3999H14.1666C14.5738 18.3999 14.9166 18.7427 14.9166 19.1499C14.9166 19.5571 14.5738 19.8999 14.1666 19.8999Z" fill="#3B4045" stroke="#3B4045"/>
</svg>
