<svg width="48" height="48" viewBox="0 0 48 48" fill="none" xmlns="http://www.w3.org/2000/svg">
<path d="M28.8602 37.64C28.4802 37.64 28.1002 37.5 27.8002 37.2C27.2202 36.62 27.2202 35.66 27.8002 35.08L38.8802 24L27.8002 12.92C27.2202 12.34 27.2202 11.38 27.8002 10.8C28.3802 10.22 29.3402 10.22 29.9202 10.8L42.0602 22.94C42.6402 23.52 42.6402 24.48 42.0602 25.06L29.9202 37.2C29.6202 37.5 29.2402 37.64 28.8602 37.64Z" fill="#FFFFFE"/>
<path d="M40.66 25.5H7C6.18 25.5 5.5 24.82 5.5 24C5.5 23.18 6.18 22.5 7 22.5H40.66C41.48 22.5 42.16 23.18 42.16 24C42.16 24.82 41.48 25.5 40.66 25.5Z" fill="#FFFFFE"/>
</svg>
