<svg width="40" height="40" viewBox="0 0 40 40" fill="none" xmlns="http://www.w3.org/2000/svg">
<path d="M21.2714 33.2864L21.2714 33.2863L21.2677 33.2842C20.9056 33.0739 20.4288 32.9916 20.0021 32.9916C19.5774 32.9916 19.1017 33.0732 18.7445 33.2868C18.7439 33.2872 18.7433 33.2875 18.7427 33.2879L13.7459 36.236L13.7449 36.2366C12.3323 37.0746 11.2543 37.3009 10.4692 37.2773C9.68844 37.2538 9.15467 36.9818 8.82843 36.7463C8.51138 36.5115 8.09091 36.085 7.83227 35.3471C7.57237 34.6055 7.46189 33.5094 7.83674 31.9143L7.83713 31.9126L9.01958 26.7998C9.11446 26.4147 9.0591 25.9571 8.94698 25.5694C8.83384 25.1781 8.63492 24.7611 8.35355 24.4797L4.22021 20.3464C3.24397 19.3702 2.82261 18.4936 2.66496 17.7906C2.50696 17.0859 2.606 16.5201 2.72524 16.1553C2.84512 15.7886 3.09852 15.27 3.63913 14.7876C4.17831 14.3065 5.02949 13.838 6.38259 13.6097C6.38277 13.6097 6.38294 13.6097 6.38312 13.6097L11.6986 12.7265L11.6989 12.7265C12.0584 12.6666 12.4369 12.4627 12.7381 12.2386C13.0373 12.0159 13.3403 11.7136 13.4986 11.3875L16.447 5.5074L16.4478 5.50578C17.0789 4.23556 17.7896 3.54208 18.4153 3.16302C19.0421 2.78331 19.6154 2.69995 20 2.69995C20.3846 2.69995 20.9579 2.78331 21.5847 3.16302C22.2104 3.54208 22.9211 4.23556 23.5522 5.50578L23.5528 5.50689L26.4861 11.3736L26.4861 11.3736L26.4894 11.3801C26.6549 11.6993 26.9584 11.9994 27.2613 12.223C27.5634 12.4461 27.9417 12.6499 28.3011 12.7098L28.3014 12.7099L33.6173 13.5931C34.9797 13.8214 35.8348 14.2904 36.3734 14.7709C36.9132 15.2526 37.161 15.7691 37.2721 16.1303C37.3856 16.4991 37.4809 17.0676 37.3225 17.7739C37.1645 18.4785 36.7463 19.3554 35.7783 20.3312L31.6464 24.4797C31.6464 24.4798 31.6463 24.4799 31.6462 24.48C31.364 24.7624 31.1695 25.1763 31.0587 25.5651C30.9476 25.955 30.8965 26.405 30.9775 26.787L30.9775 26.7871L30.9795 26.7959L32.1627 31.912C32.1627 31.9121 32.1628 31.9123 32.1628 31.9124C32.5298 33.5083 32.4195 34.6056 32.1611 35.3481C31.9041 36.0865 31.4874 36.5123 31.1719 36.7461C30.8212 36.998 30.2553 37.2833 29.4333 37.2833C28.6598 37.2833 27.6134 37.0355 26.2538 36.2358C26.2537 36.2358 26.2536 36.2357 26.2535 36.2356L21.2714 33.2864ZM30.7045 32.2571L30.7038 32.254L29.5207 27.1384C29.243 25.925 29.7068 24.3161 30.5885 23.4186C30.5889 23.4181 30.5893 23.4177 30.5898 23.4172L34.7202 19.2868C35.1567 18.8503 35.4926 18.3994 35.6969 17.9613C35.8983 17.5294 35.9943 17.0587 35.8618 16.6216L35.862 16.6216L35.8577 16.6085C35.7129 16.1741 35.3622 15.8419 34.9465 15.6036C34.525 15.362 33.9891 15.1884 33.3808 15.0899C33.3805 15.0898 33.3802 15.0898 33.3798 15.0897L28.0666 14.2069C28.0664 14.2069 28.0662 14.2069 28.066 14.2068C27.5174 14.1141 26.9186 13.8405 26.3847 13.4458C25.8507 13.051 25.4132 12.5584 25.1639 12.0597L22.2305 6.19301C21.9464 5.62473 21.6151 5.14726 21.2552 4.80455C20.9024 4.46852 20.4723 4.21662 20 4.21662C19.5276 4.21662 19.0972 4.46853 18.7456 4.80573C18.3878 5.14885 18.0608 5.62653 17.785 6.19523L14.8366 12.0587L14.8361 12.0597C14.5867 12.5584 14.1493 13.051 13.6153 13.4458C13.0814 13.8405 12.4827 14.114 11.9341 14.2068C11.9339 14.2068 11.9337 14.2069 11.9334 14.2069L6.63682 15.0897C6.63644 15.0898 6.63607 15.0898 6.63569 15.0899C6.02745 15.1884 5.49166 15.3621 5.07013 15.6036C4.65443 15.8419 4.30377 16.1741 4.15898 16.6085C4.01072 17.0533 4.11073 17.5354 4.31402 17.9686C4.52081 18.4093 4.86123 18.8602 5.29822 19.2886C5.29885 19.2892 5.29948 19.2898 5.3001 19.2905L9.42977 23.4202C9.85834 23.8487 10.2003 24.4688 10.3965 25.1524C10.5925 25.8358 10.6318 26.5443 10.496 27.1379C10.496 27.1381 10.496 27.1382 10.4959 27.1384L9.31296 32.2535C9.11211 33.118 9.07312 33.8111 9.14633 34.3431C9.217 34.8567 9.40537 35.2992 9.74271 35.5401C10.076 35.7782 10.5497 35.8192 11.0592 35.73C11.5861 35.6377 12.2339 35.3936 13.0007 34.9492L13.0047 34.9469L17.988 31.9969L17.988 31.9969L17.9922 31.9944C18.5342 31.6663 19.2578 31.4833 20 31.4833C20.7406 31.4833 21.4666 31.6656 22.0287 31.9969C22.0289 31.997 22.0291 31.9972 22.0293 31.9973L27.0101 34.9458C27.0106 34.9461 27.011 34.9463 27.0114 34.9466C27.7725 35.4013 28.4224 35.6464 28.9538 35.7366C29.4684 35.824 29.9436 35.7761 30.2739 35.5401C30.6159 35.2959 30.797 34.8435 30.8644 34.3343C30.9348 33.803 30.8965 33.1121 30.7045 32.2571Z" fill="#3B4045" stroke="#3B4045"/>
</svg>
