<svg width="40" height="40" viewBox="0 0 40 40" fill="none" xmlns="http://www.w3.org/2000/svg">
<path d="M26.6667 37.9166H13.3333C7.25 37.9166 3.75 34.4166 3.75 28.3333V11.6666C3.75 5.58325 7.25 2.08325 13.3333 2.08325H26.6667C32.75 2.08325 36.25 5.58325 36.25 11.6666V28.3333C36.25 34.4166 32.75 37.9166 26.6667 37.9166ZM13.3333 4.58325C8.56667 4.58325 6.25 6.89992 6.25 11.6666V28.3333C6.25 33.0999 8.56667 35.4166 13.3333 35.4166H26.6667C31.4333 35.4166 33.75 33.0999 33.75 28.3333V11.6666C33.75 6.89992 31.4333 4.58325 26.6667 4.58325H13.3333Z" fill="#3B4045"/>
<path d="M30.8333 15.4167H27.5C24.9666 15.4167 22.9166 13.3667 22.9166 10.8333V7.5C22.9166 6.81667 23.4833 6.25 24.1666 6.25C24.85 6.25 25.4166 6.81667 25.4166 7.5V10.8333C25.4166 11.9833 26.35 12.9167 27.5 12.9167H30.8333C31.5166 12.9167 32.0833 13.4833 32.0833 14.1667C32.0833 14.85 31.5166 15.4167 30.8333 15.4167Z" fill="#3B4045"/>
<path d="M16.6666 29.5832C16.3499 29.5832 16.0332 29.4666 15.7832 29.2166L12.4499 25.8833C11.9666 25.3999 11.9666 24.5998 12.4499 24.1165L15.7832 20.7832C16.2666 20.2998 17.0666 20.2998 17.5499 20.7832C18.0332 21.2665 18.0332 22.0666 17.5499 22.5499L15.0999 24.9999L17.5499 27.4498C18.0332 27.9332 18.0332 28.7333 17.5499 29.2166C17.2999 29.4666 16.9832 29.5832 16.6666 29.5832Z" fill="#3B4045"/>
<path d="M23.3332 29.5832C23.0166 29.5832 22.6999 29.4666 22.4499 29.2166C21.9666 28.7333 21.9666 27.9332 22.4499 27.4498L24.8999 24.9999L22.4499 22.5499C21.9666 22.0666 21.9666 21.2665 22.4499 20.7832C22.9332 20.2998 23.7332 20.2998 24.2166 20.7832L27.5499 24.1165C28.0332 24.5998 28.0332 25.3999 27.5499 25.8833L24.2166 29.2166C23.9666 29.4666 23.6499 29.5832 23.3332 29.5832Z" fill="#3B4045"/>
</svg>
