<svg id="Layer_1" data-name="Layer 1" xmlns="http://www.w3.org/2000/svg" viewBox="0 0 1080 318.02"><defs><style>.cls-1{fill:#eb306e;}.cls-2{fill:#0a0e14;}.cls-3{fill:#20ca78;}</style></defs><path class="cls-1" d="M89.16,133.85a3.48,3.48,0,0,1-2.47-1l-.26-.27-.06-.08a3.43,3.43,0,0,1-.93-2,81.47,81.47,0,0,1-.63-10.12,78.48,78.48,0,0,1,1.32-14.59A23.51,23.51,0,0,1,92.33,94a13.94,13.94,0,0,1,15.29-3.11,35.48,35.48,0,0,1,12.09,8.69,3.49,3.49,0,0,1,0,4.92L91.64,132.79a3.43,3.43,0,0,1-2.47,1Zm8-34.82A16.39,16.39,0,0,0,93,107.11a72.31,72.31,0,0,0-1.2,13.3c0,.77,0,1.54,0,2.32l20.44-20.63C104,94.76,100,96.37,97.11,99Z"/><path class="cls-1" d="M184.4,221.67a99.62,99.62,0,0,1-93.1-64.13,16.79,16.79,0,0,1,3.88-17.8l74.1-74.1a17.91,17.91,0,0,1,21.23-2,210.83,210.83,0,0,1,49.8,37c15.49,15.48,27.65,31.1,35.16,45.15A17.46,17.46,0,0,1,276.1,161a99.47,99.47,0,0,1-91.7,60.69M180.91,68.08a10.06,10.06,0,0,0-6.73,2.53l-74.07,74.06a9.82,9.82,0,0,0-2.29,10.38,92.65,92.65,0,0,0,171.85,3.21,10.5,10.5,0,0,0-.36-9.12c-7.19-13.46-18.92-28.5-33.94-43.51a203.92,203.92,0,0,0-48.2-35.81,13,13,0,0,0-6.26-1.74"/><path class="cls-2" d="M192.05,106.9a8.63,8.63,0,0,1-8.87,2.29A2.08,2.08,0,0,1,182,106.5a2.11,2.11,0,0,1,.48-.73l8.44-8.44a2.08,2.08,0,0,1,3.42.71,8.62,8.62,0,0,1-2.28,8.86"/><path class="cls-2" d="M216.54,130.79a8.63,8.63,0,0,1-8.86,2.3,2.09,2.09,0,0,1-.71-3.43l8.43-8.44a2.09,2.09,0,0,1,2.95,0,2.21,2.21,0,0,1,.48.73,8.61,8.61,0,0,1-2.29,8.86"/><path class="cls-2" d="M241.37,155a8.63,8.63,0,0,1-8.86,2.3,2.09,2.09,0,0,1-1.19-2.7,2.06,2.06,0,0,1,.48-.73l8.44-8.44a2.08,2.08,0,0,1,3.42.71,8.61,8.61,0,0,1-2.29,8.86"/><path class="cls-3" d="M183.25,256.93a132.08,132.08,0,0,0,112-61.93,3.52,3.52,0,0,0,.31-3.06l-5.44-13a2.79,2.79,0,0,0-5.06-.37c-20.49,37.32-58.1,59-101.84,59-47.62,0-87.24-25.65-105.79-69.52-.49-1.14-1-2.3-1.4-3.46A2.79,2.79,0,0,0,72.45,163a2.67,2.67,0,0,0-1,.63l-9.58,9.13a2.79,2.79,0,0,0-.61,3l.16.38a132,132,0,0,0,121.79,80.73Z"/><polygon class="cls-2" points="406.44 119.11 406.44 128.78 365.84 128.78 365.84 153.02 406.44 153.02 406.44 162.69 365.84 162.69 365.84 198.88 354.61 198.88 354.61 119.11 406.44 119.11"/><path class="cls-2" d="M423.05,139.64l3.22,11c4.18-7.16,11.22-11.94,21.14-11.94v10.39c-16.24,0-21.62,8.6-21.62,24.36v25.44h-10V139.64Z"/><path class="cls-2" d="M452.55,177.38V139.53h10V174.4c0,9.19,1.55,17.08,12.42,17.08,9.43,0,15.05-6.69,15.05-19.35v-32.6h10v59.35h-7.52l-2.51-8.6c-3.35,5.74-8.72,10-18.51,10-13.86,0-19-9.43-19-22.93"/><polygon class="cls-2" points="528.51 139.64 528.51 198.88 518.48 198.88 518.48 147.64 510.23 147.64 510.23 139.64 528.51 139.64"/><path class="cls-2" d="M546.9,139.64V124.71h10v14.93H568.4v8H556.94V182.4c0,6.09.35,7.65,6.08,7.65h5.38v8.83h-7.53c-11.34,0-14-2.51-14-14.81V147.64h-10v-8Z"/><path class="cls-2" d="M578.67,119.1h25c19.47,0,33.2,4.42,33.2,24.13s-13.73,23.88-33.2,23.88H589.9v31.65H578.67Zm11.23,9.44v28.9h14.68c11.59,0,20.79-1.19,20.79-14.21s-9.2-14.69-20.79-14.69Z"/><path class="cls-2" d="M645.92,177.38V139.53h10V174.4c0,9.19,1.55,17.08,12.42,17.08,9.43,0,15-6.69,15-19.35v-32.6h10v59.35h-7.53l-2.51-8.6c-3.34,5.74-8.72,10-18.51,10-13.85,0-19-9.43-19-22.93"/><path class="cls-2" d="M714,139.64l2.63,9c3.34-5.61,9.07-9.91,19.11-9.91,14.33,0,19.58,9.19,19.58,22.69v37.5h-10V164.37c0-9.08-1.55-17.08-13-17.08-9.67,0-15.64,6.8-15.64,19.46v32.13h-10V139.64Z"/><path class="cls-2" d="M763.08,169.5c0-17.67,11.11-30.81,28.66-30.81a24.94,24.94,0,0,1,22.34,13.37l-9.2,3.35A15.52,15.52,0,0,0,791,147.53c-9,0-17.08,6.92-17.08,21.85s8.24,22.1,17.08,22.1a16.13,16.13,0,0,0,14.09-7.77l9.2,3.35a27.17,27.17,0,0,1-23.65,13.25c-17,0-27.59-12.89-27.59-30.81"/><path class="cls-2" d="M833.07,119.1v29.5c3.35-5.61,9.08-9.91,19.11-9.91,14.33,0,19.59,9.19,19.59,22.69v37.5h-10V164.37c0-9.08-1.56-17.08-13-17.08-9.67,0-15.65,6.81-15.65,19.46v32.13H823V119.1Z"/><path class="cls-2" d="M937.34,119h12.54l29.85,79.9H967.79l-6.09-17.44H925.4l-6.1,17.44H907.36Zm-8.48,52.79h29.37l-14.68-41.44Z"/><polygon class="cls-2" points="996.46 190.04 996.46 127.94 985.23 127.94 985.23 119.11 1018.91 119.11 1018.91 127.94 1007.68 127.94 1007.68 190.04 1018.91 190.04 1018.91 198.88 985.23 198.88 985.23 190.04 996.46 190.04"/><path class="cls-2" d="M524.24,126.28A11.88,11.88,0,0,1,512,129.44a2.86,2.86,0,0,1-1.65-3.7,2.92,2.92,0,0,1,.67-1l11.64-11.64a2.87,2.87,0,0,1,4.06,0,3,3,0,0,1,.67,1A11.91,11.91,0,0,1,524.24,126.28Z"/></svg>